<svg id="DESIGNED_BY_FREEPIK" data-name="DESIGNED BY FREEPIK" xmlns="http://www.w3.org/2000/svg" viewBox="0 0 335.59 174.19"><defs><style>.cls-1{fill:#f4f4f3;}</style></defs><title>404</title><path class="cls-1" d="M0,117.1,49.21.73H78.73V117.1H91.52v24.61H78.73V173H51.67V141.71H0Zm51.67,0V53.38h-.5L24.85,117.1Z" transform="translate(0 -0.73)"/><path class="cls-1" d="M244.06,117.1,293.27.73h29.52V117.1h12.8v24.61h-12.8V173H295.73V141.71H244.06Zm51.67,0V53.38h-.49L268.91,117.1Z" transform="translate(0 -0.73)"/><path class="cls-1" d="M208.36,114.76v0a1.69,1.69,0,0,0-3.07-1.22l-.17-.11a1.14,1.14,0,0,0-1,.06s0,0,0,0a2.32,2.32,0,0,0-3-1.28,2.28,2.28,0,0,0-1.34,1.46.93.93,0,0,0-.39-.08.89.89,0,0,0-.9.71,1.42,1.42,0,0,0-1.9,0,1.21,1.21,0,0,0-2.34-.19l0,0a1.18,1.18,0,0,0-1.37.34,1.36,1.36,0,0,0-1.11-.5,1.41,1.41,0,0,0-1.09.47.58.58,0,0,0-.58-.47.86.86,0,0,0-.24,0,1.68,1.68,0,0,0-.28-.61,1.71,1.71,0,0,0-2.37-.39,1.64,1.64,0,0,0-.55.76,1.65,1.65,0,0,0-1.6,0,1.68,1.68,0,0,0-3.21.24c-.71.1-.46.85-.46.85v18.58c0,12.3-5.41,17-14,17s-14-4.68-14-17l0-18.58a1.69,1.69,0,0,0-3.07-1.24l-.17-.11a1.14,1.14,0,0,0-1,.06s0,0,0,0a2.32,2.32,0,0,0-3-1.28,2.28,2.28,0,0,0-1.34,1.46.93.93,0,0,0-.39-.08.89.89,0,0,0-.9.71,1.42,1.42,0,0,0-1.9,0,1.21,1.21,0,0,0-2.34-.19l0,0a1.18,1.18,0,0,0-1.37.34,1.36,1.36,0,0,0-1.11-.5,1.39,1.39,0,0,0-1.09.47.58.58,0,0,0-.58-.47.86.86,0,0,0-.24,0,1.68,1.68,0,0,0-.28-.61,1.71,1.71,0,0,0-2.37-.39,1.64,1.64,0,0,0-.55.76,1.65,1.65,0,0,0-1.6,0,1.68,1.68,0,0,0-3.21.24.63.63,0,0,0-.42.85h-.05v16.86c0,27.55,14.52,43.3,41.09,43.3s41.09-15.75,41.09-43.3V114.76Z" transform="translate(0 -0.73)"/><path class="cls-1" d="M128.79,107.51a1.7,1.7,0,1,0,1.7,1.7A1.7,1.7,0,0,0,128.79,107.51Z" transform="translate(0 -0.73)"/><path class="cls-1" d="M137.66,96.37a1.7,1.7,0,1,0,1.7-1.7A1.7,1.7,0,0,0,137.66,96.37Z" transform="translate(0 -0.73)"/><path class="cls-1" d="M144.47,92.22a1.2,1.2,0,1,0-1.2,1.2A1.2,1.2,0,0,0,144.47,92.22Z" transform="translate(0 -0.73)"/><path class="cls-1" d="M144.24,98.8a1.2,1.2,0,1,0,1.58-.64A1.2,1.2,0,0,0,144.24,98.8Z" transform="translate(0 -0.73)"/><path class="cls-1" d="M137.8,103.45a1.21,1.21,0,0,0,.94-2.22,1.21,1.21,0,0,0-.94,2.22Z" transform="translate(0 -0.73)"/><path class="cls-1" d="M150.85,109a1.2,1.2,0,1,0-.64-1.57A1.2,1.2,0,0,0,150.85,109Z" transform="translate(0 -0.73)"/><path class="cls-1" d="M139.62,111a1.2,1.2,0,1,0-2.21-.94,1.18,1.18,0,0,0-.1.48h0a1.28,1.28,0,0,0,0,2.55,1.21,1.21,0,0,0,1.22-1.35A1.22,1.22,0,0,0,139.62,111Z" transform="translate(0 -0.73)"/><path class="cls-1" d="M130.49,95.41a.64.64,0,0,0,0,1.27A.64.64,0,0,0,130.49,95.41Z" transform="translate(0 -0.73)"/><path class="cls-1" d="M132,111.86a.37.37,0,0,0,0-.74A.37.37,0,0,0,132,111.86Z" transform="translate(0 -0.73)"/><path class="cls-1" d="M142.07,110.85a.37.37,0,0,0,0-.74A.37.37,0,0,0,142.07,110.85Z" transform="translate(0 -0.73)"/><path class="cls-1" d="M143.05,105.84a.37.37,0,0,0,0,.74A.37.37,0,0,0,143.05,105.84Z" transform="translate(0 -0.73)"/><path class="cls-1" d="M130.23,99.46a.37.37,0,0,0,0,.74A.37.37,0,0,0,130.23,99.46Z" transform="translate(0 -0.73)"/><path class="cls-1" d="M150.55,104.86a.37.37,0,0,0,0-.74A.37.37,0,0,0,150.55,104.86Z" transform="translate(0 -0.73)"/><path class="cls-1" d="M145.35,95.62a.37.37,0,0,0,0,.74A.37.37,0,0,0,145.35,95.62Z" transform="translate(0 -0.73)"/><path class="cls-1" d="M141.48,100.69a.37.37,0,0,0,0,.74A.37.37,0,0,0,141.48,100.69Z" transform="translate(0 -0.73)"/><path class="cls-1" d="M141,72.43a.37.37,0,0,0,0-.74A.37.37,0,0,0,141,72.43Z" transform="translate(0 -0.73)"/><path class="cls-1" d="M129.87,53a.37.37,0,0,0,0-.74A.37.37,0,0,0,129.87,53Z" transform="translate(0 -0.73)"/><path class="cls-1" d="M140.89,36.27a.38.38,0,0,0,0,.75A.38.38,0,0,0,140.89,36.27Z" transform="translate(0 -0.73)"/><path class="cls-1" d="M137.43,24.93a.37.37,0,0,0,0,.74A.37.37,0,0,0,137.43,24.93Z" transform="translate(0 -0.73)"/><path class="cls-1" d="M137.28,33.84a.37.37,0,0,0,0-.74A.37.37,0,0,0,137.28,33.84Z" transform="translate(0 -0.73)"/><path class="cls-1" d="M139.36,43.45a.37.37,0,0,0,0-.74A.37.37,0,0,0,139.36,43.45Z" transform="translate(0 -0.73)"/><path class="cls-1" d="M126.83,41.12a.38.38,0,0,0,0-.75A.38.38,0,0,0,126.83,41.12Z" transform="translate(0 -0.73)"/><path class="cls-1" d="M132.57,48.09a.37.37,0,0,0,0,.74A.37.37,0,0,0,132.57,48.09Z" transform="translate(0 -0.73)"/><path class="cls-1" d="M128.79,37.39a.37.37,0,0,0,0-.74A.37.37,0,0,0,128.79,37.39Z" transform="translate(0 -0.73)"/><path class="cls-1" d="M149.55,46.82a.37.37,0,0,0,0,.74A.37.37,0,0,0,149.55,46.82Z" transform="translate(0 -0.73)"/><path class="cls-1" d="M145.86,41.49a.37.37,0,0,0,0-.74A.37.37,0,0,0,145.86,41.49Z" transform="translate(0 -0.73)"/><path class="cls-1" d="M148.25,35.9a.38.38,0,0,0,0,.75A.38.38,0,0,0,148.25,35.9Z" transform="translate(0 -0.73)"/><path class="cls-1" d="M134.31,98.06a.38.38,0,0,0,0,.75A.38.38,0,0,0,134.31,98.06Z" transform="translate(0 -0.73)"/><path class="cls-1" d="M139.19,91.32a.37.37,0,0,0,0-.74A.37.37,0,0,0,139.19,91.32Z" transform="translate(0 -0.73)"/><path class="cls-1" d="M147.9,91a.37.37,0,0,0,0-.74A.37.37,0,0,0,147.9,91Z" transform="translate(0 -0.73)"/><path class="cls-1" d="M134.5,87.29a.37.37,0,0,0,0,.74A.37.37,0,0,0,134.5,87.29Z" transform="translate(0 -0.73)"/><path class="cls-1" d="M129.43,86.22a.37.37,0,0,0,0-.74A.37.37,0,0,0,129.43,86.22Z" transform="translate(0 -0.73)"/><path class="cls-1" d="M137.07,81.4a.37.37,0,0,0,0,.74A.37.37,0,0,0,137.07,81.4Z" transform="translate(0 -0.73)"/><path class="cls-1" d="M129.87,112.87a.37.37,0,0,0,0-.74A.37.37,0,0,0,129.87,112.87Z" transform="translate(0 -0.73)"/><path class="cls-1" d="M126.21,100.5a.64.64,0,0,0,0,1.28A.64.64,0,0,0,126.21,100.5Z" transform="translate(0 -0.73)"/><path class="cls-1" d="M139.19,84.58a1.28,1.28,0,0,0,0,2.55A1.28,1.28,0,0,0,139.19,84.58Z" transform="translate(0 -0.73)"/><path class="cls-1" d="M132.82,84.37a.64.64,0,0,0,0-1.28A.64.64,0,0,0,132.82,84.37Z" transform="translate(0 -0.73)"/><path class="cls-1" d="M126.21,83.73a.64.64,0,0,0,0-1.27A.64.64,0,0,0,126.21,83.73Z" transform="translate(0 -0.73)"/><path class="cls-1" d="M142.5,74.49a.72.72,0,0,0-1.27,0,.61.61,0,0,0,.5.93A.66.66,0,0,0,142.5,74.49Z" transform="translate(0 -0.73)"/><path class="cls-1" d="M151.93,89.68a.64.64,0,0,0,0-1.28A.64.64,0,0,0,151.93,89.68Z" transform="translate(0 -0.73)"/><path class="cls-1" d="M146.3,87.5a.64.64,0,0,0,0-1.28A.64.64,0,0,0,146.3,87.5Z" transform="translate(0 -0.73)"/><path class="cls-1" d="M151.93,101.78a.64.64,0,0,0,0-1.28A.64.64,0,0,0,151.93,101.78Z" transform="translate(0 -0.73)"/><path class="cls-1" d="M148.53,109.42v-.21a.64.64,0,0,0-1.27,0v.21A.64.64,0,0,0,148.53,109.42Z" transform="translate(0 -0.73)"/><path class="cls-1" d="M149,93.07a1.28,1.28,0,0,0,0,2.55A1.28,1.28,0,0,0,149,93.07Z" transform="translate(0 -0.73)"/><path class="cls-1" d="M149.38,82.67a1.28,1.28,0,0,0,0,2.55A1.28,1.28,0,0,0,149.38,82.67Z" transform="translate(0 -0.73)"/><path class="cls-1" d="M129.43,91.59a1.28,1.28,0,0,0,0-2.55A1.28,1.28,0,0,0,129.43,91.59Z" transform="translate(0 -0.73)"/><path class="cls-1" d="M134.31,103.26v-.21a1.28,1.28,0,0,0-2.55,0v.21A1.28,1.28,0,0,0,134.31,103.26Z" transform="translate(0 -0.73)"/><path class="cls-1" d="M134.31,109.63a1.28,1.28,0,0,0,0-2.55A1.28,1.28,0,0,0,134.31,109.63Z" transform="translate(0 -0.73)"/><path class="cls-1" d="M146,102.41a1.28,1.28,0,0,0,0,2.55A1.28,1.28,0,0,0,146,102.41Z" transform="translate(0 -0.73)"/><path class="cls-1" d="M143,112.6a.64.64,0,0,0,0-1.27A.64.64,0,0,0,143,112.6Z" transform="translate(0 -0.73)"/><path class="cls-1" d="M145.35,111.89a1,1,0,0,0,0-2A1,1,0,0,0,145.35,111.89Z" transform="translate(0 -0.73)"/><path class="cls-1" d="M144.5,109.11a.64.64,0,0,0,0-1.28A.64.64,0,0,0,144.5,109.11Z" transform="translate(0 -0.73)"/><path class="cls-1" d="M140.17,105.31a.64.64,0,0,0,0,1.27A.64.64,0,0,0,140.17,105.31Z" transform="translate(0 -0.73)"/><path class="cls-1" d="M140.89,112.77a.64.64,0,0,0,0-1.28A.64.64,0,0,0,140.89,112.77Z" transform="translate(0 -0.73)"/><path class="cls-1" d="M137.07,78.21a.64.64,0,0,0,0-1.27A.64.64,0,0,0,137.07,78.21Z" transform="translate(0 -0.73)"/><path class="cls-1" d="M135,69.08a1.28,1.28,0,0,0,0,2.55A1.28,1.28,0,0,0,135,69.08Z" transform="translate(0 -0.73)"/><path class="cls-1" d="M148.32,73.33a1.28,1.28,0,0,0,0-2.55A1.28,1.28,0,0,0,148.32,73.33Z" transform="translate(0 -0.73)"/><path class="cls-1" d="M147.09,59.53a1.28,1.28,0,0,0,0-2.55A1.28,1.28,0,0,0,147.09,59.53Z" transform="translate(0 -0.73)"/><path class="cls-1" d="M143.05,60.8a1.27,1.27,0,0,0,0-2.54A1.27,1.27,0,0,0,143.05,60.8Z" transform="translate(0 -0.73)"/><path class="cls-1" d="M126.83,50.11a1.28,1.28,0,0,0,0-2.55A1.28,1.28,0,0,0,126.83,50.11Z" transform="translate(0 -0.73)"/><path class="cls-1" d="M142,66.75a1.28,1.28,0,0,0,0-2.55A1.28,1.28,0,0,0,142,66.75Z" transform="translate(0 -0.73)"/><path class="cls-1" d="M149.38,65.47a1.27,1.27,0,0,0,0-2.54A1.27,1.27,0,0,0,149.38,65.47Z" transform="translate(0 -0.73)"/><path class="cls-1" d="M144.5,78.85a1.28,1.28,0,0,0,0,2.55A1.28,1.28,0,0,0,144.5,78.85Z" transform="translate(0 -0.73)"/><path class="cls-1" d="M138.51,48.46a1.27,1.27,0,0,0,0-2.54A1.27,1.27,0,0,0,138.51,48.46Z" transform="translate(0 -0.73)"/><path class="cls-1" d="M144.5,32.57a1.28,1.28,0,0,0,0,2.55A1.28,1.28,0,0,0,144.5,32.57Z" transform="translate(0 -0.73)"/><path class="cls-1" d="M150.66,78.21a.64.64,0,0,0,0-1.27A.64.64,0,0,0,150.66,78.21Z" transform="translate(0 -0.73)"/><path class="cls-1" d="M150,52.63a.64.64,0,0,0,0-1.27A.64.64,0,0,0,150,52.63Z" transform="translate(0 -0.73)"/><path class="cls-1" d="M131.34,76.3a1.28,1.28,0,0,0,0,2.55A1.28,1.28,0,0,0,131.34,76.3Z" transform="translate(0 -0.73)"/><path class="cls-1" d="M127.09,70.36a1.27,1.27,0,0,0,0,2.54A1.27,1.27,0,0,0,127.09,70.36Z" transform="translate(0 -0.73)"/><path class="cls-1" d="M126.83,60.8a1.27,1.27,0,0,0,0-2.54A1.27,1.27,0,0,0,126.83,60.8Z" transform="translate(0 -0.73)"/><path class="cls-1" d="M130.7,70.15a.64.64,0,0,0,0-1.28A.64.64,0,0,0,130.7,70.15Z" transform="translate(0 -0.73)"/><path class="cls-1" d="M139.83,61.44a.64.64,0,0,0,0,1.28A.64.64,0,0,0,139.83,61.44Z" transform="translate(0 -0.73)"/><path class="cls-1" d="M138.66,55.73a.63.63,0,0,0-.3,1.23A.63.63,0,0,0,138.66,55.73Z" transform="translate(0 -0.73)"/><path class="cls-1" d="M135.39,38.27a.63.63,0,0,0,.3-1.23A.63.63,0,0,0,135.39,38.27Z" transform="translate(0 -0.73)"/><path class="cls-1" d="M134,30.21a.63.63,0,0,0,.3-1.23A.63.63,0,0,0,134,30.21Z" transform="translate(0 -0.73)"/><path class="cls-1" d="M149.89,38.91a.63.63,0,0,0,.3-1.23A.63.63,0,0,0,149.89,38.91Z" transform="translate(0 -0.73)"/><path class="cls-1" d="M133.72,53.91a.64.64,0,0,0,0-1.28A.64.64,0,0,0,133.72,53.91Z" transform="translate(0 -0.73)"/><path class="cls-1" d="M135.37,63.14a.64.64,0,0,0,0,1.27A.64.64,0,0,0,135.37,63.14Z" transform="translate(0 -0.73)"/><path class="cls-1" d="M132.82,61.44a.64.64,0,0,0,0-1.27A.64.64,0,0,0,132.82,61.44Z" transform="translate(0 -0.73)"/><path class="cls-1" d="M142.61,53.27a.64.64,0,0,0,0-1.28A.64.64,0,0,0,142.61,53.27Z" transform="translate(0 -0.73)"/><path class="cls-1" d="M144.47,46.18a.64.64,0,0,0,0,1.28A.64.64,0,0,0,144.47,46.18Z" transform="translate(0 -0.73)"/><path class="cls-1" d="M147.73,30.24a.64.64,0,0,0,0,1.27A.64.64,0,0,0,147.73,30.24Z" transform="translate(0 -0.73)"/><path class="cls-1" d="M143.4,25.67a.64.64,0,0,0,0,1.27A.64.64,0,0,0,143.4,25.67Z" transform="translate(0 -0.73)"/><path class="cls-1" d="M141.13,30.24a.64.64,0,0,0,0,1.27A.64.64,0,0,0,141.13,30.24Z" transform="translate(0 -0.73)"/><path class="cls-1" d="M132.32,34.48a.64.64,0,0,0,0-1.27A.64.64,0,0,0,132.32,34.48Z" transform="translate(0 -0.73)"/><path class="cls-1" d="M128.06,32.15a.64.64,0,0,0,0-1.28A.64.64,0,0,0,128.06,32.15Z" transform="translate(0 -0.73)"/><path class="cls-1" d="M130.49,43.08a.64.64,0,0,0,0,1.27A.64.64,0,0,0,130.49,43.08Z" transform="translate(0 -0.73)"/><path class="cls-1" d="M149,69.08a.64.64,0,0,0,0-1.27A.64.64,0,0,0,149,69.08Z" transform="translate(0 -0.73)"/><path class="cls-1" d="M135.37,91a1.28,1.28,0,0,0,0,2.55A1.28,1.28,0,0,0,135.37,91Z" transform="translate(0 -0.73)"/><path class="cls-1" d="M141.13,83.73a.64.64,0,0,0,0-1.27A.64.64,0,0,0,141.13,83.73Z" transform="translate(0 -0.73)"/><path class="cls-1" d="M183.89,107.51a1.7,1.7,0,1,0,1.7,1.7A1.7,1.7,0,0,0,183.89,107.51Z" transform="translate(0 -0.73)"/><path class="cls-1" d="M194.46,98.06a1.7,1.7,0,1,0-1.7-1.69A1.7,1.7,0,0,0,194.46,98.06Z" transform="translate(0 -0.73)"/><path class="cls-1" d="M199.57,92.22a1.2,1.2,0,1,0-1.2,1.2A1.2,1.2,0,0,0,199.57,92.22Z" transform="translate(0 -0.73)"/><path class="cls-1" d="M199.34,98.8a1.2,1.2,0,1,0,1.58-.64A1.2,1.2,0,0,0,199.34,98.8Z" transform="translate(0 -0.73)"/><path class="cls-1" d="M192.27,101.87a1.2,1.2,0,0,0,.63,1.58,1.21,1.21,0,0,0,.94-2.22A1.2,1.2,0,0,0,192.27,101.87Z" transform="translate(0 -0.73)"/><path class="cls-1" d="M206,109a1.2,1.2,0,1,0-.64-1.57A1.2,1.2,0,0,0,206,109Z" transform="translate(0 -0.73)"/><path class="cls-1" d="M194.72,111a1.2,1.2,0,1,0-2.21-.94,1.18,1.18,0,0,0-.1.48h0a1.28,1.28,0,0,0,0,2.55,1.21,1.21,0,0,0,1.22-1.35A1.22,1.22,0,0,0,194.72,111Z" transform="translate(0 -0.73)"/><path class="cls-1" d="M185.59,95.41a.64.64,0,0,0,0,1.27A.64.64,0,0,0,185.59,95.41Z" transform="translate(0 -0.73)"/><path class="cls-1" d="M187.06,111.86a.37.37,0,0,0,0-.74A.37.37,0,0,0,187.06,111.86Z" transform="translate(0 -0.73)"/><path class="cls-1" d="M197.17,110.85a.37.37,0,0,0,0-.74A.37.37,0,0,0,197.17,110.85Z" transform="translate(0 -0.73)"/><path class="cls-1" d="M198.15,105.84a.37.37,0,0,0,0,.74A.37.37,0,0,0,198.15,105.84Z" transform="translate(0 -0.73)"/><path class="cls-1" d="M185.33,99.46a.37.37,0,0,0,0,.74A.37.37,0,0,0,185.33,99.46Z" transform="translate(0 -0.73)"/><path class="cls-1" d="M205.65,104.86a.37.37,0,0,0,0-.74A.37.37,0,0,0,205.65,104.86Z" transform="translate(0 -0.73)"/><path class="cls-1" d="M200.45,95.62a.37.37,0,0,0,0,.74A.37.37,0,0,0,200.45,95.62Z" transform="translate(0 -0.73)"/><path class="cls-1" d="M196.58,100.69a.37.37,0,0,0,0,.74A.37.37,0,0,0,196.58,100.69Z" transform="translate(0 -0.73)"/><path class="cls-1" d="M196.05,71.69a.37.37,0,0,0,0,.74A.37.37,0,0,0,196.05,71.69Z" transform="translate(0 -0.73)"/><path class="cls-1" d="M185,53a.37.37,0,0,0,0-.74A.37.37,0,0,0,185,53Z" transform="translate(0 -0.73)"/><path class="cls-1" d="M196,36.27a.38.38,0,0,0,0,.75A.38.38,0,0,0,196,36.27Z" transform="translate(0 -0.73)"/><path class="cls-1" d="M192.53,25.67a.37.37,0,0,0,0-.74A.37.37,0,0,0,192.53,25.67Z" transform="translate(0 -0.73)"/><path class="cls-1" d="M192.38,33.1a.37.37,0,0,0,0,.74A.37.37,0,0,0,192.38,33.1Z" transform="translate(0 -0.73)"/><path class="cls-1" d="M194.46,43.45a.37.37,0,0,0,0-.74A.37.37,0,0,0,194.46,43.45Z" transform="translate(0 -0.73)"/><path class="cls-1" d="M181.93,41.12a.38.38,0,0,0,0-.75A.38.38,0,0,0,181.93,41.12Z" transform="translate(0 -0.73)"/><path class="cls-1" d="M187.67,48.09a.37.37,0,0,0,0,.74A.37.37,0,0,0,187.67,48.09Z" transform="translate(0 -0.73)"/><path class="cls-1" d="M183.89,36.65a.37.37,0,0,0,0,.74A.37.37,0,0,0,183.89,36.65Z" transform="translate(0 -0.73)"/><path class="cls-1" d="M204.65,47.56a.37.37,0,0,0,0-.74A.37.37,0,0,0,204.65,47.56Z" transform="translate(0 -0.73)"/><path class="cls-1" d="M201,40.75a.37.37,0,0,0,0,.74A.37.37,0,0,0,201,40.75Z" transform="translate(0 -0.73)"/><path class="cls-1" d="M203.35,36.65a.38.38,0,0,0,0-.75A.38.38,0,0,0,203.35,36.65Z" transform="translate(0 -0.73)"/><path class="cls-1" d="M189.41,98.81a.38.38,0,0,0,0-.75A.38.38,0,0,0,189.41,98.81Z" transform="translate(0 -0.73)"/><path class="cls-1" d="M194.29,91.32a.37.37,0,0,0,0-.74A.37.37,0,0,0,194.29,91.32Z" transform="translate(0 -0.73)"/><path class="cls-1" d="M203,91a.37.37,0,0,0,0-.74A.37.37,0,0,0,203,91Z" transform="translate(0 -0.73)"/><path class="cls-1" d="M189.6,88a.37.37,0,0,0,0-.74A.37.37,0,0,0,189.6,88Z" transform="translate(0 -0.73)"/><path class="cls-1" d="M184.53,86.22a.37.37,0,0,0,0-.74A.37.37,0,0,0,184.53,86.22Z" transform="translate(0 -0.73)"/><path class="cls-1" d="M192.17,81.4a.37.37,0,0,0,0,.74A.37.37,0,0,0,192.17,81.4Z" transform="translate(0 -0.73)"/><path class="cls-1" d="M185,112.87a.37.37,0,0,0,0-.74A.37.37,0,0,0,185,112.87Z" transform="translate(0 -0.73)"/><path class="cls-1" d="M181.31,101.78a.64.64,0,0,0,0-1.28A.64.64,0,0,0,181.31,101.78Z" transform="translate(0 -0.73)"/><path class="cls-1" d="M194.29,84.58a1.28,1.28,0,0,0,0,2.55A1.28,1.28,0,0,0,194.29,84.58Z" transform="translate(0 -0.73)"/><path class="cls-1" d="M187.92,84.37a.64.64,0,0,0,0-1.28A.64.64,0,0,0,187.92,84.37Z" transform="translate(0 -0.73)"/><path class="cls-1" d="M181.31,82.46a.64.64,0,0,0,0,1.27A.64.64,0,0,0,181.31,82.46Z" transform="translate(0 -0.73)"/><path class="cls-1" d="M196.83,75.42a.66.66,0,0,0,.77-.93.72.72,0,0,0-1.27,0A.61.61,0,0,0,196.83,75.42Z" transform="translate(0 -0.73)"/><path class="cls-1" d="M207,89.68a.64.64,0,0,0,0-1.28A.64.64,0,0,0,207,89.68Z" transform="translate(0 -0.73)"/><path class="cls-1" d="M201.4,86.22a.64.64,0,0,0,0,1.28A.64.64,0,0,0,201.4,86.22Z" transform="translate(0 -0.73)"/><path class="cls-1" d="M207,101.78a.64.64,0,0,0,0-1.28A.64.64,0,0,0,207,101.78Z" transform="translate(0 -0.73)"/><path class="cls-1" d="M203.63,109.42v-.21a.64.64,0,0,0-1.27,0v.21A.64.64,0,0,0,203.63,109.42Z" transform="translate(0 -0.73)"/><path class="cls-1" d="M204.06,93.07a1.28,1.28,0,0,0,0,2.55A1.28,1.28,0,0,0,204.06,93.07Z" transform="translate(0 -0.73)"/><path class="cls-1" d="M204.48,82.67a1.28,1.28,0,0,0,0,2.55A1.28,1.28,0,0,0,204.48,82.67Z" transform="translate(0 -0.73)"/><path class="cls-1" d="M184.53,91.59a1.28,1.28,0,0,0,0-2.55A1.28,1.28,0,0,0,184.53,91.59Z" transform="translate(0 -0.73)"/><path class="cls-1" d="M189.41,103.26v-.21a1.28,1.28,0,0,0-2.55,0v.21A1.28,1.28,0,0,0,189.41,103.26Z" transform="translate(0 -0.73)"/><path class="cls-1" d="M189.41,109.63a1.28,1.28,0,0,0,0-2.55A1.28,1.28,0,0,0,189.41,109.63Z" transform="translate(0 -0.73)"/><path class="cls-1" d="M201.09,102.41a1.28,1.28,0,0,0,0,2.55A1.28,1.28,0,0,0,201.09,102.41Z" transform="translate(0 -0.73)"/><path class="cls-1" d="M198.11,112.6a.64.64,0,0,0,0-1.27A.64.64,0,0,0,198.11,112.6Z" transform="translate(0 -0.73)"/><path class="cls-1" d="M200.45,111.89a1,1,0,0,0,0-2A1,1,0,0,0,200.45,111.89Z" transform="translate(0 -0.73)"/><path class="cls-1" d="M199.6,109.11a.64.64,0,0,0,0-1.28A.64.64,0,0,0,199.6,109.11Z" transform="translate(0 -0.73)"/><path class="cls-1" d="M195.27,105.31a.64.64,0,0,0,0,1.27A.64.64,0,0,0,195.27,105.31Z" transform="translate(0 -0.73)"/><path class="cls-1" d="M196,112.77a.64.64,0,0,0,0-1.28A.64.64,0,0,0,196,112.77Z" transform="translate(0 -0.73)"/><path class="cls-1" d="M192.17,78.21a.64.64,0,0,0,0-1.27A.64.64,0,0,0,192.17,78.21Z" transform="translate(0 -0.73)"/><path class="cls-1" d="M190.05,69.08a1.28,1.28,0,0,0,0,2.55A1.28,1.28,0,0,0,190.05,69.08Z" transform="translate(0 -0.73)"/><path class="cls-1" d="M203.42,73.33a1.28,1.28,0,0,0,0-2.55A1.28,1.28,0,0,0,203.42,73.33Z" transform="translate(0 -0.73)"/><path class="cls-1" d="M202.19,57a1.28,1.28,0,0,0,0,2.55A1.28,1.28,0,0,0,202.19,57Z" transform="translate(0 -0.73)"/><path class="cls-1" d="M198.15,60.8a1.27,1.27,0,0,0,0-2.54A1.27,1.27,0,0,0,198.15,60.8Z" transform="translate(0 -0.73)"/><path class="cls-1" d="M181.93,47.56a1.28,1.28,0,0,0,0,2.55A1.28,1.28,0,0,0,181.93,47.56Z" transform="translate(0 -0.73)"/><path class="cls-1" d="M197.05,64.2a1.28,1.28,0,0,0,0,2.55A1.28,1.28,0,0,0,197.05,64.2Z" transform="translate(0 -0.73)"/><path class="cls-1" d="M204.48,65.47a1.27,1.27,0,0,0,0-2.54A1.27,1.27,0,0,0,204.48,65.47Z" transform="translate(0 -0.73)"/><path class="cls-1" d="M199.6,81.4a1.28,1.28,0,0,0,0-2.55A1.28,1.28,0,0,0,199.6,81.4Z" transform="translate(0 -0.73)"/><path class="cls-1" d="M193.61,48.46a1.27,1.27,0,0,0,0-2.54A1.27,1.27,0,0,0,193.61,48.46Z" transform="translate(0 -0.73)"/><path class="cls-1" d="M199.6,35.12a1.28,1.28,0,0,0,0-2.55A1.28,1.28,0,0,0,199.6,35.12Z" transform="translate(0 -0.73)"/><path class="cls-1" d="M205.76,78.21a.64.64,0,0,0,0-1.27A.64.64,0,0,0,205.76,78.21Z" transform="translate(0 -0.73)"/><path class="cls-1" d="M205.14,51.36a.64.64,0,0,0,0,1.27A.64.64,0,0,0,205.14,51.36Z" transform="translate(0 -0.73)"/><path class="cls-1" d="M186.44,78.85a1.28,1.28,0,0,0,0-2.55A1.28,1.28,0,0,0,186.44,78.85Z" transform="translate(0 -0.73)"/><path class="cls-1" d="M182.19,70.36a1.27,1.27,0,0,0,0,2.54A1.27,1.27,0,0,0,182.19,70.36Z" transform="translate(0 -0.73)"/><path class="cls-1" d="M181.93,60.8a1.27,1.27,0,0,0,0-2.54A1.27,1.27,0,0,0,181.93,60.8Z" transform="translate(0 -0.73)"/><path class="cls-1" d="M185.8,70.15a.64.64,0,0,0,0-1.28A.64.64,0,0,0,185.8,70.15Z" transform="translate(0 -0.73)"/><path class="cls-1" d="M194.93,61.44a.64.64,0,0,0,0,1.28A.64.64,0,0,0,194.93,61.44Z" transform="translate(0 -0.73)"/><path class="cls-1" d="M193.46,57a.63.63,0,0,0,.31-1.23A.63.63,0,0,0,193.46,57Z" transform="translate(0 -0.73)"/><path class="cls-1" d="M190.79,37a.63.63,0,0,0-.3,1.23A.63.63,0,0,0,190.79,37Z" transform="translate(0 -0.73)"/><path class="cls-1" d="M189.39,29a.63.63,0,0,0-.3,1.23A.63.63,0,0,0,189.39,29Z" transform="translate(0 -0.73)"/><path class="cls-1" d="M205,38.91a.63.63,0,0,0,.3-1.23A.63.63,0,0,0,205,38.91Z" transform="translate(0 -0.73)"/><path class="cls-1" d="M188.82,53.91a.64.64,0,0,0,0-1.28A.64.64,0,0,0,188.82,53.91Z" transform="translate(0 -0.73)"/><path class="cls-1" d="M190.47,64.41a.64.64,0,0,0,0-1.27A.64.64,0,0,0,190.47,64.41Z" transform="translate(0 -0.73)"/><path class="cls-1" d="M187.92,61.44a.64.64,0,0,0,0-1.27A.64.64,0,0,0,187.92,61.44Z" transform="translate(0 -0.73)"/><path class="cls-1" d="M197.71,53.27a.64.64,0,0,0,0-1.28A.64.64,0,0,0,197.71,53.27Z" transform="translate(0 -0.73)"/><path class="cls-1" d="M199.57,46.18a.64.64,0,0,0,0,1.28A.64.64,0,0,0,199.57,46.18Z" transform="translate(0 -0.73)"/><path class="cls-1" d="M202.83,31.51a.64.64,0,0,0,0-1.27A.64.64,0,0,0,202.83,31.51Z" transform="translate(0 -0.73)"/><path class="cls-1" d="M198.5,26.94a.64.64,0,0,0,0-1.27A.64.64,0,0,0,198.5,26.94Z" transform="translate(0 -0.73)"/><path class="cls-1" d="M196.23,31.51a.64.64,0,0,0,0-1.27A.64.64,0,0,0,196.23,31.51Z" transform="translate(0 -0.73)"/><path class="cls-1" d="M187.42,34.48a.64.64,0,0,0,0-1.27A.64.64,0,0,0,187.42,34.48Z" transform="translate(0 -0.73)"/><path class="cls-1" d="M183.16,32.15a.64.64,0,0,0,0-1.28A.64.64,0,0,0,183.16,32.15Z" transform="translate(0 -0.73)"/><path class="cls-1" d="M161.33,23.29a.37.37,0,0,0,0-.74A.37.37,0,0,0,161.33,23.29Z" transform="translate(0 -0.73)"/><path class="cls-1" d="M169.05,11.57a.37.37,0,0,0,0-.74A.37.37,0,0,0,169.05,11.57Z" transform="translate(0 -0.73)"/><path class="cls-1" d="M155.62,5.91a.37.37,0,0,0,0-.74A.37.37,0,0,0,155.62,5.91Z" transform="translate(0 -0.73)"/><path class="cls-1" d="M154.76,3.6a.37.37,0,0,0,0-.74A.37.37,0,0,0,154.76,3.6Z" transform="translate(0 -0.73)"/><path class="cls-1" d="M158.81,2.79a.37.37,0,0,0,0-.74A.37.37,0,0,0,158.81,2.79Z" transform="translate(0 -0.73)"/><path class="cls-1" d="M167.81,1.47a.37.37,0,0,0,0-.74A.37.37,0,0,0,167.81,1.47Z" transform="translate(0 -0.73)"/><path class="cls-1" d="M188.45,2.21a.37.37,0,0,0,0-.74A.37.37,0,0,0,188.45,2.21Z" transform="translate(0 -0.73)"/><path class="cls-1" d="M145.21,2.42a.37.37,0,0,0,0-.74A.37.37,0,0,0,145.21,2.42Z" transform="translate(0 -0.73)"/><path class="cls-1" d="M157.72,20.12a.37.37,0,0,0,0-.74A.37.37,0,0,0,157.72,20.12Z" transform="translate(0 -0.73)"/><path class="cls-1" d="M147.27,26.65a.37.37,0,0,0,0,.74A.37.37,0,0,0,147.27,26.65Z" transform="translate(0 -0.73)"/><path class="cls-1" d="M149.23,23.66a.37.37,0,0,0,0-.74A.37.37,0,0,0,149.23,23.66Z" transform="translate(0 -0.73)"/><path class="cls-1" d="M166.3,27.76a.37.37,0,0,0,0-.74A.37.37,0,0,0,166.3,27.76Z" transform="translate(0 -0.73)"/><path class="cls-1" d="M170.36,21a.37.37,0,0,0,0-.74A.37.37,0,0,0,170.36,21Z" transform="translate(0 -0.73)"/><path class="cls-1" d="M167.21,14.49a1.28,1.28,0,0,0,0-2.55A1.28,1.28,0,0,0,167.21,14.49Z" transform="translate(0 -0.73)"/><path class="cls-1" d="M155.83,24.55a.64.64,0,0,0,.3-1.24A.64.64,0,0,0,155.83,24.55Z" transform="translate(0 -0.73)"/><path class="cls-1" d="M157.61,16.51a.64.64,0,0,0-.3,1.24A.64.64,0,0,0,157.61,16.51Z" transform="translate(0 -0.73)"/><path class="cls-1" d="M170.33,25.19a.64.64,0,0,0,.3-1.24A.64.64,0,0,0,170.33,25.19Z" transform="translate(0 -0.73)"/><path class="cls-1" d="M168.17,17.78a.64.64,0,0,0,0-1.27A.64.64,0,0,0,168.17,17.78Z" transform="translate(0 -0.73)"/><path class="cls-1" d="M163.85,13.22a.64.64,0,0,0,0-1.28A.64.64,0,0,0,163.85,13.22Z" transform="translate(0 -0.73)"/><path class="cls-1" d="M161.57,17.78a.64.64,0,0,0,0-1.27A.64.64,0,0,0,161.57,17.78Z" transform="translate(0 -0.73)"/><path class="cls-1" d="M158.94,9.91a.64.64,0,0,0,0,1.27A.64.64,0,0,0,158.94,9.91Z" transform="translate(0 -0.73)"/><path class="cls-1" d="M152.76,20.76a.64.64,0,0,0,0-1.28A.64.64,0,0,0,152.76,20.76Z" transform="translate(0 -0.73)"/><path class="cls-1" d="M145.61,23a.64.64,0,0,0,0,1.28A.64.64,0,0,0,145.61,23Z" transform="translate(0 -0.73)"/><path class="cls-1" d="M146.3,13.82c-.33.34.2.86.53.51S146.63,13.47,146.3,13.82Z" transform="translate(0 -0.73)"/><path class="cls-1" d="M136.91,10c.33-.34-.2-.86-.53-.52A.37.37,0,0,0,136.91,10Z" transform="translate(0 -0.73)"/><path class="cls-1" d="M142.69,15.75c.34-.34-.2-.86-.53-.51A.37.37,0,0,0,142.69,15.75Z" transform="translate(0 -0.73)"/><path class="cls-1" d="M140.66,28.33c.34-.34-.19-.86-.53-.52S140.33,28.67,140.66,28.33Z" transform="translate(0 -0.73)"/><path class="cls-1" d="M138.81,23.81c-.33.34.2.85.54.51S139.14,23.46,138.81,23.81Z" transform="translate(0 -0.73)"/><path class="cls-1" d="M154.9,16.12a.37.37,0,0,0-.54-.51A.37.37,0,0,0,154.9,16.12Z" transform="translate(0 -0.73)"/><path class="cls-1" d="M152.33,9.8c.33-.34-.2-.86-.53-.51S152,10.15,152.33,9.8Z" transform="translate(0 -0.73)"/><path class="cls-1" d="M152,3.05a.37.37,0,0,0-.53-.52C151.09,2.87,151.63,3.39,152,3.05Z" transform="translate(0 -0.73)"/><path class="cls-1" d="M139.26,6.17a.38.38,0,0,0-.54-.52A.38.38,0,0,0,139.26,6.17Z" transform="translate(0 -0.73)"/><path class="cls-1" d="M150.33,11.44a1.28,1.28,0,0,0-1.84-1.77A1.28,1.28,0,0,0,150.33,11.44Z" transform="translate(0 -0.73)"/><path class="cls-1" d="M166.32,8.79A1.27,1.27,0,0,0,164.49,7,1.27,1.27,0,0,0,166.32,8.79Z" transform="translate(0 -0.73)"/><path class="cls-1" d="M148.15,20.75a.64.64,0,0,0-.68-1.08A.64.64,0,0,0,148.15,20.75Z" transform="translate(0 -0.73)"/><path class="cls-1" d="M137.8,15.6a.64.64,0,0,0-.68-1.08A.64.64,0,0,0,137.8,15.6Z" transform="translate(0 -0.73)"/><path class="cls-1" d="M155.1,10.2a.64.64,0,0,0-.68-1.08A.64.64,0,0,0,155.1,10.2Z" transform="translate(0 -0.73)"/><path class="cls-1" d="M161.31,5.44a.64.64,0,0,0-.67-1.08A.64.64,0,0,0,161.31,5.44Z" transform="translate(0 -0.73)"/><path class="cls-1" d="M148.27,6.61a.64.64,0,0,0-.92-.88A.64.64,0,0,0,148.27,6.61Z" transform="translate(0 -0.73)"/><path class="cls-1" d="M142,6.55a.64.64,0,0,0-.92-.88A.64.64,0,0,0,142,6.55Z" transform="translate(0 -0.73)"/><path class="cls-1" d="M142.51,11.64a.63.63,0,0,0-.91-.88A.63.63,0,0,0,142.51,11.64Z" transform="translate(0 -0.73)"/><path class="cls-1" d="M137.89,19.39a.64.64,0,0,0-.92-.88A.64.64,0,0,0,137.89,19.39Z" transform="translate(0 -0.73)"/><path class="cls-1" d="M131,25.74a.64.64,0,0,0-.92-.88A.64.64,0,0,0,131,25.74Z" transform="translate(0 -0.73)"/><path class="cls-1" d="M133.39,19.75a.64.64,0,0,0-.91-.89A.64.64,0,0,0,133.39,19.75Z" transform="translate(0 -0.73)"/><path class="cls-1" d="M131.56,15.94a.64.64,0,0,0-.91-.89A.64.64,0,0,0,131.56,15.94Z" transform="translate(0 -0.73)"/><path class="cls-1" d="M176.78,5.91a.37.37,0,0,0,0-.74A.37.37,0,0,0,176.78,5.91Z" transform="translate(0 -0.73)"/><path class="cls-1" d="M174.68,20.12a.37.37,0,0,0,0-.74A.37.37,0,0,0,174.68,20.12Z" transform="translate(0 -0.73)"/><path class="cls-1" d="M172.09,18.15a.37.37,0,0,0,0-.74A.37.37,0,0,0,172.09,18.15Z" transform="translate(0 -0.73)"/><path class="cls-1" d="M170.36,23.29a.37.37,0,0,0,0-.74A.37.37,0,0,0,170.36,23.29Z" transform="translate(0 -0.73)"/><path class="cls-1" d="M178.8,19a.37.37,0,0,0,0,.74A.37.37,0,0,0,178.8,19Z" transform="translate(0 -0.73)"/><path class="cls-1" d="M185.14,27.39a.37.37,0,0,0,0-.74A.37.37,0,0,0,185.14,27.39Z" transform="translate(0 -0.73)"/><path class="cls-1" d="M183.17,23.66a.37.37,0,0,0,0-.74A.37.37,0,0,0,183.17,23.66Z" transform="translate(0 -0.73)"/><path class="cls-1" d="M176.58,24.55a.64.64,0,0,0-.31-1.24A.64.64,0,0,0,176.58,24.55Z" transform="translate(0 -0.73)"/><path class="cls-1" d="M176,12.6a.64.64,0,0,0,.31,1.24A.64.64,0,0,0,176,12.6Z" transform="translate(0 -0.73)"/><path class="cls-1" d="M173.09,15.85a.64.64,0,0,0-.3-1.24A.64.64,0,0,0,173.09,15.85Z" transform="translate(0 -0.73)"/><path class="cls-1" d="M179.64,20.76a.64.64,0,0,0,0-1.28A.64.64,0,0,0,179.64,20.76Z" transform="translate(0 -0.73)"/><path class="cls-1" d="M182.91,17.39a.64.64,0,0,0,0-1.27A.64.64,0,0,0,182.91,17.39Z" transform="translate(0 -0.73)"/><path class="cls-1" d="M185,13.35c-.33-.35-.86.17-.53.51S185.29,13.69,185,13.35Z" transform="translate(0 -0.73)"/><path class="cls-1" d="M192.71,8.92a.37.37,0,0,0-.54.51C192.5,9.78,193,9.26,192.71,8.92Z" transform="translate(0 -0.73)"/><path class="cls-1" d="M189.71,15.75a.37.37,0,0,0,.53-.51C189.91,14.89,189.38,15.41,189.71,15.75Z" transform="translate(0 -0.73)"/><path class="cls-1" d="M192.27,27.81c-.33-.34-.86.18-.53.52A.37.37,0,0,0,192.27,27.81Z" transform="translate(0 -0.73)"/><path class="cls-1" d="M193.59,23.81c-.33-.35-.86.17-.53.51A.37.37,0,0,0,193.59,23.81Z" transform="translate(0 -0.73)"/><path class="cls-1" d="M178.25,14.89a.38.38,0,0,0,.54-.52A.38.38,0,0,0,178.25,14.89Z" transform="translate(0 -0.73)"/><path class="cls-1" d="M180.11,11.32c-.33-.35-.87.17-.53.51A.37.37,0,0,0,180.11,11.32Z" transform="translate(0 -0.73)"/><path class="cls-1" d="M173.21,10.94c-.34-.34-.87.18-.54.52A.38.38,0,0,0,173.21,10.94Z" transform="translate(0 -0.73)"/><path class="cls-1" d="M176.07,4a.37.37,0,0,0-.53.51C175.87,4.86,176.4,4.34,176.07,4Z" transform="translate(0 -0.73)"/><path class="cls-1" d="M181,2.53a.37.37,0,0,0-.53.52C180.78,3.39,181.31,2.87,181,2.53Z" transform="translate(0 -0.73)"/><path class="cls-1" d="M179.42,1.42a.37.37,0,0,0-.53.51C179.22,2.28,179.75,1.76,179.42,1.42Z" transform="translate(0 -0.73)"/><path class="cls-1" d="M172.59,1.42c-.33-.34-.87.17-.54.51A.37.37,0,0,0,172.59,1.42Z" transform="translate(0 -0.73)"/><path class="cls-1" d="M194,4a.37.37,0,0,0-.53.51C193.76,4.86,194.3,4.34,194,4Z" transform="translate(0 -0.73)"/><path class="cls-1" d="M185.61,9.67a1.27,1.27,0,0,0-1.83,1.77A1.27,1.27,0,0,0,185.61,9.67Z" transform="translate(0 -0.73)"/><path class="cls-1" d="M189.05,23.46a.64.64,0,0,0,.67-1.08A.64.64,0,0,0,189.05,23.46Z" transform="translate(0 -0.73)"/><path class="cls-1" d="M194.61,15.6a.64.64,0,0,0,.68-1.08A.64.64,0,0,0,194.61,15.6Z" transform="translate(0 -0.73)"/><path class="cls-1" d="M177.31,9.6A.64.64,0,0,0,178,8.52.64.64,0,0,0,177.31,9.6Z" transform="translate(0 -0.73)"/><path class="cls-1" d="M172.6,8.34a.63.63,0,0,0,.68-1.07A.63.63,0,0,0,172.6,8.34Z" transform="translate(0 -0.73)"/><path class="cls-1" d="M170.76,3.7a.64.64,0,0,0,.68-1.08A.64.64,0,0,0,170.76,3.7Z" transform="translate(0 -0.73)"/><path class="cls-1" d="M185.05,5.73a.63.63,0,0,0-.91.88A.63.63,0,0,0,185.05,5.73Z" transform="translate(0 -0.73)"/><path class="cls-1" d="M191.34,5.67a.64.64,0,0,0-.92.88A.64.64,0,0,0,191.34,5.67Z" transform="translate(0 -0.73)"/><path class="cls-1" d="M188.72,11.36a.64.64,0,0,0,.92-.88A.64.64,0,0,0,188.72,11.36Z" transform="translate(0 -0.73)"/><path class="cls-1" d="M191.79,18.22a.64.64,0,0,0-.92.89A.64.64,0,0,0,191.79,18.22Z" transform="translate(0 -0.73)"/><path class="cls-1" d="M201.46,25.74a.63.63,0,0,0,.91-.88A.63.63,0,0,0,201.46,25.74Z" transform="translate(0 -0.73)"/><path class="cls-1" d="M197.78,17.87a.64.64,0,0,0-.92.89A.64.64,0,0,0,197.78,17.87Z" transform="translate(0 -0.73)"/><path class="cls-1" d="M201.54,15.69a.64.64,0,0,0-.92.88A.64.64,0,0,0,201.54,15.69Z" transform="translate(0 -0.73)"/><path class="cls-1" d="M185.59,44.35a.64.64,0,0,0,0-1.27A.64.64,0,0,0,185.59,44.35Z" transform="translate(0 -0.73)"/><path class="cls-1" d="M204.06,69.08a.64.64,0,0,0,0-1.27A.64.64,0,0,0,204.06,69.08Z" transform="translate(0 -0.73)"/><path class="cls-1" d="M190.47,91a1.28,1.28,0,0,0,0,2.55A1.28,1.28,0,0,0,190.47,91Z" transform="translate(0 -0.73)"/><path class="cls-1" d="M196.23,83.73a.64.64,0,0,0,0-1.27A.64.64,0,0,0,196.23,83.73Z" transform="translate(0 -0.73)"/></svg>