<svg xmlns="http://www.w3.org/2000/svg" viewBox="0 0 23.56 9.65"><defs><style>.cls-1{fill:#444;stroke:#444;stroke-miterlimit:10;stroke-width:0.5px;}</style></defs><title>arrow</title><g id="Слой_2" data-name="Слой 2"><g id="Слой_1-2" data-name="Слой 1"><g id="Слой_2-2" data-name="Слой 2"><g id="Layer_1" data-name="Layer 1"><path class="cls-1" d="M19.15,9.4a.6.6,0,0,1-.4-.1.48.48,0,0,1,0-.7l3.4-3.4a.48.48,0,0,0,0-.7h0l-3.4-3.4a.48.48,0,0,1,0-.7.48.48,0,0,1,.7,0l3.4,3.4A1.55,1.55,0,0,1,23,5.9l-.1.1-3.4,3.4Z"/><path class="cls-1" d="M21.85,5.3H1.15c-.6,0-.9-.2-.9-.5s.3-.5.9-.5H22c.5,0,.9.2.9.5S22.45,5.3,21.85,5.3Z"/></g></g></g></g></svg>