<svg xmlns="http://www.w3.org/2000/svg" viewBox="0 0 9.65 23.56"><defs><style>.cls-1{fill:#444;stroke:#444;stroke-miterlimit:10;stroke-width:0.5px;}</style></defs><title>arrow down</title><g id="Слой_2" data-name="Слой 2"><g id="Слой_1-2" data-name="Слой 1"><g id="Слой_2-2" data-name="Слой 2"><g id="Layer_1" data-name="Layer 1"><path class="cls-1" d="M.25,19.15a.6.6,0,0,1,.1-.4.48.48,0,0,1,.7,0l3.4,3.4a.48.48,0,0,0,.7,0h0l3.4-3.4a.49.49,0,0,1,.7.7l-3.4,3.4a1.55,1.55,0,0,1-2.1.1l-.1-.1-3.4-3.4Z"/><path class="cls-1" d="M4.35,21.85V1.15c0-.6.2-.9.5-.9s.5.3.5.9V22c0,.5-.2.9-.5.9S4.35,22.45,4.35,21.85Z"/></g></g></g></g></svg>