<svg xmlns="http://www.w3.org/2000/svg" viewBox="0 0 202.02 41.99"><defs><style>.cls-1{fill:#756666;}</style></defs><title>cm logo</title><g id="Слой_2" data-name="Слой 2"><g id="Слой_1-2" data-name="Слой 1"><path class="cls-1" d="M40.75,6.71V37.77a3.75,3.75,0,0,1-1,2.73,3.39,3.39,0,0,1-2.74,1,2.87,2.87,0,0,1-2.48-1,3.37,3.37,0,0,1-1-2.73V6.71a3.7,3.7,0,0,1,1-2.73A3.18,3.18,0,0,1,37,3Q40.75,3.36,40.75,6.71Z"/><path class="cls-1" d="M56.66,14.16a12.42,12.42,0,0,1,9.69,4,13.13,13.13,0,0,1,4,9.69,12.38,12.38,0,0,1-4,9.69,13.13,13.13,0,0,1-9.69,4,12.39,12.39,0,0,1-9.7-4,13.13,13.13,0,0,1-4-9.69,12.4,12.4,0,0,1,4-9.69A12.43,12.43,0,0,1,56.66,14.16Zm0,7.21a6.26,6.26,0,0,0-4.48,2,6.22,6.22,0,0,0-2,4.47,7.28,7.28,0,0,0,2,4.72,6.26,6.26,0,0,0,4.48,2,7.28,7.28,0,0,0,4.72-2,6.36,6.36,0,0,0,2-4.72,6.21,6.21,0,0,0-2-4.47A7.28,7.28,0,0,0,56.66,21.37Z"/><path class="cls-1" d="M79.52,17.89V29.82a4.09,4.09,0,0,0,1.24,3,4.55,4.55,0,0,0,3,1.24,4.09,4.09,0,0,0,3-1.24,4.56,4.56,0,0,0,1.25-3V17.64a3.7,3.7,0,0,1,1-2.73,3.37,3.37,0,0,1,2.73-1,3.73,3.73,0,0,1,2.74,1,3.4,3.4,0,0,1,1,2.73V29.82A11,11,0,0,1,92.19,38,11.26,11.26,0,0,1,84,41.5,11.05,11.05,0,0,1,72.56,30.07V17.89a3.75,3.75,0,0,1,1-2.73,3.19,3.19,0,0,1,2.49-1,3.71,3.71,0,0,1,2.73,1A5,5,0,0,1,79.52,17.89Z"/><path class="cls-1" d="M111.32,21.37a6.22,6.22,0,0,0-4.47,2,6.36,6.36,0,0,0-2,4.72,6.22,6.22,0,0,0,2,4.47,6.22,6.22,0,0,0,4.47,2,7.28,7.28,0,0,0,4.72-2,6.18,6.18,0,0,0,2-4.47V6.71a2.89,2.89,0,0,1,1-2.49,3.19,3.19,0,0,1,2.48-1,3.73,3.73,0,0,1,2.73,1,3.41,3.41,0,0,1,1,2.74V28.08a12.72,12.72,0,0,1-4,9.69,13.13,13.13,0,0,1-9.69,4,12.77,12.77,0,0,1-9.69-4,13.13,13.13,0,0,1-4-9.69,12.39,12.39,0,0,1,4-9.69,13.1,13.1,0,0,1,9.69-4,3.74,3.74,0,0,1,2.74,1,3.4,3.4,0,0,1,1,2.73,2.88,2.88,0,0,1-1,2.48A13.11,13.11,0,0,1,111.32,21.37Z"/><path class="cls-1" d="M161.77,12.92a5.63,5.63,0,0,0-1.49-3.48A4.68,4.68,0,0,0,156.8,8.2a3.88,3.88,0,0,0-3.73,4V37.77a3.4,3.4,0,0,1-1,2.73,3.74,3.74,0,0,1-2.74,1,3.37,3.37,0,0,1-2.73-1,3.71,3.71,0,0,1-1-2.73V12.92a4,4,0,0,0-1.49-3.23,4.37,4.37,0,0,0-3.23-1.49,4.76,4.76,0,0,0-3.23,1.24,4.14,4.14,0,0,0-1.24,3.23V37.52a3.43,3.43,0,0,1-1,2.74,3.77,3.77,0,0,1-2.74,1,3.41,3.41,0,0,1-2.73-1,3.73,3.73,0,0,1-1-2.74V12.67a12.19,12.19,0,0,1,3.72-8.94A12.2,12.2,0,0,1,141.64,0a12.83,12.83,0,0,1,8.2,3,12.54,12.54,0,0,1,8.45-3,11.1,11.1,0,0,1,8,4.22,13.2,13.2,0,0,1,3,8.7"/><path class="cls-1" d="M179.66,1.24a4.54,4.54,0,0,1,1.49,3.48,4.92,4.92,0,0,1-1.49,3.48,4.54,4.54,0,0,1-3.48,1.49A4.92,4.92,0,0,1,172.7,8.2a5.9,5.9,0,0,1-1.24-3.48A4.9,4.9,0,0,1,173,1.24,4.12,4.12,0,0,1,176.18,0,4.68,4.68,0,0,1,179.66,1.24Zm.25,14.91c0-2.48-1.25-4-3.73-4a3.37,3.37,0,0,0-2.73,1,3.73,3.73,0,0,0-1,2.73V37.52a3.41,3.41,0,0,0,1,2.74,3.75,3.75,0,0,0,2.73,1,3.4,3.4,0,0,0,2.73-1,3.74,3.74,0,0,0,1-2.74V16.15Z"/><path class="cls-1" d="M191.09,4.47v33.3a3.37,3.37,0,0,1-1,2.73,3.7,3.7,0,0,1-2.73,1,3.37,3.37,0,0,1-2.73-1,3.71,3.71,0,0,1-1-2.73V4.47a3.37,3.37,0,0,1,1-2.73,3.7,3.7,0,0,1,2.73-1Q191.09.38,191.09,4.47Z"/><path class="cls-1" d="M202,4.47v33.3a3.4,3.4,0,0,1-1,2.73,3.74,3.74,0,0,1-2.74,1,3.38,3.38,0,0,1-2.73-1,3.75,3.75,0,0,1-1-2.73V4.47a3.4,3.4,0,0,1,1-2.73,3.72,3.72,0,0,1,2.73-1Q202,.38,202,4.47Z"/><path class="cls-1" d="M156.55.5a12.19,12.19,0,0,1,8.94,3.72,12.2,12.2,0,0,1,3.73,9V38a3.4,3.4,0,0,1-1,2.73,3.74,3.74,0,0,1-2.74,1,3.38,3.38,0,0,1-2.73-1,3.75,3.75,0,0,1-1-2.73V13.17a4.72,4.72,0,0,0-1.25-3.23c-1.49-2-2.48-2-4-1.74"/><path class="cls-1" d="M24.6,33.55a11.19,11.19,0,0,1-5,1,12,12,0,0,1-8.7-3.48,12.44,12.44,0,0,1-3.48-8.7,12,12,0,0,1,3.48-8.69c2.24-2.49,4-3,7.21-3.48a16,16,0,0,1,6.46.74c5.47,2.49,7.95-3,5.72-5A17.38,17.38,0,0,0,19.88,2.73,19.13,19.13,0,0,0,6,8.45,18.44,18.44,0,0,0,0,22.36,19.13,19.13,0,0,0,5.72,36.28,19.08,19.08,0,0,0,19.63,42a21.51,21.51,0,0,0,9-2C31.06,37.77,30.81,32.55,24.6,33.55Z"/></g></g></svg>