<svg xmlns="http://www.w3.org/2000/svg" viewBox="0 0 160.65 62.28"><defs><style>.cls-1{fill:#7f7f7f;}</style></defs><title>logo</title><g id="Слой_2" data-name="Слой 2"><g id="Layer_1" data-name="Layer 1"><path class="cls-1" d="M17.49,22.64V14.22c0-2.94-.76-4.63-3-4.63-2.48,0-3,1.69-3,4.63,0,10.1,17.49,13.05,17.49,31.57,0,11.27-5,16.49-14.53,16.49C7.09,62.28,0,59.25,0,48.9V37.79H11.43V48.14c0,3.54.9,4.55,3,4.55,1.86,0,3-1,3-4.55C17.49,34.59,0,34.34,0,15,0,4.12,5.85,0,14.67,0c7.71,0,14.25,3.2,14.25,13.21v9.43Z"/><path class="cls-1" d="M31.26,30V25.5c0-9.68,6.61-13.13,13.16-13.13S57.57,15.82,57.57,25.5V61.11H46.69V55.47h-.14c-1.31,3.45-3.3,6.23-7.64,6.23-4.75,0-7.65-3.54-7.65-9.85V44.69c0-12.62,15.43-11.11,15.43-20,0-1.93-.48-3.53-2.27-3.53s-2.28,1.6-2.28,3.53V30ZM42.14,43.51v5.22c0,1.69,1,2.53,2,2.53,2.27,0,2.55-1.85,2.55-6.15V36.78C44.55,38.63,42.14,39.73,42.14,43.51Z"/><path class="cls-1" d="M70.79,18.94h.14c1-4.21,3.65-6.57,7.92-6.57,4.89,0,7.36,4.13,7.36,11V61.11H75.33V27.69c0-2.1-.14-4.38-2.2-4.38s-2.34,2.28-2.34,4.38V61.11H59.91V13H70.79Z"/><path class="cls-1" d="M103.91,9.93c-2.68,0-3.1,1.09-3.1,3h3.1v8.75h-3.1v39.4H89.93V21.71H87.52V13h2.41V9.85c0-3.71,2-8.67,7-8.67h7Z"/><path class="cls-1" d="M132,25.92v23c0,8.92-6.19,12.8-13.15,12.8S105.7,57.82,105.7,48.9v-23c0-8.67,4.68-13.55,13.15-13.55S132,17.25,132,25.92Zm-15.42-1.43V49.57c0,1.77.55,3.37,2.27,3.37s2.27-1.6,2.27-3.37V24.49c0-1.76-.55-3.36-2.27-3.36S116.58,22.73,116.58,24.49Z"/><path class="cls-1" d="M145.23,19.27h.2c1.45-4.2,3.86-6.9,7.85-6.9,5.51,0,7.37,4.46,7.37,9.43V39H149.77V27.27c0-1.93-.48-4-2.27-4s-2.27,2-2.27,4V61.11H134.34V13h10.89Z"/></g></g></svg>