<svg xmlns="http://www.w3.org/2000/svg" viewBox="0 0 90 90"><title>phone</title><g id="Слой_2" data-name="Слой 2"><g id="Layer_1" data-name="Layer 1"><path id="_Составной_контур_" data-name="&lt;Составной контур&gt;" d="M87.49,11.49l-.21-.19L76.54,1.94A7.36,7.36,0,0,0,70.79,0a8.47,8.47,0,0,0-5.18,2.38,3.17,3.17,0,0,0-.3.34L54.75,16.08a7.58,7.58,0,0,0,.19,10.5,3.25,3.25,0,0,0,.61.5l5.4,3.6c-.43,1.87-3.25,7.3-13.1,17.16S32.56,60.51,30.69,60.94L27.1,55.55a3.83,3.83,0,0,0-.51-.62,7.58,7.58,0,0,0-10.5-.19L2.77,65.3c-.12.1-.24.2-.35.31-3,3-3.24,8-.46,10.92l9.35,10.75.19.21C13.35,89.33,16.12,90,19.16,90c5.48,0,11.82-2.17,15.12-3.47a93.75,93.75,0,0,0,31.3-21,94.51,94.51,0,0,0,21-31.3C88.55,29.14,92.67,16.67,87.49,11.49ZM59.92,59.92C41.41,78.43,20.65,83.47,17.11,81.76L8.05,71.35v0L21.1,61l3.51,5.28.22.3A6.69,6.69,0,0,0,29.76,69c1.94.11,7.83.42,23.74-15.5C57.44,49.56,69.41,37.58,69,29.75a6.7,6.7,0,0,0-2.44-4.93l-.3-.22L61,21.09,71.32,8h0L81.76,17.1C83.47,20.64,78.44,41.4,59.92,59.92Z"/></g></g></svg>