<svg xmlns="http://www.w3.org/2000/svg" viewBox="0 0 14.85 14.8"><defs><style>.cls-1{fill:#444;stroke:#444;stroke-miterlimit:10;stroke-width:0.5px;}</style></defs><title>search</title><g id="Слой_2" data-name="Слой 2"><g id="Слой_1-2" data-name="Слой 1"><g id="Слой_2-2" data-name="Слой 2"><g id="Layer_1" data-name="Layer 1"><path class="cls-1" d="M5.85,11.55a5.68,5.68,0,0,1-5.6-5.7,5.6,5.6,0,0,1,11.2,0A5.74,5.74,0,0,1,5.85,11.55Zm0-10.3a4.65,4.65,0,0,0-4.6,4.6,4.65,4.65,0,0,0,4.6,4.6,4.65,4.65,0,0,0,4.6-4.6h0a4.53,4.53,0,0,0-4.6-4.6Z"/><path class="cls-1" d="M10,9.25l4.5,4.5a.48.48,0,0,1,0,.7h0c-.1.1-.2.1-.4.1a.6.6,0,0,1-.4-.1L9.25,10Z"/></g></g></g></g></svg>