<?xml version="1.0" encoding="utf-8"?>
<!-- Generator: Adobe Illustrator 22.0.0, SVG Export Plug-In . SVG Version: 6.00 Build 0)  -->
<svg version="1.1" id="Layer_1" xmlns="http://www.w3.org/2000/svg" xmlns:xlink="http://www.w3.org/1999/xlink" x="0px" y="0px"
	 viewBox="0 0 40 40" style="enable-background:new 0 0 40 40;" xml:space="preserve">
<style type="text/css">
	.st0{fill:#595959;}
</style>
<path class="st0" d="M19.6,30.3h2.2c0,0,0.7-0.1,1-0.4s0.3-1,0.3-1s0-2.9,1.3-3.3s3.1,2.8,4.9,4.1c1.4,0.9,2.4,0.7,2.4,0.7l4.9-0.1
	c0,0,2.5-0.2,1.3-2.2c-0.1-0.2-0.7-1.5-3.6-4.2c-3-2.8-2.6-2.4,1-7.3c2.2-3,3.1-4.8,2.8-5.6c-0.3-0.7-1.9-0.5-1.9-0.5h-5.5
	c0,0-0.4-0.1-0.7,0.1c-0.3,0.2-0.5,0.6-0.5,0.6s-0.9,2.3-2,4.3c-2.4,4.1-3.4,4.4-3.8,4.1C22.8,19.1,23,17.3,23,16
	c0-4,0.6-5.7-1.2-6.1c-0.6-0.1-1-0.2-2.6-0.3c-2,0-3.6,0-4.5,0.5c-0.6,0.3-1.1,1-0.8,1c0.4,0,1.2,0.2,1.6,0.8
	c0.6,0.8,0.5,2.5,0.5,2.5s0.3,4.7-0.8,5.3c-0.7,0.4-1.7-0.4-3.9-4.2c-1.1-1.9-2-4-2-4s0-0.4-0.3-0.6c-0.4-0.3-0.8-0.3-0.8-0.3H3
	c0,0-0.8,0-1.1,0.4c-0.3,0.3,0,0.9,0,0.9s4.1,9.5,8.7,14.3C14.8,30.6,19.6,30.3,19.6,30.3L19.6,30.3z"/>
</svg>
