<svg xmlns="http://www.w3.org/2000/svg" viewBox="0 0 100 91.12"><title>награда</title><g id="Слой_2" data-name="Слой 2"><g id="Слой_1-2" data-name="Слой 1"><path d="M63.26,70.64c7.7-9.41,20.8-12.17,32.37-10.36l2.41.38-1.47,2C89.2,72.34,75.61,75.36,64.1,73l-2.38-.49,1.54-1.87Z"/><path d="M66.26,1.38C74.37,7.9,79.21,18.71,77.2,29.11l-.44,2.28L74.89,30c-8.31-6.15-13.93-17.57-11-27.9L64.54,0l1.72,1.38Z"/><path d="M99.68,34.84C98.08,46.16,90,57.64,78.37,60.19l-2.14.48.39-2.17c2.06-11.35,10-21.72,21.17-25.26l2.21-.7-.32,2.3Z"/><path d="M87.6,10A30.62,30.62,0,0,1,84,40.46l-1.56,2-1-2.36c-4-9.94-3-21.87,3.65-30.44l1.52-1.94,1,2.26Z"/><path d="M14.9,9.67c6.69,8.57,7.69,20.5,3.65,30.44l-1,2.36-1.56-2A30.62,30.62,0,0,1,12.4,10l1-2.26L14.9,9.67Z"/><path d="M35.91,73C24.39,75.36,10.8,72.35,3.44,62.61L2,60.66l2.42-.38c11.56-1.81,24.66.95,32.36,10.36l1.54,1.87L35.91,73Z"/><path d="M36.07,2.12c3,10.32-2.65,21.74-11,27.89l-1.87,1.38-.44-2.28c-2-10.4,2.84-21.21,10.94-27.73L35.46,0l.61,2.12Z"/><path d="M2.21,33.25c11.2,3.53,19.11,13.9,21.17,25.25l.4,2.17-2.15-.48C10,57.64,1.92,46.16.32,34.84L0,32.54l2.21.71Z"/><path d="M58.13,81.14a36.67,36.67,0,0,0,6.1,5.46l1.56,1.05-1.4,1.25c-.58.52-1.14,1-1.71,1.57l-.7.65-.88-.38C55.71,88.41,54.18,82.63,50,79.9c-4.18,2.73-5.71,8.51-11.1,10.84l-.88.38-.7-.65L35.61,88.9l-1.39-1.25,1.55-1.05a36.69,36.69,0,0,0,6.11-5.46c-2.59,1.28-5.15,2.75-8.09,3.3-5.25.89-10.87,1.2-15.86-1l-2.41-1,2.16-1.49c4.94-3.41,10.24-6.58,16.38-7.07a52,52,0,0,1,14.46,1h.06l.06,0a4.36,4.36,0,0,0,2.72,0l.06,0h.07a52.06,52.06,0,0,1,14.48-1c6.12.49,11.42,3.66,16.35,7.07l2.17,1.49-2.42,1c-5,2.18-10.61,1.87-15.87,1-2.93-.55-5.49-2-8.07-3.3Z"/></g></g></svg>