<svg xmlns="http://www.w3.org/2000/svg" viewBox="0 0 58 57"><title>1</title><g id="Слой_2" data-name="Слой 2"><g id="Capa_1" data-name="Capa 1"><path d="M42.9,4A5,5,0,0,0,38,0a1,1,0,0,0,0,2,3,3,0,0,1,0,6,1,1,0,0,0,0,2,5,5,0,0,0,4.9-4H56v9H2V6H19a1,1,0,0,0,0-2H17.18A3,3,0,1,1,20,8a1,1,0,0,0,0,2,5,5,0,1,0-4.9-6H0V57H58V4ZM56,55H2V17H56Z"/><path d="M26,2a3,3,0,0,1,0,6,1,1,0,0,0,0,2A5,5,0,0,0,26,0a1,1,0,0,0,0,2Z"/><path d="M32,2a3,3,0,0,1,0,6,1,1,0,0,0,0,2A5,5,0,0,0,32,0a1,1,0,0,0,0,2Z"/><path d="M11.59,46.18H17V27.5l.39-2.28L15.83,27l-4.24,3-1.47-2,8.49-6.56H20V46.18h5.29V49H11.59Z"/><path d="M31.08,42.59a7.08,7.08,0,0,1,1.28-4.22,11.46,11.46,0,0,1,4-3.27,18.64,18.64,0,0,1-1.79-1.21,8.77,8.77,0,0,1-1.47-1.45,6.46,6.46,0,0,1-1.37-4.13,7.08,7.08,0,0,1,.52-2.74,6,6,0,0,1,1.51-2.13,7.21,7.21,0,0,1,2.35-1.39,9.14,9.14,0,0,1,3.11-.5,8.8,8.8,0,0,1,2.94.47,6.52,6.52,0,0,1,2.22,1.27,5.77,5.77,0,0,1,1.41,1.93,6.06,6.06,0,0,1,.5,2.47,7.41,7.41,0,0,1-1,3.88,11.28,11.28,0,0,1-3.32,3.3,18.09,18.09,0,0,1,1.91,1.27,9,9,0,0,1,1.59,1.55,6.84,6.84,0,0,1,1.06,1.91A7,7,0,0,1,46.88,42a8.17,8.17,0,0,1-.55,3,6.37,6.37,0,0,1-1.58,2.36,7.22,7.22,0,0,1-2.55,1.54,9.64,9.64,0,0,1-3.43.56A9.3,9.3,0,0,1,35.48,49a7.33,7.33,0,0,1-2.41-1.46,6.07,6.07,0,0,1-1.48-2.19A7.12,7.12,0,0,1,31.08,42.59Zm12.78-.38a4.22,4.22,0,0,0-.46-2,5.93,5.93,0,0,0-1.22-1.58,9.58,9.58,0,0,0-1.72-1.3c-.64-.38-1.31-.76-2-1.12a9,9,0,0,0-3.36,2.94,5.88,5.88,0,0,0-1,3.09A5.26,5.26,0,0,0,34.4,44a4,4,0,0,0,.93,1.47,4.43,4.43,0,0,0,1.53,1,5.43,5.43,0,0,0,2.1.37,6,6,0,0,0,1.85-.29,4.59,4.59,0,0,0,1.57-.85,4,4,0,0,0,1.08-1.43A4.73,4.73,0,0,0,43.86,42.21Zm-9.15-14a4,4,0,0,0,.43,1.91,5.11,5.11,0,0,0,1.14,1.49,9.54,9.54,0,0,0,1.64,1.21c.62.38,1.26.73,1.93,1.07a10.94,10.94,0,0,0,2.57-2.67,5.32,5.32,0,0,0,.83-2.89,3.79,3.79,0,0,0-1.22-3,4.27,4.27,0,0,0-2.91-1.07,4.71,4.71,0,0,0-1.86.35,4.8,4.8,0,0,0-1.39.89A3.57,3.57,0,0,0,35,26.74,4,4,0,0,0,34.71,28.23Z"/></g></g></svg>