<svg xmlns="http://www.w3.org/2000/svg" viewBox="0 0 496 496"><title>2</title><g id="Слой_2" data-name="Слой 2"><g id="Слой_1-2" data-name="Слой 1"><path d="M272,264H256v16H240v16h16v16h16V296h16V280H272Z"/><path d="M496,152V72H456V41.89L477,0h-89.9L408,41.89V72H387.55A31.89,31.89,0,0,0,360,56H232a32,32,0,0,0-32,32H160V56H40A40.05,40.05,0,0,0,0,96v8H88v16H0v8a40.05,40.05,0,0,0,40,40H160V136h40a32,32,0,0,0,32,32h5.12l-26.48,84.75a63.72,63.72,0,0,0,62.65,98.5L286.24,416H275.05l-16,32H240v48H496V448H477l-16-32H448V355.47L329.2,284.19l29-116.19H360a31.89,31.89,0,0,0,27.55-16H408v22.11L387.05,216H477L456,174.11V152ZM17.37,88A24,24,0,0,1,40,72H144V88ZM144,152H40a24,24,0,0,1-22.63-16H144Zm16-32H104V104h96v16Zm56,168a48,48,0,1,1,48,48A48.05,48.05,0,0,1,216,288Zm110.59,13.29L379.43,333l-85.57,39.5L288.76,347A64.21,64.21,0,0,0,326.59,301.29Zm68.3,41L422.68,359l-120.8,53.68-4.8-24,98.27-45.36ZM480,480H256V464H480Zm-20.95-32H277l8-16h166.1ZM333.7,416,432,372.31V416ZM319.63,256.49a63.81,63.81,0,0,0-85.59-25L253.88,168h87.88ZM376,136a16,16,0,0,1-16,16H232a16,16,0,0,1-16-16V88a16,16,0,0,1,16-16H360a16,16,0,0,1,16,16ZM451.05,16l-8,16H421l-8-16ZM424,48h16V72H424Zm56,40v16H392V88Zm-88,32h88v16H392ZM413,200l8-16h22.1l8,16ZM440,168H424V152h16Z"/><path d="M264,88a24,24,0,1,0,24,24A24,24,0,0,0,264,88Zm0,32a8,8,0,1,1,8-8A8,8,0,0,1,264,120Z"/><path d="M328,88a24,24,0,1,0,24,24A24,24,0,0,0,328,88Zm0,32a8,8,0,1,1,8-8A8,8,0,0,1,328,120Z"/><path d="M167.43,364.11l12.94-15.51-33-33-15.51,12.94a79.92,79.92,0,0,0-10.78-4.46L119.31,304H72.69l-1.81,20.12a77.46,77.46,0,0,0-10.78,4.47l-15.51-13-33,33,12.94,15.5a78.64,78.64,0,0,0-4.46,10.78L0,376.69v46.62l20.12,1.81a76.83,76.83,0,0,0,4.47,10.77L11.64,451.4l33,33,15.5-12.95a80.46,80.46,0,0,0,10.78,4.46L72.69,496h46.62l1.81-20.12a77.46,77.46,0,0,0,10.78-4.47l15.51,13,33-33-12.95-15.5a78.64,78.64,0,0,0,4.46-10.78l20.11-1.8V376.69l-20.12-1.81A79.21,79.21,0,0,0,167.43,364.11ZM176,408.69l-16.63,1.49L158,415.69a63.18,63.18,0,0,1-7.07,17L148,437.61l10.71,12.82-12.28,12.29L133.6,452l-4.87,2.91a63.3,63.3,0,0,1-17,7.07l-5.5,1.39L104.69,480H87.31l-1.49-16.63L80.31,462a63.3,63.3,0,0,1-17.05-7.07L58.4,452,45.57,462.71,33.29,450.43,44,437.61l-2.91-4.88a63.5,63.5,0,0,1-7.07-17l-1.39-5.51L16,408.69V391.31l16.63-1.49L34,384.31a63.18,63.18,0,0,1,7.07-17L44,362.39,33.29,349.57l12.28-12.29L58.4,348l4.87-2.91a63.3,63.3,0,0,1,17-7.07l5.5-1.39L87.31,320h17.38l1.49,16.63,5.51,1.39a63.3,63.3,0,0,1,17.05,7.07L133.6,348l12.83-10.71,12.28,12.28L148,362.39l2.91,4.88a63.5,63.5,0,0,1,7.07,17l1.39,5.51L176,391.31Z"/><path d="M96,352a48,48,0,1,0,48,48A48.05,48.05,0,0,0,96,352Zm0,80a32,32,0,1,1,32-32A32,32,0,0,1,96,432Z"/><path d="M88,184h16v16H88Z"/><path d="M88,216h16v16H88Z"/><path d="M88,248h16v16H88Z"/></g></g></svg>