<svg xmlns="http://www.w3.org/2000/svg" viewBox="0 0 512 420.98"><title>3</title><g id="Слой_2" data-name="Слой 2"><g id="Capa_1" data-name="Capa 1"><path d="M143,71.8a7.5,7.5,0,0,0-7.5,7.5V99.76a7.5,7.5,0,1,0,15,0V79.3A7.5,7.5,0,0,0,143,71.8Z"/><path d="M369,71.8a7.5,7.5,0,0,0-7.5,7.5V99.76a7.5,7.5,0,0,0,15,0V79.3A7.5,7.5,0,0,0,369,71.8Z"/><path d="M288.84,92.68a7.5,7.5,0,0,0-10.58.72,30.21,30.21,0,0,1-44.5,0,7.51,7.51,0,1,0-11.3,9.88,45.19,45.19,0,0,0,67.09,0A7.5,7.5,0,0,0,288.84,92.68Z"/><path d="M510.74,146,437,21.69A44.53,44.53,0,0,0,398.86,0H113.16A44.51,44.51,0,0,0,75.05,21.7L50.53,63a7.5,7.5,0,0,0,12.9,7.66L88,29.36A29.45,29.45,0,0,1,113.15,15h79.19L147,142.79H20.64l25-42.12A7.5,7.5,0,1,0,32.73,93S1,146.46,1,146.46a7.25,7.25,0,0,0-.84,2.18A7.67,7.67,0,0,0,2,155.44L250.56,418.67a7.58,7.58,0,0,0,11.16-.28l248-262.69A7.8,7.8,0,0,0,510.74,146ZM208.26,15h95.5l45.39,127.79H162.88ZM24.87,157.79H147.14L234.77,380.1ZM277.25,380.1,334.2,235.62a7.51,7.51,0,0,0-4.23-9.73,7.59,7.59,0,0,0-9.73,4.23L256,393.06,163.27,157.79H348.75l-16.68,42.32A7.5,7.5,0,0,0,346,205.62l18.85-47.83H487.15Zm87.81-237.31L319.68,15h79.18a29.46,29.46,0,0,1,25.21,14.35l67.31,113.44Z"/></g></g></svg>