<svg xmlns="http://www.w3.org/2000/svg" viewBox="0 0 467.87 512"><title>4</title><g id="Слой_2" data-name="Слой 2"><g id="Layer_1" data-name="Layer 1"><path d="M416.13,59.92h-2.72V8.17A8.17,8.17,0,0,0,405.24,0h-92.6a8.17,8.17,0,0,0-8.17,8.17V59.92h-2.72a8.17,8.17,0,1,0,0,16.33H416.13a8.17,8.17,0,1,0,0-16.33Zm-19.07,0H320.81V16.34h76.25Z"/><path d="M455.52,148.34l-44-52.81a8.17,8.17,0,0,0-6.28-2.93H312.64a8.14,8.14,0,0,0-6.28,2.94l-44,52.81c-6.92,8.31-12.35,23.3-12.35,34.12v32.68a40.68,40.68,0,0,0,10.45,27.23A40.72,40.72,0,0,0,250,269.62V302.3a40.68,40.68,0,0,0,10.45,27.23A40.72,40.72,0,0,0,250,356.77V470.24A41.8,41.8,0,0,0,291.76,512H426.11a41.8,41.8,0,0,0,41.76-41.76V356.77a40.72,40.72,0,0,0-10.45-27.24,40.7,40.7,0,0,0,10.45-27.23V269.62a40.72,40.72,0,0,0-10.45-27.24,40.68,40.68,0,0,0,10.45-27.23V182.47h0C467.87,171.65,462.45,156.66,455.52,148.34Zm-4,66.81h0a24.51,24.51,0,0,1-11,20.43,8.17,8.17,0,0,0,0,13.61,24.51,24.51,0,0,1,11,20.43V302.3a24.51,24.51,0,0,1-11,20.43,8.17,8.17,0,0,0,0,13.61,24.5,24.5,0,0,1,11,20.43V470.24a25.44,25.44,0,0,1-25.41,25.42H291.76a25.44,25.44,0,0,1-25.42-25.42V356.77a24.54,24.54,0,0,1,11-20.43,8.17,8.17,0,0,0,0-13.61,24.54,24.54,0,0,1-11-20.43V269.62a24.54,24.54,0,0,1,11-20.43,8.17,8.17,0,0,0,0-13.61,24.54,24.54,0,0,1-11-20.43V182.47c0-7.13,4-18.19,8.57-23.67l41.56-49.86h84.94L443,158.8c4.56,5.48,8.56,16.54,8.56,23.67Z"/><path d="M412.34,234.21H305.53a8.17,8.17,0,1,0,0,16.34H412.34a8.17,8.17,0,1,0,0-16.34Z"/><path d="M412.34,321.36H305.53a8.17,8.17,0,1,0,0,16.34H412.34a8.17,8.17,0,1,0,0-16.34Z"/><path d="M166.13,59.92H163.4V8.17A8.17,8.17,0,0,0,155.23,0H62.64a8.17,8.17,0,0,0-8.17,8.17V59.92H51.75a8.17,8.17,0,1,0,0,16.33H166.13a8.17,8.17,0,1,0,0-16.33Zm-19.07,0H70.81V16.34h76.25Z"/><path d="M205.52,148.34l-44-52.81a8.17,8.17,0,0,0-6.28-2.93H62.64a8.14,8.14,0,0,0-6.28,2.94l-44,52.81C5.43,156.66,0,171.65,0,182.47v32.68a40.68,40.68,0,0,0,10.45,27.23A40.72,40.72,0,0,0,0,269.62V302.3a40.68,40.68,0,0,0,10.45,27.23A40.72,40.72,0,0,0,0,356.77V470.24A41.8,41.8,0,0,0,41.76,512H176.11a41.8,41.8,0,0,0,41.76-41.76V356.77a40.72,40.72,0,0,0-10.45-27.24,40.7,40.7,0,0,0,10.45-27.23V269.62a40.72,40.72,0,0,0-10.45-27.24,40.68,40.68,0,0,0,10.45-27.23V182.47h0C217.87,171.65,212.45,156.66,205.52,148.34Zm-4,66.81h0a24.51,24.51,0,0,1-11,20.43,8.17,8.17,0,0,0,0,13.61,24.51,24.51,0,0,1,11,20.43V302.3a24.51,24.51,0,0,1-11,20.43,8.17,8.17,0,0,0,0,13.61,24.5,24.5,0,0,1,11,20.43V470.24a25.44,25.44,0,0,1-25.42,25.42H41.76a25.44,25.44,0,0,1-25.42-25.42V356.77a24.51,24.51,0,0,1,11-20.43,8.17,8.17,0,0,0,0-13.61,24.51,24.51,0,0,1-11-20.43V269.62a24.51,24.51,0,0,1,11-20.43,8.17,8.17,0,0,0,0-13.61,24.51,24.51,0,0,1-11-20.43V182.47c0-7.13,4-18.19,8.57-23.67l41.56-49.86h84.94L193,158.8c4.56,5.48,8.56,16.54,8.56,23.67Z"/><path d="M162.34,234.21H55.53a8.17,8.17,0,0,0,0,16.34H162.34a8.17,8.17,0,0,0,0-16.34Z"/><path d="M162.34,321.36H55.53a8.17,8.17,0,0,0,0,16.34H162.34a8.17,8.17,0,0,0,0-16.34Z"/></g></g></svg>