<svg xmlns="http://www.w3.org/2000/svg" viewBox="0 0 480 480"><title>5</title><g id="Слой_2" data-name="Слой 2"><g id="Capa_1" data-name="Capa 1"><path d="M429.69,90.3l-40-40a8,8,0,0,0-10-1L335.2,78.4l-47.93-20L279.92,6.86A8,8,0,0,0,272,0H208a8,8,0,0,0-7.92,6.86L192.72,58.4l-47.88,20L100.38,49.28a8,8,0,0,0-10,1l-40,40a8,8,0,0,0-1,10.06l29.6,45L74,156.8l14.69,6.35,6.68-15.42a8,8,0,0,0-.67-7.59L66.25,97,97,66.23l42.58,27.89a8.1,8.1,0,0,0,7.48.69l56-23.45a8,8,0,0,0,4.8-6.25l7-49.11h50.12l7,49.14a8,8,0,0,0,4.8,6.24l56,23.44a8.08,8.08,0,0,0,7.47-.69l42.59-27.87,31,31-20.8,35.2a8,8,0,0,0-.61,6.9l8.88,23.43,15-5.66-7.51-19.83,22-37.27A8,8,0,0,0,429.69,90.3Z"/><path d="M325.66,306.34l-24-24A8,8,0,0,0,296,280H184a8,8,0,0,0-5.66,2.34l-24,24A8,8,0,0,0,152,312V472a8,8,0,0,0,8,8H320a8,8,0,0,0,8-8V312A8,8,0,0,0,325.66,306.34ZM267.31,296h25.38L264,324.69,251.31,312Zm-14.62,40-10.35,10.34A8,8,0,0,0,240,352a8,8,0,0,0-2.34-5.6L227.31,336,240,323.31Zm-8-40L240,300.69,235.31,296Zm-32,0,16,16L216,324.69,187.31,296ZM209,464H168V315.31l8-8,34.34,34.35,13.2,13.2Zm16.14,0,14.79-110.94a7,7,0,0,0,.07-1,7.16,7.16,0,0,0,.16,1.53L262.24,464ZM312,464H278.56L256.69,354.63l13-13L304,307.31l8,8Z"/><path d="M296,104H224a48.05,48.05,0,0,0-48,48v48a64,64,0,0,0,128,0V112A8,8,0,0,0,296,104Zm-8,96a48,48,0,0,1-96,0V168h64a47.72,47.72,0,0,0,32-12.32Zm-32-48H192a32,32,0,0,1,32-32h64A32,32,0,0,1,256,152Z"/><path d="M477.66,338.34l-24-24A8,8,0,0,0,448,312H384a8,8,0,0,0-5.66,2.34l-24,24A8,8,0,0,0,352,344V472a8,8,0,0,0,8,8H472a8,8,0,0,0,8-8V344A8,8,0,0,0,477.66,338.34ZM464,464H424V344H408V464H368V347.31l16-16,18.34,18.35L408,344l5.66-5.66L403.31,328h26l-10.81,10.17L424,344l5.49,5.83,19.07-18L464,347.31Z"/><path d="M424,176H408.26a40.08,40.08,0,0,0-40,39.86l-.12,40.06A47.91,47.91,0,0,0,415.9,304h.16A48,48,0,0,0,464,256.08V216A40.05,40.05,0,0,0,424,176Zm-39.74,39.92A24,24,0,0,1,408,192a24,24,0,0,1-23.74,24ZM448,256.06a31.92,31.92,0,1,1-63.84,0V256l.08-24A40,40,0,0,0,416,216a40,40,0,0,0,32,16v24.06ZM424,192a24,24,0,0,1,24,24A24,24,0,0,1,424,192Z"/><path d="M125.66,338.34l-24-24A8,8,0,0,0,96,312H32a8,8,0,0,0-5.66,2.34l-24,24A8,8,0,0,0,0,344V472a8,8,0,0,0,8,8H120a8,8,0,0,0,8-8V344A8,8,0,0,0,125.66,338.34ZM112,464H72V344H56V464H16V347.31l16-16,18.34,18.35L56,344l5.66-5.66L51.31,328h26L66.51,338.17,72,344l5.49,5.83,19.07-18L112,347.31Z"/><path d="M72,176H56.26a40.08,40.08,0,0,0-40,39.86l-.12,40.06A47.91,47.91,0,0,0,63.9,304h.16A48,48,0,0,0,112,256.08V216A40.05,40.05,0,0,0,72,176Zm0,16a24,24,0,0,1,22.53,16H80a24,24,0,0,1-22.53-16Zm-32,6.46v1.47a7.87,7.87,0,0,1-2.36,5.66,7.61,7.61,0,0,1-3.77,2A24.11,24.11,0,0,1,40,198.46Zm56,57.62a31.92,31.92,0,0,1-63.84,0V256l.1-32.06a23.64,23.64,0,0,0,20-11.2A39.78,39.78,0,0,0,80,224H96Z"/></g></g></svg>