<svg xmlns="http://www.w3.org/2000/svg" viewBox="0 0 409.62 512"><title>7</title><g id="Слой_2" data-name="Слой 2"><g id="Capa_1" data-name="Capa 1"><path d="M303.48,180.81H280.77a79.27,79.27,0,0,0-5.28-12.75L291.55,152a10.63,10.63,0,0,0,0-15l-18.9-18.9a10.64,10.64,0,0,0-15,0l-16.06,16.06a79.38,79.38,0,0,0-12.76-5.28V106.13a10.64,10.64,0,0,0-10.63-10.62H191.44a10.64,10.64,0,0,0-10.63,10.62v22.72a79.27,79.27,0,0,0-12.75,5.28L152,118.07a10.65,10.65,0,0,0-15,0L118.07,137a10.61,10.61,0,0,0,0,15l16.06,16.06a78.37,78.37,0,0,0-5.28,12.75H106.13a10.64,10.64,0,0,0-10.62,10.63v26.73a10.64,10.64,0,0,0,10.62,10.63h22.72a78.9,78.9,0,0,0,5.28,12.75l-16.06,16.07a10.63,10.63,0,0,0,0,15l18.9,18.9a10.65,10.65,0,0,0,15,0l16.06-16.06a79.27,79.27,0,0,0,12.75,5.28v22.71a10.64,10.64,0,0,0,10.63,10.63h26.73a10.64,10.64,0,0,0,10.63-10.63V280.77a79.38,79.38,0,0,0,12.76-5.28l16.06,16.06a10.65,10.65,0,0,0,15,0l18.9-18.9a10.63,10.63,0,0,0,0-15l-16.06-16.07a78.9,78.9,0,0,0,5.28-12.75h22.71a10.64,10.64,0,0,0,10.63-10.63V191.44A10.64,10.64,0,0,0,303.48,180.81Zm-4.37,33H275.05a7.5,7.5,0,0,0-7.3,5.79,64,64,0,0,1-8,19.27,7.5,7.5,0,0,0,1.07,9.26l17,17-12.72,12.72-17-17a7.5,7.5,0,0,0-9.26-1.07,64,64,0,0,1-19.27,8,7.5,7.5,0,0,0-5.79,7.3v24.06h-18V275.05a7.5,7.5,0,0,0-5.79-7.3,64,64,0,0,1-19.27-8,7.5,7.5,0,0,0-9.26,1.07l-17,17-12.72-12.72,17-17a7.5,7.5,0,0,0,1.07-9.26,64,64,0,0,1-8-19.27,7.5,7.5,0,0,0-7.3-5.79H110.51v-18h24.06a7.5,7.5,0,0,0,7.3-5.8,64.06,64.06,0,0,1,8-19.26,7.52,7.52,0,0,0-1.07-9.26l-17-17,12.72-12.71,17,17a7.52,7.52,0,0,0,9.26,1.07,64,64,0,0,1,19.27-8,7.51,7.51,0,0,0,5.79-7.31V110.5h18v24.06a7.51,7.51,0,0,0,5.79,7.31,64,64,0,0,1,19.27,8,7.52,7.52,0,0,0,9.26-1.07l17-17,12.72,12.71-17,17a7.5,7.5,0,0,0-1.07,9.26,64,64,0,0,1,8,19.26,7.5,7.5,0,0,0,7.3,5.8h24.06Z"/><path d="M204.81,164.63A40.18,40.18,0,1,0,245,204.81,40.22,40.22,0,0,0,204.81,164.63Zm0,65.36A25.18,25.18,0,1,1,230,204.81,25.21,25.21,0,0,1,204.81,230Z"/><path d="M32.38,197.31H7.5a7.5,7.5,0,0,0,0,15H32.38a7.5,7.5,0,0,0,0-15Z"/><path d="M402.12,197.31H377.24a7.5,7.5,0,0,0,0,15h24.88a7.5,7.5,0,0,0,0-15Z"/><path d="M88.19,321.43a7.5,7.5,0,0,0-10.61,0L60,339a7.5,7.5,0,0,0,10.6,10.61L88.19,332A7.5,7.5,0,0,0,88.19,321.43Z"/><path d="M349.63,60A7.5,7.5,0,0,0,339,60L321.43,77.58A7.5,7.5,0,0,0,332,88.19L349.63,70.6A7.5,7.5,0,0,0,349.63,60Z"/><path d="M204.81,0a7.5,7.5,0,0,0-7.5,7.5V32.38a7.5,7.5,0,0,0,15,0V7.5A7.5,7.5,0,0,0,204.81,0Z"/><path d="M349.63,339,332,321.43A7.5,7.5,0,0,0,321.43,332L339,349.63A7.5,7.5,0,0,0,349.63,339Z"/><path d="M88.19,77.58,70.59,60A7.5,7.5,0,0,0,60,70.6L77.58,88.19A7.5,7.5,0,0,0,88.19,77.58Z"/><path d="M354.44,186.43A150.84,150.84,0,0,0,223.22,54.6a7.5,7.5,0,1,0-1.82,14.89A135.1,135.1,0,0,1,339.54,188.18a7.49,7.49,0,0,0,7.44,6.63c.29,0,.58,0,.88-.05A7.51,7.51,0,0,0,354.44,186.43Z"/><path d="M347.77,214.87a7.49,7.49,0,0,0-8.38,6.5,135.16,135.16,0,0,1-62.54,97.77A50.44,50.44,0,0,0,253,362.05v30.87H156.62V361.37a49.39,49.39,0,0,0-23.11-41.77A135.69,135.69,0,0,1,188.23,69.5a7.5,7.5,0,0,0-1.84-14.88c-75,9.29-132.25,73.8-132.25,149.53a150.55,150.55,0,0,0,71.47,128.2,34.28,34.28,0,0,1,16,29V394a19.53,19.53,0,0,0-13.12,18.41v10.69a19.41,19.41,0,0,0,4.16,12,19.36,19.36,0,0,0-4.16,12v10.69a19.53,19.53,0,0,0,19.5,19.5h23.58v16.95A17.76,17.76,0,0,0,189.31,512h31A17.76,17.76,0,0,0,238,494.26V477.31h23.58a19.53,19.53,0,0,0,19.5-19.5V447.12a19.36,19.36,0,0,0-4.16-12,19.41,19.41,0,0,0,4.16-12V412.42A19.52,19.52,0,0,0,268,394v-32a35.52,35.52,0,0,1,16.82-30.21,150.06,150.06,0,0,0,69.44-108.59A7.48,7.48,0,0,0,347.77,214.87ZM223,494.26a2.78,2.78,0,0,1-2.73,2.74h-31a2.78,2.78,0,0,1-2.74-2.74V477.31H223Zm43.08-36.45a4.57,4.57,0,0,1-4.5,4.5H148a4.57,4.57,0,0,1-4.5-4.5v-10.7a4.57,4.57,0,0,1,4.5-4.5H261.62a4.57,4.57,0,0,1,4.5,4.5Zm0-34.7a4.56,4.56,0,0,1-4.5,4.5H148a4.56,4.56,0,0,1-4.5-4.5V412.42a4.56,4.56,0,0,1,4.5-4.5H261.63a4.57,4.57,0,0,1,4.5,4.5v10.69Z"/></g></g></svg>