<svg xmlns="http://www.w3.org/2000/svg" viewBox="0 0 361.2 512"><title>8</title><g id="Слой_2" data-name="Слой 2"><g id="Capa_1" data-name="Capa 1"><path d="M291.15,137.34a8.41,8.41,0,1,0-15.28,7,104.89,104.89,0,1,1-95.27-61,105.11,105.11,0,0,1,77.78,34.53,8.41,8.41,0,1,0,12.48-11.29,121.7,121.7,0,1,0,31.44,81.64A120.65,120.65,0,0,0,291.15,137.34Z"/><path d="M348.68,188.29c0-6.45,2.82-13.91,5.81-21.81,4.51-11.92,9.17-24.25,5.23-36.39-4.11-12.64-15.91-20.33-26.31-27.11-6.84-4.46-13.3-8.66-16.82-13.5S311,77,308.79,69.07c-3.23-11.91-6.9-25.4-17.5-33.12s-23.8-7-36.65-6.4c-8.31.39-16.15.76-22.08-1.17-5.52-1.79-11.42-6.56-17.67-11.61C205.16,8.91,194.13,0,180.6,0S156,8.91,146.31,16.78c-6.25,5-12.15,9.82-17.66,11.61-5.93,1.92-13.78,1.55-22.09,1.16C93.71,28.94,80.41,28.32,69.91,36S55.64,57.17,52.41,69.07c-2.17,8-4.21,15.48-7.8,20.42s-10,9-16.82,13.49c-10.4,6.78-22.2,14.47-26.31,27.11-3.94,12.14.72,24.47,5.23,36.4,3,7.9,5.81,15.36,5.81,21.8s-2.82,13.9-5.81,21.8C2.2,222-2.46,234.35,1.48,246.48c4.11,12.65,15.91,20.33,26.31,27.11,6.84,4.46,13.3,8.67,16.82,13.5s5.63,12.46,7.8,20.42c3.23,11.9,6.9,25.39,17.5,33.11s23.79,7,36.65,6.4c8.31-.39,16.15-.76,22.08,1.17,5.52,1.79,11.42,6.56,17.67,11.61a122.18,122.18,0,0,0,15.16,11L129.2,486.54,99.42,453.36a8.39,8.39,0,0,0-8.72-2.43l-42.63,13L74.8,368.06a8.41,8.41,0,1,0-16.21-4.52L27.73,474.18a8.42,8.42,0,0,0,10.56,10.31l52.19-15.9,36.44,40.61a8.41,8.41,0,0,0,14.37-3.36l36.09-129.46a27.3,27.3,0,0,0,6.43,0l36.1,129.46a8.43,8.43,0,0,0,6.2,5.94A8.23,8.23,0,0,0,228,512a8.44,8.44,0,0,0,6.27-2.8l36.43-40.61,52.19,15.9a8.42,8.42,0,0,0,10.56-10.31l-38.21-137c7.61-7.9,10.74-19.35,13.53-29.63,2.16-8,4.21-15.48,7.8-20.42s10-9,16.81-13.49c10.41-6.78,22.21-14.47,26.31-27.11,3.94-12.14-.72-24.47-5.23-36.39C351.5,202.19,348.68,194.73,348.68,188.29ZM313.14,463.92l-42.65-13a8.4,8.4,0,0,0-8.72,2.43L232,486.54,199.73,370.8a123.76,123.76,0,0,0,15.16-11c6.24-5,12.15-9.81,17.66-11.61,5.94-1.92,13.78-1.55,22.09-1.16,8.64.41,17.49.81,25.55-1.28Zm30.57-222.63c-2.27,7-10.64,12.43-19.49,18.2-7.82,5.09-15.89,10.35-21.24,17.69s-8,16.83-10.43,25.91c-2.75,10.12-5.35,19.68-11.17,23.92s-15.54,3.69-25.95,3.2c-9.45-.44-19.22-.91-28.07,2-8.48,2.75-15.89,8.74-23.05,14.53-8.3,6.7-16.13,13-23.71,13s-15.42-6.33-23.71-13c-7.16-5.79-14.57-11.78-23-14.53a56.39,56.39,0,0,0-17.53-2.3c-3.52,0-7,.16-10.54.33-10.41.49-20.24,1-25.95-3.2s-8.42-13.8-11.17-23.92c-2.47-9.08-5-18.47-10.43-25.91S44.8,264.58,37,259.49c-8.85-5.77-17.22-11.22-19.49-18.21-2.11-6.51,1.33-15.61,5-25.24,3.39-9,6.89-18.24,6.89-27.75s-3.5-18.79-6.89-27.75c-3.64-9.64-7.08-18.73-5-25.25,2.27-7,10.64-12.43,19.49-18.2,7.82-5.09,15.9-10.36,21.24-17.7s8-16.82,10.43-25.9C71.4,63.36,74,53.8,79.82,49.57s15.54-3.69,26-3.2c9.45.44,19.22.91,28.08-2,8.48-2.75,15.88-8.74,23-14.53,8.3-6.7,16.13-13,23.71-13s15.42,6.34,23.71,13c7.16,5.79,14.57,11.77,23.05,14.53,8.85,2.87,18.62,2.41,28.07,2,10.41-.49,20.24-1,25.95,3.2s8.42,13.79,11.17,23.92c2.47,9.07,5,18.46,10.43,25.9s13.42,12.6,21.23,17.69c8.86,5.77,17.23,11.22,19.5,18.21,2.11,6.51-1.33,15.61-5,25.24-3.39,9-6.89,18.24-6.89,27.76s3.5,18.78,6.89,27.75C342.38,225.67,345.82,234.77,343.71,241.29Z"/><path d="M213.11,136h-65a8.42,8.42,0,1,0,0,16.83h65a8.42,8.42,0,0,0,0-16.83Z"/><path d="M213.11,223.79h-65a8.42,8.42,0,1,0,0,16.84h65a8.42,8.42,0,0,0,0-16.84Z"/><path d="M236.41,179.87H211.06a8.42,8.42,0,1,0,0,16.83h25.35a8.42,8.42,0,1,0,0-16.83Z"/><path d="M184.7,179.87H124.79a8.42,8.42,0,1,0,0,16.83H184.7a8.42,8.42,0,1,0,0-16.83Z"/></g></g></svg>