<svg xmlns="http://www.w3.org/2000/svg" viewBox="0 0 512 469.07"><title>9</title><g id="Слой_2" data-name="Слой 2"><g id="Layer_1" data-name="Layer 1"><path d="M468.15,136.39H446.59V122.53L460,107.71a41.57,41.57,0,0,0,10.83-28V44.55A44.6,44.6,0,0,0,426.32,0H405.83a44.6,44.6,0,0,0-44.55,44.55V79.68a41.61,41.61,0,0,0,10.82,28l13.46,14.82v13.86H364a43.93,43.93,0,0,0-42.82,34.43,48.24,48.24,0,0,0-6.73-.48H289.2v-17l15.4-17a45.9,45.9,0,0,0,11.94-30.92V65.93a49.25,49.25,0,0,0-49.2-49.2,7.7,7.7,0,1,0,0,15.39,33.85,33.85,0,0,1,33.81,33.81V105.5a30.55,30.55,0,0,1-7.94,20.57l-15.87,17.47a7.71,7.71,0,0,0-3.53,6.48v28a7.69,7.69,0,0,0,7.69,7.7h32.95a33.05,33.05,0,0,1,33,33v48.3H164.13v-48.3a33.09,33.09,0,0,1,21.6-31,7.47,7.47,0,0,0,1.69-.57,33,33,0,0,1,9.73-1.46H230.1a7.7,7.7,0,0,0,7.7-7.7V150a7.69,7.69,0,0,0-3.54-6.48L218.4,126.07a30.51,30.51,0,0,1-8-20.57V65.93a33.85,33.85,0,0,1,33.81-33.81,7.7,7.7,0,1,0,0-15.39,49.25,49.25,0,0,0-49.2,49.2V105.5A45.9,45.9,0,0,0,207,136.42l15.4,17v17H197.15a49,49,0,0,0-6.34.43A43.92,43.92,0,0,0,148,136.39H126.44V122.53l13.45-14.82a41.62,41.62,0,0,0,10.83-28V44.55A44.6,44.6,0,0,0,106.17,0H85.68A44.6,44.6,0,0,0,41.13,44.55V79.68a41.57,41.57,0,0,0,10.83,28l13.45,14.82v13.86H43.85A43.9,43.9,0,0,0,0,180.24V230a7.69,7.69,0,0,0,7.7,7.69H127.46a7.7,7.7,0,0,0,0-15.39H15.39v-42a28.5,28.5,0,0,1,28.46-28.46H73.1a7.69,7.69,0,0,0,7.7-7.69V119.21a7.71,7.71,0,0,0-3.44-6.42l-14-15.42a26.31,26.31,0,0,1-6.83-17.69V44.55A29.19,29.19,0,0,1,85.68,15.39h20.49a29.19,29.19,0,0,1,29.16,29.16V79.68a26.23,26.23,0,0,1-6.84,17.68l-14,15.43a7.7,7.7,0,0,0-3.43,6.42v24.88a7.69,7.69,0,0,0,7.69,7.69H148a28.5,28.5,0,0,1,28,23.43,48.48,48.48,0,0,0-27.27,43.55v56a7.7,7.7,0,0,0,7.7,7.7H355.17a7.69,7.69,0,0,0,7.69-7.7v-56A48.46,48.46,0,0,0,336,175.4a28.51,28.51,0,0,1,28-23.62h29.25a7.69,7.69,0,0,0,7.7-7.69V119.21a7.71,7.71,0,0,0-3.44-6.42l-14-15.43a26.27,26.27,0,0,1-6.83-17.68V44.55a29.19,29.19,0,0,1,29.16-29.16h20.49a29.19,29.19,0,0,1,29.16,29.16V79.68a26.27,26.27,0,0,1-6.83,17.68l-14,15.43a7.68,7.68,0,0,0-3.44,6.42v24.88a7.69,7.69,0,0,0,7.69,7.69h29.26a28.5,28.5,0,0,1,28.46,28.46v42H385.87a7.7,7.7,0,1,0,0,15.39H504.3A7.69,7.69,0,0,0,512,230V180.24A43.9,43.9,0,0,0,468.15,136.39Z"/><path d="M333.41,380a7.7,7.7,0,0,0-6.08-5.22l-42-6.9L265.73,330a7.7,7.7,0,0,0-13.68,0L232.5,367.88l-42.05,6.9a7.7,7.7,0,0,0-4.23,13l30,30.3-6.43,42.12a7.72,7.72,0,0,0,7.61,8.86,7.82,7.82,0,0,0,3.46-.82l38.07-19.13L297,468.25a7.71,7.71,0,0,0,11.07-8l-6.43-42.12,30-30.3A7.71,7.71,0,0,0,333.41,380Zm-45.47,30a7.7,7.7,0,0,0-2.14,6.58l4.77,31.21-28.22-14.18a7.71,7.71,0,0,0-6.91,0L227.22,447.8,232,416.59a7.73,7.73,0,0,0-2.14-6.58l-22.2-22.45,31.16-5.12a7.69,7.69,0,0,0,5.59-4.06l14.49-28.05,14.49,28.05a7.69,7.69,0,0,0,5.6,4.06l31.16,5.12Z"/><path d="M501.89,323.4a7.7,7.7,0,0,0-6.07-5.22l-42-6.9-19.56-37.85a7.69,7.69,0,0,0-13.68,0L401,311.28l-42.05,6.9a7.7,7.7,0,0,0-4.23,13l30,30.3-6.43,42.12a7.7,7.7,0,0,0,11.06,8l38.08-19.13,38.07,19.13a7.69,7.69,0,0,0,11.06-8l-6.43-42.12,30-30.3A7.68,7.68,0,0,0,501.89,323.4Zm-45.47,30a7.69,7.69,0,0,0-2.13,6.57l4.76,31.21L430.84,377a7.69,7.69,0,0,0-6.91,0L395.71,391.2,400.47,360a7.68,7.68,0,0,0-2.13-6.57L376.14,331l31.16-5.11a7.72,7.72,0,0,0,5.59-4.06l14.49-28.06,14.49,28.06a7.72,7.72,0,0,0,5.59,4.06L478.62,331Z"/><path d="M164.92,323.4a7.7,7.7,0,0,0-6.07-5.22l-42-6.9L97.24,273.43a7.69,7.69,0,0,0-13.68,0L64,311.28,22,318.19a7.69,7.69,0,0,0-4.22,13l30,30.3-6.42,42.12a7.69,7.69,0,0,0,11.06,8L90.4,392.52l38.08,19.13a7.7,7.7,0,0,0,11.06-8l-6.43-42.12,30-30.3A7.68,7.68,0,0,0,164.92,323.4Zm-45.47,30a7.69,7.69,0,0,0-2.14,6.57l4.76,31.21L93.86,377A7.69,7.69,0,0,0,87,377L58.73,391.2,63.5,360a7.71,7.71,0,0,0-2.14-6.57L39.16,331l31.16-5.11a7.7,7.7,0,0,0,5.59-4.06l14.5-28.06,14.49,28.06a7.72,7.72,0,0,0,5.59,4.06L141.65,331Z"/></g></g></svg>