<svg xmlns="http://www.w3.org/2000/svg" viewBox="0 0 224.5 232.6"><defs><style>.cls-1{stroke:#000;stroke-miterlimit:10;stroke-width:2px;}</style></defs><title>Ресурс 6</title><g id="Слой_2" data-name="Слой 2"><g id="Layer_1" data-name="Layer 1"><path class="cls-1" d="M106,113.1a14.4,14.4,0,1,0,14.4,14.4A14.47,14.47,0,0,0,106,113.1Zm0,20.5a6.2,6.2,0,1,1,6.2-6.2A6.17,6.17,0,0,1,106,133.6Z"/><path class="cls-1" d="M194.6,173.9a28.5,28.5,0,0,0-18.1,6.4l-29-26.4a40.3,40.3,0,0,0,6-21.2,41.31,41.31,0,0,0-37.1-41V58.3a28.8,28.8,0,1,0-8.2,0V91.8A41.17,41.17,0,0,0,77,154L48.2,180.6a28.83,28.83,0,1,0,10.4,22.2,28.61,28.61,0,0,0-4.9-16.1L82,160.6a40.91,40.91,0,0,0,30.3,13.3,41.45,41.45,0,0,0,30.3-13.3L171,186.4a28.77,28.77,0,1,0,23.6-12.5ZM29.9,223.3a20.6,20.6,0,1,1,20.6-20.6A20.57,20.57,0,0,1,29.9,223.3ZM91.7,29.8a20.6,20.6,0,1,1,20.6,20.6A20.57,20.57,0,0,1,91.7,29.8Zm20.6,135.9a32.9,32.9,0,1,1,32.9-32.9A32.93,32.93,0,0,1,112.3,165.7Zm82.3,57.6a20.58,20.58,0,0,1-14.7-35l.2-.2a20.59,20.59,0,1,1,14.5,35.2Z"/><path class="cls-1" d="M194.6,186.3a16.52,16.52,0,0,0-16.5,16.5,4.1,4.1,0,1,0,8.2,0,8.24,8.24,0,0,1,8.2-8.2,4.06,4.06,0,0,0,4.1-4.1A3.94,3.94,0,0,0,194.6,186.3Z"/><path class="cls-1" d="M29.9,186.3a16.52,16.52,0,0,0-16.5,16.5,4.1,4.1,0,0,0,8.2,0,8.24,8.24,0,0,1,8.2-8.2,4.06,4.06,0,0,0,4.1-4.1A3.89,3.89,0,0,0,29.9,186.3Z"/><path class="cls-1" d="M116.4,17.5a4.06,4.06,0,0,0-4.1-4.1A16.52,16.52,0,0,0,95.8,29.9a4.1,4.1,0,1,0,8.2,0,8.24,8.24,0,0,1,8.2-8.2A4.29,4.29,0,0,0,116.4,17.5Z"/></g></g></svg>