<svg xmlns="http://www.w3.org/2000/svg" viewBox="0 0 512 458"><title>Ресурс 2</title><g id="Слой_2" data-name="Слой 2"><g id="Capa_1" data-name="Capa 1"><path d="M146.68,390.11l-35.47-84a10,10,0,0,0-18.42,0l-35.46,84a10,10,0,1,0,18.42,7.78l5-11.87h42.48l5,11.87a10,10,0,0,0,18.43-7.78ZM89.21,366,102,335.71,114.79,366Z"/><path d="M502,0H10A10,10,0,0,0,0,10V202a10,10,0,0,0,10,10H502a10,10,0,0,0,10-10V10A10,10,0,0,0,502,0ZM184,192H20V20H184Zm308,0H204V20H492Z"/><path d="M368.5,96H256.13a10,10,0,0,0,0,20H368.5a10,10,0,0,0,0-20Z"/><path d="M447.53,96H411.41a10,10,0,0,0,0,20h36.12a10,10,0,0,0,0-20Z"/><path d="M417.9,52H256.13a10,10,0,0,0,0,20H417.9a10,10,0,0,0,0-20Z"/><path d="M455.07,54.93A10,10,0,1,0,458,62,10.08,10.08,0,0,0,455.07,54.93Z"/><path d="M341.33,140h-85.2a10,10,0,0,0,0,20h85.2a10,10,0,0,0,0-20Z"/><path d="M382.36,142.93a10,10,0,1,0,2.93,7.07A10.08,10.08,0,0,0,382.36,142.93Z"/><path d="M418.48,142.93a10,10,0,1,0,2.93,7.07A10.08,10.08,0,0,0,418.48,142.93Z"/><path d="M454.6,142.93a10,10,0,1,0,2.93,7.07A10.08,10.08,0,0,0,454.6,142.93Z"/><path d="M502,246H10A10,10,0,0,0,0,256V448a10,10,0,0,0,10,10H502a10,10,0,0,0,10-10V256A10,10,0,0,0,502,246ZM184,438H20V266H184Zm308,0H204V266H492Z"/><path d="M368.5,342H256.13a10,10,0,0,0,0,20H368.5a10,10,0,0,0,0-20Z"/><path d="M447.53,342H411.41a10,10,0,0,0,0,20h36.12a10,10,0,0,0,0-20Z"/><path d="M417.9,298H256.13a10,10,0,0,0,0,20H417.9a10,10,0,0,0,0-20Z"/><path d="M455.07,300.93A10,10,0,1,0,458,308,10.08,10.08,0,0,0,455.07,300.93Z"/><path d="M447.53,386H256.13a10,10,0,0,0,0,20h191.4a10,10,0,0,0,0-20Z"/><path d="M150.93,136l-9.49-7A45.73,45.73,0,0,0,146,109V93a46,46,0,0,0-92,0v16a46,46,0,0,0,75,35.65l10,7.4A10,10,0,0,0,150.93,136ZM126,109a26,26,0,0,1-1.17,7.73L114.26,109a10,10,0,1,0-11.86,16.1l9.55,7A26,26,0,0,1,74,109V93a26,26,0,0,1,52,0Z"/></g></g></svg>