<svg xmlns="http://www.w3.org/2000/svg" viewBox="0 0 496 496"><title>Ресурс 1</title><g id="Слой_2" data-name="Слой 2"><g id="Слой_1-2" data-name="Слой 1"><path d="M184,208a24,24,0,1,0-24,24A24,24,0,0,0,184,208Zm-24,8a8,8,0,1,1,8-8A8,8,0,0,1,160,216Z"/><path d="M320,80a24,24,0,1,0-24-24A24,24,0,0,0,320,80Zm0-32a8,8,0,1,1-8,8A8,8,0,0,1,320,48Z"/><path d="M488,352H474.44a95.36,95.36,0,0,0-4.51-10.61l7.73-7.73a8,8,0,0,0,0-11.32l-32-32a8,8,0,0,0-11.31,0l-7.73,7.74A98.2,98.2,0,0,0,416,293.56V280a8,8,0,0,0-8-8H361.59L232,218.64V195.31l56.1-56.1A95.45,95.45,0,0,1,304,192v24a8,8,0,0,0,3.2,6.4l32,24A8,8,0,0,0,352,240V203.31L371.31,184h25.38L416,203.31V240a8,8,0,0,0,12.8,6.4l32-24A8,8,0,0,0,464,216V184a8,8,0,0,0-2.34-5.66l-40-40A8,8,0,0,0,416,136V88a8,8,0,0,0-2.34-5.66l-39.21-39.2a55.93,55.93,0,0,0-108.9,0L227,81.73A111.87,111.87,0,0,0,208,80H168A112.13,112.13,0,0,0,56,190.19L.75,308.62A8,8,0,0,0,8,320H56v96a8,8,0,0,0,8,8h80v72h16V416a8,8,0,0,0-8-8H72V312a8,8,0,0,0-8-8H20.56L71.25,195.38A7.87,7.87,0,0,0,72,192a96.11,96.11,0,0,1,96-96h40c1.5,0,3,.16,4.46.22L172.69,136H144a8,8,0,0,0-8,8v13.45a55.71,55.71,0,0,0-9.44,5.8l-16.9-16.91L98.34,157.66l16.9,16.89a56.11,56.11,0,0,0-5.8,9.44H96a8,8,0,0,0-8,8v32a8,8,0,0,0,8,8h13.45a55.32,55.32,0,0,0,5.8,9.44l-16.9,16.9,11.31,11.31,16.91-16.9a55.71,55.71,0,0,0,9.44,5.8V272a8,8,0,0,0,8,8h28.05l101.6,132.86.1-.08A7.83,7.83,0,0,0,280,416h13.56a95.36,95.36,0,0,0,4.51,10.61l-7.73,7.73a8,8,0,0,0,0,11.32l32,32a8,8,0,0,0,11.31,0l7.74-7.74a96.38,96.38,0,0,0,10.6,4.52V488a8,8,0,0,0,8,8h48a8,8,0,0,0,8-8V474.45a96.17,96.17,0,0,0,10.63-4.5l7.72,7.71a8,8,0,0,0,11.31,0l32-32a8,8,0,0,0,0-11.32l-7.72-7.71a95.37,95.37,0,0,0,4.5-10.63H488a8,8,0,0,0,8-8V360A8,8,0,0,0,488,352ZM290.34,333.66l7.73,7.71A93.59,93.59,0,0,0,293.56,352H280a8,8,0,0,0-8,8v24.38L184,269.3V258.55a56.11,56.11,0,0,0,9.44-5.8l16.9,16.91,11.32-11.32-16.9-16.89a56.11,56.11,0,0,0,5.8-9.44h11.86L352,285.36v8.19a96.17,96.17,0,0,0-10.63,4.5l-7.71-7.71a8,8,0,0,0-11.32,0l-32,32a8,8,0,0,0,0,11.32Zm9.25-205.93,16-16c1.47.12,3,.23,4.46.23a55.47,55.47,0,0,0,23.46-5.22l8.54,8.53V136a8,8,0,0,0-5.66,2.34l-29.13,29.14A111.53,111.53,0,0,0,299.59,127.73ZM448,187.31V212l-16,12V200a8,8,0,0,0-2.34-5.66l-24-24A8,8,0,0,0,400,168H368a8,8,0,0,0-5.66,2.34l-24,24A8,8,0,0,0,336,200v24l-16-12V187.31L355.31,152h57.38ZM368,136V120h32v16Zm32-32H363.31l-6.19-6.19A55.93,55.93,0,0,0,375,66.31l25,25ZM320,16a40,40,0,1,1-40,40A40,40,0,0,1,320,16ZM265,66.32a56.14,56.14,0,0,0,32.47,40.9l-8.07,8.08a112.19,112.19,0,0,0-44.46-28.92Zm13.09,60.29L220.69,184H210.55a55.71,55.71,0,0,0-5.8-9.44l16.9-16.9-11.31-11.31-16.91,16.91a54.45,54.45,0,0,0-9.44-5.8V147.32L232.11,99.2A95.73,95.73,0,0,1,278.08,126.61ZM168,264H152V253.21a8,8,0,0,0-5.33-7.54,39.78,39.78,0,0,1-24.34-24.33,8,8,0,0,0-7.54-5.34H104V200h10.79a8,8,0,0,0,7.54-5.34,39.81,39.81,0,0,1,24.34-24.33,8,8,0,0,0,5.33-7.54V152h16v10.79a8,8,0,0,0,5.33,7.54,39.83,39.83,0,0,1,24.34,24.33,8,8,0,0,0,7.54,5.34H216v16H205.21a8,8,0,0,0-7.54,5.34,39.81,39.81,0,0,1-24.34,24.33,8,8,0,0,0-5.33,7.54ZM480,400H468.6a8,8,0,0,0-7.69,5.82,80.14,80.14,0,0,1-7.75,18.24,8,8,0,0,0,1.26,9.68l6.27,6.26L440,460.69l-6.26-6.26a8,8,0,0,0-9.67-1.27,78.7,78.7,0,0,1-18.25,7.73A8,8,0,0,0,400,468.6V480H368V468.6a8,8,0,0,0-5.82-7.69A80.09,80.09,0,0,1,344,453.14a8,8,0,0,0-9.67,1.26L328,460.69,307.31,440l6.29-6.29a8,8,0,0,0,1.26-9.67,79.14,79.14,0,0,1-7.77-18.22A8,8,0,0,0,299.4,400H288V368h11.4a8,8,0,0,0,7.7-5.82,79.66,79.66,0,0,1,7.74-18.24,8,8,0,0,0-1.25-9.67L307.31,328,328,307.31l6.26,6.27a8,8,0,0,0,9.68,1.26,78.44,78.44,0,0,1,18.24-7.73A8,8,0,0,0,368,299.4V288h32v11.4a8,8,0,0,0,5.82,7.7A79.24,79.24,0,0,1,424,314.86a8,8,0,0,0,9.67-1.26l6.29-6.29L460.69,328l-6.29,6.29a8,8,0,0,0-1.26,9.67,79.14,79.14,0,0,1,7.77,18.22A8,8,0,0,0,468.6,368H480Z"/><path d="M384,320a64,64,0,1,0,64,64A64.07,64.07,0,0,0,384,320Zm0,112a48,48,0,1,1,48-48A48.05,48.05,0,0,1,384,432Z"/></g></g></svg>