<?xml version="1.0" standalone="no"?>
<!DOCTYPE svg PUBLIC "-//W3C//DTD SVG 1.1//EN" "http://www.w3.org/Graphics/SVG/1.1/DTD/svg11.dtd" >
<svg xmlns="http://www.w3.org/2000/svg" xmlns:xlink="http://www.w3.org/1999/xlink" version="1.1">
<metadata>
Created by FontForge 20170731 at Wed Apr 11 16:18:49 2018
 By Aleksey,,,
Copyright (c) 2018 by Slobodan Jelesijevic &#38; Tour de Force Font Foundry. All rights reserved.
</metadata>
<defs>
<font id="Dopis-Regular" horiz-adv-x="617" >
  <font-face 
    font-family="Dopis"
    font-weight="400"
    font-stretch="normal"
    units-per-em="1000"
    panose-1="2 0 5 4 0 0 0 2 0 4"
    ascent="770"
    descent="-230"
    x-height="507"
    cap-height="700"
    bbox="-31 -245 1164 983"
    underline-thickness="50"
    underline-position="-200"
    unicode-range="U+0020-FB02"
  />
<missing-glyph horiz-adv-x="249" 
 />
    <glyph glyph-name=".notdef" horiz-adv-x="249" 
 />
    <glyph glyph-name=".null" horiz-adv-x="0" 
 />
    <glyph glyph-name="nonmarkingreturn" horiz-adv-x="333" 
 />
    <glyph glyph-name="uni0020" unicode=" " horiz-adv-x="250" 
 />
    <glyph glyph-name="uni0021" unicode="!" horiz-adv-x="242" 
d="M172 387l-15 -216h-73l-13 217v312h101v-313zM172 0h-102v101h102v-101z" />
    <glyph glyph-name="uni0022" unicode="&#x22;" horiz-adv-x="338" 
d="M70 700h78l-14 -262h-64v262zM190 700h78l-14 -262h-64v262z" />
    <glyph glyph-name="uni0023" unicode="#" horiz-adv-x="801" 
d="M141 419l23 68h145l77 222h74l-77 -222h130l77 222h74l-77 -222h144l-23 -68h-145l-48 -138h189l-23 -67h-189l-77 -222h-74l77 222h-130l-77 -222h-74l77 222h-144l23 67h144l48 138h-144zM489 419h-130l-48 -138h130z" />
    <glyph glyph-name="uni0024" unicode="$" horiz-adv-x="635" 
d="M295 708v121h48v-121q93 -7 153.5 -54t77.5 -133l-95 -23q-18 112 -136 125v-213q107 -29 134 -40q118 -54 118 -173q0 -90 -67.5 -145.5t-184.5 -59.5v-122h-48v122q-109 6 -176 62t-79 160l93 17q10 -76 48.5 -113t113.5 -42v243q-81 21 -133 44q-45 20 -71 60.5
t-26 92.5q0 89 67 138q68 50 163 54zM419 285q-1 0 -9.5 2.5t-27.5 8t-39 11.5v-232q60 4 110 34q47 29 47 85q0 60 -81 91zM160 523q0 -48 45 -70q38 -20 90 -31v202q-59 -4 -97 -29.5t-38 -71.5z" />
    <glyph glyph-name="uni0025" unicode="%" horiz-adv-x="874" 
d="M161 620q-25 -32 -25 -87t25 -86q25 -33 70 -33q44 0 69.5 32.5t25.5 86.5t-25.5 86.5t-69.5 32.5t-70 -32zM114 405q-44 47 -44 128q0 80 44 129q44 47 117 47t117 -48t44 -128q0 -81 -43.5 -128.5t-117.5 -47.5q-73 0 -117 48zM573 254q-25 -32 -25 -87t25 -86
q25 -33 70 -33q44 0 69.5 32.5t25.5 86.5t-25.5 86.5t-69.5 32.5t-70 -32zM526 39q-44 47 -44 128q0 80 44 129q44 47 117 47t117 -48t44 -128q0 -81 -43.5 -128.5t-117.5 -47.5q-73 0 -117 48zM212 -26l392 753h64l-393 -753h-63z" />
    <glyph glyph-name="uni0026" unicode="&#x26;" horiz-adv-x="626" 
d="M139 181q0 -47 36 -79q36 -33 83 -33q90 0 148 61l-167 200q-30 -25 -54 -47q-16 -16 -31 -43q-15 -28 -15 -59zM265 436q60 35 79 51q37 33 36 73q0 34 -25 56t-60 22q-39 0 -65 -23.5t-26 -59.5q0 -46 61 -119zM496 350l70 -15q-16 -103 -57 -184l127 -151h-120l-62 74
q-83 -83 -203 -83q-88 0 -150 56q-61 55 -61 141q0 112 149 204q-63 90 -63 164q0 68 49 111q48 42 118 42q69 0 115 -42q45 -42 45 -107q0 -59 -32.5 -97.5t-104.5 -81.5l142 -170q23 44 38 139z" />
    <glyph glyph-name="uni0027" unicode="'" horiz-adv-x="218" 
d="M70 700h78l-14 -262h-64v262z" />
    <glyph glyph-name="uni0028" unicode="(" horiz-adv-x="334" 
d="M284 -194h-61q-76 137 -114 242q-39 103 -39 218q0 121 37 230.5t116 230.5h61q-124 -211 -124 -461q0 -199 124 -460z" />
    <glyph glyph-name="uni0029" unicode=")" horiz-adv-x="334" 
d="M111 -194h-61q124 261 124 460q0 250 -124 461h61q79 -121 116 -230.5t37 -230.5q0 -113 -38 -218q-41 -108 -115 -242z" />
    <glyph glyph-name="uni002A" unicode="*" horiz-adv-x="529" 
d="M353 336l-88 143l-88 -143l-55 35l97 143l-149 28l14 64l152 -37l-4 140h66l-3 -140l151 36l13 -63l-1 -1l-146 -27l96 -143z" />
    <glyph glyph-name="uni002B" unicode="+" 
d="M274 510h68v-204h205v-68h-205v-205h-68v205h-204v68h204v204z" />
    <glyph glyph-name="uni002C" unicode="," horiz-adv-x="241" 
d="M70 -108v46q26 0 39 13.5t15 48.5h-54v102h101v-96q0 -56 -27.5 -85t-73.5 -29z" />
    <glyph glyph-name="uni002D" unicode="-" horiz-adv-x="448" 
d="M70 297h308v-87h-308v87z" />
    <glyph glyph-name="uni002E" unicode="." horiz-adv-x="241" 
d="M171 0h-101v102h101v-102z" />
    <glyph glyph-name="uni002F" unicode="/" horiz-adv-x="418" 
d="M348 709l-220 -718h-58l219 718h59z" />
    <glyph glyph-name="uni0030" unicode="0" horiz-adv-x="636" 
d="M317 710q129 -1 196 -101.5t65 -257.5q0 -158 -65 -259q-66 -101 -196 -101q-128 1 -194.5 101.5t-64.5 258.5q0 102 26.5 181t86.5 128.5t146 49.5zM317 627q-159 0 -159 -276q0 -277 159 -277q161 0 161 277q0 276 -161 276z" />
    <glyph glyph-name="uni0031" unicode="1" horiz-adv-x="399" 
d="M265 77h97v-77h-300v77h107v420l6 95h-6l-114 -80l-45 65l175 123h80v-623z" />
    <glyph glyph-name="uni0032" unicode="2" horiz-adv-x="538" 
d="M424 325q-32 -27 -85 -53q-53 -27 -94 -44q-45 -19 -83 -56t-53 -83h390v-89h-493v1q4 184 137 271q13 8 35.5 19.5t52.5 26t43 21.5q33 17 62 38q66 45 66 124q0 53 -38.5 89.5t-100.5 36.5q-57 0 -89 -27.5t-45 -85.5l-91 32q18 79 78.5 121.5t156.5 42.5t163 -56
q66 -57 66 -160q0 -104 -78 -169z" />
    <glyph glyph-name="uni0033" unicode="3" horiz-adv-x="550" 
d="M6 184l95 21q11 -70 51.5 -100.5t114.5 -30.5q68 0 112.5 35.5t44.5 94.5q0 123 -163 123h-67v81h67q68 0 104.5 34.5t36.5 85.5q0 99 -135 99q-111 0 -133 -88l-94 20q45 151 230 151q98 2 164 -44t67 -137q0 -53 -27 -96.5t-70 -59.5v-5q120 -47 120 -171
q0 -100 -74 -153q-76 -53 -183 -53q-109 0 -177.5 48t-83.5 145z" />
    <glyph glyph-name="uni0034" unicode="4" horiz-adv-x="546" 
d="M6 168v91l335 441h95v-444h102v-88h-102v-168h-95v168h-335zM341 466l6 105h-7l-157 -210l-79 -99v-6h237v210z" />
    <glyph glyph-name="uni0035" unicode="5" horiz-adv-x="548" 
d="M129 318h-88l62 382h388v-88h-318l-12 -68l-24 -116h6q57 39 127 39q131 0 195 -67q65 -68 65 -173q0 -108 -66.5 -172t-192.5 -64q-103 0 -168 44t-87 121l92 29q28 -111 163 -111q159 0 159 153q0 157 -160 157q-108 0 -141 -66z" />
    <glyph glyph-name="uni0036" unicode="6" horiz-adv-x="638" 
d="M568 580l-92 -30q-36 79 -126 79q-158 0 -184 -239h4q55 88 175 88q107 0 172 -69q63 -71 63 -176q0 -104 -67 -172q-67 -70 -176 -70q-77 0 -132.5 30.5t-84.5 85.5q-54 102 -54 242q0 161 75 261t211 100q161 0 216 -130zM336 73q66 0 105 47q39 46 39 113
q0 163 -147 163q-70 0 -107.5 -44.5t-37.5 -118.5q0 -67 40 -113q39 -47 108 -47z" />
    <glyph glyph-name="uni0037" unicode="7" horiz-adv-x="486" 
d="M355 614v7h-350v89h476v-73q-112 -136 -183 -289t-113 -348h-104q73 356 274 614z" />
    <glyph glyph-name="uni0038" unicode="8" horiz-adv-x="597" 
d="M122 658q61 52 177 52t177 -52q60 -52 60 -139q0 -97 -93 -145v-9q116 -47 116 -166q0 -97 -66.5 -152.5t-193.5 -55.5t-194 55.5t-67 152.5q0 121 116 166v9q-94 48 -94 145q0 86 62 139zM299 327q-81 0 -121 -34.5t-40 -93.5t40 -93t121 -34q80 0 120 35t40 92
q0 59 -39.5 93.5t-120.5 34.5zM299 629q-72 0 -106 -29.5t-34 -80.5q0 -50 35 -80.5t105 -30.5q69 0 103.5 30.5t34.5 80.5q0 110 -138 110z" />
    <glyph glyph-name="uni0039" unicode="9" horiz-adv-x="641" 
d="M73 121l92 30q36 -79 126 -79q158 0 184 239h-4q-55 -88 -175 -88q-108 0 -171 70q-64 68 -64 175q0 102 68 173q68 69 175 69q77 0 133 -30.5t85 -85.5q53 -100 53 -242q0 -160 -75 -261q-75 -100 -211 -100q-161 0 -216 130zM305 628q-66 0 -105 -47t-39 -113
q0 -163 147 -163q70 0 107.5 44.5t37.5 118.5q0 68 -39 114q-40 46 -109 46z" />
    <glyph glyph-name="uni003A" unicode=":" horiz-adv-x="241" 
d="M171 0h-101v102h101v-102zM171 405h-101v102h101v-102z" />
    <glyph glyph-name="uni003B" unicode=";" horiz-adv-x="241" 
d="M70 -108v46q26 0 39 13.5t15 48.5h-54v102h101v-97q0 -55 -27.5 -84t-73.5 -29zM70 405h101v102h-101v-102z" />
    <glyph glyph-name="uni003C" unicode="&#x3c;" 
d="M158 272l389 -181v-73l-477 221v66l477 223v-75z" />
    <glyph glyph-name="uni003D" unicode="=" 
d="M547 214v-68h-477v68h477zM547 398v-68h-477v68h477z" />
    <glyph glyph-name="uni003E" unicode="&#x3e;" 
d="M547 239l-477 -221v73l389 181l-389 181v75l477 -223v-66z" />
    <glyph glyph-name="uni003F" unicode="?" horiz-adv-x="524" 
d="M269 709q97 0 155 -46t58 -131q0 -43 -17 -72q-24 -41 -41 -58q-13 -12 -24 -23q-3 -5 -27 -25q-22 -19 -25 -22q-46 -44 -50 -94q-2 -24 -2 -60h-89q0 79 13 121q14 45 62 90q7 7 34 31q24 21 36 35q32 40 32 80q0 44 -32.5 68t-85.5 24q-60 0 -92 -22.5t-42 -70.5
l-92 23q20 79 74.5 115.5t154.5 36.5zM303 0h-103v101h103v-101z" />
    <glyph glyph-name="uni0040" unicode="@" horiz-adv-x="1005" 
d="M666 -9q-35 0 -56 23.5t-23 62.5h-7q-59 -86 -158 -86q-50 0 -85 24.5t-50 63t-21 85t3 89.5q16 110 82 187q65 75 155 75q79 0 120 -59h6l8 50h84l-50 -307q-22 -129 20 -129q45 0 105 70q75 89 75 197q0 136 -101 219t-242 83q-175 0 -287 -118q-113 -119 -113 -295
q0 -174 113 -272q112 -96 300 -96q100 0 191 33t144 108l64 -42q-78 -89 -172.5 -129.5t-224.5 -40.5q-223 0 -351 110q-66 56 -100.5 140t-34.5 181q0 137 57 247t165 177q109 67 254 67q167 4 288.5 -102.5t120.5 -270.5q0 -141 -97 -247q-89 -98 -182 -98zM447 61
q55 0 94.5 53.5t52.5 138.5q6 30 4 77.5t-22 78.5q-23 36 -68 36q-55 0 -94.5 -53.5t-52.5 -138.5q-8 -64 3 -118q6 -34 28 -54t55 -20z" />
    <glyph glyph-name="uni0041" unicode="A" horiz-adv-x="654" 
d="M269 700h115l270 -700h-104l-74 193h-302l-74 -193h-100zM206 277h239l-87 230l-30 89h-6l-30 -89z" />
    <glyph glyph-name="uni0042" unicode="B" horiz-adv-x="635" 
d="M465 381v-5q68 -15 104 -63t35 -113q0 -88 -66 -144q-68 -56 -164 -56h-294v700h283q101 0 154 -52q54 -52 54 -123q0 -53 -27 -91.5t-79 -52.5zM176 329v-245h185q64 0 103.5 33.5t39.5 89.5t-39.5 89t-103.5 33h-185zM176 616v-205h165q60 0 95 27.5t35 76.5
q0 48 -34.5 74.5t-95.5 26.5h-165z" />
    <glyph glyph-name="uni0043" unicode="C" horiz-adv-x="757" 
d="M609 237l88 -26q-18 -56 -51 -101t-68 -67q-32 -22 -72 -34q-56 -18 -103 -18q-157 0 -250 100q-93 99 -93 259q0 158 93 258q93 101 249 101q97 0 173 -43.5t109 -122.5l-84 -36q-26 56 -80 87t-118 31q-121 0 -181 -76q-61 -76 -61 -199t61 -199q60 -76 180 -76
q71 0 130 47t78 115z" />
    <glyph glyph-name="uni0044" unicode="D" horiz-adv-x="757" 
d="M340 0h-260v700h260q170 0 264 -99q93 -99 93 -251t-93 -251q-94 -99 -264 -99zM345 615h-169v-530h169q127 0 190 74q62 74 62 191t-62 191q-63 74 -190 74z" />
    <glyph glyph-name="uni0045" unicode="E" horiz-adv-x="601" 
d="M176 84h415v-84h-511v700h511v-84h-415v-203h339v-84h-339v-245z" />
    <glyph glyph-name="uni0046" unicode="F" horiz-adv-x="579" 
d="M485 321h-309v-321h-96v700h489v-84h-393v-211h309v-84z" />
    <glyph glyph-name="uni0047" unicode="G" horiz-adv-x="759" 
d="M401 709q205 0 294 -167l-85 -36q-59 119 -209 119q-120 0 -180 -76q-61 -76 -61 -199q0 -122 60 -198q59 -75 180 -77q66 0 111 10.5t92 38.5v162h-195v84h291v-277q-55 -50 -133.5 -76t-164.5 -26q-157 0 -249 102q-92 103 -92 257q0 158 96 259q96 100 245 100z" />
    <glyph glyph-name="uni0048" unicode="H" horiz-adv-x="760" 
d="M680 700v-700h-96v329h-408v-329h-96v700h96v-286h408v286h96z" />
    <glyph glyph-name="uni0049" unicode="I" horiz-adv-x="388" 
d="M146 615h-96v85h288v-85h-96v-530h96v-85h-288v85h96v530z" />
    <glyph glyph-name="uni004A" unicode="J" horiz-adv-x="488" 
d="M312 615h-96v85h192v-500q0 -103 -51.5 -156t-147.5 -53q-87 0 -138 44.5t-61 129.5l90 16q7 -106 109 -106q53 0 78 28t25 88v424z" />
    <glyph glyph-name="uni004B" unicode="K" horiz-adv-x="644" 
d="M80 700h96v-293h90l235 293h115l-178 -222l-86 -102v-5l86 -105l206 -266h-122l-250 322h-96v-322h-96v700z" />
    <glyph glyph-name="uni004C" unicode="L" horiz-adv-x="550" 
d="M80 700h96v-615h364v-85h-460v700z" />
    <glyph glyph-name="uni004D" unicode="M" horiz-adv-x="826" 
d="M416 285l59 119l154 296h117v-700h-96v421l6 115h-6l-184 -346h-106l-184 346h-5l5 -115v-421h-96v700h117l154 -296l59 -119h6z" />
    <glyph glyph-name="uni004E" unicode="N" horiz-adv-x="739" 
d="M170 546l6 -115v-431h-96v700h103l380 -548h6l-6 115v433h96v-700h-104l-379 546h-6z" />
    <glyph glyph-name="uni004F" unicode="O" horiz-adv-x="803" 
d="M150 608q89 101 251 101t252 -101q90 -102 90 -258q0 -157 -90 -257q-90 -102 -252 -102q-163 0 -251 102q-90 100 -90 257q0 156 90 258zM401 625q-118 0 -180 -77q-61 -76 -61 -198t61 -198q62 -77 180 -77q119 0 181 77q61 76 61 198t-61 198q-62 77 -181 77z" />
    <glyph glyph-name="uni0050" unicode="P" horiz-adv-x="624" 
d="M176 0h-96v700h305q105 0 162 -60t57 -151q0 -92 -57 -152t-162 -60h-209v-277zM379 616h-203v-255h203q62 0 93.5 34.5t31.5 93.5t-31.5 93t-93.5 34z" />
    <glyph glyph-name="uni0051" unicode="Q" horiz-adv-x="807" 
d="M150 608q89 101 251 101t252 -101q90 -102 90 -258q0 -136 -69 -232q-71 -98 -199 -120q24 -16 53 -24q76 -20 178 20l41 -74q-124 -57 -239 -28q-93 24 -144 101q-145 12 -224 112q-80 100 -80 245q0 156 90 258zM401 625q-118 0 -180 -77q-61 -76 -61 -198t61 -198
q62 -77 180 -77q119 0 181 77q61 76 61 198t-61 198q-62 77 -181 77z" />
    <glyph glyph-name="uni0052" unicode="R" horiz-adv-x="660" 
d="M176 0h-96v700h308q100 0 155 -57q55 -56 55 -145q0 -72 -42 -123t-115 -65v-6q47 -33 78 -85l131 -219h-113l-106 179q-6 10 -12.5 20t-12 18.5t-7.5 11.5q-9 12 -32 34q-39 32 -122 32h-69v-295zM380 616h-204v-237h204q58 0 88 32t30 87t-30 86.5t-88 31.5z" />
    <glyph glyph-name="uni0053" unicode="S" horiz-adv-x="635" 
d="M311 709q103 0 173.5 -46t89.5 -142l-95 -23q-19 127 -167 127q-36 1 -68.5 -8t-57.5 -33.5t-26 -60.5q0 -34 22 -52q26 -22 50 -30t63 -18q26 -7 29 -8q128 -35 153 -45q118 -54 118 -173q0 -94 -73 -150t-198 -56q-121 0 -195.5 55.5t-88.5 167.5l93 17
q11 -83 56 -119.5t135 -36.5q65 0 121 29q55 28 55 90q0 60 -81 91q-20 7 -123 34q-76 19 -134 44q-45 20 -71 60.5t-26 92.5q0 92 73 143q73 50 173 50z" />
    <glyph glyph-name="uni0054" unicode="T" horiz-adv-x="554" 
d="M229 0v615h-229v85h554v-85h-229v-615h-96z" />
    <glyph glyph-name="uni0055" unicode="U" horiz-adv-x="740" 
d="M563 700h97v-422q0 -137 -74 -212t-217 -75q-141 0 -215 75.5t-74 212.5v421h96v-421q0 -103 46.5 -153.5t146.5 -50.5q101 0 147.5 50.5t46.5 153.5v421z" />
    <glyph glyph-name="uni0056" unicode="V" horiz-adv-x="631" 
d="M357 228l170 472h104l-260 -700h-110l-261 700h104l169 -472l39 -114h6z" />
    <glyph glyph-name="uni0057" unicode="W" horiz-adv-x="808" 
d="M401 369l-33 -112l-79 -257h-103l-186 700h99l113 -426l27 -115h6l33 115l73 237h106l74 -237l32 -115h6l27 115l113 426h99l-186 -700h-103l-79 257l-33 112h-6z" />
    <glyph glyph-name="uni0058" unicode="X" horiz-adv-x="603" 
d="M468 700h111l-218 -332l242 -368h-115l-112 170l-74 117h-6l-74 -117l-112 -170h-110l241 366l-220 334h116l88 -136l74 -118h6l74 118z" />
    <glyph glyph-name="uni0059" unicode="Y" horiz-adv-x="605" 
d="M446 0h-288v85h96v178l-254 437h111l125 -215l65 -118h6l66 118l125 215h107l-255 -438v-177h96v-85z" />
    <glyph glyph-name="uni005A" unicode="Z" horiz-adv-x="565" 
d="M132 85h423v-85h-545v85l321 410l94 114v6h-386v85h509v-85l-324 -413l-92 -111v-6z" />
    <glyph glyph-name="uni005B" unicode="[" horiz-adv-x="310" 
d="M70 709h190v-70h-101v-775h101v-71h-190v916z" />
    <glyph glyph-name="uni005C" unicode="\" horiz-adv-x="467" 
d="M333 -9l-263 718h65l262 -718h-64z" />
    <glyph glyph-name="uni005D" unicode="]" horiz-adv-x="310" 
d="M151 639h-101v70h190v-916h-190v71h101v775z" />
    <glyph glyph-name="uni005E" unicode="^" horiz-adv-x="576" 
d="M70 326l179 383h78l179 -383h-77l-141 300l-141 -300h-77z" />
    <glyph glyph-name="uni005F" unicode="_" horiz-adv-x="769" 
d="M70 -144h629v-68h-629v68z" />
    <glyph glyph-name="uni0060" unicode="`" horiz-adv-x="314" 
d="M184 580l-114 157h94l80 -157h-60z" />
    <glyph glyph-name="uni0061" unicode="a" horiz-adv-x="583" 
d="M154 361l-80 24q32 131 204 131q99 0 152 -47t53 -137v-139q0 -153 30 -193h-91q-16 27 -19 67h-6q-48 -76 -184 -76q-80 0 -126.5 36.5t-46.5 104.5q0 139 199 158q125 10 156 20q-1 72 -32.5 103t-95.5 32q-93 0 -113 -84zM395 215v32q-27 -9 -145 -26q-41 -6 -62 -13
q-17 -7 -29 -15q-27 -21 -27 -58q0 -38 28 -59t72 -21q74 0 118.5 44t44.5 116z" />
    <glyph glyph-name="uni0062" unicode="b" horiz-adv-x="610" 
d="M326 -9q-104 0 -168 72h-6v-63h-82v700h88v-249h6q62 65 162 65q108 0 171 -74q63 -75 63 -188t-63 -188t-171 -75zM312 63q74 0 115 52.5t41 138.5t-41 138t-115 52q-73 0 -113.5 -50t-40.5 -132q0 -95 40 -147t114 -52z" />
    <glyph glyph-name="uni0063" unicode="c" horiz-adv-x="581" 
d="M451 182l80 -22q-21 -77 -82.5 -123t-145.5 -46q-117 0 -184 75q-69 75 -69 188q0 112 69 187q67 75 184 75q76 0 132.5 -38t84.5 -104l-78 -31q-39 101 -139 101q-74 0 -117.5 -53t-43.5 -137q0 -85 42.5 -138t118.5 -53q56 0 94 31.5t54 87.5z" />
    <glyph glyph-name="uni0064" unicode="d" horiz-adv-x="610" 
d="M284 -9q-108 0 -171 75t-63 188t63 188q63 74 171 74q100 0 162 -65h6v249h88v-700h-82v63h-6q-64 -72 -168 -72zM298 62q74 0 114 52.5t40 147.5q0 82 -40.5 132.5t-113.5 50.5q-74 0 -115 -52.5t-41 -138.5t41 -139t115 -53z" />
    <glyph glyph-name="uni0065" unicode="e" horiz-adv-x="595" 
d="M545 254v-17h-402q4 -79 46 -127t115 -48q52 0 90.5 28.5t56.5 78.5l80 -23q-24 -71 -85 -113t-142 -42q-116 0 -185 75t-69 188q0 112 69 187t185 75q109 0 175 -75q66 -77 66 -187zM148 308h300q-10 63 -48 100t-96 37q-62 0 -102.5 -36.5t-53.5 -100.5z" />
    <glyph glyph-name="uni0066" unicode="f" horiz-adv-x="304" 
d="M174 507h114v-71h-114v-436h-88v436h-76v71h76v61q0 69 36.5 105t103.5 36q54 0 98 -15l-17 -72q-35 16 -68 16q-34 0 -49.5 -22t-15.5 -72v-37z" />
    <glyph glyph-name="uni0067" unicode="g" horiz-adv-x="611" 
d="M284 -9q-108 0 -171 75q-63 74 -63 187t63 188t171 75q104 0 169 -72h6v63h82v-516q0 -93 -64.5 -148t-177.5 -55q-92 0 -153 35.5t-81 99.5l80 25q29 -92 153 -92q76 0 115.5 36t39.5 103v62h-6q-61 -66 -163 -66zM183 116q41 -54 115 -54t115 54q40 53 40 137
q0 86 -41 139t-114 53t-114.5 -53t-41.5 -139q0 -82 41 -137z" />
    <glyph glyph-name="uni0068" unicode="h" horiz-adv-x="604" 
d="M70 0v700h88v-261h5q65 77 173 77q96 0 147 -47.5t51 -137.5v-331h-88v309q0 135 -124 135q-76 1 -120 -40.5t-44 -118.5v-285h-88z" />
    <glyph glyph-name="uni0069" unicode="i" horiz-adv-x="262" 
d="M10 507h177v-507h-88v436h-89v71zM93 665h99v-97h-99v97z" />
    <glyph glyph-name="uni006A" unicode="j" horiz-adv-x="263" 
d="M-10 -207l17 69q11 -3 23 -3q70 0 70 94v483h-89v71h177v-577q0 -69 -38.5 -105.5t-105.5 -36.5q-22 0 -54 5zM94 665h99v-97h-99v97z" />
    <glyph glyph-name="uni006B" unicode="k" horiz-adv-x="522" 
d="M70 700h88v-384h73l172 191h106l-141 -156l-70 -73v-7l70 -81l154 -190h-112l-199 247h-53v-247h-88v700z" />
    <glyph glyph-name="uni006C" unicode="l" horiz-adv-x="257" 
d="M10 700h177v-700h-88v629h-89v71z" />
    <glyph glyph-name="uni006D" unicode="m" horiz-adv-x="917" 
d="M70 507h83v-73h5q61 82 166 82q120 0 161 -96h6q61 96 176 96q85 0 132.5 -48t47.5 -137v-331h-88v310q0 68 -28 101t-77 33q-67 0 -109.5 -40.5t-42.5 -110.5v-293h-87v310q0 67 -27.5 100.5t-75.5 33.5q-68 0 -111 -40.5t-43 -110.5v-293h-88v507z" />
    <glyph glyph-name="uni006E" unicode="n" horiz-adv-x="604" 
d="M70 507h83v-75h5q65 84 178 84q96 0 147 -47.5t51 -137.5v-331h-88v309q0 135 -124 135q-74 0 -119 -41.5t-45 -117.5v-285h-88v507z" />
    <glyph glyph-name="uni006F" unicode="o" 
d="M120 66q-70 73 -70 187t70 188q69 75 188 75q118 0 189 -75q70 -76 70 -188q0 -113 -70 -187q-71 -75 -189 -75q-119 0 -188 75zM185 390q-43 -53 -43 -137t43 -136q43 -54 123 -54q79 0 123 52.5t44 137.5q0 86 -44 138.5t-123 52.5q-80 0 -123 -54z" />
    <glyph glyph-name="uni0070" unicode="p" horiz-adv-x="610" 
d="M326 516q108 0 171 -75t63 -188t-63 -187q-63 -75 -171 -75q-100 0 -162 65h-6v-268h-88v719h82v-63h6q64 72 168 72zM312 444q-74 0 -114 -52t-40 -147q0 -82 40.5 -132t113.5 -50q74 0 115 52t41 138t-41 138.5t-115 52.5z" />
    <glyph glyph-name="uni0071" unicode="q" horiz-adv-x="610" 
d="M284 516q104 0 168 -72h6v63h82v-719h-88v268h-6q-62 -65 -162 -65q-108 0 -171 75q-63 74 -63 187t63 188t171 75zM298 444q-74 0 -115 -52.5t-41 -138.5t41 -138t115 -52q73 0 113.5 50t40.5 132q0 95 -40 147t-114 52z" />
    <glyph glyph-name="uni0072" unicode="r" horiz-adv-x="345" 
d="M70 507h83v-73h6q63 82 186 82l-13 -85q-75 7 -125 -35q-49 -42 -49 -112v-284h-88v507z" />
    <glyph glyph-name="uni0073" unicode="s" horiz-adv-x="491" 
d="M96 35q-53 42 -65 116l82 13q17 -101 139 -101q46 0 85 18q38 17 38 58q0 34 -53 54q-20 8 -44 15q-4 1 -7.5 2t-5.5 1.5l-4 1t-3 0.5q-103 31 -136 45q-76 36 -76 116q0 70 58 106t138 36q168 0 198 -136l-81 -19q-18 83 -113 83q-49 0 -78 -13q-36 -15 -36 -49
q0 -38 46 -53q40 -13 78 -24q91 -27 125 -40q80 -33 80 -120q0 -69 -60 -111q-59 -43 -149 -43q-100 0 -156 44z" />
    <glyph glyph-name="uni0074" unicode="t" horiz-adv-x="341" 
d="M101 619l88 22v-134h132v-71h-132v-295q0 -43 14.5 -60.5t48.5 -17.5q36 0 66 11l18 -71q-40 -12 -98 -12q-137 0 -137 134v311h-76v71h76v112z" />
    <glyph glyph-name="uni0075" unicode="u" horiz-adv-x="604" 
d="M534 0h-83v75h-5q-64 -84 -178 -84q-96 0 -147 47.5t-51 137.5v331h88v-309q0 -135 124 -135q76 0 120 41.5t44 117.5v285h88v-507z" />
    <glyph glyph-name="uni0076" unicode="v" horiz-adv-x="484" 
d="M208 188l33 -90h6l33 90l124 319h90l-198 -507h-107l-199 507h95z" />
    <glyph glyph-name="uni0077" unicode="w" horiz-adv-x="663" 
d="M247 0h-96l-161 507h92l96 -309l21 -85h6l22 85l56 178h96l56 -178l23 -85h6l21 85l96 309h92l-161 -507h-96l-65 198l-17 67h-6l-17 -67z" />
    <glyph glyph-name="uni0078" unicode="x" horiz-adv-x="471" 
d="M239 327l60 92l61 88h102l-171 -241l190 -266h-107l-80 116l-58 88h-6l-58 -89l-80 -115h-102l187 262l-172 245h107l61 -89l60 -91h6z" />
    <glyph glyph-name="uni0079" unicode="y" horiz-adv-x="477" 
d="M245 115h5l146 392h91l-219 -585q-25 -68 -56 -102q-30 -32 -94 -32q-24 0 -53 7l-7 77q21 -10 50 -10q47 0 65 47l35 93l-218 505h94l130 -304z" />
    <glyph glyph-name="uni007A" unicode="z" horiz-adv-x="445" 
d="M128 71h307v-71h-425v63l234 286l72 81v6h-295v71h414v-63l-236 -288l-71 -79v-6z" />
    <glyph glyph-name="uni007B" unicode="{" horiz-adv-x="425" 
d="M199 253v-5q70 -16 70 -126v-200q0 -46 16 -56q17 -11 65 -11h25v-62h-62q-133 0 -133 129v205q0 62 -17 77q-18 15 -77 15h-16v62h16q61 0 77 16q17 17 17 82v201q0 129 133 129h62v-62h-25q-49 0 -65 -11q-16 -10 -16 -56v-200q0 -111 -70 -127z" />
    <glyph glyph-name="uni007C" unicode="|" horiz-adv-x="208" 
d="M70 -213v913h68v-913h-68z" />
    <glyph glyph-name="uni007D" unicode="}" horiz-adv-x="425" 
d="M226 248v5q-70 16 -70 127v200q0 46 -15 56q-17 11 -66 11h-25v62h62q133 0 133 -129v-201q0 -65 17 -82q16 -16 77 -16h16v-62h-16q-59 0 -76 -15q-18 -15 -18 -77v-205q0 -129 -133 -129h-62v62h25q48 0 65 11q16 10 16 56v200q0 110 70 126z" />
    <glyph glyph-name="uni007E" unicode="~" horiz-adv-x="618" 
d="M548 333v-78q-65 -56 -125 -56t-131 43q-51 31 -74 35q-14 2 -23 2q-57 0 -125 -68v79q64 55 130 55q64 0 128 -45q49 -34 90 -34q38 0 66 15.5t64 51.5z" />
    <glyph glyph-name="uni00A1" unicode="&#xa1;" horiz-adv-x="242" 
d="M71 119l13 217h73l15 -216v-313h-101v312zM172 406h-102v101h102v-101z" />
    <glyph glyph-name="uni00A2" unicode="&#xa2;" horiz-adv-x="581" 
d="M451 182l80 -22q-21 -77 -82.5 -123t-145.5 -46q-5 0 -29 2l-22 -124l-48 8l22 124q-83 24 -129.5 92t-46.5 161q0 112 69 187q67 75 184 75q7 0 13 -1l22 123l48 -8l-22 -121q108 -25 156 -135l-78 -31q-27 73 -90 93l-66 -373h17q56 0 94 31.5t54 87.5zM142 254
q0 -64 25 -111.5t72 -67.5l65 369h-1q-74 0 -117.5 -53t-43.5 -137z" />
    <glyph glyph-name="uni00A3" unicode="&#xa3;" horiz-adv-x="561" 
d="M156 91v-6q68 30 152 12q105 -22 140 -22t58 10l25 -78q-44 -16 -84 -16q-42 0 -113 16q-71 18 -139 16t-124 -33l-40 74q59 44 84.5 80.5t26.5 76.5q0 41 -18 102h-94v84h70q-11 58 -10 99q5 92 65 147q62 56 153 56q85 0 141.5 -41t74.5 -119l-79 -34q-10 54 -45.5 82
t-90.5 28q-48 0 -85 -27.5t-41 -69.5q-3 -40 19 -121h162v-84h-141q29 -147 -67 -232z" />
    <glyph glyph-name="uni00A4" unicode="&#xa4;" horiz-adv-x="624" 
d="M539 353q0 -77 -45 -135l60 -61l-47 -48l-62 61q-59 -42 -131 -42q-74 0 -133 42l-62 -61l-49 47l62 62q-44 61 -44 135q0 73 42 132l-59 59l48 48l58 -59q59 46 137 46q77 0 136 -44l57 57l47 -49l-57 -57q42 -58 42 -133zM477 353q0 68 -48 116t-115 48q-68 0 -116 -48
q-48 -49 -48 -116t48 -115t116 -48t116 48q47 49 47 115z" />
    <glyph glyph-name="uni00A5" unicode="&#xa5;" horiz-adv-x="585" 
d="M431 418h134v-68h-174l-38 -65h212v-68h-225v-132h96v-85h-288v85h96v132h-225v68h212l-38 65h-173v68h134l-164 282h111l125 -215l65 -118h6l66 118l125 215h107z" />
    <glyph glyph-name="uni00A6" unicode="&#xa6;" horiz-adv-x="208" 
d="M70 338v362h68v-362h-68zM70 -213v362h68v-362h-68z" />
    <glyph glyph-name="uni00A7" unicode="&#xa7;" horiz-adv-x="570" 
d="M457 586l-83 -29q-1 76 -93 76q-89 0 -89 -57q-5 -32 54 -62q8 -5 30 -15t24 -11l109 -52q41 -19 65.5 -55t24.5 -79q0 -96 -145 -160q109 -63 109 -142q0 -61 -50 -99q-50 -37 -124 -37q-77 0 -124 37t-53 100l84 20q0 -81 93 -81q90 0 90 57q0 29 -41 55q-19 11 -47 26
q-18 8 -21 9l-108 52q-42 19 -66.5 55t-24.5 78q0 95 143 160q-106 61 -106 140q0 65 50 101t123 36q72 0 119 -33t57 -90zM150 286q0 -48 93 -91l62 -29q115 58 115 121q0 50 -92 92l-63 29q-35 -19 -72 -47q-43 -32 -43 -75z" />
    <glyph glyph-name="uni00A8" unicode="&#xa8;" horiz-adv-x="433" 
d="M163 607h-93v93h93v-93zM363 607h-93v93h93v-93z" />
    <glyph glyph-name="uni00A9" unicode="&#xa9;" horiz-adv-x="860" 
d="M619 264l-60 18q-12 -44 -47.5 -73t-78.5 -29q-73 0 -110.5 45.5t-37.5 123.5q0 76 38 122.5t110 46.5q38 0 71 -19.5t50 -55.5l57 23q-23 51 -70 78.5t-108 27.5q-97 0 -155 -63q-58 -62 -58 -160q0 -100 58 -161q57 -62 156 -62q36 0 85 19q32 12 58.5 43.5t41.5 75.5z
M176 96q-106 105 -106 254t106 254q105 105 254 105q148 0 255 -105q105 -105 105 -254t-105 -254q-107 -105 -255 -105q-149 0 -254 105zM201 578q-95 -95 -95 -228t95 -228t229 -95q132 0 229 95q95 95 95 228t-95 228q-97 95 -229 95q-134 0 -229 -95z" />
    <glyph glyph-name="uni00AA" unicode="&#xaa;" horiz-adv-x="423" 
d="M140 613l-50 15q20 81 122 81q59 0 90.5 -28.5t31.5 -83.5v-79q0 -90 19 -115h-57q-10 17 -12 39h-3q-29 -45 -107 -45q-44 0 -74 22.5t-30 62.5q0 80 119 94q3 1 40 4q36 3 50 7q-1 41 -19 58.5t-55 18.5q-52 1 -65 -51zM279 531v16q-13 -4 -58 -9q-43 -4 -68 -16
t-25 -39q0 -21 16 -32.5t41 -11.5q44 0 69 25t25 67z" />
    <glyph glyph-name="uni00AB" unicode="&#xab;" horiz-adv-x="595" 
d="M236 453h89l-148 -199l148 -199h-89l-166 199zM436 453h89l-148 -199l148 -199h-89l-166 199z" />
    <glyph glyph-name="uni00AC" unicode="&#xac;" 
d="M547 346v-251h-67v183h-410v68h477z" />
    <glyph glyph-name="uni00AE" unicode="&#xae;" horiz-adv-x="860" 
d="M323 131h-63v435h192q62 0 96 -34.5t34 -92.5q0 -44 -26 -76t-70 -43q28 -18 49 -52l82 -137h-74l-67 110q-2 4 -7 11.5t-6.5 9.5t-5 7.5t-5 7.5l-4.5 6t-5.5 5.5t-6 4.5t-7 5t-8.5 4q-20 10 -52 10h-46v-181zM447 510h-124v-142h124q70 0 70 71t-70 71zM176 96
q-106 105 -106 254t106 254q105 105 254 105q148 0 255 -105q105 -105 105 -254t-105 -254q-107 -105 -255 -105q-149 0 -254 105zM201 578q-95 -95 -95 -228t95 -228t229 -95q132 0 229 95q95 95 95 228t-95 228q-97 95 -229 95q-134 0 -229 -95z" />
    <glyph glyph-name="uni00AF" unicode="&#xaf;" horiz-adv-x="393" 
d="M323 604h-253v71h253v-71z" />
    <glyph glyph-name="uni00B0" unicode="&#xb0;" horiz-adv-x="474" 
d="M127 542q0 -46 32 -78t78 -32q45 0 77.5 32t32.5 78q0 45 -32.5 77.5t-77.5 32.5q-46 0 -78 -32.5t-32 -77.5zM119 424q-49 49 -49 118t49 118t118 49t118 -49t49 -118t-49 -118t-118 -49t-118 49z" />
    <glyph glyph-name="uni00B1" unicode="&#xb1;" 
d="M274 570h68v-204h205v-68h-205v-205h-68v205h-204v68h204v204zM547 68v-68h-477v68h477z" />
    <glyph glyph-name="uni00B2" unicode="&#xb2;" horiz-adv-x="431" 
d="M245 443q-5 -3 -15.5 -8t-14 -6.5t-11 -5.5t-11 -6.5t-9 -6.5t-10.5 -8.5t-10 -9.5q-19 -19 -28 -42h225v-55h-291q4 108 82 161q8 5 56 28q44 19 68 44q23 23 23 58q0 32 -21 52.5t-56 20.5q-63 0 -75 -68l-58 19q10 47 45.5 73t87.5 26q63 0 101 -33t38 -94
q0 -48 -28 -79t-88 -60z" />
    <glyph glyph-name="uni00B3" unicode="&#xb3;" horiz-adv-x="443" 
d="M312 523v-3q61 -31 61 -106q0 -58 -43 -91t-108 -33q-134 0 -152 111l60 19q11 -80 92 -80q39 0 63 21.5t24 56.5q0 78 -90 78h-40v50h40q79 0 79 56q0 57 -76 57q-28 0 -48.5 -14.5t-25.5 -38.5l-60 13q26 90 134 90q65 0 101.5 -30.5t36.5 -74.5q0 -60 -48 -81z" />
    <glyph glyph-name="uni00B4" unicode="&#xb4;" horiz-adv-x="314" 
d="M70 580l80 157h94l-114 -157h-60z" />
    <glyph glyph-name="uni00B5" unicode="&#xb5;" horiz-adv-x="604" 
d="M158 -213h-88v720h88v-309q0 -135 124 -135q76 -1 120 40.5t44 118.5v285h88v-507h-83v75h-5q-28 -37 -72.5 -60.5t-85.5 -23.5q-76 0 -126 32h-4v-236z" />
    <glyph glyph-name="uni00B6" unicode="&#xb6;" horiz-adv-x="605" 
d="M242 700h293v-51h-73v-649h-60v649h-99v-649h-61v354q-72 0 -121 51q-51 49 -51 121t51 123q49 51 121 51z" />
    <glyph glyph-name="uni00B7" unicode="&#xb7;" horiz-adv-x="241" 
d="M171 299h-101v102h101v-102z" />
    <glyph glyph-name="uni00B8" unicode="&#xb8;" horiz-adv-x="360" 
d="M112 -95l24 104h49l-15 -61q44 4 83 -17.5t36 -65.5q-5 -77 -125 -77q-44 0 -94 18v50q50 -22 86 -22q65 0 65 36q0 20 -33 30t-76 5z" />
    <glyph glyph-name="uni00B9" unicode="&#xb9;" horiz-adv-x="344" 
d="M223 337h51v-46h-167v46h55v294h-3l-30 -23l-31 -22l-28 42l103 72h50v-363z" />
    <glyph glyph-name="uni00BA" unicode="&#xba;" horiz-adv-x="448" 
d="M224 709q70 0 112 -44t42 -112t-42 -112t-112 -44t-112 44t-42 112t41.5 112t112.5 44zM224 663q-45 0 -70.5 -30.5t-25.5 -79.5t25.5 -79.5t70.5 -30.5q46 0 71 30t25 80q0 49 -25 79.5t-71 30.5z" />
    <glyph glyph-name="uni00BB" unicode="&#xbb;" horiz-adv-x="595" 
d="M270 55l148 199l-148 199h89l166 -199l-166 -199h-89zM70 55l148 199l-148 199h89l166 -199l-166 -199h-89z" />
    <glyph glyph-name="uni00BC" unicode="&#xbc;" horiz-adv-x="816" 
d="M434 98v56l195 256h58v-257h59v-55h-59v-98h-59v98h-194zM496 156v-3h132v173h-3l-23 -35l-79 -103zM534 709l-220 -718h-58l219 718h59zM223 337h51v-46h-167v46h55v294h-3l-30 -23l-31 -22l-28 42l103 72h50v-363z" />
    <glyph glyph-name="uni00BD" unicode="&#xbd;" horiz-adv-x="846" 
d="M534 709l-220 -718h-58l219 718h59zM660 147q-5 -3 -15.5 -8t-14 -6.5t-11 -5.5t-11 -6.5t-9 -6.5t-10.5 -8.5t-10 -9.5q-19 -19 -28 -42h225v-54h-291q5 107 82 160q8 5 56 28q43 20 68 44q23 23 23 58q0 32 -21 52.5t-56 20.5q-63 0 -75 -68l-58 19q10 47 45.5 73
t87.5 26q63 0 101 -33t38 -94q0 -48 -28 -79t-88 -60zM223 337h51v-46h-167v46h55v294h-3l-30 -23l-31 -22l-28 42l103 72h50v-363z" />
    <glyph glyph-name="uni00BE" unicode="&#xbe;" horiz-adv-x="905" 
d="M312 523v-3q61 -31 61 -106q0 -58 -43 -91t-108 -33q-134 0 -152 111l60 19q11 -80 92 -80q42 0 65 19q22 19 22 59q0 78 -90 78h-40v50h40q79 0 79 56q0 57 -76 57q-28 0 -48.5 -14.5t-25.5 -38.5l-60 13q26 90 134 90q65 0 101.5 -30.5t36.5 -74.5q0 -60 -48 -81z
M623 709l-220 -718h-58l219 718h59zM523 98v56l195 256h58v-257h59v-55h-59v-98h-59v98h-194zM585 156v-3h132v173h-3l-23 -35l-79 -103z" />
    <glyph glyph-name="uni00BF" unicode="&#xbf;" horiz-adv-x="524" 
d="M255 -202q-97 0 -155 46t-58 131q0 26 13 63q4 11 33 53q13 17 43 44q3 2 23 20t22 20q47 46 51 94q1 12 1 60h89q0 -79 -13 -121q-14 -45 -62 -90q-8 -8 -33 -30t-36 -35q-33 -41 -33 -81q0 -44 32.5 -68t85.5 -24q60 0 92 22.5t42 70.5l92 -23q-20 -79 -74.5 -115.5
t-154.5 -36.5zM324 507h-103v-101h103v101z" />
    <glyph glyph-name="uni00C0" unicode="&#xc0;" horiz-adv-x="634" 
d="M259 700h115l270 -700h-104l-74 193h-302l-74 -193h-100zM196 277h239l-87 230l-30 89h-6l-30 -89zM294 773l-114 157h94l80 -157h-60z" />
    <glyph glyph-name="uni00C1" unicode="&#xc1;" horiz-adv-x="634" 
d="M259 700h115l270 -700h-104l-74 193h-302l-74 -193h-100zM196 277h239l-87 230l-30 89h-6l-30 -89zM300 773l80 157h94l-114 -157h-60z" />
    <glyph glyph-name="uni00C2" unicode="&#xc2;" horiz-adv-x="634" 
d="M259 700h115l270 -700h-104l-74 193h-302l-74 -193h-100zM196 277h239l-87 230l-30 89h-6l-30 -89zM154 772l116 158h96l114 -158h-75l-34 37l-50 56h-6l-51 -56l-35 -37h-75z" />
    <glyph glyph-name="uni00C3" unicode="&#xc3;" horiz-adv-x="634" 
d="M259 700h115l270 -700h-104l-74 193h-302l-74 -193h-100zM196 277h239l-87 230l-30 89h-6l-30 -89zM420 879l48 1q-5 -44 -33 -75.5t-63 -31.5q-32 0 -67 26t-43 26q-17 0 -32 -13.5t-17 -29.5l-48 1q5 44 33 75.5t63 31.5q34 0 66 -26t44 -26q20 1 33 13t16 28z" />
    <glyph glyph-name="uni00C4" unicode="&#xc4;" horiz-adv-x="634" 
d="M259 700h115l270 -700h-104l-74 193h-302l-74 -193h-100zM196 277h239l-87 230l-30 89h-6l-30 -89zM263 800h-93v93h93v-93zM463 800h-93v93h93v-93z" />
    <glyph glyph-name="uni00C5" unicode="&#xc5;" horiz-adv-x="634" 
d="M259 700h115l270 -700h-104l-74 193h-302l-74 -193h-100zM196 277h239l-87 230l-30 89h-6l-30 -89zM233 948q35 35 83 35q49 0 84 -35t35 -84t-34.5 -83t-84.5 -34q-49 0 -83.5 34t-34.5 83t35 84zM363 912q-29 32 -72.5 13.5t-40.5 -61.5q0 -27 19 -46t47 -19t47 19
t19 46q0 29 -19 48z" />
    <glyph glyph-name="uni00C6" unicode="&#xc6;" horiz-adv-x="917" 
d="M-10 0l336 700h581v-84h-379v-203h333v-84h-333v-245h379v-84h-475v192h-254l-92 -192h-96zM381 616l-165 -341h216v341h-51z" />
    <glyph glyph-name="uni00C7" unicode="&#xc7;" horiz-adv-x="757" 
d="M609 237l88 -26q-38 -130 -150 -185q-62 -32 -140 -35l-10 -43q44 4 83 -17.5t36 -65.5q-5 -77 -125 -77q-45 0 -94 18v50q50 -22 86 -22q65 0 65 36q0 20 -33 30t-76 5l20 88q-138 13 -218 112q-81 97 -81 245q0 158 93 258q93 101 249 101q97 0 173 -43.5t109 -122.5
l-84 -36q-26 56 -80 87t-118 31q-121 0 -181 -76q-61 -76 -61 -199t61 -199q60 -76 180 -76q71 0 130 47t78 115z" />
    <glyph glyph-name="uni00C8" unicode="&#xc8;" horiz-adv-x="601" 
d="M176 84h415v-84h-511v700h511v-84h-415v-203h339v-84h-339v-245zM337 773l-114 157h94l80 -157h-60z" />
    <glyph glyph-name="uni00C9" unicode="&#xc9;" horiz-adv-x="601" 
d="M176 84h415v-84h-511v700h511v-84h-415v-203h339v-84h-339v-245zM303 773l80 157h94l-114 -157h-60z" />
    <glyph glyph-name="uni00CA" unicode="&#xca;" horiz-adv-x="601" 
d="M176 84h415v-84h-511v700h511v-84h-415v-203h339v-84h-339v-245zM167 772l116 158h96l114 -158h-75l-34 37l-50 56h-6l-51 -56l-35 -37h-75z" />
    <glyph glyph-name="uni00CB" unicode="&#xcb;" horiz-adv-x="601" 
d="M176 84h415v-84h-511v700h511v-84h-415v-203h339v-84h-339v-245zM287 800h-93v93h93v-93zM487 800h-93v93h93v-93z" />
    <glyph glyph-name="uni00CC" unicode="&#xcc;" horiz-adv-x="388" 
d="M146 615h-96v85h288v-85h-96v-530h96v-85h-288v85h96v530zM181 773l-114 157h94l80 -157h-60z" />
    <glyph glyph-name="uni00CD" unicode="&#xcd;" horiz-adv-x="388" 
d="M146 615h-96v85h288v-85h-96v-530h96v-85h-288v85h96v530zM157 773l80 157h94l-114 -157h-60z" />
    <glyph glyph-name="uni00CE" unicode="&#xce;" horiz-adv-x="388" 
d="M146 615h-96v85h288v-85h-96v-530h96v-85h-288v85h96v530zM31 772l116 158h96l114 -158h-75l-34 37l-50 56h-6l-51 -56l-35 -37h-75z" />
    <glyph glyph-name="uni00CF" unicode="&#xcf;" horiz-adv-x="388" 
d="M146 615h-96v85h288v-85h-96v-530h96v-85h-288v85h96v530zM141 800h-93v93h93v-93zM341 800h-93v93h93v-93z" />
    <glyph glyph-name="uni00D0" unicode="&#xd0;" horiz-adv-x="759" 
d="M342 0h-260v331h-72v63h72v306h260q170 0 264 -99q93 -99 93 -251t-93 -251q-94 -99 -264 -99zM178 331v-246h169q127 0 190 74q62 74 62 191t-62 191q-63 74 -190 74h-169v-221h190v-63h-190z" />
    <glyph glyph-name="uni00D1" unicode="&#xd1;" horiz-adv-x="739" 
d="M170 546l6 -115v-431h-96v700h103l380 -548h6l-6 115v433h96v-700h-104l-379 546h-6zM493 879l48 1q-5 -44 -33 -75.5t-63 -31.5q-24 0 -46.5 13t-38.5 26t-25 13q-17 0 -32 -13.5t-17 -29.5l-48 1q5 44 33 75.5t63 31.5q34 0 66 -26t44 -26q20 1 33 13t16 28z" />
    <glyph glyph-name="uni00D2" unicode="&#xd2;" horiz-adv-x="803" 
d="M150 608q89 101 251 101t252 -101q90 -102 90 -258q0 -157 -90 -257q-90 -102 -252 -102q-163 0 -251 102q-90 100 -90 257q0 156 90 258zM401 625q-118 0 -180 -77q-61 -76 -61 -198t61 -198q62 -77 180 -77q119 0 181 77q61 76 61 198t-61 198q-62 77 -181 77zM398 773
l-114 157h94l80 -157h-60z" />
    <glyph glyph-name="uni00D3" unicode="&#xd3;" horiz-adv-x="803" 
d="M150 608q89 101 251 101t252 -101q90 -102 90 -258q0 -157 -90 -257q-90 -102 -252 -102q-163 0 -251 102q-90 100 -90 257q0 156 90 258zM401 625q-118 0 -180 -77q-61 -76 -61 -198t61 -198q62 -77 180 -77q119 0 181 77q61 76 61 198t-61 198q-62 77 -181 77zM364 773
l80 157h94l-114 -157h-60z" />
    <glyph glyph-name="uni00D4" unicode="&#xd4;" horiz-adv-x="803" 
d="M150 608q89 101 251 101t252 -101q90 -102 90 -258q0 -157 -90 -257q-90 -102 -252 -102q-163 0 -251 102q-90 100 -90 257q0 156 90 258zM401 625q-118 0 -180 -77q-61 -76 -61 -198t61 -198q62 -77 180 -77q119 0 181 77q61 76 61 198t-61 198q-62 77 -181 77zM238 772
l116 158h96l114 -158h-75l-34 37l-50 56h-6l-51 -56l-35 -37h-75z" />
    <glyph glyph-name="uni00D5" unicode="&#xd5;" horiz-adv-x="803" 
d="M150 608q89 101 251 101t252 -101q90 -102 90 -258q0 -157 -90 -257q-90 -102 -252 -102q-163 0 -251 102q-90 100 -90 257q0 156 90 258zM401 625q-118 0 -180 -77q-61 -76 -61 -198t61 -198q62 -77 180 -77q119 0 181 77q61 76 61 198t-61 198q-62 77 -181 77zM505 879
l48 1q-5 -44 -33 -75.5t-63 -31.5q-24 0 -46.5 13t-38.5 26t-25 13q-17 0 -32 -13.5t-17 -29.5l-48 1q5 44 33 75.5t63 31.5q34 0 66 -26t44 -26q20 1 33 13t16 28z" />
    <glyph glyph-name="uni00D6" unicode="&#xd6;" horiz-adv-x="803" 
d="M150 608q89 101 251 101t252 -101q90 -102 90 -258q0 -157 -90 -257q-90 -102 -252 -102q-163 0 -251 102q-90 100 -90 257q0 156 90 258zM401 625q-118 0 -180 -77q-61 -76 -61 -198t61 -198q62 -77 180 -77q119 0 181 77q61 76 61 198t-61 198q-62 77 -181 77zM348 800
h-93v93h93v-93zM548 800h-93v93h93v-93z" />
    <glyph glyph-name="uni00D7" unicode="&#xd7;" horiz-adv-x="574" 
d="M456 490l48 -48l-169 -169l169 -169l-48 -48l-169 169l-169 -169l-48 48l169 169l-168 169l47 47l169 -168z" />
    <glyph glyph-name="uni00D8" unicode="&#xd8;" horiz-adv-x="803" 
d="M401 709q124 0 209 -64l54 64h79l-88 -104q88 -98 88 -255t-90 -257q-90 -102 -252 -102q-125 0 -210 63l-53 -63h-78l87 104q-87 97 -87 255q0 156 90 258q89 101 251 101zM643 350q0 112 -49 182l-345 -409q61 -48 152 -48q119 0 181 77q61 76 61 198zM401 625
q-118 0 -180 -77q-61 -76 -61 -198q0 -112 48 -182l345 409q-61 48 -152 48z" />
    <glyph glyph-name="uni00D9" unicode="&#xd9;" horiz-adv-x="740" 
d="M660 278q0 -137 -74 -212t-217 -75q-141 0 -215 75.5t-74 212.5v421h96v-421q0 -103 46.5 -153.5t146.5 -50.5q101 0 147.5 50.5t46.5 153.5v421h97v-422zM243 930l114 -157h60l-80 157h-94z" />
    <glyph glyph-name="uni00DA" unicode="&#xda;" horiz-adv-x="740" 
d="M563 700h97v-422q0 -137 -74 -212t-217 -75q-141 0 -215 75.5t-74 212.5v421h96v-421q0 -103 46.5 -153.5t146.5 -50.5q101 0 147.5 50.5t46.5 153.5v421zM323 773l80 157h94l-114 -157h-60z" />
    <glyph glyph-name="uni00DB" unicode="&#xdb;" horiz-adv-x="740" 
d="M660 278q0 -137 -74 -212t-217 -75q-141 0 -215 75.5t-74 212.5v421h96v-421q0 -103 46.5 -153.5t146.5 -50.5q101 0 147.5 50.5t46.5 153.5v421h97v-422zM323 930l-116 -158h75l35 37l51 56h6l50 -56l34 -37h75l-114 158h-96z" />
    <glyph glyph-name="uni00DC" unicode="&#xdc;" horiz-adv-x="740" 
d="M660 278q0 -137 -74 -212t-217 -75q-141 0 -215 75.5t-74 212.5v421h96v-421q0 -103 46.5 -153.5t146.5 -50.5q101 0 147.5 50.5t46.5 153.5v421h97v-422zM423 800h93v93h-93v-93zM223 800h93v93h-93v-93z" />
    <glyph glyph-name="uni00DD" unicode="&#xdd;" horiz-adv-x="605" 
d="M446 0h-288v85h96v178l-254 437h111l125 -215l65 -118h6l66 118l125 215h107l-255 -438v-177h96v-85zM275 773l80 157h94l-114 -157h-60z" />
    <glyph glyph-name="uni00DE" unicode="&#xde;" horiz-adv-x="634" 
d="M176 0h-96v700h96v-138h229q105 0 162 -60t57 -151q0 -92 -57 -152t-162 -60h-229v-139zM399 477h-223v-253h223q62 0 93.5 34t31.5 93t-31.5 92.5t-93.5 33.5z" />
    <glyph glyph-name="uni00DF" unicode="&#xdf;" horiz-adv-x="566" 
d="M246 347v72h49q54 0 82 30t28 77q0 50 -29.5 80.5t-87.5 30.5q-130 0 -130 -121v-516h-88v516q0 83 52 138q51 55 161 55q106 0 160 -49.5t54 -133.5q0 -44 -25.5 -81.5t-68.5 -58.5v-6q57 -21 90 -66t33 -108q0 -97 -63 -156t-180 -59q-5 0 -37 2v74q15 -4 37 -4
q76 0 113.5 38t37.5 104t-37.5 104t-113.5 38h-37z" />
    <glyph glyph-name="uni00E0" unicode="&#xe0;" horiz-adv-x="583" 
d="M154 361l-80 24q32 131 204 131q99 0 152 -47t53 -137v-139q0 -153 30 -193h-91q-16 27 -19 67h-6q-48 -76 -184 -76q-80 0 -126.5 36.5t-46.5 104.5q0 139 199 158q125 10 156 20q-1 72 -32.5 103t-95.5 32q-93 0 -113 -84zM395 215v32q-27 -9 -145 -26q-41 -6 -62 -13
q-17 -7 -29 -15q-27 -21 -27 -58q0 -38 28 -59t72 -21q74 0 118.5 44t44.5 116zM258 580l-114 157h94l80 -157h-60z" />
    <glyph glyph-name="uni00E1" unicode="&#xe1;" horiz-adv-x="583" 
d="M154 361l-80 24q32 131 204 131q99 0 152 -47t53 -137v-139q0 -153 30 -193h-91q-16 27 -19 67h-6q-48 -76 -184 -76q-80 0 -126.5 36.5t-46.5 104.5q0 139 199 158q125 10 156 20q-1 72 -32.5 103t-95.5 32q-93 0 -113 -84zM395 215v32q-27 -9 -145 -26q-41 -6 -62 -13
q-17 -7 -29 -15q-27 -21 -27 -58q0 -38 28 -59t72 -21q74 0 118.5 44t44.5 116zM244 580l80 157h94l-114 -157h-60z" />
    <glyph glyph-name="uni00E2" unicode="&#xe2;" horiz-adv-x="583" 
d="M154 361l-80 24q32 131 204 131q99 0 152 -47t53 -137v-139q0 -153 30 -193h-91q-16 27 -19 67h-6q-48 -76 -184 -76q-80 0 -126.5 36.5t-46.5 104.5q0 139 199 158q125 10 156 20q-1 72 -32.5 103t-95.5 32q-93 0 -113 -84zM395 215v32q-27 -9 -145 -26q-41 -6 -62 -13
q-17 -7 -29 -15q-27 -21 -27 -58q0 -38 28 -59t72 -21q74 0 118.5 44t44.5 116zM128 579l116 158h96l114 -158h-75l-34 37l-50 56h-6l-51 -56l-35 -37h-75z" />
    <glyph glyph-name="uni00E3" unicode="&#xe3;" horiz-adv-x="583" 
d="M154 361l-80 24q32 131 204 131q99 0 152 -47t53 -137v-139q0 -153 30 -193h-91q-16 27 -19 67h-6q-48 -76 -184 -76q-80 0 -126.5 36.5t-46.5 104.5q0 139 199 158q125 10 156 20q-1 72 -32.5 103t-95.5 32q-93 0 -113 -84zM395 215v32q-27 -9 -145 -26q-41 -6 -62 -13
q-17 -7 -29 -15q-27 -21 -27 -58q0 -38 28 -59t72 -21q74 0 118.5 44t44.5 116zM395 686l48 1q-5 -44 -33 -75.5t-63 -31.5q-24 0 -46.5 13t-38.5 26t-25 13q-17 0 -32 -13.5t-17 -29.5l-48 1q5 44 33 75.5t63 31.5q34 0 66 -26t44 -26q20 1 33 13t16 28z" />
    <glyph glyph-name="uni00E4" unicode="&#xe4;" horiz-adv-x="583" 
d="M154 361l-80 24q32 131 204 131q99 0 152 -47t53 -137v-139q0 -153 30 -193h-91q-16 27 -19 67h-6q-48 -76 -184 -76q-80 0 -126.5 36.5t-46.5 104.5q0 139 199 158q125 10 156 20q-1 72 -32.5 103t-95.5 32q-93 0 -113 -84zM395 215v32q-27 -9 -145 -26q-41 -6 -62 -13
q-17 -7 -29 -15q-27 -21 -27 -58q0 -38 28 -59t72 -21q74 0 118.5 44t44.5 116zM248 607h-93v93h93v-93zM448 607h-93v93h93v-93z" />
    <glyph glyph-name="uni00E5" unicode="&#xe5;" horiz-adv-x="583" 
d="M154 361l-80 24q32 131 204 131q99 0 152 -47t53 -137v-139q0 -153 30 -193h-91q-16 27 -19 67h-6q-48 -76 -184 -76q-80 0 -126.5 36.5t-46.5 104.5q0 139 199 158q125 10 156 20q-1 72 -32.5 103t-95.5 32q-93 0 -113 -84zM395 215v32q-27 -9 -145 -26q-41 -6 -62 -13
q-17 -7 -29 -15q-27 -21 -27 -58q0 -38 28 -59t72 -21q74 0 118.5 44t44.5 116zM218 755q35 35 83 35q49 0 84 -35t35 -84t-34.5 -83t-84.5 -34q-49 0 -83.5 34t-34.5 83t35 84zM348 719q-29 32 -72.5 13.5t-40.5 -61.5q0 -27 19 -46t47 -19t47 19t19 46q0 29 -19 48z" />
    <glyph glyph-name="uni00E6" unicode="&#xe6;" horiz-adv-x="935" 
d="M885 254v-17h-402q4 -79 46 -127t115 -48q52 0 90.5 28.5t56.5 78.5l80 -23q-24 -71 -85 -113t-142 -42q-142 0 -200 112h-6q-64 -112 -225 -112q-71 0 -122 36q-51 35 -51 105q0 74 62 118q44 31 137 40q134 13 156 20q-1 72 -33 103.5t-95 32.5q-94 0 -113 -85l-80 24
q32 131 204 131q129 0 174 -90h6q62 90 186 90q109 0 175 -75q66 -77 66 -187zM395 215v32q-27 -9 -145 -26q-38 -5 -64 -14q-17 -5 -29 -14q-25 -23 -25 -58q0 -38 28 -59t72 -21q74 0 118.5 44t44.5 116zM488 308h300q-10 63 -48 100t-96 37q-62 0 -102.5 -36.5
t-53.5 -100.5z" />
    <glyph glyph-name="uni00E7" unicode="&#xe7;" horiz-adv-x="581" 
d="M251 -95l20 88q-104 11 -162 83q-59 74 -59 178q0 112 69 187q67 75 184 75q76 0 132.5 -38t84.5 -104l-78 -31q-39 101 -139 101q-74 0 -117.5 -53t-43.5 -137q0 -85 42.5 -138t118.5 -53q56 0 94 31.5t54 87.5l80 -22q-21 -73 -77 -118.5t-135 -49.5l-10 -44
q44 4 83 -17.5t36 -65.5q-5 -77 -125 -77q-45 0 -94 18v50q50 -22 86 -22q65 0 65 36q0 20 -33 30t-76 5z" />
    <glyph glyph-name="uni00E8" unicode="&#xe8;" horiz-adv-x="595" 
d="M545 254v-17h-402q4 -79 46 -127t115 -48q52 0 90.5 28.5t56.5 78.5l80 -23q-24 -71 -85 -113t-142 -42q-116 0 -185 75t-69 188q0 112 69 187t185 75q109 0 175 -75q66 -77 66 -187zM148 308h300q-10 63 -48 100t-96 37q-62 0 -102.5 -36.5t-53.5 -100.5zM294 580
l-114 157h94l80 -157h-60z" />
    <glyph glyph-name="uni00E9" unicode="&#xe9;" horiz-adv-x="595" 
d="M545 254v-17h-402q4 -79 46 -127t115 -48q52 0 90.5 28.5t56.5 78.5l80 -23q-24 -71 -85 -113t-142 -42q-116 0 -185 75t-69 188q0 112 69 187t185 75q109 0 175 -75q66 -77 66 -187zM148 308h300q-10 63 -48 100t-96 37q-62 0 -102.5 -36.5t-53.5 -100.5zM280 580
l80 157h94l-114 -157h-60z" />
    <glyph glyph-name="uni00EA" unicode="&#xea;" horiz-adv-x="595" 
d="M545 254v-17h-402q4 -79 46 -127t115 -48q52 0 90.5 28.5t56.5 78.5l80 -23q-24 -71 -85 -113t-142 -42q-116 0 -185 75t-69 188q0 112 69 187t185 75q109 0 175 -75q66 -77 66 -187zM148 308h300q-10 63 -48 100t-96 37q-62 0 -102.5 -36.5t-53.5 -100.5zM144 579
l116 158h96l114 -158h-75l-34 37l-50 56h-6l-51 -56l-35 -37h-75z" />
    <glyph glyph-name="uni00EB" unicode="&#xeb;" horiz-adv-x="595" 
d="M545 254v-17h-402q4 -79 46 -127t115 -48q52 0 90.5 28.5t56.5 78.5l80 -23q-24 -71 -85 -113t-142 -42q-116 0 -185 75t-69 188q0 112 69 187t185 75q109 0 175 -75q66 -77 66 -187zM148 308h300q-10 63 -48 100t-96 37q-62 0 -102.5 -36.5t-53.5 -100.5zM254 607h-93
v93h93v-93zM454 607h-93v93h93v-93z" />
    <glyph glyph-name="uni00EC" unicode="&#xec;" horiz-adv-x="318" 
d="M71 507h177v-507h-88v436h-89v71zM186 580l-114 157h94l80 -157h-60z" />
    <glyph glyph-name="uni00ED" unicode="&#xed;" horiz-adv-x="318" 
d="M71 507h177v-507h-88v436h-89v71zM162 580l80 157h94l-114 -157h-60z" />
    <glyph glyph-name="uni00EE" unicode="&#xee;" horiz-adv-x="318" 
d="M71 507h177v-507h-88v436h-89v71zM-4 579l116 158h96l114 -158h-75l-34 37l-50 56h-6l-51 -56l-35 -37h-75z" />
    <glyph glyph-name="uni00EF" unicode="&#xef;" horiz-adv-x="318" 
d="M71 507h177v-507h-88v436h-89v71zM306 607h-93v93h93v-93zM106 607h-93v93h93v-93z" />
    <glyph glyph-name="uni00F0" unicode="&#xf0;" horiz-adv-x="619" 
d="M342 591l-138 -63l-19 43l99 45q-58 20 -132 27l6 57q116 -10 200 -50l112 52l19 -44l-80 -37q25 -16 55 -46q105 -109 105 -307q0 -124 -70 -200q-71 -77 -190 -77t-188 75q-70 74 -70 187q0 114 70 188q69 75 188 75q84 0 139 -40h5q-39 74 -111 115zM309 445
q-78 0 -122 -53t-44 -139t43.5 -138t122.5 -52t123 52t44 138t-44 139t-123 53z" />
    <glyph glyph-name="uni00F1" unicode="&#xf1;" horiz-adv-x="604" 
d="M70 507h83v-75h5q65 84 178 84q96 0 147 -47.5t51 -137.5v-331h-88v309q0 135 -124 135q-74 0 -119 -41.5t-45 -117.5v-285h-88v507zM435 686l48 1q-5 -44 -33 -75.5t-63 -31.5q-24 0 -46.5 13t-38.5 26t-25 13q-17 0 -32 -13.5t-17 -29.5l-48 1q5 44 33 75.5t63 31.5
q34 0 66 -26t44 -26q20 1 33 13t16 28z" />
    <glyph glyph-name="uni00F2" unicode="&#xf2;" 
d="M120 66q-70 73 -70 187t70 188q69 75 188 75q118 0 189 -75q70 -76 70 -188q0 -113 -70 -187q-71 -75 -189 -75q-119 0 -188 75zM185 390q-43 -53 -43 -137t43 -136q43 -54 123 -54q79 0 123 52.5t44 137.5q0 86 -44 138.5t-123 52.5q-80 0 -123 -54zM300 580l-114 157
h94l80 -157h-60z" />
    <glyph glyph-name="uni00F3" unicode="&#xf3;" 
d="M120 66q-70 73 -70 187t70 188q69 75 188 75q118 0 189 -75q70 -76 70 -188q0 -113 -70 -187q-71 -75 -189 -75q-119 0 -188 75zM185 390q-43 -53 -43 -137t43 -136q43 -54 123 -54q79 0 123 52.5t44 137.5q0 86 -44 138.5t-123 52.5q-80 0 -123 -54zM281 580l80 157h94
l-114 -157h-60z" />
    <glyph glyph-name="uni00F4" unicode="&#xf4;" 
d="M120 66q-70 73 -70 187t70 188q69 75 188 75q118 0 189 -75q70 -76 70 -188q0 -113 -70 -187q-71 -75 -189 -75q-119 0 -188 75zM185 390q-43 -53 -43 -137t43 -136q43 -54 123 -54q79 0 123 52.5t44 137.5q0 86 -44 138.5t-123 52.5q-80 0 -123 -54zM145 579l116 158h96
l114 -158h-75l-34 37l-50 56h-6l-51 -56l-35 -37h-75z" />
    <glyph glyph-name="uni00F5" unicode="&#xf5;" 
d="M120 66q-70 73 -70 187t70 188q69 75 188 75q118 0 189 -75q70 -76 70 -188q0 -113 -70 -187q-71 -75 -189 -75q-119 0 -188 75zM185 390q-43 -53 -43 -137t43 -136q43 -54 123 -54q79 0 123 52.5t44 137.5q0 86 -44 138.5t-123 52.5q-80 0 -123 -54zM412 686l48 1
q-5 -44 -33 -75.5t-63 -31.5q-32 0 -67 26t-43 26q-17 0 -32 -13.5t-17 -29.5l-48 1q5 44 33 75.5t63 31.5q34 0 66 -26t44 -26q20 1 33 13t16 28z" />
    <glyph glyph-name="uni00F6" unicode="&#xf6;" 
d="M120 66q-70 73 -70 187t70 188q69 75 188 75q118 0 189 -75q70 -76 70 -188q0 -113 -70 -187q-71 -75 -189 -75q-119 0 -188 75zM185 390q-43 -53 -43 -137t43 -136q43 -54 123 -54q79 0 123 52.5t44 137.5q0 86 -44 138.5t-123 52.5q-80 0 -123 -54zM255 607h-93v93h93
v-93zM455 607h-93v93h93v-93z" />
    <glyph glyph-name="uni00F7" unicode="&#xf7;" 
d="M372 0h-101v102h101v-102zM372 405h-101v102h101v-102zM547 306v-68h-477v68h477z" />
    <glyph glyph-name="uni00F8" unicode="&#xf8;" horiz-adv-x="621" 
d="M50 253q0 114 70 188q69 75 188 75q88 0 152 -44l38 44h69l-67 -79q67 -73 67 -184q0 -113 -70 -187q-71 -75 -189 -75q-88 0 -153 44l-37 -44h-68l66 78q-66 72 -66 184zM475 253q0 70 -31 119l-237 -277q43 -32 101 -32q79 0 123 52.5t44 137.5zM142 253q0 -71 30 -119
l237 278q-43 32 -101 32q-78 0 -122 -53t-44 -138z" />
    <glyph glyph-name="uni00F9" unicode="&#xf9;" horiz-adv-x="604" 
d="M534 0h-83v75h-5q-64 -84 -178 -84q-96 0 -147 47.5t-51 137.5v331h88v-309q0 -135 124 -135q76 0 120 41.5t44 117.5v285h88v-507zM289 580l-114 157h94l80 -157h-60z" />
    <glyph glyph-name="uni00FA" unicode="&#xfa;" horiz-adv-x="604" 
d="M534 0h-83v75h-5q-64 -84 -178 -84q-96 0 -147 47.5t-51 137.5v331h88v-309q0 -135 124 -135q76 0 120 41.5t44 117.5v285h88v-507zM265 580l80 157h94l-114 -157h-60z" />
    <glyph glyph-name="uni00FB" unicode="&#xfb;" horiz-adv-x="604" 
d="M534 0h-83v75h-5q-64 -84 -178 -84q-96 0 -147 47.5t-51 137.5v331h88v-309q0 -135 124 -135q76 0 120 41.5t44 117.5v285h88v-507zM139 579l116 158h96l114 -158h-75l-34 37l-50 56h-6l-51 -56l-35 -37h-75z" />
    <glyph glyph-name="uni00FC" unicode="&#xfc;" horiz-adv-x="604" 
d="M534 0h-83v75h-5q-64 -84 -178 -84q-96 0 -147 47.5t-51 137.5v331h88v-309q0 -135 124 -135q76 0 120 41.5t44 117.5v285h88v-507zM248 607h-93v93h93v-93zM448 607h-93v93h93v-93z" />
    <glyph glyph-name="uni00FD" unicode="&#xfd;" horiz-adv-x="497" 
d="M255 115h5l146 392h91l-219 -585q-25 -68 -56 -102q-30 -32 -94 -32q-24 0 -53 7l-7 77q21 -10 50 -10q47 0 65 47l35 93l-218 505h94l130 -304zM221 580l80 157h94l-114 -157h-60z" />
    <glyph glyph-name="uni00FE" unicode="&#xfe;" horiz-adv-x="611" 
d="M326 -9q-104 0 -168 72h-6v-276h-82v913h88v-249h6q62 65 162 65q108 0 171 -74q63 -75 63 -188t-63 -188t-171 -75zM312 63q74 0 115 52.5t41 138.5t-41 138t-115 52q-73 0 -113.5 -50t-40.5 -132q0 -95 40 -147t114 -52z" />
    <glyph glyph-name="uni00FF" unicode="&#xff;" horiz-adv-x="497" 
d="M255 115h5l146 392h91l-219 -585q-25 -68 -56 -102q-30 -32 -94 -32q-24 0 -53 7l-7 77q21 -10 50 -10q47 0 65 47l35 93l-218 505h94l130 -304zM195 607h-93v93h93v-93zM395 607h-93v93h93v-93z" />
    <glyph glyph-name="uni0100" unicode="&#x100;" horiz-adv-x="634" 
d="M259 700h115l270 -700h-104l-74 193h-302l-74 -193h-100zM196 277h239l-87 230l-30 89h-6l-30 -89zM443 797h-253v71h253v-71z" />
    <glyph glyph-name="uni0101" unicode="&#x101;" horiz-adv-x="583" 
d="M154 361l-80 24q32 131 204 131q99 0 152 -47t53 -137v-139q0 -153 30 -193h-91q-16 27 -19 67h-6q-48 -76 -184 -76q-80 0 -126.5 36.5t-46.5 104.5q0 139 199 158q125 10 156 20q-1 72 -32.5 103t-95.5 32q-93 0 -113 -84zM395 215v32q-27 -9 -145 -26q-41 -6 -62 -13
q-17 -7 -29 -15q-27 -21 -27 -58q0 -38 28 -59t72 -21q74 0 118.5 44t44.5 116zM418 604h-253v71h253v-71z" />
    <glyph glyph-name="uni0102" unicode="&#x102;" horiz-adv-x="634" 
d="M259 700h115l270 -700h-104l-74 193h-302l-74 -193h-100zM196 277h239l-87 230l-30 89h-6l-30 -89zM318 781q-56 0 -100 39q-43 37 -43 94h55q6 -63 88 -63q81 0 86 63h55q0 -56 -42 -94q-43 -39 -99 -39z" />
    <glyph glyph-name="uni0103" unicode="&#x103;" horiz-adv-x="583" 
d="M154 361l-80 24q32 131 204 131q99 0 152 -47t53 -137v-139q0 -153 30 -193h-91q-16 27 -19 67h-6q-48 -76 -184 -76q-80 0 -126.5 36.5t-46.5 104.5q0 139 199 158q125 10 156 20q-1 72 -32.5 103t-95.5 32q-93 0 -113 -84zM395 215v32q-27 -9 -145 -26q-41 -6 -62 -13
q-17 -7 -29 -15q-27 -21 -27 -58q0 -38 28 -59t72 -21q74 0 118.5 44t44.5 116zM292 588q-56 0 -100 39q-43 37 -43 94h55q6 -63 88 -63q81 0 86 63h55q0 -57 -42 -94q-43 -39 -99 -39z" />
    <glyph glyph-name="uni0104" unicode="&#x104;" horiz-adv-x="634" 
d="M196 277h239l-87 230l-30 89h-6l-30 -89zM374 700l270 -700h-32q-60 -60 -60 -98q0 -51 92 -51v-63q-158 0 -158 89q0 63 78 123h-24l-74 193h-302l-74 -193h-100l269 700h115z" />
    <glyph glyph-name="uni0105" unicode="&#x105;" horiz-adv-x="583" 
d="M395 215v32q-27 -9 -145 -26q-41 -6 -62 -13q-17 -7 -29 -15q-27 -21 -27 -58q0 -38 28 -59t72 -21q74 0 118.5 44t44.5 116zM513 0h-32q-60 -60 -60 -98q0 -51 92 -51v-63q-158 0 -158 89q0 63 78 123h-11q-16 27 -19 67h-6q-48 -76 -184 -76q-80 0 -126.5 36.5
t-46.5 104.5q0 139 199 158q125 10 156 20q-1 72 -32.5 103t-95.5 32q-93 0 -113 -84l-80 24q32 131 204 131q99 0 152 -47t53 -137v-139q0 -153 30 -193z" />
    <glyph glyph-name="uni0106" unicode="&#x106;" horiz-adv-x="757" 
d="M609 237l88 -26q-18 -56 -51 -101t-68 -67q-32 -22 -72 -34q-56 -18 -103 -18q-157 0 -250 100q-93 99 -93 259q0 158 93 258q93 101 249 101q97 0 173 -43.5t109 -122.5l-84 -36q-26 56 -80 87t-118 31q-121 0 -181 -76q-61 -76 -61 -199t61 -199q60 -76 180 -76
q71 0 130 47t78 115zM361 773l80 157h94l-114 -157h-60z" />
    <glyph glyph-name="uni0107" unicode="&#x107;" horiz-adv-x="581" 
d="M451 182l80 -22q-21 -77 -82.5 -123t-145.5 -46q-117 0 -184 75q-69 75 -69 188q0 112 69 187q67 75 184 75q76 0 132.5 -38t84.5 -104l-78 -31q-39 101 -139 101q-74 0 -117.5 -53t-43.5 -137q0 -85 42.5 -138t118.5 -53q56 0 94 31.5t54 87.5zM263 580l80 157h94
l-114 -157h-60z" />
    <glyph glyph-name="uni0108" unicode="&#x108;" horiz-adv-x="757" 
d="M697 211q-18 -56 -51 -101t-68 -67q-32 -22 -72 -34q-56 -18 -103 -18q-157 0 -250 100q-93 99 -93 259q0 158 93 258q93 101 249 101q97 0 173 -43.5t109 -122.5l-84 -36q-26 56 -80 87t-118 31q-121 0 -181 -76q-61 -76 -61 -199t61 -199q60 -76 180 -76q71 0 130 47
t78 115zM361 930l-116 -158h75l35 37l51 56h6l50 -56l34 -37h75l-114 158h-96z" />
    <glyph glyph-name="uni0109" unicode="&#x109;" horiz-adv-x="581" 
d="M451 182l80 -22q-21 -77 -82.5 -123t-145.5 -46q-117 0 -184 75q-69 75 -69 188q0 112 69 187q67 75 184 75q76 0 132.5 -38t84.5 -104l-78 -31q-39 101 -139 101q-74 0 -117.5 -53t-43.5 -137q0 -85 42.5 -138t118.5 -53q56 0 94 31.5t54 87.5zM147 579l116 158h96
l114 -158h-75l-34 37l-50 56h-6l-51 -56l-35 -37h-75z" />
    <glyph glyph-name="uni010A" unicode="&#x10a;" horiz-adv-x="757" 
d="M697 211q-18 -56 -51 -101t-68 -67q-32 -22 -72 -34q-56 -18 -103 -18q-157 0 -250 100q-93 99 -93 259q0 158 93 258q93 101 249 101q97 0 173 -43.5t109 -122.5l-84 -36q-26 56 -80 87t-118 31q-121 0 -181 -76q-61 -76 -61 -199t61 -199q60 -76 180 -76q71 0 130 47
t78 115zM352 800h93v93h-93v-93z" />
    <glyph glyph-name="uni010B" unicode="&#x10b;" horiz-adv-x="581" 
d="M451 182l80 -22q-21 -77 -82.5 -123t-145.5 -46q-117 0 -184 75q-69 75 -69 188q0 112 69 187q67 75 184 75q76 0 132.5 -38t84.5 -104l-78 -31q-39 101 -139 101q-74 0 -117.5 -53t-43.5 -137q0 -85 42.5 -138t118.5 -53q56 0 94 31.5t54 87.5zM347 607h-93v93h93v-93z
" />
    <glyph glyph-name="uni010C" unicode="&#x10c;" horiz-adv-x="757" 
d="M697 211q-18 -56 -51 -101t-68 -67q-32 -22 -72 -34q-56 -18 -103 -18q-157 0 -250 100q-93 99 -93 259q0 158 93 258q93 101 249 101q97 0 173 -43.5t109 -122.5l-84 -36q-26 56 -80 87t-118 31q-121 0 -181 -76q-61 -76 -61 -199t61 -199q60 -76 180 -76q71 0 130 47
t78 115zM457 772l114 158h-75l-34 -37l-50 -56h-6l-51 56l-35 37h-75l116 -158h96z" />
    <glyph glyph-name="uni010D" unicode="&#x10d;" horiz-adv-x="581" 
d="M451 182l80 -22q-21 -77 -82.5 -123t-145.5 -46q-117 0 -184 75q-69 75 -69 188q0 112 69 187q67 75 184 75q76 0 132.5 -38t84.5 -104l-78 -31q-39 101 -139 101q-74 0 -117.5 -53t-43.5 -137q0 -85 42.5 -138t118.5 -53q56 0 94 31.5t54 87.5zM473 737l-114 -158h-96
l-116 158h75l35 -37l51 -56h6l50 56l34 37h75z" />
    <glyph glyph-name="uni010E" unicode="&#x10e;" horiz-adv-x="757" 
d="M80 0v700h260q170 0 264 -99q93 -99 93 -251t-93 -251q-94 -99 -264 -99h-260zM176 85h169q127 0 190 74q62 74 62 191t-62 191q-63 74 -190 74h-169v-530zM417 772l114 158h-75l-34 -37l-50 -56h-6l-51 56l-35 37h-75l116 -158h96z" />
    <glyph glyph-name="uni010F" unicode="&#x10f;" horiz-adv-x="677" 
d="M285 -9q-108 0 -171 75t-63 188t63 188q63 74 171 74q100 0 162 -65h6v249h88v-700h-82v63h-6q-65 -72 -168 -72zM299 62q74 0 114 52.5t40 147.5q0 82 -40.5 132.5t-113.5 50.5q-74 0 -115 -52.5t-41 -138.5t41 -139t115 -53zM611 543v-43q44 0 69.5 27t25.5 81v92h-95
v-97h50q-2 -35 -13.5 -47.5t-36.5 -12.5z" />
    <glyph glyph-name="uni0110" unicode="&#x110;" horiz-adv-x="759" 
d="M342 0h-260v331h-72v63h72v306h260q170 0 264 -99q93 -99 93 -251t-93 -251q-94 -99 -264 -99zM178 331v-246h169q127 0 190 74q62 74 62 191t-62 191q-63 74 -190 74h-169v-221h190v-63h-190z" />
    <glyph glyph-name="uni0111" unicode="&#x111;" horiz-adv-x="642" 
d="M453 576h-183v61h183v63h88v-63h71v-61h-71v-576h-82v63h-6q-65 -72 -168 -72q-108 0 -171 75q-64 74 -64 188t64 188q63 74 171 74q100 0 162 -65h6v125zM299 63q74 0 114 52t40 147q0 82 -40.5 132t-113.5 50q-74 0 -115 -52t-41 -138t41 -138.5t115 -52.5z" />
    <glyph glyph-name="uni0112" unicode="&#x112;" horiz-adv-x="601" 
d="M176 84h415v-84h-511v700h511v-84h-415v-203h339v-84h-339v-245zM471 786h-253v71h253v-71z" />
    <glyph glyph-name="uni0113" unicode="&#x113;" horiz-adv-x="595" 
d="M545 254v-17h-402q4 -79 46 -127t115 -48q52 0 90.5 28.5t56.5 78.5l80 -23q-24 -71 -85 -113t-142 -42q-116 0 -185 75t-69 188q0 112 69 187t185 75q109 0 175 -75q66 -77 66 -187zM148 308h300q-10 63 -48 100t-96 37q-62 0 -102.5 -36.5t-53.5 -100.5zM424 604h-253
v71h253v-71z" />
    <glyph glyph-name="uni0116" unicode="&#x116;" horiz-adv-x="601" 
d="M176 84h415v-84h-511v700h511v-84h-415v-203h339v-84h-339v-245zM387 800h-93v93h93v-93z" />
    <glyph glyph-name="uni0117" unicode="&#x117;" horiz-adv-x="595" 
d="M545 254v-17h-402q4 -79 46 -127t115 -48q52 0 90.5 28.5t56.5 78.5l80 -23q-24 -71 -85 -113t-142 -42q-116 0 -185 75t-69 188q0 112 69 187t185 75q109 0 175 -75q66 -77 66 -187zM148 308h300q-10 63 -48 100t-96 37q-62 0 -102.5 -36.5t-53.5 -100.5zM354 607h-93
v93h93v-93z" />
    <glyph glyph-name="uni0118" unicode="&#x118;" horiz-adv-x="601" 
d="M591 84v-84h-32q-60 -60 -60 -98q0 -51 92 -51v-63q-158 0 -158 89q0 63 78 123h-431v700h511v-84h-415v-203h339v-84h-339v-245h415z" />
    <glyph glyph-name="uni0119" unicode="&#x119;" horiz-adv-x="595" 
d="M365 -149v-63q-158 0 -158 89q0 57 69 116q-103 9 -165 83q-61 73 -61 178q0 112 69 187t185 75q109 0 175 -75q66 -77 66 -187v-17h-402q4 -79 46 -127t115 -48q52 0 90.5 28.5t56.5 78.5l80 -23q-24 -66 -78 -107t-128 -47q-52 -55 -52 -90q0 -51 92 -51zM148 308h300
q-10 63 -48 100t-96 37q-62 0 -102.5 -36.5t-53.5 -100.5z" />
    <glyph glyph-name="uni011A" unicode="&#x11a;" horiz-adv-x="601" 
d="M176 84h415v-84h-511v700h511v-84h-415v-203h339v-84h-339v-245zM503 930l-114 -158h-96l-116 158h75l35 -37l51 -56h6l50 56l34 37h75z" />
    <glyph glyph-name="uni011B" unicode="&#x11b;" horiz-adv-x="595" 
d="M545 254v-17h-402q4 -79 46 -127t115 -48q52 0 90.5 28.5t56.5 78.5l80 -23q-24 -71 -85 -113t-142 -42q-116 0 -185 75t-69 188q0 112 69 187t185 75q109 0 175 -75q66 -77 66 -187zM148 308h300q-10 63 -48 100t-96 37q-62 0 -102.5 -36.5t-53.5 -100.5zM470 737
l-114 -158h-96l-116 158h75l35 -37l51 -56h6l50 56l34 37h75z" />
    <glyph glyph-name="uni011C" unicode="&#x11c;" horiz-adv-x="759" 
d="M401 709q205 0 294 -167l-85 -36q-59 119 -209 119q-120 0 -180 -76q-61 -76 -61 -199q0 -122 60 -198q59 -75 180 -77q66 0 111 10.5t92 38.5v162h-195v84h291v-277q-55 -50 -133.5 -76t-164.5 -26q-157 0 -249 102q-92 103 -92 257q0 158 96 259q96 100 245 100z
M352 930l-116 -158h75l35 37l51 56h6l50 -56l34 -37h75l-114 158h-96z" />
    <glyph glyph-name="uni011D" unicode="&#x11d;" horiz-adv-x="611" 
d="M284 -9q-108 0 -171 75q-63 74 -63 187t63 188t171 75q104 0 169 -72h6v63h82v-516q0 -93 -64.5 -148t-177.5 -55q-92 0 -153 35.5t-81 99.5l80 25q29 -92 153 -92q76 0 115.5 36t39.5 103v62h-6q-61 -66 -163 -66zM183 116q41 -54 115 -54t115 54q40 53 40 137
q0 86 -41 139t-114 53t-114.5 -53t-41.5 -139q0 -82 41 -137zM142 579l116 158h96l114 -158h-75l-34 37l-50 56h-6l-51 -56l-35 -37h-75z" />
    <glyph glyph-name="uni011E" unicode="&#x11e;" horiz-adv-x="759" 
d="M401 709q205 0 294 -167l-85 -36q-59 119 -209 119q-120 0 -180 -76q-61 -76 -61 -199q0 -122 60 -198q59 -75 180 -77q66 0 111 10.5t92 38.5v162h-195v84h291v-277q-55 -50 -133.5 -76t-164.5 -26q-157 0 -249 102q-92 103 -92 257q0 158 96 259q96 100 245 100z
M410 781q56 0 99 39q42 38 42 94h-55q-5 -63 -86 -63q-82 0 -88 63h-55q0 -57 43 -94q44 -39 100 -39z" />
    <glyph glyph-name="uni011F" unicode="&#x11f;" horiz-adv-x="611" 
d="M284 -9q-108 0 -171 75q-63 74 -63 187t63 188t171 75q104 0 169 -72h6v63h82v-516q0 -93 -64.5 -148t-177.5 -55q-92 0 -153 35.5t-81 99.5l80 25q29 -92 153 -92q76 0 115.5 36t39.5 103v62h-6q-61 -66 -163 -66zM183 116q41 -54 115 -54t115 54q40 53 40 137
q0 86 -41 139t-114 53t-114.5 -53t-41.5 -139q0 -82 41 -137zM306 588q-56 0 -100 39q-43 37 -43 94h55q6 -63 88 -63q81 0 86 63h55q0 -57 -42 -94q-43 -39 -99 -39z" />
    <glyph glyph-name="uni0120" unicode="&#x120;" horiz-adv-x="759" 
d="M401 709q205 0 294 -167l-85 -36q-59 119 -209 119q-120 0 -180 -76q-61 -76 -61 -199q0 -122 60 -198q59 -75 180 -77q66 0 111 10.5t92 38.5v162h-195v84h291v-277q-55 -50 -133.5 -76t-164.5 -26q-157 0 -249 102q-92 103 -92 257q0 158 96 259q96 100 245 100z
M363 800h93v93h-93v-93z" />
    <glyph glyph-name="uni0121" unicode="&#x121;" horiz-adv-x="611" 
d="M284 -9q-108 0 -171 75q-63 74 -63 187t63 188t171 75q104 0 169 -72h6v63h82v-516q0 -93 -64.5 -148t-177.5 -55q-92 0 -153 35.5t-81 99.5l80 25q29 -92 153 -92q76 0 115.5 36t39.5 103v62h-6q-61 -66 -163 -66zM183 116q41 -54 115 -54t115 54q40 53 40 137
q0 86 -41 139t-114 53t-114.5 -53t-41.5 -139q0 -82 41 -137zM342 607h-93v93h93v-93z" />
    <glyph glyph-name="uni0122" unicode="&#x122;" horiz-adv-x="759" 
d="M352 -245v43q25 0 36.5 12.5t13.5 47.5h-50v97h95v-92q0 -54 -25.5 -81t-69.5 -27zM401 709q205 0 294 -167l-85 -36q-59 119 -209 119q-120 0 -180 -76q-61 -76 -61 -199q0 -122 60 -198q59 -75 180 -77q66 0 111 10.5t92 38.5v162h-195v84h291v-277q-55 -50 -133.5 -76
t-164.5 -26q-157 0 -249 102q-92 103 -92 257q0 158 96 259q96 100 245 100z" />
    <glyph glyph-name="uni0123" unicode="&#x123;" horiz-adv-x="611" 
d="M284 -9q-108 0 -171 75q-63 74 -63 187t63 188t171 75q104 0 169 -72h6v63h82v-516q0 -93 -64.5 -148t-177.5 -55q-92 0 -153 35.5t-81 99.5l80 25q29 -92 153 -92q76 0 115.5 36t39.5 103v62h-6q-61 -66 -163 -66zM183 116q41 -54 115 -54t115 54q40 53 40 137
q0 86 -41 139t-114 53t-114.5 -53t-41.5 -139q0 -82 41 -137zM333 781v-43q-24 0 -36 -12.5t-15 -47.5h51v-97h-95v92q0 54 25.5 81t69.5 27z" />
    <glyph glyph-name="uni0124" unicode="&#x124;" horiz-adv-x="760" 
d="M680 700v-700h-96v329h-408v-329h-96v700h96v-286h408v286h96zM217 772l116 158h96l114 -158h-75l-34 37l-50 56h-6l-51 -56l-35 -37h-75z" />
    <glyph glyph-name="uni0125" unicode="&#x125;" horiz-adv-x="604" 
d="M70 0v700h88v-261h5q65 77 173 77q96 0 147 -47.5t51 -137.5v-331h-88v309q0 135 -124 135q-76 1 -120 -40.5t-44 -118.5v-285h-88zM169 774l116 158h96l114 -158h-75l-34 37l-50 56h-6l-51 -56l-35 -37h-75z" />
    <glyph glyph-name="uni0126" unicode="&#x126;" horiz-adv-x="829" 
d="M714 511v-511h-96v329h-408v-329h-96v511h-84v71h84v118h96v-118h408v118h96v-118h85v-71h-85zM210 511v-97h408v97h-408z" />
    <glyph glyph-name="uni0127" unicode="&#x127;" horiz-adv-x="625" 
d="M91 637v63h88v-63h183v-61h-183v-137h5q65 77 173 77q96 0 147 -47.5t51 -137.5v-331h-88v309q0 135 -124 135q-76 1 -120 -40.5t-44 -118.5v-285h-88v576h-71v61h71z" />
    <glyph glyph-name="uni0128" unicode="&#x128;" horiz-adv-x="388" 
d="M146 615h-96v85h288v-85h-96v-530h96v-85h-288v85h96v530zM298 879l48 1q-5 -44 -33 -75.5t-63 -31.5q-32 0 -67 26t-43 26q-17 0 -32 -13.5t-17 -29.5l-48 1q5 44 33 75.5t63 31.5q34 0 66 -26t44 -26q20 1 33 13t16 28z" />
    <glyph glyph-name="uni0129" unicode="&#x129;" horiz-adv-x="319" 
d="M71 507h177v-507h-88v436h-89v71zM263 686l48 1q-5 -44 -33 -75.5t-63 -31.5q-24 0 -46.5 13t-38.5 26t-25 13q-17 0 -32 -13.5t-17 -29.5l-48 1q5 44 33 75.5t63 31.5q34 0 66 -26t44 -26q20 1 33 13t16 28z" />
    <glyph glyph-name="uni012A" unicode="&#x12a;" horiz-adv-x="388" 
d="M146 615h-96v85h288v-85h-96v-530h96v-85h-288v85h96v530zM321 797h-253v71h253v-71z" />
    <glyph glyph-name="uni012B" unicode="&#x12b;" horiz-adv-x="318" 
d="M71 507h177v-507h-88v436h-89v71zM286 604h-253v71h253v-71z" />
    <glyph glyph-name="uni012E" unicode="&#x12e;" horiz-adv-x="388" 
d="M338 85v-85h-109q-60 -60 -60 -98q0 -51 92 -51v-63q-158 0 -158 89q0 63 78 123h-131v85h96v530h-96v85h288v-85h-96v-530h96z" />
    <glyph glyph-name="uni012F" unicode="&#x12f;" horiz-adv-x="263" 
d="M208 -149v-63q-158 0 -158 89q0 63 78 123h-28v436h-89v71h177v-507h-12q-60 -60 -60 -98q0 -51 92 -51zM94 665h99v-97h-99v97z" />
    <glyph glyph-name="uni0130" unicode="&#x130;" horiz-adv-x="388" 
d="M146 615h-96v85h288v-85h-96v-530h96v-85h-288v85h96v530zM240 800h-93v93h93v-93z" />
    <glyph glyph-name="uni0131" unicode="&#x131;" horiz-adv-x="257" 
d="M10 507h177v-507h-88v436h-89v71z" />
    <glyph glyph-name="uni0134" unicode="&#x134;" horiz-adv-x="488" 
d="M312 615h-96v85h192v-500q0 -103 -51.5 -156t-147.5 -53q-87 0 -138 44.5t-61 129.5l90 16q7 -106 109 -106q53 0 78 28t25 88v424zM81 772l116 158h96l114 -158h-75l-34 37l-50 56h-6l-51 -56l-35 -37h-75z" />
    <glyph glyph-name="uni0135" unicode="&#x135;" horiz-adv-x="258" 
d="M-10 -207l17 69q11 -3 23 -3q70 0 70 94v483h-89v71h177v-577q0 -69 -38.5 -105.5t-105.5 -36.5q-22 0 -54 5zM-31 579l116 158h96l114 -158h-75l-34 37l-50 56h-6l-51 -56l-35 -37h-75z" />
    <glyph glyph-name="uni0136" unicode="&#x136;" horiz-adv-x="634" 
d="M278 -202v-43q44 0 69.5 27t25.5 81v92h-95v-97h50q-2 -35 -13.5 -47.5t-36.5 -12.5zM80 700h96v-293h90l235 293h115l-178 -222l-86 -102v-5l86 -105l206 -266h-122l-250 322h-96v-322h-96v700z" />
    <glyph glyph-name="uni0137" unicode="&#x137;" horiz-adv-x="512" 
d="M230 -202v-43q44 0 69.5 27t25.5 81v92h-95v-97h50q-2 -35 -13.5 -47.5t-36.5 -12.5zM70 700h88v-384h73l172 191h106l-141 -156l-70 -73v-7l70 -81l154 -190h-112l-199 247h-53v-247h-88v700z" />
    <glyph glyph-name="uni0138" unicode="&#x138;" horiz-adv-x="514" 
d="M70 507h88v-190h74l171 190h106l-141 -156l-70 -73v-7l70 -81l154 -190h-112l-198 246h-54v-246h-88v507z" />
    <glyph glyph-name="uni0139" unicode="&#x139;" horiz-adv-x="550" 
d="M80 700h96v-615h364v-85h-460v700zM188 773l80 157h94l-114 -157h-60z" />
    <glyph glyph-name="uni013A" unicode="&#x13a;" horiz-adv-x="257" 
d="M10 700h177v-700h-88v629h-89v71zM78 773l80 157h94l-114 -157h-60z" />
    <glyph glyph-name="uni013B" unicode="&#x13b;" horiz-adv-x="550" 
d="M80 700h96v-615h364v-85h-460v700zM260 -245v43q25 0 36.5 12.5t13.5 47.5h-50v97h95v-92q0 -54 -25.5 -81t-69.5 -27z" />
    <glyph glyph-name="uni013C" unicode="&#x13c;" horiz-adv-x="257" 
d="M96 -202v-43q44 0 69.5 27t25.5 81v92h-95v-97h50q-2 -35 -13.5 -47.5t-36.5 -12.5zM10 700h177v-700h-88v629h-89v71z" />
    <glyph glyph-name="uni013D" unicode="&#x13d;" horiz-adv-x="550" 
d="M80 700h96v-615h364v-85h-460v700zM227 700v43q25 0 36.5 12.5t13.5 47.5h-50v97h95v-92q0 -54 -25.5 -81t-69.5 -27z" />
    <glyph glyph-name="uni013E" unicode="&#x13e;" horiz-adv-x="322" 
d="M10 700h177v-700h-88v629h-89v71zM257 543v-43q44 0 69.5 27t25.5 81v92h-95v-97h50q-2 -35 -13.5 -47.5t-36.5 -12.5z" />
    <glyph glyph-name="uni0141" unicode="&#x141;" horiz-adv-x="573" 
d="M199 324v-239h364v-85h-460v269l-62 -36l-31 55l93 53v359h96v-303l164 95l31 -55z" />
    <glyph glyph-name="uni0142" unicode="&#x142;" horiz-adv-x="332" 
d="M32 700h177v-277l82 48l31 -55l-113 -65v-351h-88v300l-80 -46l-31 55l111 64v256h-89v71z" />
    <glyph glyph-name="uni0143" unicode="&#x143;" horiz-adv-x="739" 
d="M170 546l6 -115v-431h-96v700h103l380 -548h6l-6 115v433h96v-700h-104l-379 546h-6zM342 773l80 157h94l-114 -157h-60z" />
    <glyph glyph-name="uni0144" unicode="&#x144;" horiz-adv-x="604" 
d="M70 507h83v-75h5q65 84 178 84q96 0 147 -47.5t51 -137.5v-331h-88v309q0 135 -124 135q-74 0 -119 -41.5t-45 -117.5v-285h-88v507zM275 580l80 157h94l-114 -157h-60z" />
    <glyph glyph-name="uni0145" unicode="&#x145;" horiz-adv-x="739" 
d="M170 546l6 -115v-431h-96v700h103l380 -548h6l-6 115v433h96v-700h-104l-379 546h-6zM310 -202v-43q44 0 69.5 27.5t25.5 81.5v91h-95v-97h50q-2 -35 -13.5 -47.5t-36.5 -12.5z" />
    <glyph glyph-name="uni0146" unicode="&#x146;" horiz-adv-x="604" 
d="M255 -202v-43q44 0 69.5 27t25.5 81v92h-95v-97h50q-2 -35 -13.5 -47.5t-36.5 -12.5zM70 507h83v-75h5q65 84 178 84q96 0 147 -47.5t51 -137.5v-331h-88v309q0 135 -124 135q-74 0 -119 -41.5t-45 -117.5v-285h-88v507z" />
    <glyph glyph-name="uni0147" unicode="&#x147;" horiz-adv-x="739" 
d="M170 546l6 -115v-431h-96v700h103l380 -548h6l-6 115v433h96v-700h-104l-379 546h-6zM532 930l-114 -158h-96l-116 158h75l35 -37l51 -56h6l50 56l34 37h75z" />
    <glyph glyph-name="uni0148" unicode="&#x148;" horiz-adv-x="604" 
d="M70 507h83v-75h5q65 84 178 84q96 0 147 -47.5t51 -137.5v-331h-88v309q0 135 -124 135q-74 0 -119 -41.5t-45 -117.5v-285h-88v507zM485 737l-114 -158h-96l-116 158h75l35 -37l51 -56h6l50 56l34 37h75z" />
    <glyph glyph-name="uni014A" unicode="&#x14a;" horiz-adv-x="739" 
d="M176 431v-431h-96v700h103l380 -548h6l-6 115v433h96v-703q0 -103 -51.5 -156t-147.5 -53q-87 0 -138 44.5t-61 129.5l93 17q4 -106 106 -106q53 0 78 27.5t25 87.5v1l-387 557h-6z" />
    <glyph glyph-name="uni014B" unicode="&#x14b;" horiz-adv-x="604" 
d="M336 -207l17 69q11 -3 23 -3q70 0 70 94v356q0 135 -124 135q-76 1 -120 -40.5t-44 -118.5v-285h-88v507h83v-75h5q65 84 178 84q96 0 147 -47.5t51 -137.5v-401q0 -69 -38.5 -105.5t-105.5 -36.5q-22 0 -54 5z" />
    <glyph glyph-name="uni014C" unicode="&#x14c;" horiz-adv-x="803" 
d="M150 608q89 101 251 101t252 -101q90 -102 90 -258q0 -157 -90 -257q-90 -102 -252 -102q-163 0 -251 102q-90 100 -90 257q0 156 90 258zM401 625q-118 0 -180 -77q-61 -76 -61 -198t61 -198q62 -77 180 -77q119 0 181 77q61 76 61 198t-61 198q-62 77 -181 77zM528 797
h-253v71h253v-71z" />
    <glyph glyph-name="uni014D" unicode="&#x14d;" 
d="M120 66q-70 73 -70 187t70 188q69 75 188 75q118 0 189 -75q70 -76 70 -188q0 -113 -70 -187q-71 -75 -189 -75q-119 0 -188 75zM185 390q-43 -53 -43 -137t43 -136q43 -54 123 -54q79 0 123 52.5t44 137.5q0 86 -44 138.5t-123 52.5q-80 0 -123 -54zM435 604h-253v71
h253v-71z" />
    <glyph glyph-name="uni0150" unicode="&#x150;" horiz-adv-x="803" 
d="M150 608q89 101 251 101t252 -101q90 -102 90 -258q0 -157 -90 -257q-90 -102 -252 -102q-163 0 -251 102q-90 100 -90 257q0 156 90 258zM401 625q-118 0 -180 -77q-61 -76 -61 -198t61 -198q62 -77 180 -77q119 0 181 77q61 76 61 198t-61 198q-62 77 -181 77zM279 773
l80 157h94l-114 -157h-60zM459 773l80 157h94l-114 -157h-60z" />
    <glyph glyph-name="uni0151" unicode="&#x151;" 
d="M120 66q-70 73 -70 187t70 188q69 75 188 75q118 0 189 -75q70 -76 70 -188q0 -113 -70 -187q-71 -75 -189 -75q-119 0 -188 75zM185 390q-43 -53 -43 -137t43 -136q43 -54 123 -54q79 0 123 52.5t44 137.5q0 86 -44 138.5t-123 52.5q-80 0 -123 -54zM191 580l80 157h94
l-114 -157h-60zM371 580l80 157h94l-114 -157h-60z" />
    <glyph glyph-name="uni0152" unicode="&#x152;" horiz-adv-x="1079" 
d="M1069 0h-476v50q-86 -59 -202 -59q-160 0 -246 101q-85 100 -85 258t85 258q86 101 246 101q113 0 196 -56h6v47h476v-84h-380v-203h334v-84h-334v-245h380v-84zM391 625q-119 0 -174 -76q-57 -77 -57 -199q0 -123 57 -199q55 -76 174 -76q138 0 202 88v374
q-64 88 -202 88z" />
    <glyph glyph-name="uni0153" unicode="&#x153;" horiz-adv-x="990" 
d="M940 254v-17h-402q4 -79 46 -127t115 -48q52 0 90.5 28.5t56.5 78.5l80 -23q-24 -71 -85 -113t-142 -42q-133 0 -198 98h-6q-62 -98 -196 -98q-119 0 -184 74t-65 187q0 114 65 190q65 74 184 74q132 0 195 -98h7q66 98 198 98q109 0 175 -75q66 -77 66 -187zM299 444
q-78 0 -117.5 -52t-39.5 -140t39.5 -139t117.5 -51q77 0 116.5 51t39.5 139t-39 140t-117 52zM543 308h300q-10 63 -48 100t-96 37q-62 0 -102.5 -36.5t-53.5 -100.5z" />
    <glyph glyph-name="uni0154" unicode="&#x154;" horiz-adv-x="660" 
d="M176 0h-96v700h308q100 0 155 -57q55 -56 55 -145q0 -72 -42 -123t-115 -65v-6q47 -33 78 -85l131 -219h-113l-106 179q-6 10 -12.5 20t-12 18.5t-7.5 11.5q-9 12 -32 34q-39 32 -122 32h-69v-295zM380 616h-204v-237h204q58 0 88 32t30 87t-30 86.5t-88 31.5zM273 773
l80 157h94l-114 -157h-60z" />
    <glyph glyph-name="uni0155" unicode="&#x155;" horiz-adv-x="345" 
d="M70 507h83v-73h6q63 82 186 82l-13 -85q-75 7 -125 -35q-49 -42 -49 -112v-284h-88v507zM107 574l80 157h94l-114 -157h-60z" />
    <glyph glyph-name="uni0156" unicode="&#x156;" horiz-adv-x="660" 
d="M280 -202v-43q44 0 69.5 27t25.5 81v92h-95v-97h50q-2 -35 -13.5 -47.5t-36.5 -12.5zM176 0h-96v700h308q100 0 155 -57q55 -56 55 -145q0 -72 -42 -123t-115 -65v-6q47 -33 78 -85l131 -219h-113l-106 179q-6 10 -12.5 20t-12 18.5t-7.5 11.5q-9 12 -32 34
q-39 32 -122 32h-69v-295zM380 616h-204v-237h204q58 0 88 32t30 87t-30 86.5t-88 31.5z" />
    <glyph glyph-name="uni0157" unicode="&#x157;" horiz-adv-x="345" 
d="M67 -202v-43q44 0 69.5 27t25.5 81v92h-95v-97h50q-2 -35 -13.5 -47.5t-36.5 -12.5zM70 507h83v-73h6q63 82 186 82l-13 -85q-75 7 -125 -35q-49 -42 -49 -112v-284h-88v507z" />
    <glyph glyph-name="uni0158" unicode="&#x158;" horiz-adv-x="660" 
d="M176 0h-96v700h308q100 0 155 -57q55 -56 55 -145q0 -72 -42 -123t-115 -65v-6q47 -33 78 -85l131 -219h-113l-106 179q-6 10 -12.5 20t-12 18.5t-7.5 11.5q-9 12 -32 34q-39 32 -122 32h-69v-295zM380 616h-204v-237h204q58 0 88 32t30 87t-30 86.5t-88 31.5zM493 930
l-114 -158h-96l-116 158h75l35 -37l51 -56h6l50 56l34 37h75z" />
    <glyph glyph-name="uni0159" unicode="&#x159;" horiz-adv-x="345" 
d="M70 507h83v-73h6q63 82 186 82l-13 -85q-75 7 -125 -35q-49 -42 -49 -112v-284h-88v507zM356 737l-114 -158h-96l-116 158h75l35 -37l51 -56h6l50 56l34 37h75z" />
    <glyph glyph-name="uni015A" unicode="&#x15a;" horiz-adv-x="635" 
d="M311 709q103 0 173.5 -46t89.5 -142l-95 -23q-19 127 -167 127q-36 1 -68.5 -8t-57.5 -33.5t-26 -60.5q0 -34 22 -52q26 -22 50 -30t63 -18q26 -7 29 -8q128 -35 153 -45q118 -54 118 -173q0 -94 -73 -150t-198 -56q-121 0 -195.5 55.5t-88.5 167.5l93 17
q11 -83 56 -119.5t135 -36.5q65 0 121 29q55 28 55 90q0 60 -81 91q-20 7 -123 34q-76 19 -134 44q-45 20 -71 60.5t-26 92.5q0 92 73 143q73 50 173 50zM290 773l80 157h94l-114 -157h-60z" />
    <glyph glyph-name="uni015B" unicode="&#x15b;" horiz-adv-x="491" 
d="M96 35q-53 42 -65 116l82 13q17 -101 139 -101q46 0 85 18q38 17 38 58q0 34 -53 54q-20 8 -44 15q-4 1 -7.5 2t-5.5 1.5l-4 1t-3 0.5q-103 31 -136 45q-76 36 -76 116q0 70 58 106t138 36q168 0 198 -136l-81 -19q-18 83 -113 83q-49 0 -78 -13q-36 -15 -36 -49
q0 -38 46 -53q40 -13 78 -24q91 -27 125 -40q80 -33 80 -120q0 -69 -60 -111q-59 -43 -149 -43q-100 0 -156 44zM218 580l80 157h94l-114 -157h-60z" />
    <glyph glyph-name="uni015C" unicode="&#x15c;" horiz-adv-x="635" 
d="M311 709q103 0 173.5 -46t89.5 -142l-95 -23q-19 127 -167 127q-36 1 -68.5 -8t-57.5 -33.5t-26 -60.5q0 -34 22 -52q26 -22 50 -30t63 -18q26 -7 29 -8q128 -35 153 -45q118 -54 118 -173q0 -94 -73 -150t-198 -56q-121 0 -195.5 55.5t-88.5 167.5l93 17
q11 -83 56 -119.5t135 -36.5q65 0 121 29q55 28 55 90q0 60 -81 91q-20 7 -123 34q-76 19 -134 44q-45 20 -71 60.5t-26 92.5q0 92 73 143q73 50 173 50zM164 772l116 158h96l114 -158h-75l-34 37l-50 56h-6l-51 -56l-35 -37h-75z" />
    <glyph glyph-name="uni015D" unicode="&#x15d;" horiz-adv-x="491" 
d="M96 35q-53 42 -65 116l82 13q17 -101 139 -101q46 0 85 18q38 17 38 58q0 34 -53 54q-20 8 -44 15q-4 1 -7.5 2t-5.5 1.5l-4 1t-3 0.5q-103 31 -136 45q-76 36 -76 116q0 70 58 106t138 36q168 0 198 -136l-81 -19q-18 83 -113 83q-49 0 -78 -13q-36 -15 -36 -49
q0 -38 46 -53q40 -13 78 -24q91 -27 125 -40q80 -33 80 -120q0 -69 -60 -111q-59 -43 -149 -43q-100 0 -156 44zM92 579l116 158h96l114 -158h-75l-34 37l-50 56h-6l-51 -56l-35 -37h-75z" />
    <glyph glyph-name="uni015E" unicode="&#x15e;" horiz-adv-x="635" 
d="M336 -9l-10 -43q44 4 83 -17.5t36 -65.5q-5 -77 -125 -77q-44 0 -94 18v50q50 -22 86 -22q65 0 65 36q0 20 -33 30t-76 5l20 88q-106 7 -171 62.5t-77 158.5l93 17q11 -83 56 -119.5t135 -36.5q65 0 121 29q55 28 55 90q0 60 -81 91q-20 7 -123 34q-76 19 -134 44
q-45 20 -71 60.5t-26 92.5q0 92 73 143q73 50 173 50q103 0 173.5 -46t89.5 -142l-95 -23q-19 127 -167 127q-36 1 -68.5 -8t-57.5 -33.5t-26 -60.5q0 -34 22 -52q26 -22 50 -30t63 -18q26 -7 29 -8q128 -35 153 -45q118 -54 118 -173q0 -91 -69.5 -147t-189.5 -59z" />
    <glyph glyph-name="uni015F" unicode="&#x15f;" horiz-adv-x="491" 
d="M96 35q-53 42 -65 116l82 13q17 -101 139 -101q46 0 85 18q38 17 38 58q0 34 -53 54q-20 8 -44 15q-4 1 -7.5 2t-5.5 1.5l-4 1t-3 0.5q-103 31 -136 45q-76 36 -76 116q0 70 58 106t138 36q168 0 198 -136l-81 -19q-18 83 -113 83q-49 0 -78 -13q-36 -15 -36 -49
q0 -38 46 -53q40 -13 78 -24q91 -27 125 -40q80 -33 80 -120q0 -63 -52 -105t-134 -48l-11 -44q44 4 83 -17.5t36 -65.5q-5 -77 -125 -77q-44 0 -94 18v50q50 -22 86 -22q65 0 65 36q0 20 -33 30t-76 5l20 87q-86 8 -130 43z" />
    <glyph glyph-name="uni0160" unicode="&#x160;" horiz-adv-x="635" 
d="M311 709q103 0 173.5 -46t89.5 -142l-95 -23q-19 127 -167 127q-36 1 -68.5 -8t-57.5 -33.5t-26 -60.5q0 -34 22 -52q26 -22 50 -30t63 -18q26 -7 29 -8q128 -35 153 -45q118 -54 118 -173q0 -94 -73 -150t-198 -56q-121 0 -195.5 55.5t-88.5 167.5l93 17
q11 -83 56 -119.5t135 -36.5q65 0 121 29q55 28 55 90q0 60 -81 91q-20 7 -123 34q-76 19 -134 44q-45 20 -71 60.5t-26 92.5q0 92 73 143q73 50 173 50zM490 930l-114 -158h-96l-116 158h75l35 -37l51 -56h6l50 56l34 37h75z" />
    <glyph glyph-name="uni0161" unicode="&#x161;" horiz-adv-x="491" 
d="M96 35q-53 42 -65 116l82 13q17 -101 139 -101q46 0 85 18q38 17 38 58q0 34 -53 54q-20 8 -44 15q-4 1 -7.5 2t-5.5 1.5l-4 1t-3 0.5q-103 31 -136 45q-76 36 -76 116q0 70 58 106t138 36q168 0 198 -136l-81 -19q-18 83 -113 83q-49 0 -78 -13q-36 -15 -36 -49
q0 -38 46 -53q40 -13 78 -24q91 -27 125 -40q80 -33 80 -120q0 -69 -60 -111q-59 -43 -149 -43q-100 0 -156 44zM418 737l-114 -158h-96l-116 158h75l35 -37l51 -56h6l50 56l34 37h75z" />
    <glyph glyph-name="uni0162" unicode="&#x162;" horiz-adv-x="554" 
d="M229 -202v-43q44 0 69.5 27t25.5 81v92h-95v-97h50q-2 -35 -14 -47.5t-36 -12.5zM229 0v615h-229v85h554v-85h-229v-615h-96z" />
    <glyph glyph-name="uni0163" unicode="&#x163;" horiz-adv-x="331" 
d="M170 -245v43q25 0 36.5 12.5t13.5 47.5h-50v97h95v-92q0 -54 -25.5 -81t-69.5 -27zM101 619l88 22v-134h132v-71h-132v-295q0 -43 14.5 -60.5t48.5 -17.5q36 0 66 11l18 -71q-40 -12 -98 -12q-137 0 -137 134v311h-76v71h76v112z" />
    <glyph glyph-name="uni0164" unicode="&#x164;" horiz-adv-x="554" 
d="M229 0v615h-229v85h554v-85h-229v-615h-96zM440 930l-114 -158h-96l-116 158h75l35 -37l51 -56h6l50 56l34 37h75z" />
    <glyph glyph-name="uni0165" unicode="&#x165;" horiz-adv-x="411" 
d="M92 619l88 22v-134h132v-71h-132v-295q0 -43 14.5 -60.5t48.5 -17.5q36 0 66 11l18 -71q-41 -12 -98 -12q-137 0 -137 134v311h-76v71h76v112zM347 500v43q25 0 36.5 12.5t13.5 47.5h-50v97h95v-92q0 -54 -25.5 -81t-69.5 -27z" />
    <glyph glyph-name="uni0166" unicode="&#x166;" horiz-adv-x="554" 
d="M229 411v204h-229v85h554v-85h-229v-204h157v-71h-157v-340h-96v340h-158v71h158z" />
    <glyph glyph-name="uni0167" unicode="&#x167;" horiz-adv-x="332" 
d="M102 619l88 22v-134h132v-71h-132v-99h132v-61h-132v-135q0 -43 14.5 -60.5t48.5 -17.5q36 0 66 11l18 -71q-41 -12 -98 -12q-137 0 -137 134v151h-77v61h77v99h-76v71h76v112z" />
    <glyph glyph-name="uni0168" unicode="&#x168;" horiz-adv-x="740" 
d="M563 700h97v-422q0 -137 -74 -212t-217 -75q-141 0 -215 75.5t-74 212.5v421h96v-421q0 -103 46.5 -153.5t146.5 -50.5q101 0 147.5 50.5t46.5 153.5v421zM483 879l48 1q-5 -44 -33 -75.5t-63 -31.5q-24 0 -46.5 13t-38.5 26t-25 13q-17 0 -32 -13.5t-17 -29.5l-48 1
q5 44 33 75.5t63 31.5q34 0 66 -26t44 -26q20 1 33 13t16 28z" />
    <glyph glyph-name="uni0169" unicode="&#x169;" horiz-adv-x="604" 
d="M534 0h-83v75h-5q-64 -84 -178 -84q-96 0 -147 47.5t-51 137.5v331h88v-309q0 -135 124 -135q76 0 120 41.5t44 117.5v285h88v-507zM405 686l48 1q-5 -44 -33 -75.5t-63 -31.5q-24 0 -46.5 13t-38.5 26t-25 13q-17 0 -32 -13.5t-17 -29.5l-48 1q5 44 33 75.5t63 31.5
q34 0 66 -26t44 -26q20 1 33 13t16 28z" />
    <glyph glyph-name="uni016A" unicode="&#x16a;" horiz-adv-x="740" 
d="M660 278q0 -137 -74 -212t-217 -75q-141 0 -215 75.5t-74 212.5v421h96v-421q0 -103 46.5 -153.5t146.5 -50.5q101 0 147.5 50.5t46.5 153.5v421h97v-422zM243 797h253v71h-253v-71z" />
    <glyph glyph-name="uni016B" unicode="&#x16b;" horiz-adv-x="604" 
d="M534 0h-83v75h-5q-64 -84 -178 -84q-96 0 -147 47.5t-51 137.5v331h88v-309q0 -135 124 -135q76 0 120 41.5t44 117.5v285h88v-507zM428 604h-253v71h253v-71z" />
    <glyph glyph-name="uni016C" unicode="&#x16c;" horiz-adv-x="740" 
d="M660 278q0 -137 -74 -212t-217 -75q-141 0 -215 75.5t-74 212.5v421h96v-421q0 -103 46.5 -153.5t146.5 -50.5q101 0 147.5 50.5t46.5 153.5v421h97v-422zM371 781q55 0 99 39q42 38 42 94h-55q-5 -63 -86 -63q-82 0 -88 63h-55q0 -57 43 -94q43 -39 100 -39z" />
    <glyph glyph-name="uni016D" unicode="&#x16d;" horiz-adv-x="604" 
d="M534 0h-83v75h-5q-64 -84 -178 -84q-96 0 -147 47.5t-51 137.5v331h88v-309q0 -135 124 -135q76 0 120 41.5t44 117.5v285h88v-507zM303 588q-57 0 -100 39q-43 37 -43 94h55q6 -63 88 -63q81 0 86 63h55q0 -57 -42 -94q-44 -39 -99 -39z" />
    <glyph glyph-name="uni016E" unicode="&#x16e;" horiz-adv-x="740" 
d="M660 278q0 -137 -74 -212t-217 -75q-141 0 -215 75.5t-74 212.5v421h96v-421q0 -103 46.5 -153.5t146.5 -50.5q101 0 147.5 50.5t46.5 153.5v421h97v-422zM286 948q-35 -35 -35 -84q0 -48 35 -83q34 -34 83 -34q50 0 84.5 34t34.5 83t-35 84t-84 35q-48 0 -83 -35z
M416 912q19 -19 19 -48q0 -27 -19 -46t-47 -19t-47 19t-19 46q-3 43 40.5 61.5t72.5 -13.5z" />
    <glyph glyph-name="uni016F" unicode="&#x16f;" horiz-adv-x="604" 
d="M534 0h-83v75h-5q-64 -84 -178 -84q-96 0 -147 47.5t-51 137.5v331h88v-309q0 -135 124 -135q76 0 120 41.5t44 117.5v285h88v-507zM218 755q35 35 83 35q49 0 84 -35t35 -84t-34.5 -83t-84.5 -34q-49 0 -83.5 34t-34.5 83t35 84zM348 719q-29 32 -72.5 13.5t-40.5 -61.5
q0 -27 19 -46t47 -19t47 19t19 46q0 29 -19 48z" />
    <glyph glyph-name="uni0170" unicode="&#x170;" horiz-adv-x="740" 
d="M563 700h97v-422q0 -137 -74 -212t-217 -75q-141 0 -215 75.5t-74 212.5v421h96v-421q0 -103 46.5 -153.5t146.5 -50.5q101 0 147.5 50.5t46.5 153.5v421zM423 773l80 157h94l-114 -157h-60zM243 773l80 157h94l-114 -157h-60z" />
    <glyph glyph-name="uni0171" unicode="&#x171;" horiz-adv-x="604" 
d="M534 0h-83v75h-5q-64 -84 -178 -84q-96 0 -147 47.5t-51 137.5v331h88v-309q0 -135 124 -135q76 0 120 41.5t44 117.5v285h88v-507zM175 580l80 157h94l-114 -157h-60zM355 580l80 157h94l-114 -157h-60z" />
    <glyph glyph-name="uni0172" unicode="&#x172;" horiz-adv-x="740" 
d="M440 -149v-63q-158 0 -158 89q0 57 67 115q-131 5 -200 80.5t-69 206.5v421h96v-421q0 -103 46.5 -153.5t146.5 -50.5q101 0 147.5 50.5t46.5 153.5v421h97v-422q0 -130 -65.5 -204t-193.5 -82q-53 -56 -53 -90q0 -51 92 -51z" />
    <glyph glyph-name="uni0173" unicode="&#x173;" horiz-adv-x="604" 
d="M454 0h-3v75h-5q-64 -84 -178 -84q-96 0 -147 47.5t-51 137.5v331h88v-309q0 -135 124 -135q76 0 120 41.5t44 117.5v285h88v-507h-32q-60 -60 -60 -98q0 -51 92 -51v-63q-158 0 -158 89q0 63 78 123z" />
    <glyph glyph-name="uni0174" unicode="&#x174;" horiz-adv-x="788" 
d="M391 369l-33 -112l-79 -257h-103l-186 700h99l113 -426l27 -115h6l33 115l73 237h106l74 -237l32 -115h6l27 115l113 426h99l-186 -700h-103l-79 257l-33 112h-6zM231 772l116 158h96l114 -158h-75l-34 37l-50 56h-6l-51 -56l-35 -37h-75z" />
    <glyph glyph-name="uni0175" unicode="&#x175;" horiz-adv-x="663" 
d="M247 0h-96l-161 507h92l96 -309l21 -85h6l22 85l56 178h96l56 -178l23 -85h6l21 85l96 309h92l-161 -507h-96l-65 198l-17 67h-6l-17 -67zM168 579l116 158h96l114 -158h-75l-34 37l-50 56h-6l-51 -56l-35 -37h-75z" />
    <glyph glyph-name="uni0176" unicode="&#x176;" horiz-adv-x="585" 
d="M436 0h-288v85h96v178l-254 437h111l125 -215l65 -118h6l66 118l125 215h107l-255 -438v-177h96v-85zM129 772l116 158h96l114 -158h-75l-34 37l-50 56h-6l-51 -56l-35 -37h-75z" />
    <glyph glyph-name="uni0177" unicode="&#x177;" horiz-adv-x="477" 
d="M245 115h5l146 392h91l-219 -585q-25 -68 -56 -102q-30 -32 -94 -32q-24 0 -53 7l-7 77q21 -10 50 -10q47 0 65 47l35 93l-218 505h94l130 -304zM85 579l116 158h96l114 -158h-75l-34 37l-50 56h-6l-51 -56l-35 -37h-75z" />
    <glyph glyph-name="uni0178" unicode="&#x178;" horiz-adv-x="605" 
d="M446 0h-288v85h96v178l-254 437h111l125 -215l65 -118h6l66 118l125 215h107l-255 -438v-177h96v-85zM249 800h-93v93h93v-93zM449 800h-93v93h93v-93z" />
    <glyph glyph-name="uni0179" unicode="&#x179;" horiz-adv-x="565" 
d="M132 85h423v-85h-545v85l321 410l94 114v6h-386v85h509v-85l-324 -413l-92 -111v-6zM245 773l80 157h94l-114 -157h-60z" />
    <glyph glyph-name="uni017A" unicode="&#x17a;" horiz-adv-x="425" 
d="M118 71h307v-71h-425v63l234 286l72 81v6h-295v71h414v-63l-236 -288l-71 -79v-6zM175 580l80 157h94l-114 -157h-60z" />
    <glyph glyph-name="uni017B" unicode="&#x17b;" horiz-adv-x="565" 
d="M132 85h423v-85h-545v85l321 410l94 114v6h-386v85h509v-85l-324 -413l-92 -111v-6zM329 800h-93v93h93v-93z" />
    <glyph glyph-name="uni017C" unicode="&#x17c;" horiz-adv-x="425" 
d="M118 71h307v-71h-425v63l234 286l72 81v6h-295v71h414v-63l-236 -288l-71 -79v-6zM259 607h-93v93h93v-93z" />
    <glyph glyph-name="uni017D" unicode="&#x17d;" horiz-adv-x="565" 
d="M132 85h423v-85h-545v85l321 410l94 114v6h-386v85h509v-85l-324 -413l-92 -111v-6zM455 930l-114 -158h-96l-116 158h75l35 -37l51 -56h6l50 56l34 37h75z" />
    <glyph glyph-name="uni017E" unicode="&#x17e;" horiz-adv-x="445" 
d="M128 71h307v-71h-425v63l234 286l72 81v6h-295v71h414v-63l-236 -288l-71 -79v-6zM396 737l-114 -158h-96l-116 158h75l35 -37l51 -56h6l50 56l34 37h75z" />
    <glyph glyph-name="uni0192" unicode="&#x192;" horiz-adv-x="473" 
d="M314 456h114l-12 -71h-114l-62 -385l-11 -71q-12 -69 -54 -105t-109 -36q-61 0 -97 13l29 71q22 -13 67 -13q33 0 51 21.5t29 72.5l69 432h-76l12 71h76l17 112q10 69 53 105t110 36q61 0 97 -13l-29 -71q-22 13 -67 13q-34 0 -52.5 -21.5t-26.5 -72.5z" />
    <glyph glyph-name="uni0218" unicode="&#x218;" horiz-adv-x="635" 
d="M270 -202v-43q44 0 69.5 27t25.5 81v92h-95v-97h50q-2 -35 -13.5 -47.5t-36.5 -12.5zM311 709q103 0 173.5 -46t89.5 -142l-95 -23q-19 127 -167 127q-36 1 -68.5 -8t-57.5 -33.5t-26 -60.5q0 -34 22 -52q26 -22 50 -30t63 -18q26 -7 29 -8q128 -35 153 -45
q118 -54 118 -173q0 -94 -73 -150t-198 -56q-121 0 -195.5 55.5t-88.5 167.5l93 17q11 -83 56 -119.5t135 -36.5q65 0 121 29q55 28 55 90q0 60 -81 91q-20 7 -123 34q-76 19 -134 44q-45 20 -71 60.5t-26 92.5q0 92 73 143q73 50 173 50z" />
    <glyph glyph-name="uni0219" unicode="&#x219;" horiz-adv-x="491" 
d="M196 -202v-43q44 0 69.5 27t25.5 81v92h-95v-97h50q-2 -35 -13.5 -47.5t-36.5 -12.5zM96 35q-53 42 -65 116l82 13q17 -101 139 -101q46 0 85 18q38 17 38 58q0 34 -53 54q-20 8 -44 15q-4 1 -7.5 2t-5.5 1.5l-4 1t-3 0.5q-103 31 -136 45q-76 36 -76 116q0 70 58 106
t138 36q168 0 198 -136l-81 -19q-18 83 -113 83q-49 0 -78 -13q-36 -15 -36 -49q0 -38 46 -53q40 -13 78 -24q91 -27 125 -40q80 -33 80 -120q0 -69 -60 -111q-59 -43 -149 -43q-100 0 -156 44z" />
    <glyph glyph-name="uni02C6" unicode="&#x2c6;" horiz-adv-x="466" 
d="M70 579l116 158h96l114 -158h-75l-34 37l-50 56h-6l-51 -56l-35 -37h-75z" />
    <glyph glyph-name="uni02C7" unicode="&#x2c7;" horiz-adv-x="466" 
d="M396 737l-114 -158h-96l-116 158h75l35 -37l51 -56h6l50 56l34 37h75z" />
    <glyph glyph-name="uni02D8" unicode="&#x2d8;" horiz-adv-x="424" 
d="M213 588q-57 0 -100 39q-43 37 -43 94h55q6 -63 88 -63q81 0 86 63h55q0 -57 -42 -94q-44 -39 -99 -39z" />
    <glyph glyph-name="uni02D9" unicode="&#x2d9;" horiz-adv-x="233" 
d="M163 607h-93v93h93v-93z" />
    <glyph glyph-name="uni02DA" unicode="&#x2da;" horiz-adv-x="377" 
d="M105 755q35 35 83 35q49 0 84 -35t35 -84t-34.5 -83t-84.5 -34q-49 0 -83.5 34t-34.5 83t35 84zM235 719q-29 32 -72.5 13.5t-40.5 -61.5q0 -27 19 -46t47 -19t47 19t19 46q0 29 -19 48z" />
    <glyph glyph-name="uni02DB" unicode="&#x2db;" horiz-adv-x="298" 
d="M228 -149v-63q-158 0 -158 89q0 67 93 134h45q-72 -68 -72 -109q0 -51 92 -51z" />
    <glyph glyph-name="uni02DC" unicode="&#x2dc;" horiz-adv-x="443" 
d="M325 686l48 1q-5 -44 -33 -75.5t-63 -31.5q-24 0 -46.5 13t-38.5 26t-25 13q-17 0 -32 -13.5t-17 -29.5l-48 1q5 44 33 75.5t63 31.5q34 0 66 -26t44 -26q20 1 33 13t16 28z" />
    <glyph glyph-name="uni02DD" unicode="&#x2dd;" horiz-adv-x="494" 
d="M70 580l80 157h94l-114 -157h-60zM250 580l80 157h94l-114 -157h-60z" />
    <glyph glyph-name="uni03C0" unicode="&#x3c0;" horiz-adv-x="679" 
d="M70 507h539v-71h-69v-436h-88v436h-226v-436h-88v436h-68v71z" />
    <glyph glyph-name="uni0401" unicode="&#x401;" horiz-adv-x="601" 
d="M176 84h415v-84h-511v700h511v-84h-415v-203h339v-84h-339v-245zM496 800h-93v93h93v-93zM296 800h-93v93h93v-93z" />
    <glyph glyph-name="uni0402" unicode="&#x402;" horiz-adv-x="754" 
d="M593 228q0 157 -144 157q-97 0 -165 -27v-358h-96v615h-188v85h505v-85h-221v-176q81 30 179 30q112 0 171.5 -57t59.5 -165q0 -113 -57 -180t-157 -67h-85v85h74q57 0 91 43q33 44 33 100z" />
    <glyph glyph-name="uni0403" unicode="&#x403;" horiz-adv-x="550" 
d="M540 615h-364v-615h-96v700h460v-85zM282 773l80 157h94l-114 -157h-60z" />
    <glyph glyph-name="uni0404" unicode="&#x404;" horiz-adv-x="757" 
d="M609 237l88 -26q-18 -56 -51 -101t-68 -67q-32 -22 -72 -34q-56 -18 -103 -18q-157 0 -250 100q-93 99 -93 259q0 158 93 258q93 101 249 101q97 0 173 -43.5t109 -122.5l-84 -36q-26 56 -80 87t-118 31q-102 0 -162.5 -56.5t-75.5 -155.5h337v-84h-341q6 -118 67.5 -186
t173.5 -68q71 0 130 47t78 115z" />
    <glyph glyph-name="uni0405" unicode="&#x405;" horiz-adv-x="635" 
d="M311 709q103 0 173.5 -46t89.5 -142l-95 -23q-19 127 -167 127q-36 1 -68.5 -8t-57.5 -33.5t-26 -60.5q0 -34 22 -52q26 -22 50 -30t63 -18q26 -7 29 -8q128 -35 153 -45q118 -54 118 -173q0 -94 -73 -150t-198 -56q-121 0 -195.5 55.5t-88.5 167.5l93 17
q11 -83 56 -119.5t135 -36.5q65 0 121 29q55 28 55 90q0 60 -81 91q-20 7 -123 34q-76 19 -134 44q-45 20 -71 60.5t-26 92.5q0 92 73 143q73 50 173 50z" />
    <glyph glyph-name="uni0406" unicode="&#x406;" horiz-adv-x="389" 
d="M146 615h-96v85h288v-85h-96v-530h96v-85h-288v85h96v530z" />
    <glyph glyph-name="uni0407" unicode="&#x407;" horiz-adv-x="389" 
d="M141 800h-93v93h93v-93zM341 800h-93v93h93v-93zM146 615h-96v85h288v-85h-96v-530h96v-85h-288v85h96v530z" />
    <glyph glyph-name="uni0408" unicode="&#x408;" horiz-adv-x="488" 
d="M312 615h-96v85h192v-500q0 -103 -51.5 -156t-147.5 -53q-87 0 -138 44.5t-61 129.5l90 16q7 -106 109 -106q53 0 78 28t25 88v424z" />
    <glyph glyph-name="uni0409" unicode="&#x409;" horiz-adv-x="1032" 
d="M195 700h412v-285h182q99 0 156 -59q57 -58 57 -149q0 -89 -57 -148t-156 -59h-278v615h-227q-13 -362 -129 -527q-62 -87 -144 -97l-21 89q62 0 110 88q47 90 71 228q24 140 24 304zM778 331h-171v-247h171q57 0 90.5 36t33.5 88t-34 87.5t-90 35.5z" />
    <glyph glyph-name="uni040A" unicode="&#x40a;" horiz-adv-x="1077" 
d="M553 700h96v-285h179q98 0 159 -59q60 -60 60 -149t-60 -147q-60 -60 -159 -60h-275v331h-367v-331h-96v700h96v-285h367v285zM822 331h-173v-247h173q57 0 91 35t34 88q0 54 -34 89t-91 35z" />
    <glyph glyph-name="uni040B" unicode="&#x40b;" horiz-adv-x="755" 
d="M279 615v-170h6q72 24 163 24q109 0 168 -52.5t59 -151.5v-265h-96v245q0 78 -34 109t-111 31q-92 0 -155 -23v-362h-96v615h-183v85h500v-85h-221z" />
    <glyph glyph-name="uni040C" unicode="&#x40c;" horiz-adv-x="634" 
d="M80 700h96v-293h90l235 293h115l-178 -222l-86 -102v-5l86 -105l206 -266h-122l-250 322h-96v-322h-96v700zM261 773l80 157h94l-114 -157h-60z" />
    <glyph glyph-name="uni040E" unicode="&#x40e;" horiz-adv-x="577" 
d="M485 700h102l-263 -576q-29 -61 -59 -94q-36 -39 -111 -39q-20 0 -52 9l-2 92q28 -11 51 -11q49 0 72 47l42 91l-275 481h112l147 -259l59 -115h6zM308 781q-56 0 -100 39q-43 37 -43 94h55q6 -63 88 -63q81 0 86 63h55q0 -56 -42 -94q-43 -39 -99 -39z" />
    <glyph glyph-name="uni040F" unicode="&#x40f;" horiz-adv-x="754" 
d="M578 85v615h96v-700h-254v-166h-86v166h-254v700h96v-615h402z" />
    <glyph glyph-name="uni0410" unicode="&#x410;" horiz-adv-x="654" 
d="M269 700h115l270 -700h-104l-74 193h-302l-74 -193h-100zM206 277h239l-87 230l-30 89h-6l-30 -89z" />
    <glyph glyph-name="uni0411" unicode="&#x411;" horiz-adv-x="644" 
d="M80 0v700h462v-85h-366v-190h219q99 0 154 -61t55 -152q0 -90 -55 -151t-154 -61h-315zM389 341h-213v-257h213q55 0 85 36t30 92q0 57 -30 93t-85 36z" />
    <glyph glyph-name="uni0412" unicode="&#x412;" horiz-adv-x="635" 
d="M176 329v-245h185q64 0 103.5 33.5t39.5 89.5t-39.5 89t-103.5 33h-185zM465 381v-5q68 -15 104 -63t35 -113q0 -88 -66 -144q-68 -56 -164 -56h-294v700h283q101 0 154 -52q54 -52 54 -123q0 -53 -27 -91.5t-79 -52.5zM176 616v-205h165q60 0 95 27.5t35 76.5
q0 48 -34.5 74.5t-95.5 26.5h-165z" />
    <glyph glyph-name="uni0413" unicode="&#x413;" horiz-adv-x="550" 
d="M540 615h-364v-615h-96v700h460v-85z" />
    <glyph glyph-name="uni0414" unicode="&#x414;" horiz-adv-x="772" 
d="M20 -166v251h72q32 41 60 117q72 194 72 498h423v-615h75v-251h-86v166h-530v-166h-86zM235 169q-19 -49 -38 -84h354v530h-241q-11 -271 -75 -446z" />
    <glyph glyph-name="uni0415" unicode="&#x415;" horiz-adv-x="601" 
d="M176 84h415v-84h-511v700h511v-84h-415v-203h339v-84h-339v-245z" />
    <glyph glyph-name="uni0416" unicode="&#x416;" horiz-adv-x="874" 
d="M389 0v322h-56l-220 -322h-113l177 266l77 105v5l-75 102l-148 222h103l205 -293h50v293h96v-293h50l205 293h103l-148 -222l-75 -102v-5l77 -105l177 -266h-113l-220 322h-56v-322h-96z" />
    <glyph glyph-name="uni0417" unicode="&#x417;" horiz-adv-x="591" 
d="M222 337v84h71q144 0 144 103q0 101 -143 101q-77 0 -116.5 -28.5t-49.5 -93.5l-88 30q32 176 254 176q120 0 181 -55q62 -56 62 -129q0 -48 -29 -88.5t-73 -51.5v-4q58 -20 91.5 -68t33.5 -108q0 -106 -76 -160t-190 -54q-123 0 -194.5 52.5t-79.5 158.5l93 28
q5 -82 49.5 -118.5t131.5 -36.5q68 0 118 33q48 33 48 93q0 67 -43.5 102t-119.5 34h-75z" />
    <glyph glyph-name="uni0418" unicode="&#x418;" horiz-adv-x="757" 
d="M587 487h-6l-405 -394v-93h-96v700h96v-372l-6 -115h6l405 394v93h96v-700h-96v372z" />
    <glyph glyph-name="uni0419" unicode="&#x419;" horiz-adv-x="757" 
d="M176 93v-93h-96v700h96v-372l-6 -115h6l405 394v93h96v-700h-96v372l6 115h-6zM392 781q56 0 99 39q42 38 42 94h-55q-5 -63 -86 -63q-82 0 -88 63h-55q0 -57 43 -94q43 -39 100 -39z" />
    <glyph glyph-name="uni041A" unicode="&#x41a;" horiz-adv-x="634" 
d="M80 700h96v-293h90l235 293h115l-178 -222l-86 -102v-5l86 -105l206 -266h-122l-250 322h-96v-322h-96v700z" />
    <glyph glyph-name="uni041B" unicode="&#x41b;" horiz-adv-x="697" 
d="M195 700h422v-700h-96v615h-237q-13 -362 -129 -527q-62 -87 -144 -97l-21 89q62 0 110 88q47 90 71 228q24 140 24 304z" />
    <glyph glyph-name="uni041C" unicode="&#x41c;" horiz-adv-x="826" 
d="M416 285l59 119l154 296h117v-700h-96v421l6 115h-6l-184 -346h-106l-184 346h-5l5 -115v-421h-96v700h117l154 -296l59 -119h6z" />
    <glyph glyph-name="uni041D" unicode="&#x41d;" horiz-adv-x="760" 
d="M680 700v-700h-96v329h-408v-329h-96v700h96v-286h408v286h96z" />
    <glyph glyph-name="uni041E" unicode="&#x41e;" horiz-adv-x="803" 
d="M150 608q89 101 251 101t252 -101q90 -102 90 -258q0 -157 -90 -257q-90 -102 -252 -102q-163 0 -251 102q-90 100 -90 257q0 156 90 258zM401 625q-118 0 -180 -77q-61 -76 -61 -198t61 -198q62 -77 180 -77q119 0 181 77q61 76 61 198t-61 198q-62 77 -181 77z" />
    <glyph glyph-name="uni041F" unicode="&#x41f;" horiz-adv-x="754" 
d="M674 700v-700h-96v615h-402v-615h-96v700h594z" />
    <glyph glyph-name="uni0420" unicode="&#x420;" horiz-adv-x="624" 
d="M176 0h-96v700h305q105 0 162 -60t57 -151q0 -92 -57 -152t-162 -60h-209v-277zM379 616h-203v-255h203q62 0 93.5 34.5t31.5 93.5t-31.5 93t-93.5 34z" />
    <glyph glyph-name="uni0421" unicode="&#x421;" horiz-adv-x="757" 
d="M609 237l88 -26q-18 -56 -51 -101t-68 -67q-32 -22 -72 -34q-56 -18 -103 -18q-157 0 -250 100q-93 99 -93 259q0 158 93 258q93 101 249 101q97 0 173 -43.5t109 -122.5l-84 -36q-26 56 -80 87t-118 31q-121 0 -181 -76q-61 -76 -61 -199t61 -199q60 -76 180 -76
q71 0 130 47t78 115z" />
    <glyph glyph-name="uni0422" unicode="&#x422;" horiz-adv-x="554" 
d="M229 0v615h-229v85h554v-85h-229v-615h-96z" />
    <glyph glyph-name="uni0423" unicode="&#x423;" horiz-adv-x="577" 
d="M485 700h102l-263 -576q-29 -61 -59 -94q-36 -39 -111 -39q-20 0 -52 9l-2 92q28 -11 51 -11q49 0 72 47l42 91l-275 481h112l147 -259l59 -115h6z" />
    <glyph glyph-name="uni0424" unicode="&#x424;" horiz-adv-x="814" 
d="M143 168q-83 68 -83 183t83 183q83 67 216 77v89h96v-89q135 -11 217 -78t82 -182q0 -116 -82 -183q-81 -66 -217 -77v-91h-96v91q-135 11 -216 77zM600 221q54 47 54 128t-54 128q-55 44 -145 55v-367q91 11 145 56zM215 477q-55 -46 -55 -128t55 -128q53 -45 144 -56
v367q-91 -11 -144 -55z" />
    <glyph glyph-name="uni0425" unicode="&#x425;" horiz-adv-x="603" 
d="M468 700h111l-218 -332l242 -368h-115l-112 170l-74 117h-6l-74 -117l-112 -170h-110l241 366l-220 334h116l88 -136l74 -118h6l74 118z" />
    <glyph glyph-name="uni0426" unicode="&#x426;" horiz-adv-x="801" 
d="M578 85v615h96v-614h77v-252h-86v166h-585v700h96v-615h402z" />
    <glyph glyph-name="uni0427" unicode="&#x427;" horiz-adv-x="642" 
d="M30 700h96v-222q0 -91 34 -128.5t111 -37.5q108 0 195 43v345h96v-700h-96v271h-6q-84 -40 -203 -40q-227 0 -227 222v247z" />
    <glyph glyph-name="uni0428" unicode="&#x428;" horiz-adv-x="883" 
d="M707 85v615h96v-700h-723v700h96v-615h218v615h95v-615h218z" />
    <glyph glyph-name="uni0429" unicode="&#x429;" horiz-adv-x="931" 
d="M707 85v615h96v-613h77v-253h-86v166h-714v700h96v-615h218v615h95v-615h218z" />
    <glyph glyph-name="uni042A" unicode="&#x42a;" horiz-adv-x="793" 
d="M229 615h-189v85h285v-275h219q99 0 154 -61t55 -152q0 -90 -55 -151t-154 -61h-315v615zM538 340h-213v-255h213q55 0 85 35.5t30 91.5q0 57 -30 92.5t-85 35.5z" />
    <glyph glyph-name="uni042B" unicode="&#x42b;" horiz-adv-x="909" 
d="M80 0v700h96v-275h219q99 0 154 -61t55 -152q0 -90 -55 -151t-154 -61h-315zM389 340h-213v-255h213q55 0 85 35.5t30 91.5q0 57 -30 92.5t-85 35.5zM733 700h96v-700h-96v700z" />
    <glyph glyph-name="uni042C" unicode="&#x42c;" horiz-adv-x="634" 
d="M80 0v700h96v-275h219q99 0 154 -61t55 -152q0 -90 -55 -151t-154 -61h-315zM389 340h-213v-255h213q55 0 85 35.5t30 91.5q0 57 -30 92.5t-85 35.5z" />
    <glyph glyph-name="uni042D" unicode="&#x42d;" horiz-adv-x="757" 
d="M596 329h-340v84h336q-15 99 -75 155.5t-162 56.5q-64 0 -118 -31t-80 -87l-84 36q33 79 109 122.5t173 43.5q156 0 249 -101q93 -100 93 -258q0 -160 -93 -259q-93 -100 -250 -100q-47 0 -102 18q-41 12 -73 34q-35 22 -68 67t-51 101l88 26q19 -68 78 -115t130 -47
q112 0 173.5 68.5t66.5 185.5z" />
    <glyph glyph-name="uni042E" unicode="&#x42e;" horiz-adv-x="968" 
d="M586 709q82 0 145 -28t101 -77.5t57 -113.5t19 -140t-19 -140t-57 -113.5t-101 -77.5t-145 -28q-156 0 -235 94q-82 94 -86 244h-89v-329h-96v700h96v-287h92q15 133 95 215q79 81 223 81zM586 625q-61 0 -105 -21t-68.5 -60t-36 -86.5t-11.5 -107.5t11.5 -107.5
t36 -86.5t68.5 -60t105 -21q222 0 222 275t-222 275z" />
    <glyph glyph-name="uni042F" unicode="&#x42f;" horiz-adv-x="660" 
d="M272 700h308v-700h-96v295h-69q-84 0 -121 -32q-23 -20 -33 -34q-2 -3 -7.5 -11.5t-12 -18.5t-12.5 -20l-106 -179h-113l131 219q31 51 78 85v6q-73 14 -115 65t-42 123q0 89 55 145q56 57 155 57zM484 380v236h-204q-58 0 -88 -31.5t-30 -86.5t30 -86.5t88 -31.5h204z
" />
    <glyph glyph-name="uni0430" unicode="&#x430;" horiz-adv-x="582" 
d="M154 361l-80 24q32 131 204 131q99 0 152 -47t53 -137v-139q0 -153 30 -193h-91q-16 27 -19 67h-6q-48 -76 -184 -76q-80 0 -126.5 36.5t-46.5 104.5q0 139 199 158q125 10 156 20q-1 72 -32.5 103t-95.5 32q-93 0 -113 -84zM395 215v32q-27 -9 -145 -26q-41 -6 -62 -13
q-17 -7 -29 -15q-27 -21 -27 -58q0 -38 28 -59t72 -21q74 0 118.5 44t44.5 116z" />
    <glyph glyph-name="uni0431" unicode="&#x431;" horiz-adv-x="614" 
d="M139 443h6q62 71 163 72q116 1 186 -72t70 -190q0 -114 -67 -187q-67 -75 -187 -75q-132 0 -196 85q-64 83 -64 223q0 234 110 318q86 67 247 67q42 0 42 25h87q1 -57 -35.5 -84.5t-100.5 -27.5q-75 0 -125 -14q-118 -37 -136 -140zM431 391q-41 53 -121 53t-123 -54
q-43 -53 -43 -137t43 -136q43 -54 123 -54t121 53t41 137q0 83 -41 138z" />
    <glyph glyph-name="uni0432" unicode="&#x432;" horiz-adv-x="536" 
d="M419 277v-5q46 -14 71.5 -48.5t25.5 -77.5q0 -65 -49 -105q-50 -41 -114 -41h-283v507h274q65 0 106 -38q41 -39 41 -91q0 -66 -72 -101zM158 235v-164h178q37 0 62.5 23t25.5 58q0 36 -25.5 59.5t-62.5 23.5h-178zM158 436v-131h163q36 0 57 17.5t21 48.5q0 30 -21 47.5
t-57 17.5h-163z" />
    <glyph glyph-name="uni0433" unicode="&#x433;" horiz-adv-x="416" 
d="M70 507h346v-71h-258v-436h-88v507z" />
    <glyph glyph-name="uni0434" unicode="&#x434;" horiz-adv-x="576" 
d="M-10 -118v189h55q25 32 44 85q51 136 51 351h347v-436h59v-189h-71v118h-414v-118h-71zM163 128q-9 -25 -26 -57h262v365h-182q-8 -185 -54 -308z" />
    <glyph glyph-name="uni0435" unicode="&#x435;" horiz-adv-x="595" 
d="M545 254v-17h-402q4 -79 46 -127t115 -48q52 0 90.5 28.5t56.5 78.5l80 -23q-24 -71 -85 -113t-142 -42q-116 0 -185 75t-69 188q0 112 69 187t185 75q109 0 175 -75q66 -77 66 -187zM148 308h300q-10 63 -48 100t-96 37q-62 0 -102.5 -36.5t-53.5 -100.5z" />
    <glyph glyph-name="uni0436" unicode="&#x436;" horiz-adv-x="678" 
d="M295 507h88v-191h45l135 191h92l-108 -161l-53 -72v-6l55 -75l129 -193h-101l-169 247h-25v-247h-88v247h-26l-168 -247h-101l129 193l55 75v6l-53 72l-108 161h92l135 -191h45v191z" />
    <glyph glyph-name="uni0437" unicode="&#x437;" horiz-adv-x="459" 
d="M20 138l82 19q10 -50 40.5 -72t85.5 -22t82 24.5t27 65.5q0 87 -108 87h-62v69h61q46 0 69 19t23 48t-26 48.5t-66 19.5q-95 0 -112 -71l-80 25q33 118 192 118q90 0 137.5 -35.5t47.5 -97.5q0 -34 -18.5 -63.5t-51.5 -43.5v-3q86 -30 86 -123q0 -71 -52.5 -115
t-148.5 -44q-182 0 -208 147z" />
    <glyph glyph-name="uni0438" unicode="&#x438;" horiz-adv-x="585" 
d="M427 507h88v-507h-88v252l6 85h-6l-269 -269v-68h-88v507h88v-254l-6 -85h6l269 268v71z" />
    <glyph glyph-name="uni0439" unicode="&#x439;" horiz-adv-x="585" 
d="M427 507h88v-507h-88v252l6 85h-6l-269 -269v-68h-88v507h88v-254l-6 -85h6l269 268v71zM303 588q-57 0 -100 39q-43 37 -43 94h55q6 -63 88 -63q81 0 86 63h55q0 -57 -42 -94q-44 -39 -99 -39z" />
    <glyph glyph-name="uni043A" unicode="&#x43a;" horiz-adv-x="512" 
d="M368 351l-70 -73v-7l70 -81l154 -190h-112l-199 247h-53v-247h-88v507h88v-191h73l172 191h106z" />
    <glyph glyph-name="uni043B" unicode="&#x43b;" horiz-adv-x="547" 
d="M130 507h347v-507h-88v436h-180q-8 -180 -51 -292q-52 -139 -149 -153l-19 79q54 0 93 101q47 127 47 336z" />
    <glyph glyph-name="uni043C" unicode="&#x43c;" horiz-adv-x="690" 
d="M538 386h-6l-142 -296h-88l-144 298h-6l6 -85v-303h-88v507h119l117 -247l37 -85h6l37 85l115 247h119v-507h-88v303z" />
    <glyph glyph-name="uni043D" unicode="&#x43d;" horiz-adv-x="585" 
d="M427 507h88v-507h-88v235h-269v-235h-88v507h88v-201h269v201z" />
    <glyph glyph-name="uni043E" unicode="&#x43e;" 
d="M120 66q-70 73 -70 187t70 188q69 75 188 75q118 0 189 -75q70 -76 70 -188q0 -113 -70 -187q-71 -75 -189 -75q-119 0 -188 75zM185 390q-43 -53 -43 -137t43 -136q43 -54 123 -54q79 0 123 52.5t44 137.5q0 86 -44 138.5t-123 52.5q-80 0 -123 -54z" />
    <glyph glyph-name="uni043F" unicode="&#x43f;" horiz-adv-x="585" 
d="M70 507h445v-507h-88v436h-269v-436h-88v507z" />
    <glyph glyph-name="uni0440" unicode="&#x440;" horiz-adv-x="611" 
d="M326 516q108 0 171 -75t63 -188t-63 -187q-63 -75 -171 -75q-100 0 -162 65h-6v-268h-88v719h82v-63h6q64 72 168 72zM312 444q-74 0 -114 -52t-40 -147q0 -82 40.5 -132t113.5 -50q74 0 115 52t41 138t-41 138.5t-115 52.5z" />
    <glyph glyph-name="uni0441" unicode="&#x441;" horiz-adv-x="581" 
d="M451 182l80 -22q-21 -77 -82.5 -123t-145.5 -46q-117 0 -184 75q-69 75 -69 188q0 112 69 187q67 75 184 75q76 0 132.5 -38t84.5 -104l-78 -31q-39 101 -139 101q-74 0 -117.5 -53t-43.5 -137q0 -85 42.5 -138t118.5 -53q56 0 94 31.5t54 87.5z" />
    <glyph glyph-name="uni0442" unicode="&#x442;" horiz-adv-x="430" 
d="M0 507h430v-71h-171v-436h-88v436h-171v71z" />
    <glyph glyph-name="uni0443" unicode="&#x443;" horiz-adv-x="477" 
d="M245 115h5l146 392h91l-219 -585q-25 -68 -56 -102q-30 -32 -94 -32q-24 0 -53 7l-7 77q21 -10 50 -10q47 0 65 47l35 93l-218 505h94l130 -304z" />
    <glyph glyph-name="uni0444" unicode="&#x444;" horiz-adv-x="790" 
d="M266 516q41 0 78 -14h7v198h88v-198h5q36 14 79 14q104 0 161 -74q56 -74 56 -188t-56 -188q-57 -75 -161 -75q-41 0 -78 14h-6v-217h-88v217h-7q-37 -14 -78 -14q-104 0 -159 75q-57 74 -57 188t57 188q56 74 159 74zM272 62q48 0 79 28v327q-31 28 -79 28
q-65 0 -97.5 -51.5t-32.5 -139.5q0 -89 32.5 -140.5t97.5 -51.5zM518 445q-50 0 -79 -28v-328q30 -27 79 -27q64 0 97 51.5t33 140.5q0 88 -33 139.5t-97 51.5z" />
    <glyph glyph-name="uni0445" unicode="&#x445;" horiz-adv-x="471" 
d="M239 327l60 92l61 88h102l-171 -241l190 -266h-107l-80 116l-58 88h-6l-58 -89l-80 -115h-102l187 262l-172 245h107l61 -89l60 -91h6z" />
    <glyph glyph-name="uni0446" unicode="&#x446;" horiz-adv-x="610" 
d="M428 507h88v-436h64v-190h-71v119h-439v507h88v-436h270v436z" />
    <glyph glyph-name="uni0447" unicode="&#x447;" horiz-adv-x="524" 
d="M454 0h-88v180h-6q-60 -22 -141 -22q-96 0 -147.5 48t-51.5 138v163h88v-158q0 -66 30.5 -92.5t92.5 -26.5q75 0 135 20v257h88v-507z" />
    <glyph glyph-name="uni0448" unicode="&#x448;" horiz-adv-x="778" 
d="M619 507h88v-507h-637v507h88v-435h187v435h87v-435h187v435z" />
    <glyph glyph-name="uni0449" unicode="&#x449;" horiz-adv-x="802" 
d="M618 507h88v-436h64v-190h-72v119h-628v507h88v-435h187v435h87v-435h186v435z" />
    <glyph glyph-name="uni044A" unicode="&#x44a;" horiz-adv-x="578" 
d="M30 507h203v-201h153q71 0 117 -44q45 -44 45 -109t-46 -108q-46 -45 -120 -45h-237v436h-115v71zM365 235h-132v-164h129q45 0 69.5 22.5t24.5 59.5t-24 59.5t-67 22.5z" />
    <glyph glyph-name="uni044B" unicode="&#x44b;" horiz-adv-x="686" 
d="M307 0h-237v507h88v-201h153q71 0 118 -44q45 -44 45 -109t-47 -109t-120 -44zM528 507h88v-507h-88v507zM290 235h-132v-164h129q45 0 69.5 22.5t24.5 59.5t-24 59.5t-67 22.5z" />
    <glyph glyph-name="uni044C" unicode="&#x44c;" horiz-adv-x="503" 
d="M70 507h88v-201h153q71 0 117 -44q45 -44 45 -109t-46 -108q-47 -45 -120 -45h-237v507zM290 235h-132v-164h129q45 0 69.5 22.5t24.5 59.5t-24 59.5t-67 22.5z" />
    <glyph glyph-name="uni044D" unicode="&#x44d;" horiz-adv-x="581" 
d="M50 160l80 22q16 -56 54 -87.5t94 -31.5q67 0 108.5 42.5t50.5 113.5h-219v71h219q-9 70 -51 112t-108 42q-100 0 -139 -101l-78 31q28 66 84.5 104t132.5 38q116 0 185 -75q68 -76 68 -187q0 -112 -68 -188q-69 -75 -185 -75q-84 0 -145.5 46t-82.5 123z" />
    <glyph glyph-name="uni044E" unicode="&#x44e;" horiz-adv-x="761" 
d="M473 516q118 0 178 -74q60 -73 60 -190q0 -114 -60 -188q-61 -73 -178 -73q-106 0 -167 60.5t-71 164.5h-76v-216h-89v507h89v-219h76q10 105 71 166.5t167 61.5zM473 444q-148 0 -148 -192q0 -189 148 -189q146 0 146 189q0 192 -146 192z" />
    <glyph glyph-name="uni044F" unicode="&#x44f;" horiz-adv-x="543" 
d="M201 122l-84 -122h-107l110 157q16 23 45 44v6q-59 11 -94 51.5t-35 95.5q0 66 45 109q46 44 117 44h275v-507h-88v204h-46q-44 0 -63 -9q-23 -11 -28 -15q-14 -13 -21 -21q-3 -4 -17 -25zM152 413q-24 -23 -24 -59t24 -59q25 -23 70 -23h163v164h-166q-44 0 -67 -23z
" />
    <glyph glyph-name="uni0451" unicode="&#x451;" horiz-adv-x="595" 
d="M545 254v-17h-402q4 -79 46 -127t115 -48q52 0 90.5 28.5t56.5 78.5l80 -23q-24 -71 -85 -113t-142 -42q-116 0 -185 75t-69 188q0 112 69 187t185 75q109 0 175 -75q66 -77 66 -187zM148 308h300q-10 63 -48 100t-96 37q-62 0 -102.5 -36.5t-53.5 -100.5zM254 607h-93
v93h93v-93zM454 607h-93v93h93v-93z" />
    <glyph glyph-name="uni0452" unicode="&#x452;" horiz-adv-x="592" 
d="M317 -211v71q71 0 102 78t31 241q0 144 -28 204.5t-97 60.5q-146 0 -146 -159v-285h-88v576h-71v61h71v63h88v-63h184v-61h-184v-126h5q56 66 156 66q140 0 180 -138q22 -79 22 -207q0 -382 -225 -382z" />
    <glyph glyph-name="uni0453" unicode="&#x453;" horiz-adv-x="416" 
d="M70 507h346v-71h-258v-436h-88v507zM207 574l80 157h94l-114 -157h-60z" />
    <glyph glyph-name="uni0454" unicode="&#x454;" horiz-adv-x="581" 
d="M451 182l80 -22q-21 -77 -82.5 -123t-145.5 -46q-117 0 -184 75q-69 75 -69 188q0 112 69 187q67 75 184 75q76 0 132.5 -38t84.5 -104l-78 -31q-39 101 -139 101q-67 0 -108.5 -42t-50.5 -112h219v-71h-219q9 -71 50.5 -113.5t108.5 -42.5q56 0 94 31.5t54 87.5z" />
    <glyph glyph-name="uni0455" unicode="&#x455;" horiz-adv-x="491" 
d="M96 35q-53 42 -65 116l82 13q17 -101 139 -101q46 0 85 18q38 17 38 58q0 34 -53 54q-20 8 -44 15q-4 1 -7.5 2t-5.5 1.5l-4 1t-3 0.5q-103 31 -136 45q-76 36 -76 116q0 70 58 106t138 36q168 0 198 -136l-81 -19q-18 83 -113 83q-49 0 -78 -13q-36 -15 -36 -49
q0 -38 46 -53q40 -13 78 -24q91 -27 125 -40q80 -33 80 -120q0 -69 -60 -111q-59 -43 -149 -43q-100 0 -156 44z" />
    <glyph glyph-name="uni0456" unicode="&#x456;" horiz-adv-x="262" 
d="M10 507h177v-507h-88v436h-89v71zM93 665h99v-97h-99v97z" />
    <glyph glyph-name="uni0457" unicode="&#x457;" horiz-adv-x="318" 
d="M71 507h177v-507h-88v436h-89v71zM306 607h-93v93h93v-93zM106 607h-93v93h93v-93z" />
    <glyph glyph-name="uni0458" unicode="&#x458;" horiz-adv-x="263" 
d="M-10 -207l17 69q11 -3 23 -3q70 0 70 94v483h-89v71h177v-577q0 -69 -38.5 -105.5t-105.5 -36.5q-22 0 -54 5zM94 665h99v-97h-99v97z" />
    <glyph glyph-name="uni0459" unicode="&#x459;" horiz-adv-x="770" 
d="M9 -9l-19 79q54 0 93 101q47 127 47 336h337v-201h111q71 0 117 -44q45 -44 45 -109t-46 -108q-46 -45 -120 -45h-195v436h-170q-8 -180 -51 -292q-52 -139 -149 -153zM557 235h-90v-164h87q45 0 69.5 22.5t24.5 59.5t-24 59.5t-67 22.5z" />
    <glyph glyph-name="uni045A" unicode="&#x45a;" horiz-adv-x="810" 
d="M613 0h-196v235h-259v-235h-88v507h88v-201h259v201h88v-201h112q71 0 118 -44q45 -44 45 -109t-47 -109t-120 -44zM596 235h-91v-164h88q45 0 69.5 22.5t24.5 59.5t-24 59.5t-67 22.5z" />
    <glyph glyph-name="uni045B" unicode="&#x45b;" horiz-adv-x="606" 
d="M179 637h183v-61h-183v-124h5q57 64 154 64q96 0 147 -47t51 -137v-332h-88v317q0 128 -124 128q-133 0 -145 -130v-315h-88v576h-71v61h71v63h88v-63z" />
    <glyph glyph-name="uni045C" unicode="&#x45c;" horiz-adv-x="512" 
d="M368 351l-70 -73v-7l70 -81l154 -190h-112l-199 247h-53v-247h-88v507h88v-191h73l172 191h106zM233 580l80 157h94l-114 -157h-60z" />
    <glyph glyph-name="uni045E" unicode="&#x45e;" horiz-adv-x="477" 
d="M245 115h5l146 392h91l-219 -585q-25 -68 -56 -102q-30 -32 -94 -32q-24 0 -53 7l-7 77q21 -10 50 -10q47 0 65 47l35 93l-218 505h94l130 -304zM243 588q-57 0 -100 39q-43 37 -43 94h55q6 -63 88 -63q81 0 86 63h55q0 -57 -42 -94q-44 -39 -99 -39z" />
    <glyph glyph-name="uni045F" unicode="&#x45f;" horiz-adv-x="587" 
d="M429 507h88v-507h-188v-119h-71v119h-188v507h88v-436h271v436z" />
    <glyph glyph-name="uni0490" unicode="&#x490;" horiz-adv-x="550" 
d="M540 615h-364v-615h-96v700h374v146h86v-231z" />
    <glyph glyph-name="uni0491" unicode="&#x491;" horiz-adv-x="416" 
d="M345 616h71v-180h-258v-436h-88v507h275v109z" />
    <glyph glyph-name="uni1E02" unicode="&#x1e02;" horiz-adv-x="635" 
d="M465 381v-5q68 -15 104 -63t35 -113q0 -88 -66 -144q-68 -56 -164 -56h-294v700h283q101 0 154 -52q54 -52 54 -123q0 -53 -27 -91.5t-79 -52.5zM176 329v-245h185q64 0 103.5 33.5t39.5 89.5t-39.5 89t-103.5 33h-185zM176 616v-205h165q60 0 95 27.5t35 76.5
q0 48 -34.5 74.5t-95.5 26.5h-165zM354 800h-93v93h93v-93z" />
    <glyph glyph-name="uni1E03" unicode="&#x1e03;" horiz-adv-x="611" 
d="M326 -9q-104 0 -168 72h-6v-63h-82v700h88v-249h6q62 65 162 65q108 0 171 -74q63 -75 63 -188t-63 -188t-171 -75zM312 63q74 0 115 52.5t41 138.5t-41 138t-115 52q-73 0 -113.5 -50t-40.5 -132q0 -95 40 -147t114 -52zM279 773h93v93h-93v-93z" />
    <glyph glyph-name="uni1E0A" unicode="&#x1e0a;" horiz-adv-x="757" 
d="M80 0v700h260q170 0 264 -99q93 -99 93 -251t-93 -251q-94 -99 -264 -99h-260zM176 85h169q127 0 190 74q62 74 62 191t-62 191q-63 74 -190 74h-169v-530zM312 800h93v93h-93v-93z" />
    <glyph glyph-name="uni1E0B" unicode="&#x1e0b;" horiz-adv-x="611" 
d="M285 -9q-108 0 -171 75t-63 188t63 188q63 74 171 74q100 0 162 -65h6v249h88v-700h-82v63h-6q-65 -72 -168 -72zM299 62q74 0 114 52.5t40 147.5q0 82 -40.5 132.5t-113.5 50.5q-74 0 -115 -52.5t-41 -138.5t41 -139t115 -53zM352 773h-93v93h93v-93z" />
    <glyph glyph-name="uni1E1E" unicode="&#x1e1e;" horiz-adv-x="579" 
d="M485 321h-309v-321h-96v700h489v-84h-393v-211h309v-84zM376 800h-93v93h93v-93z" />
    <glyph glyph-name="uni1E1F" unicode="&#x1e1f;" horiz-adv-x="305" 
d="M174 507h114v-71h-114v-436h-88v436h-76v71h76v61q0 69 36.5 105t103.5 36q54 0 98 -15l-17 -72q-35 16 -68 16q-34 0 -49.5 -22t-15.5 -72v-37zM259 773h-93v93h93v-93z" />
    <glyph glyph-name="uni1E40" unicode="&#x1e40;" horiz-adv-x="826" 
d="M416 285l59 119l154 296h117v-700h-96v421l6 115h-6l-184 -346h-106l-184 346h-5l5 -115v-421h-96v700h117l154 -296l59 -119h6zM459 800h-93v93h93v-93z" />
    <glyph glyph-name="uni1E41" unicode="&#x1e41;" horiz-adv-x="918" 
d="M70 507h83v-73h5q61 82 166 82q120 0 161 -96h6q61 96 176 96q85 0 132.5 -48t47.5 -137v-331h-88v310q0 68 -28 101t-77 33q-67 0 -109.5 -40.5t-42.5 -110.5v-293h-87v310q0 67 -27.5 100.5t-75.5 33.5q-68 0 -111 -40.5t-43 -110.5v-293h-88v507zM505 607h-93v93h93
v-93z" />
    <glyph glyph-name="uni1E56" unicode="&#x1e56;" horiz-adv-x="624" 
d="M176 0h-96v700h305q105 0 162 -60t57 -151q0 -92 -57 -152t-162 -60h-209v-277zM379 616h-203v-255h203q62 0 93.5 34.5t31.5 93.5t-31.5 93t-93.5 34zM368 800h-93v93h93v-93z" />
    <glyph glyph-name="uni1E57" unicode="&#x1e57;" horiz-adv-x="611" 
d="M326 516q108 0 171 -75t63 -188t-63 -187q-63 -75 -171 -75q-100 0 -162 65h-6v-268h-88v719h82v-63h6q64 72 168 72zM312 444q-74 0 -114 -52t-40 -147q0 -82 40.5 -132t113.5 -50q74 0 115 52t41 138t-41 138.5t-115 52.5zM382 607h-93v93h93v-93z" />
    <glyph glyph-name="uni1E60" unicode="&#x1e60;" horiz-adv-x="635" 
d="M311 709q103 0 173.5 -46t89.5 -142l-95 -23q-19 127 -167 127q-36 1 -68.5 -8t-57.5 -33.5t-26 -60.5q0 -34 22 -52q26 -22 50 -30t63 -18q26 -7 29 -8q128 -35 153 -45q118 -54 118 -173q0 -94 -73 -150t-198 -56q-121 0 -195.5 55.5t-88.5 167.5l93 17
q11 -83 56 -119.5t135 -36.5q65 0 121 29q55 28 55 90q0 60 -81 91q-20 7 -123 34q-76 19 -134 44q-45 20 -71 60.5t-26 92.5q0 92 73 143q73 50 173 50zM374 800h-93v93h93v-93z" />
    <glyph glyph-name="uni1E61" unicode="&#x1e61;" horiz-adv-x="491" 
d="M96 35q-53 42 -65 116l82 13q17 -101 139 -101q46 0 85 18q38 17 38 58q0 34 -53 54q-20 8 -44 15q-4 1 -7.5 2t-5.5 1.5l-4 1t-3 0.5q-103 31 -136 45q-76 36 -76 116q0 70 58 106t138 36q168 0 198 -136l-81 -19q-18 83 -113 83q-49 0 -78 -13q-36 -15 -36 -49
q0 -38 46 -53q40 -13 78 -24q91 -27 125 -40q80 -33 80 -120q0 -69 -60 -111q-59 -43 -149 -43q-100 0 -156 44zM302 607h-93v93h93v-93z" />
    <glyph glyph-name="uni1E6A" unicode="&#x1e6a;" horiz-adv-x="554" 
d="M229 0v615h-229v85h554v-85h-229v-615h-96zM323 800h-93v93h93v-93z" />
    <glyph glyph-name="uni1E6B" unicode="&#x1e6b;" horiz-adv-x="327" 
d="M180 507h132v-71h-132v-295q0 -43 14.5 -60.5t48.5 -17.5q36 0 66 11l18 -71q-41 -12 -98 -12q-137 0 -137 134v311h-76v71h76v112l88 22v-134zM89 710h93v93h-93v-93z" />
    <glyph glyph-name="uni1E80" unicode="&#x1e80;" horiz-adv-x="788" 
d="M391 369l-33 -112l-79 -257h-103l-186 700h99l113 -426l27 -115h6l33 115l73 237h106l74 -237l32 -115h6l27 115l113 426h99l-186 -700h-103l-79 257l-33 112h-6zM371 773l-114 157h94l80 -157h-60z" />
    <glyph glyph-name="uni1E81" unicode="&#x1e81;" horiz-adv-x="663" 
d="M247 0h-96l-161 507h92l96 -309l21 -85h6l22 85l56 178h96l56 -178l23 -85h6l21 85l96 309h92l-161 -507h-96l-65 198l-17 67h-6l-17 -67zM318 580l-114 157h94l80 -157h-60z" />
    <glyph glyph-name="uni1E82" unicode="&#x1e82;" horiz-adv-x="788" 
d="M391 369l-33 -112l-79 -257h-103l-186 700h99l113 -426l27 -115h6l33 115l73 237h106l74 -237l32 -115h6l27 115l113 426h99l-186 -700h-103l-79 257l-33 112h-6zM357 773l80 157h94l-114 -157h-60z" />
    <glyph glyph-name="uni1E83" unicode="&#x1e83;" horiz-adv-x="663" 
d="M247 0h-96l-161 507h92l96 -309l21 -85h6l22 85l56 178h96l56 -178l23 -85h6l21 85l96 309h92l-161 -507h-96l-65 198l-17 67h-6l-17 -67zM304 580l80 157h94l-114 -157h-60z" />
    <glyph glyph-name="uni1E84" unicode="&#x1e84;" horiz-adv-x="788" 
d="M391 369l-33 -112l-79 -257h-103l-186 700h99l113 -426l27 -115h6l33 115l73 237h106l74 -237l32 -115h6l27 115l113 426h99l-186 -700h-103l-79 257l-33 112h-6zM340 800h-93v93h93v-93zM540 800h-93v93h93v-93z" />
    <glyph glyph-name="uni1E85" unicode="&#x1e85;" horiz-adv-x="663" 
d="M247 0h-96l-161 507h92l96 -309l21 -85h6l22 85l56 178h96l56 -178l23 -85h6l21 85l96 309h92l-161 -507h-96l-65 198l-17 67h-6l-17 -67zM278 607h-93v93h93v-93zM478 607h-93v93h93v-93z" />
    <glyph glyph-name="uni1EF2" unicode="&#x1ef2;" horiz-adv-x="585" 
d="M436 0h-288v85h96v178l-254 437h111l125 -215l65 -118h6l66 118l125 215h107l-255 -438v-177h96v-85zM279 773l-114 157h94l80 -157h-60z" />
    <glyph glyph-name="uni1EF3" unicode="&#x1ef3;" horiz-adv-x="477" 
d="M245 115h5l146 392h91l-219 -585q-25 -68 -56 -102q-30 -32 -94 -32q-24 0 -53 7l-7 77q21 -10 50 -10q47 0 65 47l35 93l-218 505h94l130 -304zM225 580l-114 157h94l80 -157h-60z" />
    <glyph glyph-name="uni2013" unicode="&#x2013;" 
d="M547 276v-58h-477v58h477z" />
    <glyph glyph-name="uni2014" unicode="&#x2014;" horiz-adv-x="1000" 
d="M930 276v-58h-860v58h860z" />
    <glyph glyph-name="uni2018" unicode="&#x2018;" horiz-adv-x="235" 
d="M165 700v-43q-24 0 -36 -12.5t-15 -47.5h51v-97h-95v92q0 54 25.5 81t69.5 27z" />
    <glyph glyph-name="uni2019" unicode="&#x2019;" horiz-adv-x="235" 
d="M70 500v43q25 0 36.5 12.5t13.5 47.5h-50v97h95v-92q0 -54 -25.5 -81t-69.5 -27z" />
    <glyph glyph-name="uni201A" unicode="&#x201a;" horiz-adv-x="235" 
d="M70 -103v43q25 0 36.5 12.5t13.5 47.5h-50v97h95v-92q-1 -54 -26 -81t-69 -27z" />
    <glyph glyph-name="uni201C" unicode="&#x201c;" horiz-adv-x="386" 
d="M316 700v-43q-24 0 -36 -12.5t-15 -47.5h51v-97h-95v91q0 55 25.5 82t69.5 27zM165 700v-43q-24 0 -36 -12.5t-15 -47.5h51v-97h-95v92q0 54 25.5 81t69.5 27z" />
    <glyph glyph-name="uni201D" unicode="&#x201d;" horiz-adv-x="386" 
d="M70 500v43q25 0 36.5 12.5t13.5 47.5h-50v97h95v-92q0 -54 -25.5 -81t-69.5 -27zM221 500v43q25 0 36.5 12.5t13.5 47.5h-50v97h95v-91q0 -109 -95 -109z" />
    <glyph glyph-name="uni201E" unicode="&#x201e;" horiz-adv-x="386" 
d="M70 -103v43q25 0 36.5 12.5t13.5 47.5h-50v97h95v-92q0 -54 -25.5 -81t-69.5 -27zM221 -103v43q25 0 36.5 12.5t13.5 47.5h-50v97h95v-91q0 -55 -25.5 -82t-69.5 -27z" />
    <glyph glyph-name="uni2020" unicode="&#x2020;" horiz-adv-x="548" 
d="M478 507v-71h-160v-521h-88v521h-160v71h160v193h88v-193h160z" />
    <glyph glyph-name="uni2021" unicode="&#x2021;" horiz-adv-x="548" 
d="M478 216v-71h-160v-230h-88v230h-160v71h160v220h-160v71h160v193h88v-193h160v-71h-160v-220h160z" />
    <glyph glyph-name="uni2022" unicode="&#x2022;" horiz-adv-x="386" 
d="M70 349q0 49 36 87q36 36 87 36q49 0 87 -36q36 -38 36 -87q0 -51 -36 -87q-38 -36 -87 -36q-51 0 -87 36t-36 87z" />
    <glyph glyph-name="uni2026" unicode="&#x2026;" horiz-adv-x="843" 
d="M171 0h-101v102h101v-102zM773 0h-101v102h101v-102zM472 0h-101v102h101v-102z" />
    <glyph glyph-name="uni2030" unicode="&#x2030;" horiz-adv-x="1234" 
d="M161 620q-25 -32 -25 -87t25 -86q25 -33 70 -33q44 0 69.5 32.5t25.5 86.5t-25.5 86.5t-69.5 32.5t-70 -32zM114 405q-44 47 -44 128q0 80 44 129q44 47 117 47t117 -48t44 -128q0 -81 -43.5 -128.5t-117.5 -47.5q-73 0 -117 48zM573 253q-25 -32 -25 -87t25 -86
q25 -33 70 -33q44 0 69.5 32.5t25.5 86.5t-25.5 86.5t-69.5 32.5t-70 -32zM526 38q-44 47 -44 128q0 80 44 129q44 47 117 47t117 -48t44 -128q0 -81 -43.5 -128.5t-117.5 -47.5q-73 0 -117 48zM933 253q-25 -32 -25 -87t25 -86q25 -33 70 -33q44 0 69.5 32.5t25.5 86.5
t-25.5 86.5t-69.5 32.5t-70 -32zM886 38q-44 47 -44 128q0 80 44 129q44 47 117 47t117 -48t44 -128q0 -81 -43.5 -128.5t-117.5 -47.5q-73 0 -117 48zM212 -26l392 753h64l-393 -753h-63z" />
    <glyph glyph-name="uni2039" unicode="&#x2039;" horiz-adv-x="395" 
d="M236 453h89l-148 -199l148 -199h-89l-166 199z" />
    <glyph glyph-name="uni203A" unicode="&#x203a;" horiz-adv-x="395" 
d="M70 55l148 199l-148 199h89l166 -199l-166 -199h-89z" />
    <glyph glyph-name="uni2044" unicode="&#x2044;" horiz-adv-x="596" 
d="M70 -26l392 753h64l-393 -753h-63z" />
    <glyph glyph-name="uni20AC" unicode="&#x20ac;" horiz-adv-x="626" 
d="M97 268h-87l28 54h54v52h-77l32 55h49q15 130 81.5 205t177.5 75q143 0 204 -141l-86 -37q-33 94 -121 94q-134 0 -156 -196h231l-24 -55h-210v-52h186l-24 -54h-158q22 -193 155 -193q95 0 127 113l87 -38q-28 -75 -81.5 -117t-129.5 -42q-111 0 -177 74t-81 203z" />
    <glyph glyph-name="uni2113" unicode="&#x2113;" horiz-adv-x="443" 
d="M157 119v93l-38 -46l-49 39l87 109v215q0 105 31 146q29 34 87 34q48 0 73.5 -30.5t23.5 -82.5q-1 -44 -28 -105q-28 -61 -46 -87q-6 -9 -26.5 -37.5t-34.5 -49.5v-182q0 -45 14 -65t44 -20q39 0 63 12l15 -59q-35 -12 -89 -12q-61 0 -94 32.5t-33 95.5zM237 536v-108
q47 81 57 110q9 22 11 49t-8 50q-8 14 -26.5 13t-25.5 -23q-8 -26 -8 -91z" />
    <glyph glyph-name="uni2116" unicode="&#x2116;" horiz-adv-x="1146" 
d="M1066 181h-322v47h322v-47zM835 535q-25 -32 -25 -87t25 -86q26 -33 70 -33t69.5 32.5t25.5 86.5t-25.5 86.5t-69.5 32.5t-70 -32zM788 320q-44 47 -44 128q0 80 44 129q44 47 117 47t117 -48t44 -128q0 -81 -43.5 -128.5t-117.5 -47.5q-73 0 -117 48zM170 546l6 -115
v-431h-96v700h103l380 -548h6l-6 115v433h96v-700h-104l-379 546h-6z" />
    <glyph glyph-name="uni2122" unicode="&#x2122;" horiz-adv-x="896" 
d="M628 451l35 72l92 177h71v-420h-58v322h-4l-32 -66l-74 -142h-64l-74 142l-33 66h-3v-322h-58v420h70l93 -177l35 -72h4zM207 280v369h-137v51h332v-51h-137v-369h-58z" />
    <glyph glyph-name="uni2126" unicode="&#x2126;" horiz-adv-x="819" 
d="M70 94l198 -17v45q-94 32 -144 106.5t-50 176.5q0 131 89 218q89 86 244 86q156 0 245 -86q89 -87 89 -218q0 -102 -50.5 -176.5t-144.5 -106.5v-45l198 17v-94h-285v174q91 14 136 73t45 152q0 102 -61 164t-172 62t-171.5 -62t-60.5 -164q0 -94 45 -152.5t136 -72.5
v-174h-286v94z" />
    <glyph glyph-name="uni212E" unicode="&#x212e;" horiz-adv-x="834" 
d="M754 351h-527v-238q77 -77 191 -77q162 0 251 158l47 -29q-120 -175 -298 -175q-145 0 -242 100q-96 99 -96 261q0 159 95 260q94 100 243 100q137 0 233 -90q98 -91 103 -270zM227 590v-192h383v192q-82 76 -193 76q-114 0 -190 -76z" />
    <glyph glyph-name="uni2202" unicode="&#x2202;" horiz-adv-x="643" 
d="M354 638q-81 0 -147 -78l-53 47q36 48 89.5 75t111.5 27q70 0 123.5 -39t74.5 -112q21 -67 19 -154q-7 -229 -145 -350q-73 -63 -168 -63q-80 0 -134 51q-55 51 -55 147q0 111 68 193q68 80 168 80q111 0 168 -102q16 117 -19 198q-36 80 -101 80zM448 253
q-16 62 -52 97.5t-81 35.5q-66 0 -109 -61q-42 -60 -44 -140q0 -55 24.5 -89t73.5 -34q64 0 115 59q50 58 73 132z" />
    <glyph glyph-name="uni2206" unicode="&#x2206;" horiz-adv-x="797" 
d="M398 724l329 -724h-657zM382 551l-221 -484h440z" />
    <glyph glyph-name="uni220F" unicode="&#x220f;" horiz-adv-x="734" 
d="M664 700v-912h-96v827h-402v-827h-96v912h594z" />
    <glyph glyph-name="uni2211" unicode="&#x2211;" horiz-adv-x="697" 
d="M579 700v-85h-367l263 -226l-286 -303h438v-86h-557v86l273 289l-273 236v89h509z" />
    <glyph glyph-name="uni2212" unicode="&#x2212;" 
d="M547 306v-68h-477v68h477z" />
    <glyph glyph-name="uni221A" unicode="&#x221a;" horiz-adv-x="991" 
d="M147 309l70 -217l428 776h276v-82h-256l-480 -871l-115 368z" />
    <glyph glyph-name="uni221E" unicode="&#x221e;" horiz-adv-x="943" 
d="M520 366q48 -63 96 -90q31 -19 61 -19q55 0 89 28.5t34 80.5q0 50 -34.5 80.5t-88.5 30.5q-28 0 -59.5 -17.5t-52.5 -40.5q-18 -18 -45 -53zM677 184q-59 0 -106 30.5t-97 91.5q-101 -125 -205 -125q-86 0 -142 50q-57 49 -57 135q0 84 57 134q56 50 142 50
q104 0 205 -125q52 63 98.5 94t104.5 31q83 0 140 -51q56 -51 56 -133q0 -81 -56 -131q-55 -49 -140 -51zM269 253q40 0 77 28t82 85q-88 111 -159 111q-56 0 -90.5 -29.5t-34.5 -81.5q0 -53 34.5 -82.5t90.5 -30.5z" />
    <glyph glyph-name="uni222B" unicode="&#x222b;" horiz-adv-x="530" 
d="M221 -47v655q0 69 36.5 105t103.5 36q63 0 99 -13l-17 -71q-25 13 -69 13q-34 0 -49.5 -22t-15.5 -72v-655q0 -69 -36.5 -105t-103.5 -36q-63 0 -99 13l17 71q25 -13 69 -13q34 0 49.5 22t15.5 72z" />
    <glyph glyph-name="uni2248" unicode="&#x2248;" horiz-adv-x="618" 
d="M548 413v-78q-65 -56 -125 -56t-131 43q-41 25 -59 31q-20 6 -38 6q-57 0 -125 -68v79q64 55 130 55q64 0 128 -45q49 -34 90 -34q38 0 66 15.5t64 51.5zM548 253v-78q-65 -56 -125 -56t-131 43q-41 25 -59 31q-20 6 -38 6q-57 0 -125 -68v79q64 55 130 55q64 0 128 -45
q49 -34 90 -34q38 0 66 15.5t64 51.5z" />
    <glyph glyph-name="uni2260" unicode="&#x2260;" 
d="M266 146l-69 -125h-58l69 125h-138v68h176l65 116h-241v68h278l70 125h59l-70 -125h140v-68h-178l-65 -116h243v-68h-281z" />
    <glyph glyph-name="uni2264" unicode="&#x2264;" 
d="M158 346l389 -181v-73l-477 221v66l477 223v-75zM547 68v-68h-477v68h477z" />
    <glyph glyph-name="uni2265" unicode="&#x2265;" 
d="M547 313l-477 -221v73l389 181l-389 181v75l477 -223v-66zM547 68v-68h-477v68h477z" />
    <glyph glyph-name="uni25CA" unicode="&#x25ca;" horiz-adv-x="618" 
d="M70 256l238 465l240 -465l-239 -469zM308 600l-175 -345l176 -347l178 348z" />
    <glyph glyph-name="uniFB01" unicode="&#xfb01;" horiz-adv-x="515" 
d="M174 507h266v-507h-89v436h-177v-436h-88v436h-76v71h76v61q0 69 36.5 105t103.5 36q54 0 98 -15l-17 -72q-35 16 -68 16q-34 0 -49.5 -22t-15.5 -72v-37zM345 665h100v-97h-100v97z" />
    <glyph glyph-name="uniFB02" unicode="&#xfb02;" horiz-adv-x="490" 
d="M225 700h195v-700h-89v629h-93q-34 0 -49.5 -22t-15.5 -72v-28h114v-71h-114v-436h-88v436h-75v71h75v52q0 69 36.5 105t103.5 36z" />
    <glyph glyph-name="null" horiz-adv-x="0" 
 />
    <glyph glyph-name="commaaccent.titling" horiz-adv-x="235" 
d="M70 -245v43q25 0 36.5 12.5t13.5 47.5h-50v97h95v-92q0 -54 -25.5 -81t-69.5 -27z" />
    </font>
</defs>
</svg>
