<?xml version="1.0" standalone="no"?>
<!DOCTYPE svg PUBLIC "-//W3C//DTD SVG 1.1//EN" "http://www.w3.org/Graphics/SVG/1.1/DTD/svg11.dtd" >
<svg xmlns="http://www.w3.org/2000/svg" xmlns:xlink="http://www.w3.org/1999/xlink" version="1.1">
<metadata>
Created by FontForge 20170731 at Wed Apr 11 16:18:49 2018
 By Aleksey,,,
Copyright (c) 2018 by Slobodan Jelesijevic &#38; Tour de Force Font Foundry. All rights reserved.
</metadata>
<defs>
<font id="Dopis-BoldCondensed" horiz-adv-x="474" >
  <font-face 
    font-family="Dopis Condensed"
    font-weight="700"
    font-stretch="condensed"
    units-per-em="1000"
    panose-1="2 0 5 6 0 0 0 2 0 4"
    ascent="773"
    descent="-227"
    x-height="508"
    cap-height="700"
    bbox="-130 -276 916 974"
    underline-thickness="50"
    underline-position="-200"
    unicode-range="U+0020-FB02"
  />
<missing-glyph horiz-adv-x="250" 
 />
    <glyph glyph-name=".notdef" horiz-adv-x="250" 
 />
    <glyph glyph-name=".null" horiz-adv-x="0" 
 />
    <glyph glyph-name="nonmarkingreturn" horiz-adv-x="333" 
 />
    <glyph glyph-name="uni0020" unicode=" " horiz-adv-x="250" 
 />
    <glyph glyph-name="uni0021" unicode="!" horiz-adv-x="265" 
d="M205 433l-19 -242h-107l-19 241v268h145v-267zM205 0h-145v135h145v-135z" />
    <glyph glyph-name="uni0022" unicode="&#x22;" horiz-adv-x="361" 
d="M50 700h107l-11 -262h-96v262zM204 700h107l-10 -262h-97v262z" />
    <glyph glyph-name="uni0023" unicode="#" horiz-adv-x="528" 
d="M156 0h-81l49 216h-74l17 80h75l27 119h-75l18 80h75l49 215h81l-49 -215h54l49 215h81l-49 -215h75l-18 -80h-75l-27 -119h75l-18 -80h-75l-49 -216h-81l49 216h-54zM304 415h-54l-27 -119h54z" />
    <glyph glyph-name="uni0024" unicode="$" horiz-adv-x="450" 
d="M419 553l-131 -42q-9 59 -35 71v-142l65 -38q65 -38 94 -85t28 -115q-1 -87 -51 -144.5t-136 -65.5v-122h-48v121q-85 6 -134.5 59t-58.5 143l135 26q1 -82 58 -103v180l-48 29q-118 70 -118 188q0 76 44 132q43 55 122 63v121h48v-120q68 -6 110.5 -47t55.5 -109z
M260 263l-7 4v-151q49 13 49 76q0 45 -42 71zM177 526q0 -36 28 -57v112q-28 -12 -28 -55z" />
    <glyph glyph-name="uni0025" unicode="%" horiz-adv-x="671" 
d="M486 345q135 0 135 -178q0 -177 -135 -177q-134 0 -134 177q0 90 31.5 134t102.5 44zM486 262q-20 0 -26 -20t-6 -73q0 -55 6 -75.5t26 -20.5t26.5 19.5t6.5 74.5q0 56 -6.5 75.5t-26.5 19.5zM139 -26l332 753h64l-333 -753h-63zM184 700q135 0 135 -178
q0 -177 -135 -177q-134 0 -134 177q0 90 31.5 134t102.5 44zM184 617q-20 0 -26 -20t-6 -73q0 -55 6 -75.5t26 -20.5t26.5 19.5t6.5 74.5q0 56 -6.5 75.5t-26.5 19.5z" />
    <glyph glyph-name="uni0026" unicode="&#x26;" horiz-adv-x="557" 
d="M371 350l103 -5q-10 -90 -39 -168l122 -177h-168l-33 49q-65 -59 -150 -59q-82 0 -134 63q-52 61 -52 143q0 97 103 193q-44 71 -44 151q0 68 47 120q47 50 115 50q64 0 103.5 -46t39.5 -117q0 -56 -19.5 -91t-68.5 -76l63 -92q7 32 12 62zM293 140l-100 146
q-32 -41 -32 -96q-1 -35 15 -62.5t44 -27.5q40 0 73 40zM232 473q41 35 41 74q0 19 -9 35t-23 16q-16 0 -25 -17t-9 -38q0 -33 25 -70z" />
    <glyph glyph-name="uni0027" unicode="'" horiz-adv-x="207" 
d="M50 700h107l-10 -262h-97v262z" />
    <glyph glyph-name="uni0028" unicode="(" horiz-adv-x="368" 
d="M318 -193h-106q-77 140 -113 241q-39 105 -39 221q0 121 37 231t116 228h105q-127 -214 -127 -459q0 -204 127 -462z" />
    <glyph glyph-name="uni0029" unicode=")" horiz-adv-x="368" 
d="M156 -193h-106q127 258 127 462q0 245 -127 459h105q79 -118 116 -228t37 -231q0 -115 -38 -221q-38 -103 -114 -241z" />
    <glyph glyph-name="uni002A" unicode="*" horiz-adv-x="506" 
d="M337 319l-84 139l-83 -139l-71 46l95 136l-144 26l18 83l149 -37l-6 136h85l-4 -136l147 36l17 -82l-142 -26l93 -136z" />
    <glyph glyph-name="uni002B" unicode="+" horiz-adv-x="481" 
d="M189 401v203h102v-203h140v-102h-140v-204h-102v204h-139v102h139z" />
    <glyph glyph-name="uni002C" unicode="," horiz-adv-x="209" 
d="M103 0h-53v144h109v-125q-1 -80 -30.5 -120.5t-78.5 -40.5v64q26 0 37.5 16t15.5 62z" />
    <glyph glyph-name="uni002D" unicode="-" horiz-adv-x="314" 
d="M264 413v-124h-214v124h214z" />
    <glyph glyph-name="uni002E" unicode="." horiz-adv-x="195" 
d="M145 0h-95v144h95v-144z" />
    <glyph glyph-name="uni002F" unicode="/" horiz-adv-x="417" 
d="M50 -26l249 753h68l-250 -753h-67z" />
    <glyph glyph-name="uni0030" unicode="0" horiz-adv-x="461" 
d="M230 700q122 6 174 -124q21 -52 26 -155q1 -21 1 -76q0 -79 -8 -153q-6 -47 -19 -77q-52 -131 -174 -125q-66 -3 -108.5 32.5t-63.5 92.5q-23 54 -26 154q-2 42 -2 76q0 80 9 153q4 43 19 78q21 56 63.5 91.5t108.5 32.5zM230 590q-58 0 -58 -245t58 -245q59 0 59 245v6
q0 5 -2 93q-2 38 -5 54q-15 97 -52 92z" />
    <glyph glyph-name="uni0031" unicode="1" horiz-adv-x="347" 
d="M61 101h72v328l5 93h-5l-61 -61l-72 71l158 158h111v-589h68v-101h-276v101z" />
    <glyph glyph-name="uni0032" unicode="2" horiz-adv-x="412" 
d="M158 513l-130 7q24 180 190 180q182 0 183 -211q-3 -59 -15 -94.5t-41 -65.5q-22 -22 -37 -34q-3 -2 -19 -14l-28 -21q-30 -21 -49 -37q-52 -42 -66 -101h255v-122h-391q2 54 6 87q5 34 15 77q20 83 91 144q16 13 47 35q31 24 47 38q43 39 43 99v5q1 105 -44 105t-57 -77
z" />
    <glyph glyph-name="uni0033" unicode="3" horiz-adv-x="440" 
d="M329 370v-5q39 -17 64.5 -60.5t25.5 -92.5q2 -92 -54 -157t-150 -65q-87 0 -140 48t-66 129l132 24q5 -42 20 -65t50 -26q66 0 66 110q0 42 -18 71t-54 29h-80v108h80q27 0 42.5 26t15.5 59q0 31 -2 45q-3 13 -8 22q-16 20 -40 20q-46 0 -57 -80l-130 36q15 71 64 112.5
t125 41.5q85 0 137.5 -51.5t52.5 -135.5q0 -95 -76 -143z" />
    <glyph glyph-name="uni0034" unicode="4" horiz-adv-x="450" 
d="M238 0v151h-228v93l241 446h123v-424h66v-115h-66v-151h-136zM243 452h-5l-50 -93l-50 -88v-5h100v93z" />
    <glyph glyph-name="uni0035" unicode="5" horiz-adv-x="449" 
d="M177 567l-12 -101h5q26 17 58 17q63 0 108.5 -36.5t64.5 -92.5q18 -54 18 -118q0 -144 -83 -209q-46 -37 -119 -37q-155 0 -197 167l132 24q16 -75 65 -75q60 0 60 131q0 128 -59 130q-44 2 -61 -45h-123l42 368h317v-123h-216z" />
    <glyph glyph-name="uni0036" unicode="6" horiz-adv-x="450" 
d="M180 451h6q29 29 78 29q44 0 78 -23t52.5 -60t27.5 -78t9 -83q0 -104 -49 -174q-50 -72 -145 -72q-206 0 -206 336q0 128 40 240q22 62 69 98t112 36q75 0 115 -34t63 -108l-128 -36q-14 68 -50 68q-57 0 -72 -139zM234 100q55 0 55 136v5q0 47 -6 80q-9 50 -51 50
t-51 -55q-7 -43 -7 -80q0 -39 10 -79q5 -25 18.5 -41t31.5 -16z" />
    <glyph glyph-name="uni0037" unicode="7" horiz-adv-x="417" 
d="M189 0h-148q24 170 72 289q49 120 151 273v5h-254v123h397v-92q-97 -152 -147 -287q-48 -129 -71 -311z" />
    <glyph glyph-name="uni0038" unicode="8" horiz-adv-x="450" 
d="M413 507q0 -98 -53 -143v-5q65 -50 65 -161q0 -98 -55.5 -153t-145.5 -55q-89 0 -144 55t-55 153q0 113 65 161v5q-53 45 -53 143q0 91 51.5 142t135.5 51q85 0 137 -50.5t52 -142.5zM224 310q-58 0 -58 -104q0 -108 58 -108q60 0 60 108q0 57 -14.5 80.5t-45.5 23.5z
M224 592q-46 0 -46 -90q0 -91 46 -91q24 0 36 20.5t12 70.5t-12 70t-36 20z" />
    <glyph glyph-name="uni0039" unicode="9" horiz-adv-x="450" 
d="M270 239h-5q-29 -29 -78 -29q-44 0 -78 23t-52.5 60t-27.5 78t-9 83q0 104 49 175q50 71 145 71q206 0 206 -336q0 -108 -23 -193q-15 -53 -38 -91q-54 -90 -154 -90q-76 0 -117 36.5t-60 113.5l131 20q5 -20 8.5 -30.5t13 -20t24.5 -9.5q53 0 65 139zM217 590
q-55 0 -55 -136v-5q0 -42 7 -79q9 -51 50 -51q43 0 52 56q6 36 6 79q0 38 -9 80q-6 25 -20 40.5t-31 15.5z" />
    <glyph glyph-name="uni003A" unicode=":" horiz-adv-x="209" 
d="M159 0h-109v144h109v-144zM159 363h-109v144h109v-144z" />
    <glyph glyph-name="uni003B" unicode=";" horiz-adv-x="209" 
d="M103 0h-53v144h109v-125q-1 -80 -30.5 -120.5t-78.5 -40.5v64q26 0 37.5 16t15.5 62zM159 364h-109v144h109v-144z" />
    <glyph glyph-name="uni003C" unicode="&#x3c;" horiz-adv-x="498" 
d="M50 406l398 160v-110l-261 -105l261 -105v-111l-398 161v110z" />
    <glyph glyph-name="uni003D" unicode="=" horiz-adv-x="481" 
d="M50 521h381v-102h-381v102zM50 281h381v-102h-381v102z" />
    <glyph glyph-name="uni003E" unicode="&#x3e;" horiz-adv-x="498" 
d="M311 351l-261 105v110l398 -160v-110l-398 -161v111z" />
    <glyph glyph-name="uni003F" unicode="?" horiz-adv-x="403" 
d="M138 520l-123 31q33 159 189 159q96 0 147 -73q33 -47 33 -119q0 -41 -13 -69q-18 -39 -32 -58q-4 -5 -8.5 -11t-7 -9.5t-3.5 -4.5q-8 -11 -23 -28q-21 -25 -22 -26q-22 -27 -29 -51t-7 -66h-128q2 71 14 111q12 44 49 88l2 2q3 3 7 8t9 10q13 13 25 29q28 37 28 79
q0 72 -49 72q-50 0 -58 -74zM251 0h-145v135h145v-135z" />
    <glyph glyph-name="uni0040" unicode="@" horiz-adv-x="864" 
d="M523 507h125l-36 -292q-16 -124 7 -124q41 0 72 84q30 84 33 149q6 144 -68 221q-75 76 -190 76q-99 0 -176 -57q-75 -58 -113 -148q-38 -93 -38 -197q0 -153 86 -247q85 -93 243 -93q178 0 264 119l49 -59q-103 -148 -313 -148q-190 0 -304 115q-114 116 -114 313
q0 189 106 334q52 72 133 114t177 42q137 0 243 -95q53 -48 81 -125t23 -170q-4 -78 -33.5 -152.5t-81.5 -125.5q-53 -53 -116 -52q-67 1 -82 80h-5q-56 -80 -134 -80q-153 0 -153 202q0 108 49 212q25 52 68.5 82.5t96.5 30.5t91 -47h5zM438 410q-44 0 -68 -65
q-24 -66 -24 -138q0 -112 54 -112q65 0 83 159q0 5 1.5 24.5t2 32.5t-1.5 32.5t-8 34.5q-12 32 -39 32z" />
    <glyph glyph-name="uni0041" unicode="A" horiz-adv-x="477" 
d="M175 137l-24 -137h-141l141 700h175l141 -700h-148l-24 137h-120zM250 392l-14 94h-5l-12 -94l-24 -135h79z" />
    <glyph glyph-name="uni0042" unicode="B" horiz-adv-x="485" 
d="M60 0v700h196q117 0 154 -56q32 -49 32 -136q0 -46 -23 -83.5t-62 -46.5v-5q49 -9 78.5 -55t29.5 -105q0 -96 -35 -150q-42 -63 -173 -63h-197zM254 310h-49v-188h49q61 0 61 93q0 95 -61 95zM244 578h-39v-151h39q48 0 48 75q0 76 -48 76z" />
    <glyph glyph-name="uni0043" unicode="C" horiz-adv-x="494" 
d="M319 252l141 -26q-7 -80 -26 -133q-13 -35 -33 -55q-50 -48 -142 -48q-156 0 -198 148q-23 77 -23 212q0 134 24 212q13 46 38 79q52 69 159 69q93 0 137 -44t54 -135l-137 -44q-3 24 -3 43q-3 23 -9 34q-17 22 -42 22q-24 0 -37.5 -17.5t-22.5 -51.5q-10 -36 -10 -103
q-1 -17 -1 -64q0 -79 4 -118q1 -24 7 -49q9 -34 22.5 -51.5t37.5 -17.5q42 0 51 52q1 8 7 62q0 4 0.5 9.5t1 9t0.5 5.5z" />
    <glyph glyph-name="uni0044" unicode="D" horiz-adv-x="519" 
d="M236 0h-176v700h177q96 -4 147.5 -38t72.5 -104q22 -75 22 -208q0 -134 -22 -208q-15 -48 -40 -76q-59 -66 -181 -66zM205 125h32q61 0 78 65q14 53 14 160q0 108 -14 160q-17 65 -78 65h-32v-450z" />
    <glyph glyph-name="uni0045" unicode="E" horiz-adv-x="408" 
d="M398 125v-125h-338v700h338v-125h-192v-144h160v-124h-160v-182h192z" />
    <glyph glyph-name="uni0046" unicode="F" horiz-adv-x="396" 
d="M206 298v-298h-146v700h336v-125h-190v-152h159v-125h-159z" />
    <glyph glyph-name="uni0047" unicode="G" horiz-adv-x="507" 
d="M462 531l-137 -44q-4 59 -14 77q-13 22 -46 22q-45 0 -64 -69q-10 -36 -10 -104q-1 -17 -1 -63q0 -128 15 -182t61 -54q33 0 57 31v103h-64v122h208v-274q-73 -106 -200 -106q-86 3 -134 39.5t-69 108.5q-24 78 -24 212t24 212q13 46 38 79q54 69 163 69q97 0 141 -43.5
t56 -135.5z" />
    <glyph glyph-name="uni0048" unicode="H" horiz-adv-x="523" 
d="M463 700v-700h-145v307h-113v-307h-145v700h145v-267h113v267h145z" />
    <glyph glyph-name="uni0049" unicode="I" horiz-adv-x="312" 
d="M302 126v-126h-292v126h74v448h-74v126h292v-126h-73v-448h73z" />
    <glyph glyph-name="uni004A" unicode="J" horiz-adv-x="422" 
d="M13 188l141 26v-43q0 -28 5.5 -41t25.5 -16q20 0 26 13t6 44v403h-74v126h219v-476q0 -110 -30 -167q-36 -67 -147 -67q-98 0 -133 50q-36 49 -39 148z" />
    <glyph glyph-name="uni004B" unicode="K" horiz-adv-x="512" 
d="M347 366l45 -89l120 -277h-161l-122 301h-24v-301h-145v700h145v-279h24l115 279h151l-104 -240l-44 -89v-5z" />
    <glyph glyph-name="uni004C" unicode="L" horiz-adv-x="402" 
d="M402 126v-126h-332v700h145v-574h187z" />
    <glyph glyph-name="uni004D" unicode="M" horiz-adv-x="636" 
d="M194 475l6 -94v-381h-140v700h194l44 -189l17 -94h5l18 94l44 189h194v-700h-140v381l6 94h-5l-63 -285h-112l-63 285h-5z" />
    <glyph glyph-name="uni004E" unicode="N" horiz-adv-x="525" 
d="M213 700l113 -362h5l-5 94v268h139v-700h-154l-112 360h-5l5 -94v-266h-139v700h153z" />
    <glyph glyph-name="uni004F" unicode="O" horiz-adv-x="544" 
d="M172 691q41 19 100 19t101 -19q42 -20 67 -50q46 -57 59 -177q5 -55 5 -115q0 -130 -24 -211q-15 -50 -40 -79q-56 -69 -168 -69q-87 2 -136.5 39t-70.5 109q-25 80 -25 211q0 132 25 213q28 94 107 129zM339 527q-17 59 -67 59q-51 0 -66 -59q-16 -58 -16 -178
q0 -103 13 -164q15 -71 69 -71q55 0 70 71q12 56 12 164q0 118 -15 178z" />
    <glyph glyph-name="uni0050" unicode="P" horiz-adv-x="485" 
d="M205 268v-268h-145v700h198q149 0 187 -87q20 -50 20 -129q0 -97 -35 -153q-41 -63 -173 -63h-52zM257 576h-52v-184h52q58 0 58 92t-58 92z" />
    <glyph glyph-name="uni0051" unicode="Q" horiz-adv-x="544" 
d="M172 691q41 19 100 19t101 -19q42 -20 67 -50q46 -57 59 -177q5 -55 5 -115q0 -134 -27 -220q-32 -99 -124 -128q44 -28 131 -23l6 -107q-92 -5 -152 23t-104 98q-117 13 -159 118q-35 88 -35 239q0 132 25 213q28 94 107 129zM339 527q-17 59 -67 59q-51 0 -66 -59
q-16 -58 -16 -178q0 -103 13 -164q15 -71 69 -71q55 0 70 71q12 56 12 164q0 118 -15 178z" />
    <glyph glyph-name="uni0052" unicode="R" horiz-adv-x="503" 
d="M205 283v-283h-145v700h204q127 0 167 -61q34 -52 34 -147q0 -135 -105 -169v-6q58 -31 81 -120l52 -197h-152l-38 159q-12 51 -29 82q-21 37 -69 42zM259 579h-54v-174h54q56 0 56 87t-56 87z" />
    <glyph glyph-name="uni0053" unicode="S" horiz-adv-x="459" 
d="M417 553l-131 -42q-6 42 -18.5 58.5t-39.5 16.5q-53 0 -53 -60q4 -48 47 -69l94 -55q65 -38 94 -85t28 -115q-2 -94 -58 -152q-58 -60 -156 -60q-94 0 -149 53.5t-65 149.5l135 26q1 -49 24 -77.5t57 -28.5q36 0 55 21t19 58q0 45 -42 71l-103 62q-118 70 -118 188
q0 83 51 140t140 57q79 0 127.5 -41.5t61.5 -115.5z" />
    <glyph glyph-name="uni0054" unicode="T" horiz-adv-x="385" 
d="M265 574v-574h-145v574h-115v126h375v-126h-115z" />
    <glyph glyph-name="uni0055" unicode="U" horiz-adv-x="517" 
d="M312 203v497h145v-473q0 -114 -42 -176q-43 -61 -156 -61q-114 0 -156 61q-43 61 -43 176v473h145v-497q0 -46 11.5 -67.5t42.5 -21.5q30 0 41.5 22t11.5 67z" />
    <glyph glyph-name="uni0056" unicode="V" horiz-adv-x="450" 
d="M136 0l-136 700h147l61 -386l12 -94h5l14 94l63 386h146l-139 -700h-173z" />
    <glyph glyph-name="uni0057" unicode="W" horiz-adv-x="572" 
d="M74 0l-74 700h141l32 -373l5 -93h5l8 94l22 187h147l22 -187l7 -94h5l6 94l31 372h141l-74 -700h-186l-19 248l-5 94h-5l-4 -94l-19 -248h-186z" />
    <glyph glyph-name="uni0058" unicode="X" horiz-adv-x="453" 
d="M189 121l-44 -121h-145l142 358l-126 342h155l32 -95l27 -94h5l26 94l30 95h146l-125 -341l141 -359h-157l-43 121l-29 94h-5z" />
    <glyph glyph-name="uni0059" unicode="Y" horiz-adv-x="433" 
d="M362 125v-125h-291v125h73v130l-144 445h151l42 -157l21 -94h5l22 94l42 157h150l-144 -445v-130h73z" />
    <glyph glyph-name="uni005A" unicode="Z" horiz-adv-x="395" 
d="M220 574h-191v126h361v-105l-172 -375l-43 -89v-5h215v-126h-385v106l172 374l43 89v5z" />
    <glyph glyph-name="uni005B" unicode="[" horiz-adv-x="349" 
d="M299 709v-103h-117v-711h117v-99h-239v913h239z" />
    <glyph glyph-name="uni005C" unicode="\" horiz-adv-x="417" 
d="M300 -26l-250 752h68l249 -752h-67z" />
    <glyph glyph-name="uni005D" unicode="]" horiz-adv-x="349" 
d="M167 606h-117v103h239v-913h-239v99h117v711z" />
    <glyph glyph-name="uni005E" unicode="^" horiz-adv-x="494" 
d="M50 326l135 383h125l134 -383h-105l-92 262l-92 -262h-105z" />
    <glyph glyph-name="uni005F" unicode="_" horiz-adv-x="441" 
d="M50 -112h341v-98h-341v98z" />
    <glyph glyph-name="uni0060" unicode="`" horiz-adv-x="259" 
d="M147 567l-97 160h93l66 -160h-62z" />
    <glyph glyph-name="uni0061" unicode="a" horiz-adv-x="484" 
d="M179 369l-127 24q32 125 179 125q177 0 177 -192v-176q0 -51 7 -83t29 -67h-134q-12 23 -18 40h-5q-41 -50 -105 -50q-69 0 -110 44q-42 44 -42 108q0 148 161 171q59 9 81 16q-2 84 -49 84q-17 0 -29.5 -13t-14.5 -31zM272 234q-4 -1 -47 -14q-53 -17 -53 -75
q0 -49 38 -49q19 0 32 15t19 39t8.5 44.5t2.5 39.5z" />
    <glyph glyph-name="uni0062" unicode="b" horiz-adv-x="473" 
d="M50 700h136v-216h4q33 34 85 34q91 0 129.5 -64.5t38.5 -198.5t-38.5 -199.5t-128.5 -65.5q-65 0 -98 50h-4v-40h-124v700zM241 408q-27 0 -41 -30t-14 -71v-94q0 -34 9 -69q11 -44 46 -44t47.5 34.5t12.5 120.5t-12.5 119.5t-47.5 33.5z" />
    <glyph glyph-name="uni0063" unicode="c" horiz-adv-x="426" 
d="M396 382l-128 -42q-3 39 -12 53.5t-34 14.5q-31 0 -40.5 -32t-9.5 -122t9.5 -122t40.5 -32q27 0 36.5 18.5t14.5 74.5l132 -24q-10 -94 -52 -136.5t-131 -42.5q-192 0 -192 264t192 264q78 0 118 -32t56 -104z" />
    <glyph glyph-name="uni0064" unicode="d" horiz-adv-x="473" 
d="M423 0h-124v40h-5q-33 -50 -97 -50q-90 0 -128.5 65.5t-38.5 199.5t38.5 198.5t129.5 64.5q51 0 84 -34h5v216h136v-700zM287 201v95q0 112 -55 112q-35 0 -47.5 -33.5t-12.5 -119.5t12.5 -120.5t47.5 -34.5q27 0 41 30t14 71z" />
    <glyph glyph-name="uni0065" unicode="e" horiz-adv-x="433" 
d="M411 223h-241q4 -126 55 -126q24 0 35.5 17.5t16.5 57.5l132 -25q-15 -80 -58.5 -118.5t-125.5 -38.5q-195 0 -195 264q0 132 47 198t148 66q104 0 148.5 -73.5t37.5 -221.5zM171 319h99q-2 50 -12 71.5t-33 21.5q-26 0 -38 -22t-16 -71z" />
    <glyph glyph-name="uni0066" unicode="f" horiz-adv-x="308" 
d="M287 508v-110h-90v-398h-136v398h-51v110h51v64q0 63 38.5 100.5t105.5 37.5q44 0 93 -17l-6 -118q-22 25 -51 25q-44 0 -44 -57v-35h90z" />
    <glyph glyph-name="uni0067" unicode="g" 
d="M48 -93l132 24q16 -33 48 -33q59 2 59 105v22h-5q-33 -35 -85 -35q-90 0 -128.5 65.5t-38.5 199.5t38.5 198.5t129.5 64.5q65 0 97 -50h4v40h125v-494q0 -96 -49 -160q-49 -63 -149 -63q-136 0 -178 116zM287 201v95q0 112 -55 112q-35 0 -47.5 -33.5t-12.5 -119.5
t12.5 -120t47.5 -34q27 0 41 29.5t14 70.5z" />
    <glyph glyph-name="uni0068" unicode="h" horiz-adv-x="473" 
d="M50 0v700h136v-217h4q35 35 84 35q71 0 110 -45.5t39 -135.5v-337h-136v316q0 32 -6 60q-7 32 -43 32q-28 -2 -40.5 -32t-11.5 -67v-309h-136z" />
    <glyph glyph-name="uni0069" unicode="i" horiz-adv-x="259" 
d="M10 398v110h196v-508h-136v398h-60zM209 667v-107h-142v107h142z" />
    <glyph glyph-name="uni006A" unicode="j" horiz-adv-x="257" 
d="M-20 -204l6 111q14 -6 36 -6q47 0 47 61v436h-62v110h198v-567q0 -70 -44.5 -110t-126.5 -40q-22 0 -54 5zM207 668v-106h-140v106h140z" />
    <glyph glyph-name="uni006B" unicode="k" horiz-adv-x="455" 
d="M50 0v700h136v-364h11l101 172h146l-72 -124l-56 -88v-5l45 -88l94 -203h-150l-105 227h-14v-227h-136z" />
    <glyph glyph-name="uni006C" unicode="l" horiz-adv-x="246" 
d="M0 590v110h196v-700h-136v590h-60z" />
    <glyph glyph-name="uni006D" unicode="m" horiz-adv-x="658" 
d="M50 508h123v-41h5q34 51 89 51q79 0 108 -63h5q33 63 98 63t98 -44q32 -44 32 -138v-336h-136v317v36q0 23 -4 32q-12 23 -32 23q-40 0 -40 -90v-318h-135v317v36q0 23 -4 32q-9 23 -31 23q-40 0 -40 -90v-318h-136v508z" />
    <glyph glyph-name="uni006E" unicode="n" 
d="M50 508h123v-40h4q35 50 98 50q71 0 110 -46t39 -136v-336h-136v317q0 31 -6 59q-7 32 -43 32q-53 0 -53 -97v-311h-136v508z" />
    <glyph glyph-name="uni006F" unicode="o" horiz-adv-x="458" 
d="M228 518q104 0 152 -66t48 -198q0 -264 -200 -264q-198 0 -198 264q0 132 47.5 198t150.5 66zM228 408q-34 0 -45 -32.5t-11 -120.5q0 -86 10.5 -118.5t45.5 -36.5q35 0 46.5 33.5t11.5 120.5t-11.5 120.5t-46.5 33.5z" />
    <glyph glyph-name="uni0070" unicode="p" horiz-adv-x="473" 
d="M50 508h124v-40h4q35 50 98 50q90 0 128.5 -65.5t38.5 -199.5t-38.5 -198.5t-129.5 -64.5q-52 0 -85 34h-4v-233h-136v717zM241 408q-27 0 -41 -30t-14 -72v-94q0 -112 55 -112q35 0 47.5 33.5t12.5 119.5t-12.5 120.5t-47.5 34.5z" />
    <glyph glyph-name="uni0071" unicode="q" horiz-adv-x="473" 
d="M423 508v-717h-136v233h-5q-33 -34 -84 -34q-91 0 -129.5 64.5t-38.5 198.5t38.5 199.5t128.5 65.5q62 0 97 -50h5v40h124zM232 100q27 0 41 29.5t14 70.5v106q0 42 -14 72t-41 30q-35 0 -47.5 -34.5t-12.5 -120.5t12.5 -119.5t47.5 -33.5z" />
    <glyph glyph-name="uni0072" unicode="r" horiz-adv-x="316" 
d="M50 508h124v-49h5q45 59 127 59l-7 -135q-55 8 -84 -22.5t-29 -88.5v-272h-136v508z" />
    <glyph glyph-name="uni0073" unicode="s" horiz-adv-x="402" 
d="M361 401l-131 -32q-3 43 -35 43q-33 0 -33 -31q0 -25 37 -41l70 -34q113 -53 113 -157q0 -70 -51 -114.5t-136 -44.5q-165 0 -185 147l132 24q8 -65 58 -65t50 40q0 11 -10.5 22t-16 14.5t-20.5 11.5l-79 43q-93 47 -93 147q0 63 45 103.5t123 40.5q137 0 162 -117z" />
    <glyph glyph-name="uni0074" unicode="t" horiz-adv-x="302" 
d="M198 645v-137h94v-110h-94v-240q0 -57 38 -57q25 0 46 25l6 -121q-43 -15 -82 -15q-68 0 -106 35.5t-38 98.5v274h-52v110h52v108z" />
    <glyph glyph-name="uni0075" unicode="u" 
d="M424 508v-508h-123v40h-5q-32 -50 -97 -50q-71 0 -110 46t-39 136v336h136v-317q0 -31 6 -59q7 -32 43 -32q27 0 40 28t13 68v312h136z" />
    <glyph glyph-name="uni0076" unicode="v" horiz-adv-x="416" 
d="M285 508h131l-135 -508h-146l-135 508h142l48 -192l20 -93h5l21 93z" />
    <glyph glyph-name="uni0077" unicode="w" horiz-adv-x="508" 
d="M420 0h-134l-15 93l-14 93h-5l-14 -93l-15 -93h-134l-89 508h131l31 -184l12 -103h5l14 103l10 62h101l9 -62l15 -93h5l14 93l30 184h131z" />
    <glyph glyph-name="uni0078" unicode="x" horiz-adv-x="441" 
d="M170 42l-23 -42h-147l140 260l-132 248h154l11 -21l43 -91h6l44 91l11 21h147l-128 -240l145 -268h-155l-23 42l-44 98h-5z" />
    <glyph glyph-name="uni0079" unicode="y" horiz-adv-x="418" 
d="M56 -199l6 110q16 -10 33 -10q31 0 42 39l16 63l-153 505h142l49 -160l23 -93h5l66 253h133l-142 -543q-20 -74 -47 -118q-34 -56 -117 -56q-27 0 -56 10z" />
    <glyph glyph-name="uni007A" unicode="z" horiz-adv-x="366" 
d="M361 105v-105h-356v86l132 224l54 88v5h-180v105h350v-87l-131 -223l-60 -89v-4h191z" />
    <glyph glyph-name="uni007B" unicode="{" horiz-adv-x="416" 
d="M272 118v-156q0 -53 13 -63q13 -9 70 -9h11v-94h-57q-72 0 -113 38t-41 107v177q0 56 -18.5 74.5t-74.5 18.5h-12v85h12q56 0 74.5 18t18.5 74v175q0 70 41 108t113 38h57v-94h-11q-57 0 -70 -9q-13 -10 -13 -63v-154q-5 -122 -73 -134v-5q69 -14 73 -132z" />
    <glyph glyph-name="uni007C" unicode="|" horiz-adv-x="222" 
d="M60 -209v909h102v-909h-102z" />
    <glyph glyph-name="uni007D" unicode="}" horiz-adv-x="416" 
d="M144 -38v156q3 119 73 132v5q-73 13 -73 134v154q0 53 -13 63q-13 9 -70 9h-11v94h57q72 0 113 -38t41 -108v-175q0 -56 18.5 -74t74.5 -18h12v-85h-12q-56 0 -74.5 -18.5t-18.5 -74.5v-177q0 -69 -41 -107t-113 -38h-57v94h11q57 0 70 9q13 10 13 63z" />
    <glyph glyph-name="uni007E" unicode="~" horiz-adv-x="481" 
d="M50 265v115q45 51 104 51q44 0 100 -38q19 -14 29 -20q3 -2 13 -8q14 -9 30 -9q59 0 105 64v-115q-45 -51 -105 -51q-41 0 -99 38q-2 2 -14.5 10.5t-14.5 10.5q-2 1 -6 3.5t-7 3.5q-15 9 -30 9q-59 0 -105 -64z" />
    <glyph glyph-name="uni00A1" unicode="&#xa1;" horiz-adv-x="265" 
d="M60 76l19 241h107l19 -242v-267h-145v268zM205 373h-145v135h145v-135z" />
    <glyph glyph-name="uni00A2" unicode="&#xa2;" horiz-adv-x="426" 
d="M396 382l-128 -42q-3 41 -13 54l-37 -294h4q27 0 36.5 18.5t14.5 74.5l132 -24q-10 -94 -52 -136.5t-131 -42.5q-14 0 -18 1l-15 -120l-44 4l15 124q-130 37 -130 255q0 264 192 264h4l15 119l44 -4l-15 -119q53 -9 82.5 -40t43.5 -92zM172 254q0 -83 7 -111l33 264
q-25 -6 -32.5 -37.5t-7.5 -115.5z" />
    <glyph glyph-name="uni00A3" unicode="&#xa3;" horiz-adv-x="441" 
d="M86 318h-62v93h44q-5 45 -5 102q0 81 52 139q51 58 137 58q85 0 125 -44t55 -136l-140 -31q-3 44 -11.5 60.5t-30.5 16.5q-42 0 -42 -77q0 -38 8 -88h119v-93h-106q3 -38 3 -75q0 -58 -47 -122v-5q32 23 68 14q61 -18 78 -18q31 0 60 33l32 -122q-31 -20 -49.5 -26.5
t-49.5 -6.5q-21 0 -90 15q-73 14 -96 14q-48 0 -80 -29l-48 105q40 30 63 58q26 31 26 78q0 35 -13 87z" />
    <glyph glyph-name="uni00A4" unicode="&#xa4;" horiz-adv-x="605" 
d="M74 353q0 69 36 124l-59 60l72 72l61 -62q55 32 115 32q67 0 122 -37l61 61l72 -72l-62 -62q33 -53 33 -116q0 -60 -32 -115l62 -61l-72 -72l-60 59q-55 -36 -124 -36q-61 0 -116 32l-61 -61l-72 72l59 59q-35 56 -35 123zM211 443q-36 -37 -36 -89t36 -88t88 -36
q51 0 89 36q36 36 36 88t-36 89q-37 36 -89 36t-88 -36z" />
    <glyph glyph-name="uni00A5" unicode="&#xa5;" horiz-adv-x="433" 
d="M362 125v-125h-291v125h73v83h-135v87h122l-18 55h-104v87h76l-85 263h151l42 -157l21 -94h5l22 94l42 157h150l-85 -263h77v-87h-105l-18 -55h123v-87h-136v-83h73z" />
    <glyph glyph-name="uni00A6" unicode="&#xa6;" horiz-adv-x="222" 
d="M60 348v352h102v-352h-102zM60 -209v352h102v-352h-102z" />
    <glyph glyph-name="uni00A7" unicode="&#xa7;" horiz-adv-x="471" 
d="M421 275q0 -85 -82 -145q39 -50 39 -111q0 -70 -40 -113.5t-110 -43.5q-60 0 -98.5 42t-43.5 112l108 16q2 -65 36 -65q37 0 37 47q-1 43 -55 76l-72 44q-90 54 -90 163q0 85 82 145q-39 50 -39 111q0 70 40 113.5t110 43.5q60 0 98.5 -42t43.5 -112l-108 -16
q-2 65 -36 65q-37 0 -37 -47q1 -43 55 -76l72 -44q90 -54 90 -163zM201 231l57 -34l18 -11q27 40 27 79q0 57 -33 76l-57 34q-2 1 -18 11q-27 -40 -27 -79q0 -57 33 -76z" />
    <glyph glyph-name="uni00A8" unicode="&#xa8;" horiz-adv-x="331" 
d="M131 572h-81v99h81v-99zM281 572h-81v99h81v-99z" />
    <glyph glyph-name="uni00A9" unicode="&#xa9;" horiz-adv-x="820" 
d="M156 96q-106 105 -106 254t106 254q105 105 254 105q148 0 255 -105q105 -105 105 -254t-105 -254q-107 -105 -255 -105q-149 0 -254 105zM188 571q-92 -94 -92 -221q0 -128 92 -220q92 -93 222 -93q128 0 221 93q93 92 93 220t-93 221q-94 92 -221 92q-130 0 -222 -92z
M536 466l-87 -29q-1 5 -2 18t-2 17.5t-4 12t-9 10t-16 2.5q-28 0 -36.5 -33t-8.5 -114t8.5 -114.5t36.5 -33.5q20 0 27 14.5t10 54.5q0 12 1 15l88 -18q-5 -61 -25 -99q-25 -45 -101 -45q-86 0 -115 67q-24 56 -24 159q0 100 25 158q29 67 114 67q58 0 85.5 -27t34.5 -82z
" />
    <glyph glyph-name="uni00AA" unicode="&#xaa;" horiz-adv-x="353" 
d="M303 399h-87q-9 12 -11 18h-3q-22 -24 -60 -24q-41 0 -66.5 26.5t-25.5 67.5q0 91 97 103q34 5 42 8q0 41 -23 41q-17 0 -23 -25l-84 4q14 92 112 92q107 0 107 -116v-104q0 -51 25 -91zM189 532v2l-21 -7q-26 -8 -26 -40q0 -23 16 -23q28 0 31 68z" />
    <glyph glyph-name="uni00AB" unicode="&#xab;" horiz-adv-x="521" 
d="M174 453h116l-111 -199l111 -199h-116l-124 199zM355 453h116l-111 -199l111 -199h-116l-124 199z" />
    <glyph glyph-name="uni00AC" unicode="&#xac;" horiz-adv-x="481" 
d="M50 511h381v-326h-102v224h-279v102z" />
    <glyph glyph-name="uni00AE" unicode="&#xae;" horiz-adv-x="820" 
d="M156 96q-106 105 -106 254t106 254q105 105 254 105q148 0 255 -105q105 -105 105 -254t-105 -254q-107 -105 -255 -105q-149 0 -254 105zM188 571q-92 -94 -92 -221q0 -128 92 -220q92 -93 222 -93q128 0 221 93q93 92 93 220t-93 221q-94 92 -221 92q-130 0 -222 -92z
M383 307v-177h-91v439h128q72 0 98.5 -31t26.5 -99q0 -83 -65 -106v-4q36 -20 51 -76l32 -123h-95l-24 100q-7 26 -11.5 38t-16.5 23.5t-33 15.5zM417 493h-34v-109h34q34 0 34 55q0 54 -34 54z" />
    <glyph glyph-name="uni00AF" unicode="&#xaf;" horiz-adv-x="289" 
d="M239 583h-189v83h189v-83z" />
    <glyph glyph-name="uni00B0" unicode="&#xb0;" horiz-adv-x="446" 
d="M129 536q0 -40 27 -67t67 -27q39 0 66.5 27t27.5 67q0 39 -27.5 66.5t-66.5 27.5q-40 0 -67 -27.5t-27 -66.5zM101 414q-51 50 -51 122t51 123q50 50 122 50q71 0 123 -50q50 -52 50 -123q0 -72 -50 -122q-51 -51 -123 -51q-73 0 -122 51z" />
    <glyph glyph-name="uni00B1" unicode="&#xb1;" horiz-adv-x="481" 
d="M189 471v203h102v-203h140v-102h-140v-204h-102v204h-139v102h139zM50 102h381v-102h-381v102z" />
    <glyph glyph-name="uni00B2" unicode="&#xb2;" horiz-adv-x="335" 
d="M145 576l-83 22q9 51 35.5 76.5t78.5 25.5q109 0 109 -126q0 -46 -18.5 -75t-60.5 -59q-57 -41 -67 -75h146v-81h-235q6 136 67 189q5 4 14.5 11.5t21.5 16.5l16 12q25 21 25 55q0 59 -20 59q-13 0 -19 -11.5t-10 -39.5z" />
    <glyph glyph-name="uni00B3" unicode="&#xb3;" horiz-adv-x="348" 
d="M244 506v-4q23 -11 38 -37t15 -53q1 -58 -32.5 -95.5t-90.5 -37.5q-104 0 -122 111l84 16q6 -54 37 -54q33 0 33 60q0 22 -9.5 37.5t-28.5 15.5h-50v72h50q14 0 21.5 14t7.5 34q0 42 -25 42q-14 0 -20.5 -10t-9.5 -35l-83 22q23 96 115 96q51 0 82.5 -31t31.5 -81
q0 -24 -13 -48t-31 -34z" />
    <glyph glyph-name="uni00B4" unicode="&#xb4;" horiz-adv-x="259" 
d="M50 567l66 160h93l-97 -160h-62z" />
    <glyph glyph-name="uni00B5" unicode="&#xb5;" horiz-adv-x="475" 
d="M50 -210v718h136v-316q0 -31 6 -59q7 -32 43 -32q49 0 53 96v311h137v-508h-124v37h-5q-29 -47 -80 -47q-16 0 -31 3h-4l5 -93v-110h-136z" />
    <glyph glyph-name="uni00B6" unicode="&#xb6;" horiz-adv-x="578" 
d="M222 700h306v-68h-73v-632h-83v632h-69v-632h-81v354q-72 0 -121 52q-51 51 -51 120q0 72 51 123t121 51z" />
    <glyph glyph-name="uni00B7" unicode="&#xb7;" horiz-adv-x="245" 
d="M195 278h-145v144h145v-144z" />
    <glyph glyph-name="uni00B8" unicode="&#xb8;" horiz-adv-x="280" 
d="M75 -98l21 107h58l-9 -45q27 1 56 -20q29 -20 29 -60q0 -41 -31 -67t-77 -26q-36 0 -72 21v65q32 -24 55 -24q38 0 38 27q0 33 -68 22z" />
    <glyph glyph-name="uni00B9" unicode="&#xb9;" horiz-adv-x="307" 
d="M88 292v68h42v155l4 71h-4l-31 -31l-49 49l96 96h72v-340h39v-68h-169z" />
    <glyph glyph-name="uni00BA" unicode="&#xba;" horiz-adv-x="341" 
d="M170 710q121 0 121 -159q0 -158 -121 -158q-120 0 -120 158q0 80 28.5 119.5t91.5 39.5zM194 619q-5 19 -23 19t-23 -19q-6 -19 -6 -66q0 -49 5.5 -66.5t23.5 -17.5q19 0 23 18q5 20 5 65t-5 67z" />
    <glyph glyph-name="uni00BB" unicode="&#xbb;" horiz-adv-x="521" 
d="M50 55l111 199l-111 199h116l124 -199l-124 -199h-116zM231 55l111 199l-111 199h116l124 -199l-124 -199h-116z" />
    <glyph glyph-name="uni00BC" unicode="&#xbc;" horiz-adv-x="678" 
d="M590 -1h-88v88h-132v59l143 261h77v-245h38v-75h-38v-88zM502 162v29l4 55h-4l-15 -28l-31 -52v-4h46zM211 -26l202 753h68l-203 -753h-67zM88 292v68h42v155l4 71h-4l-31 -31l-49 49l96 96h72v-340h39v-68h-169z" />
    <glyph glyph-name="uni00BD" unicode="&#xbd;" horiz-adv-x="683" 
d="M204 -26l202 753h68l-203 -753h-67zM88 292v68h42v155l4 71h-4l-31 -31l-49 49l96 96h72v-340h39v-68h-169zM410 314l83 -22q5 51 29 51q20 0 20 -59q0 -34 -25 -55l-16 -12t-21.5 -16.5t-14.5 -11.5q-61 -53 -67 -189h235v81h-146q10 37 67 75q22 17 30.5 24.5
t18.5 20.5t18 30q12 26 12 59q0 126 -109 126q-52 0 -78.5 -25.5t-35.5 -76.5z" />
    <glyph glyph-name="uni00BE" unicode="&#xbe;" horiz-adv-x="683" 
d="M595 -1h-88v88h-132v59l143 261h77v-245h38v-75h-38v-88zM244 506v-4q23 -11 38 -37t15 -53q1 -58 -32.5 -95.5t-90.5 -37.5q-104 0 -122 111l84 16q6 -54 37 -54q33 0 33 60q0 22 -9.5 37.5t-28.5 15.5h-50v72h50q14 0 21.5 14t7.5 34q0 42 -25 42q-14 0 -20.5 -10
t-9.5 -35l-83 22q23 96 115 96q51 0 82.5 -31t31.5 -81q0 -24 -13 -48t-31 -34zM228 -26l202 753h68l-203 -753h-67zM507 162v29l4 55h-4l-15 -28l-31 -52v-4h46z" />
    <glyph glyph-name="uni00BF" unicode="&#xbf;" horiz-adv-x="403" 
d="M265 -11l123 -31q-33 -159 -189 -159q-96 0 -147 73q-33 46 -33 119q0 41 13 69q18 39 32 58q6 8 12 17l7 9q1 1 4 4.5l9 10.5t11 13q20 23 21 25q22 27 29 51t7 66h128q-2 -68 -13 -110q-14 -46 -50 -89l-3 -3q-2 -2 -6 -6.5t-9 -9.5q-14 -15 -25 -30q-28 -37 -28 -79
q0 -72 49 -72q50 0 58 74zM152 509h145v-135h-145v135z" />
    <glyph glyph-name="uni00C0" unicode="&#xc0;" horiz-adv-x="477" 
d="M175 137l-24 -137h-141l141 700h175l141 -700h-148l-24 137h-120zM250 392l-14 94h-5l-12 -94l-24 -135h79zM216 759l-97 160h93l66 -160h-62z" />
    <glyph glyph-name="uni00C1" unicode="&#xc1;" horiz-adv-x="477" 
d="M175 137l-24 -137h-141l141 700h175l141 -700h-148l-24 137h-120zM250 392l-14 94h-5l-12 -94l-24 -135h79zM209 759l66 160h93l-97 -160h-62z" />
    <glyph glyph-name="uni00C2" unicode="&#xc2;" horiz-adv-x="477" 
d="M175 137l-24 -137h-141l141 700h175l141 -700h-148l-24 137h-120zM250 392l-14 94h-5l-12 -94l-24 -135h79zM200 919h77l93 -161h-68l-32 43l-29 41h-4l-31 -41l-33 -43h-67z" />
    <glyph glyph-name="uni00C3" unicode="&#xc3;" horiz-adv-x="477" 
d="M175 137l-24 -137h-141l141 700h175l141 -700h-148l-24 137h-120zM250 392l-14 94h-5l-12 -94l-24 -135h79zM306 867h49q-3 -49 -22 -78t-48 -29q-23 0 -49 16t-36 16q-27 0 -30 -27h-49q3 49 22 77.5t48 28.5q22 0 49 -18q26 -19 36 -19q25 0 30 33z" />
    <glyph glyph-name="uni00C4" unicode="&#xc4;" horiz-adv-x="477" 
d="M175 137l-24 -137h-141l141 700h175l141 -700h-148l-24 137h-120zM250 392l-14 94h-5l-12 -94l-24 -135h79zM204 764h-81v99h81v-99zM354 764h-81v99h81v-99z" />
    <glyph glyph-name="uni00C5" unicode="&#xc5;" horiz-adv-x="477" 
d="M175 137l-24 -137h-141l141 700h175l141 -700h-148l-24 137h-120zM250 392l-14 94h-5l-12 -94l-24 -135h79zM160 926q32 33 78 33t79 -33q33 -35 33 -79q0 -46 -32.5 -78t-79.5 -32q-46 0 -78.5 32t-32.5 78q0 45 33 79zM238 904q-23 0 -39.5 -16.5t-16.5 -40.5
q0 -23 16.5 -39t39.5 -16q24 0 40.5 16t16.5 39q0 24 -16.5 40.5t-40.5 16.5z" />
    <glyph glyph-name="uni00C6" unicode="&#xc6;" horiz-adv-x="713" 
d="M366 0v147h-172l-50 -147h-134l238 700h455v-125h-191v-144h157v-124h-157v-182h191v-125h-337zM234 267h132v308h-27z" />
    <glyph glyph-name="uni00C7" unicode="&#xc7;" horiz-adv-x="494" 
d="M319 252l141 -26q-7 -82 -24 -129q-11 -33 -30 -53q-45 -49 -129 -53l-5 -27q27 1 56 -20q29 -20 29 -60q0 -41 -31 -67t-77 -26q-36 0 -72 21v65q32 -24 55 -24q38 0 38 27q0 33 -68 22l17 91q-113 17 -149 119q-32 91 -32 238q0 134 24 212q13 46 38 79q52 69 159 69
q93 0 137 -44t54 -135l-137 -44q-3 24 -3 43q-3 23 -9 34q-17 22 -42 22q-24 0 -37.5 -17.5t-22.5 -51.5q-10 -36 -10 -103q-1 -17 -1 -64q0 -79 4 -118q1 -24 7 -49q9 -34 22.5 -51.5t37.5 -17.5q42 0 51 52q1 8 7 62q0 4 0.5 9.5t1 9t0.5 5.5z" />
    <glyph glyph-name="uni00C8" unicode="&#xc8;" horiz-adv-x="408" 
d="M398 125v-125h-338v700h338v-125h-192v-144h160v-124h-160v-182h192zM221 759l-97 160h93l66 -160h-62z" />
    <glyph glyph-name="uni00C9" unicode="&#xc9;" horiz-adv-x="408" 
d="M398 125v-125h-338v700h338v-125h-192v-144h160v-124h-160v-182h192zM184 759l66 160h93l-97 -160h-62z" />
    <glyph glyph-name="uni00CA" unicode="&#xca;" horiz-adv-x="408" 
d="M398 125v-125h-338v700h338v-125h-192v-144h160v-124h-160v-182h192zM186 919h77l93 -161h-68l-32 43l-29 41h-4l-31 -41l-33 -43h-67z" />
    <glyph glyph-name="uni00CB" unicode="&#xcb;" horiz-adv-x="408" 
d="M398 125v-125h-338v700h338v-125h-192v-144h160v-124h-160v-182h192zM344 764h-81v99h81v-99zM194 764h-81v99h81v-99z" />
    <glyph glyph-name="uni00CC" unicode="&#xcc;" horiz-adv-x="312" 
d="M302 126v-126h-292v126h74v448h-74v126h292v-126h-73v-448h73zM133 759l-97 160h93l66 -160h-62z" />
    <glyph glyph-name="uni00CD" unicode="&#xcd;" horiz-adv-x="312" 
d="M302 126v-126h-292v126h74v448h-74v126h292v-126h-73v-448h73zM116 759l66 160h93l-97 -160h-62z" />
    <glyph glyph-name="uni00CE" unicode="&#xce;" horiz-adv-x="312" 
d="M302 126v-126h-292v126h74v448h-74v126h292v-126h-73v-448h73zM118 919h77l93 -161h-68l-32 43l-29 41h-4l-31 -41l-33 -43h-67z" />
    <glyph glyph-name="uni00CF" unicode="&#xcf;" horiz-adv-x="312" 
d="M302 126v-126h-292v126h74v448h-74v126h292v-126h-73v-448h73zM122 764h-81v99h81v-99zM272 764h-81v99h81v-99z" />
    <glyph glyph-name="uni00D0" unicode="&#xd0;" horiz-adv-x="529" 
d="M4 408h66v292h177q96 -4 147.5 -38t72.5 -104q22 -75 22 -208q0 -134 -22 -208q-15 -48 -40 -76q-59 -66 -181 -66h-176v316h-66v92zM215 408h60v-92h-60v-191h32q61 0 78 65q14 53 14 160q0 108 -14 160q-17 65 -78 65h-32v-167z" />
    <glyph glyph-name="uni00D1" unicode="&#xd1;" horiz-adv-x="525" 
d="M213 700l113 -362h5l-5 94v268h139v-700h-154l-112 360h-5l5 -94v-266h-139v700h153zM330 867h49q-3 -49 -22 -78t-48 -29q-23 0 -49 16t-36 16q-27 0 -30 -27h-49q3 49 22 77.5t48 28.5q22 0 49 -18q26 -19 36 -19q25 0 30 33z" />
    <glyph glyph-name="uni00D2" unicode="&#xd2;" horiz-adv-x="544" 
d="M172 691q41 19 100 19t101 -19q42 -20 67 -50q46 -57 59 -177q5 -55 5 -115q0 -130 -24 -211q-15 -50 -40 -79q-56 -69 -168 -69q-87 2 -136.5 39t-70.5 109q-25 80 -25 211q0 132 25 213q28 94 107 129zM339 527q-17 59 -67 59q-51 0 -66 -59q-16 -58 -16 -178
q0 -103 13 -164q15 -71 69 -71q55 0 70 71q12 56 12 164q0 118 -15 178zM249 759l-97 160h93l66 -160h-62z" />
    <glyph glyph-name="uni00D3" unicode="&#xd3;" horiz-adv-x="544" 
d="M172 691q41 19 100 19t101 -19q42 -20 67 -50q46 -57 59 -177q5 -55 5 -115q0 -130 -24 -211q-15 -50 -40 -79q-56 -69 -168 -69q-87 2 -136.5 39t-70.5 109q-25 80 -25 211q0 132 25 213q28 94 107 129zM339 527q-17 59 -67 59q-51 0 -66 -59q-16 -58 -16 -178
q0 -103 13 -164q15 -71 69 -71q55 0 70 71q12 56 12 164q0 118 -15 178zM242 759l66 160h93l-97 -160h-62z" />
    <glyph glyph-name="uni00D4" unicode="&#xd4;" horiz-adv-x="544" 
d="M172 691q41 19 100 19t101 -19q42 -20 67 -50q46 -57 59 -177q5 -55 5 -115q0 -130 -24 -211q-15 -50 -40 -79q-56 -69 -168 -69q-87 2 -136.5 39t-70.5 109q-25 80 -25 211q0 132 25 213q28 94 107 129zM339 527q-17 59 -67 59q-51 0 -66 -59q-16 -58 -16 -178
q0 -103 13 -164q15 -71 69 -71q55 0 70 71q12 56 12 164q0 118 -15 178zM234 919h77l93 -161h-68l-32 43l-29 41h-4l-31 -41l-33 -43h-67z" />
    <glyph glyph-name="uni00D5" unicode="&#xd5;" horiz-adv-x="544" 
d="M172 691q41 19 100 19t101 -19q42 -20 67 -50q46 -57 59 -177q5 -55 5 -115q0 -130 -24 -211q-15 -50 -40 -79q-56 -69 -168 -69q-87 2 -136.5 39t-70.5 109q-25 80 -25 211q0 132 25 213q28 94 107 129zM339 527q-17 59 -67 59q-51 0 -66 -59q-16 -58 -16 -178
q0 -103 13 -164q15 -71 69 -71q55 0 70 71q12 56 12 164q0 118 -15 178zM340 867h49q-3 -49 -22 -78t-48 -29q-23 0 -49 16t-36 16q-27 0 -30 -27h-49q3 49 22 77.5t48 28.5q22 0 49 -18q26 -19 36 -19q25 0 30 33z" />
    <glyph glyph-name="uni00D6" unicode="&#xd6;" horiz-adv-x="544" 
d="M172 691q41 19 100 19t101 -19q42 -20 67 -50q46 -57 59 -177q5 -55 5 -115q0 -130 -24 -211q-15 -50 -40 -79q-56 -69 -168 -69q-87 2 -136.5 39t-70.5 109q-25 80 -25 211q0 132 25 213q28 94 107 129zM339 527q-17 59 -67 59q-51 0 -66 -59q-16 -58 -16 -178
q0 -103 13 -164q15 -71 69 -71q55 0 70 71q12 56 12 164q0 118 -15 178zM237 764h-81v99h81v-99zM387 764h-81v99h81v-99z" />
    <glyph glyph-name="uni00D7" unicode="&#xd7;" horiz-adv-x="602" 
d="M301 422l179 179l72 -73l-179 -179l179 -178l-72 -73l-179 179l-178 -178l-73 72l178 178l-178 179l73 72z" />
    <glyph glyph-name="uni00D8" unicode="&#xd8;" horiz-adv-x="544" 
d="M272 710q84 0 139 -41l22 41h71l-50 -91q50 -83 50 -270q0 -130 -24 -211q-15 -50 -40 -79q-56 -69 -168 -69q-87 0 -140 41l-22 -41h-70l49 90q-49 80 -49 269q0 132 25 213q13 47 39 79q56 69 168 69zM354 349q0 13 -2 83l-145 -264q19 -54 65 -54q55 0 70 71
q12 56 12 164zM272 586q-48 0 -65 -55.5t-17 -181.5q0 -47 2 -81l144 264q-19 54 -64 54z" />
    <glyph glyph-name="uni00D9" unicode="&#xd9;" horiz-adv-x="517" 
d="M312 203v497h145v-473q0 -114 -42 -176q-43 -61 -156 -61q-114 0 -156 61q-43 61 -43 176v473h145v-497q0 -46 11.5 -67.5t42.5 -21.5q30 0 41.5 22t11.5 67zM236 759l-97 160h93l66 -160h-62z" />
    <glyph glyph-name="uni00DA" unicode="&#xda;" horiz-adv-x="517" 
d="M312 203v497h145v-473q0 -114 -42 -176q-43 -61 -156 -61q-114 0 -156 61q-43 61 -43 176v473h145v-497q0 -46 11.5 -67.5t42.5 -21.5q30 0 41.5 22t11.5 67zM229 759l66 160h93l-97 -160h-62z" />
    <glyph glyph-name="uni00DB" unicode="&#xdb;" horiz-adv-x="517" 
d="M312 203v497h145v-473q0 -114 -42 -176q-43 -61 -156 -61q-114 0 -156 61q-43 61 -43 176v473h145v-497q0 -46 11.5 -67.5t42.5 -21.5q30 0 41.5 22t11.5 67zM220 919h77l93 -161h-68l-32 43l-29 41h-4l-31 -41l-33 -43h-67z" />
    <glyph glyph-name="uni00DC" unicode="&#xdc;" horiz-adv-x="517" 
d="M312 203v497h145v-473q0 -114 -42 -176q-43 -61 -156 -61q-114 0 -156 61q-43 61 -43 176v473h145v-497q0 -46 11.5 -67.5t42.5 -21.5q30 0 41.5 22t11.5 67zM374 764h-81v99h81v-99zM224 764h-81v99h81v-99z" />
    <glyph glyph-name="uni00DD" unicode="&#xdd;" horiz-adv-x="433" 
d="M362 125v-125h-291v125h73v130l-144 445h151l42 -157l21 -94h5l22 94l42 157h150l-144 -445v-130h73zM137 759l66 160h93l-97 -160h-62z" />
    <glyph glyph-name="uni00DE" unicode="&#xde;" horiz-adv-x="485" 
d="M205 134v-134h-145v700h145v-134h53q149 0 187 -87q20 -50 20 -129q0 -97 -35 -153q-41 -63 -173 -63h-52zM257 442h-52v-184h52q58 0 58 92t-58 92z" />
    <glyph glyph-name="uni00DF" unicode="&#xdf;" horiz-adv-x="475" 
d="M353 385v-5q38 -18 65 -63q27 -47 27 -93q0 -99 -52 -166q-53 -68 -154 -68q-17 0 -30 3l6 112q15 -5 21 -5q67 0 67 115q0 114 -67 114h-28v106h29q51 0 51 82q0 83 -51 83t-51 -82v-518h-136v526q0 78 51 131q50 53 133 53q86 0 141 -52t55 -137q0 -46 -21 -84t-56 -52
z" />
    <glyph glyph-name="uni00E0" unicode="&#xe0;" horiz-adv-x="484" 
d="M179 369l-127 24q32 125 179 125q177 0 177 -192v-176q0 -51 7 -83t29 -67h-134q-12 23 -18 40h-5q-41 -50 -105 -50q-69 0 -110 44q-42 44 -42 108q0 148 161 171q59 9 81 16q-2 84 -49 84q-17 0 -29.5 -13t-14.5 -31zM272 234q-4 -1 -47 -14q-53 -17 -53 -75
q0 -49 38 -49q19 0 32 15t19 39t8.5 44.5t2.5 39.5zM224 567l-97 160h93l66 -160h-62z" />
    <glyph glyph-name="uni00E1" unicode="&#xe1;" horiz-adv-x="484" 
d="M179 369l-127 24q32 125 179 125q177 0 177 -192v-176q0 -51 7 -83t29 -67h-134q-12 23 -18 40h-5q-41 -50 -105 -50q-69 0 -110 44q-42 44 -42 108q0 148 161 171q59 9 81 16q-2 84 -49 84q-17 0 -29.5 -13t-14.5 -31zM272 234q-4 -1 -47 -14q-53 -17 -53 -75
q0 -49 38 -49q19 0 32 15t19 39t8.5 44.5t2.5 39.5zM192 567l66 160h93l-97 -160h-62z" />
    <glyph glyph-name="uni00E2" unicode="&#xe2;" horiz-adv-x="484" 
d="M179 369l-127 24q32 125 179 125q177 0 177 -192v-176q0 -51 7 -83t29 -67h-134q-12 23 -18 40h-5q-41 -50 -105 -50q-69 0 -110 44q-42 44 -42 108q0 148 161 171q59 9 81 16q-2 84 -49 84q-17 0 -29.5 -13t-14.5 -31zM272 234q-4 -1 -47 -14q-53 -17 -53 -75
q0 -49 38 -49q19 0 32 15t19 39t8.5 44.5t2.5 39.5zM199 727h77l93 -161h-68l-32 43l-29 41h-4l-31 -41l-33 -43h-67z" />
    <glyph glyph-name="uni00E3" unicode="&#xe3;" horiz-adv-x="484" 
d="M179 369l-127 24q32 125 179 125q177 0 177 -192v-176q0 -51 7 -83t29 -67h-134q-12 23 -18 40h-5q-41 -50 -105 -50q-69 0 -110 44q-42 44 -42 108q0 148 161 171q59 9 81 16q-2 84 -49 84q-17 0 -29.5 -13t-14.5 -31zM272 234q-4 -1 -47 -14q-53 -17 -53 -75
q0 -49 38 -49q19 0 32 15t19 39t8.5 44.5t2.5 39.5zM305 675h49q-3 -49 -22 -78t-48 -29q-23 0 -49 16t-36 16q-27 0 -30 -27h-49q3 49 22 77.5t48 28.5q22 0 49 -18q26 -19 36 -19q25 0 30 33z" />
    <glyph glyph-name="uni00E4" unicode="&#xe4;" horiz-adv-x="484" 
d="M179 369l-127 24q32 125 179 125q177 0 177 -192v-176q0 -51 7 -83t29 -67h-134q-12 23 -18 40h-5q-41 -50 -105 -50q-69 0 -110 44q-42 44 -42 108q0 148 161 171q59 9 81 16q-2 84 -49 84q-17 0 -29.5 -13t-14.5 -31zM272 234q-4 -1 -47 -14q-53 -17 -53 -75
q0 -49 38 -49q19 0 32 15t19 39t8.5 44.5t2.5 39.5zM202 572h-81v99h81v-99zM352 572h-81v99h81v-99z" />
    <glyph glyph-name="uni00E5" unicode="&#xe5;" horiz-adv-x="484" 
d="M179 369l-127 24q32 125 179 125q177 0 177 -192v-176q0 -51 7 -83t29 -67h-134q-12 23 -18 40h-5q-41 -50 -105 -50q-69 0 -110 44q-42 44 -42 108q0 148 161 171q59 9 81 16q-2 84 -49 84q-17 0 -29.5 -13t-14.5 -31zM272 234q-4 -1 -47 -14q-53 -17 -53 -75
q0 -49 38 -49q19 0 32 15t19 39t8.5 44.5t2.5 39.5zM158 734q32 33 78 33t79 -33q33 -34 33 -79q0 -46 -32.5 -78t-79.5 -32q-46 0 -78.5 32t-32.5 78q0 45 33 79zM236 712q-23 0 -39.5 -16.5t-16.5 -40.5q0 -23 16.5 -39t39.5 -16q24 0 40.5 16t16.5 39q0 24 -16.5 40.5
t-40.5 16.5z" />
    <glyph glyph-name="uni00E6" unicode="&#xe6;" horiz-adv-x="669" 
d="M647 223h-241q4 -126 55 -126q24 0 35.5 17.5t16.5 57.5l131 -25q-15 -80 -58 -118.5t-125 -38.5q-95 0 -135 61h-5q-49 -61 -131 -61q-74 0 -117 42.5t-43 109.5q0 148 159 171q59 9 81 16q-2 84 -47 84q-19 0 -31 -12.5t-15 -31.5l-127 24q15 61 59 93t110 32
q79 0 119 -39h6q40 39 117 39q104 0 148.5 -73.5t37.5 -221.5zM270 234q-4 -1 -47 -14q-53 -17 -53 -75q0 -49 38 -49q19 0 32 15t19 39t8.5 44.5t2.5 39.5zM407 319h99q-2 50 -12 71.5t-33 21.5q-26 0 -38 -22t-16 -71z" />
    <glyph glyph-name="uni00E7" unicode="&#xe7;" horiz-adv-x="426" 
d="M396 382l-128 -42q-3 39 -12 53.5t-34 14.5q-31 0 -40.5 -32t-9.5 -122t9.5 -122t40.5 -32q27 0 36.5 18.5t14.5 74.5l132 -24q-9 -85 -44.5 -127.5t-107.5 -49.5l-5 -28q27 1 56 -20q29 -20 29 -60q0 -41 -31 -67t-77 -26q-36 0 -72 21v65q31 -24 55 -24q38 0 38 27
q0 33 -68 22l17 89q-165 17 -165 263q0 264 192 264q78 0 118 -32t56 -104z" />
    <glyph glyph-name="uni00E8" unicode="&#xe8;" horiz-adv-x="433" 
d="M411 223h-241q4 -126 55 -126q24 0 35.5 17.5t16.5 57.5l132 -25q-15 -80 -58.5 -118.5t-125.5 -38.5q-195 0 -195 264q0 132 47 198t148 66q104 0 148.5 -73.5t37.5 -221.5zM171 319h99q-2 50 -12 71.5t-33 21.5q-26 0 -38 -22t-16 -71zM214 567l-97 160h93l66 -160h-62
z" />
    <glyph glyph-name="uni00E9" unicode="&#xe9;" horiz-adv-x="433" 
d="M411 223h-241q4 -126 55 -126q24 0 35.5 17.5t16.5 57.5l132 -25q-15 -80 -58.5 -118.5t-125.5 -38.5q-195 0 -195 264q0 132 47 198t148 66q104 0 148.5 -73.5t37.5 -221.5zM171 319h99q-2 50 -12 71.5t-33 21.5q-26 0 -38 -22t-16 -71zM197 567l66 160h93l-97 -160h-62
z" />
    <glyph glyph-name="uni00EA" unicode="&#xea;" horiz-adv-x="433" 
d="M411 223h-241q4 -126 55 -126q24 0 35.5 17.5t16.5 57.5l132 -25q-15 -80 -58.5 -118.5t-125.5 -38.5q-195 0 -195 264q0 132 47 198t148 66q104 0 148.5 -73.5t37.5 -221.5zM171 319h99q-2 50 -12 71.5t-33 21.5q-26 0 -38 -22t-16 -71zM178 727h77l93 -161h-68l-32 43
l-29 41h-4l-31 -41l-33 -43h-67z" />
    <glyph glyph-name="uni00EB" unicode="&#xeb;" horiz-adv-x="433" 
d="M411 223h-241q4 -126 55 -126q24 0 35.5 17.5t16.5 57.5l132 -25q-15 -80 -58.5 -118.5t-125.5 -38.5q-195 0 -195 264q0 132 47 198t148 66q104 0 148.5 -73.5t37.5 -221.5zM171 319h99q-2 50 -12 71.5t-33 21.5q-26 0 -38 -22t-16 -71zM182 572h-81v99h81v-99zM332 572
h-81v99h81v-99z" />
    <glyph glyph-name="uni00EC" unicode="&#xec;" horiz-adv-x="256" 
d="M10 398v110h196v-508h-136v398h-60zM126 567l-97 160h93l66 -160h-62z" />
    <glyph glyph-name="uni00ED" unicode="&#xed;" horiz-adv-x="256" 
d="M10 398v110h196v-508h-136v398h-60zM69 567l66 160h93l-97 -160h-62z" />
    <glyph glyph-name="uni00EE" unicode="&#xee;" horiz-adv-x="256" 
d="M10 398v110h196v-508h-136v398h-60zM90 727h77l93 -161h-68l-32 43l-29 41h-4l-31 -41l-33 -43h-67z" />
    <glyph glyph-name="uni00EF" unicode="&#xef;" horiz-adv-x="256" 
d="M10 398v110h196v-508h-136v398h-60zM244 572h-81v99h81v-99zM94 572h-81v99h81v-99z" />
    <glyph glyph-name="uni00F0" unicode="&#xf0;" horiz-adv-x="459" 
d="M252 506h5q-13 42 -53 66l-91 -57l-28 52l46 28q-21 3 -44 3l9 102q95 -8 152 -33l55 34l28 -50l-29 -18q28 -23 57 -63q70 -106 70 -318q0 -262 -200 -262q-103 0 -151 66t-48 197q0 263 175 263q26 0 47 -10zM229 406q-34 0 -45.5 -33t-11.5 -119q0 -87 11.5 -120.5
t45.5 -33.5q36 0 47 32.5t11 120.5t-11.5 120.5t-46.5 32.5z" />
    <glyph glyph-name="uni00F1" unicode="&#xf1;" 
d="M50 508h123v-40h4q35 50 98 50q71 0 110 -46t39 -136v-336h-136v317q0 31 -6 59q-7 32 -43 32q-53 0 -53 -97v-311h-136v508zM325 675h49q-3 -49 -22 -78t-48 -29q-23 0 -49 16t-36 16q-27 0 -30 -27h-49q3 49 22 77.5t48 28.5q22 0 49 -18q26 -19 36 -19q25 0 30 33z
" />
    <glyph glyph-name="uni00F2" unicode="&#xf2;" horiz-adv-x="458" 
d="M228 518q104 0 152 -66t48 -198q0 -264 -200 -264q-198 0 -198 264q0 132 47.5 198t150.5 66zM228 408q-34 0 -45 -32.5t-11 -120.5q0 -86 10.5 -118.5t45.5 -36.5q35 0 46.5 33.5t11.5 120.5t-11.5 120.5t-46.5 33.5zM216 567l-97 160h93l66 -160h-62z" />
    <glyph glyph-name="uni00F3" unicode="&#xf3;" horiz-adv-x="458" 
d="M228 518q104 0 152 -66t48 -198q0 -264 -200 -264q-198 0 -198 264q0 132 47.5 198t150.5 66zM228 408q-34 0 -45 -32.5t-11 -120.5q0 -86 10.5 -118.5t45.5 -36.5q35 0 46.5 33.5t11.5 120.5t-11.5 120.5t-46.5 33.5zM199 567l66 160h93l-97 -160h-62z" />
    <glyph glyph-name="uni00F4" unicode="&#xf4;" horiz-adv-x="458" 
d="M228 518q104 0 152 -66t48 -198q0 -264 -200 -264q-198 0 -198 264q0 132 47.5 198t150.5 66zM228 408q-34 0 -45 -32.5t-11 -120.5q0 -86 10.5 -118.5t45.5 -36.5q35 0 46.5 33.5t11.5 120.5t-11.5 120.5t-46.5 33.5zM191 727h77l93 -161h-68l-32 43l-29 41h-4l-31 -41
l-33 -43h-67z" />
    <glyph glyph-name="uni00F5" unicode="&#xf5;" horiz-adv-x="458" 
d="M228 518q104 0 152 -66t48 -198q0 -264 -200 -264q-198 0 -198 264q0 132 47.5 198t150.5 66zM228 408q-34 0 -45 -32.5t-11 -120.5q0 -86 10.5 -118.5t45.5 -36.5q35 0 46.5 33.5t11.5 120.5t-11.5 120.5t-46.5 33.5zM297 675h49q-3 -49 -22 -78t-48 -29q-23 0 -49 16
t-36 16q-27 0 -30 -27h-49q3 49 22 77.5t48 28.5q22 0 49 -18q26 -19 36 -19q25 0 30 33z" />
    <glyph glyph-name="uni00F6" unicode="&#xf6;" horiz-adv-x="458" 
d="M228 518q104 0 152 -66t48 -198q0 -264 -200 -264q-198 0 -198 264q0 132 47.5 198t150.5 66zM228 408q-34 0 -45 -32.5t-11 -120.5q0 -86 10.5 -118.5t45.5 -36.5q35 0 46.5 33.5t11.5 120.5t-11.5 120.5t-46.5 33.5zM194 572h-81v99h81v-99zM344 572h-81v99h81v-99z
" />
    <glyph glyph-name="uni00F7" unicode="&#xf7;" horiz-adv-x="481" 
d="M299 0h-109v144h109v-144zM299 363h-109v144h109v-144zM50 304h381v-102h-381v102z" />
    <glyph glyph-name="uni00F8" unicode="&#xf8;" horiz-adv-x="458" 
d="M228 518q68 0 112 -29l18 29h70l-45 -72q45 -63 45 -192q0 -264 -200 -264q-67 0 -111 29l-18 -29h-69l44 72q-44 65 -44 192q0 132 47.5 198t150.5 66zM286 254v35l-101 -161q13 -28 43 -28q35 0 46.5 33.5t11.5 120.5zM228 408q-34 0 -45 -32.5t-11 -120.5v-36l100 161
q-13 28 -44 28z" />
    <glyph glyph-name="uni00F9" unicode="&#xf9;" 
d="M424 508v-508h-123v40h-5q-32 -50 -97 -50q-71 0 -110 46t-39 136v336h136v-317q0 -31 6 -59q7 -32 43 -32q27 0 40 28t13 68v312h136zM214 567l-97 160h93l66 -160h-62z" />
    <glyph glyph-name="uni00FA" unicode="&#xfa;" 
d="M424 508v-508h-123v40h-5q-32 -50 -97 -50q-71 0 -110 46t-39 136v336h136v-317q0 -31 6 -59q7 -32 43 -32q27 0 40 28t13 68v312h136zM207 567l66 160h93l-97 -160h-62z" />
    <glyph glyph-name="uni00FB" unicode="&#xfb;" 
d="M424 508v-508h-123v40h-5q-32 -50 -97 -50q-71 0 -110 46t-39 136v336h136v-317q0 -31 6 -59q7 -32 43 -32q27 0 40 28t13 68v312h136zM199 727h77l93 -161h-68l-32 43l-29 41h-4l-31 -41l-33 -43h-67z" />
    <glyph glyph-name="uni00FC" unicode="&#xfc;" 
d="M424 508v-508h-123v40h-5q-32 -50 -97 -50q-71 0 -110 46t-39 136v336h136v-317q0 -31 6 -59q7 -32 43 -32q27 0 40 28t13 68v312h136zM202 572h-81v99h81v-99zM352 572h-81v99h81v-99z" />
    <glyph glyph-name="uni00FD" unicode="&#xfd;" horiz-adv-x="418" 
d="M56 -199l6 110q16 -10 33 -10q31 0 42 39l16 63l-153 505h142l49 -160l23 -93h5l66 253h133l-142 -543q-20 -74 -47 -118q-34 -56 -117 -56q-27 0 -56 10zM179 567l66 160h93l-97 -160h-62z" />
    <glyph glyph-name="uni00FE" unicode="&#xfe;" horiz-adv-x="473" 
d="M50 700h136v-216h4q33 34 85 34q91 0 129.5 -64.5t38.5 -198.5t-38.5 -199.5t-128.5 -65.5q-52 0 -85 35h-5v-234h-136v909zM241 408q-27 0 -41 -30t-14 -71v-94q0 -34 9 -69q11 -44 46 -44t47.5 34.5t12.5 120.5t-12.5 119.5t-47.5 33.5z" />
    <glyph glyph-name="uni00FF" unicode="&#xff;" horiz-adv-x="418" 
d="M56 -199l6 110q16 -10 33 -10q31 0 42 39l16 63l-153 505h142l49 -160l23 -93h5l66 253h133l-142 -543q-20 -74 -47 -118q-34 -56 -117 -56q-27 0 -56 10zM174 572h-81v99h81v-99zM324 572h-81v99h81v-99z" />
    <glyph glyph-name="uni0100" unicode="&#x100;" horiz-adv-x="477" 
d="M175 137l-24 -137h-141l141 700h175l141 -700h-148l-24 137h-120zM333 775h-189v83h189v-83zM250 392l-14 94h-5l-12 -94l-24 -135h79z" />
    <glyph glyph-name="uni0101" unicode="&#x101;" horiz-adv-x="484" 
d="M179 369l-127 24q32 125 179 125q177 0 177 -192v-176q0 -51 7 -83t29 -67h-134q-12 23 -18 40h-5q-41 -50 -105 -50q-69 0 -110 44q-42 44 -42 108q0 148 161 171q59 9 81 16q-2 84 -49 84q-17 0 -29.5 -13t-14.5 -31zM331 583h-189v83h189v-83zM272 234q-4 -1 -47 -14
q-53 -17 -53 -75q0 -49 38 -49q19 0 32 15t19 39t8.5 44.5t2.5 39.5z" />
    <glyph glyph-name="uni0102" unicode="&#x102;" horiz-adv-x="477" 
d="M175 137l-24 -137h-141l141 700h175l141 -700h-148l-24 137h-120zM250 392l-14 94h-5l-12 -94l-24 -135h79zM239 766q-55 0 -87.5 33t-32.5 94h63q4 -51 57 -51q54 0 55 51h64q0 -61 -33 -94t-86 -33z" />
    <glyph glyph-name="uni0103" unicode="&#x103;" horiz-adv-x="484" 
d="M179 369l-127 24q32 125 179 125q177 0 177 -192v-176q0 -51 7 -83t29 -67h-134q-12 23 -18 40h-5q-41 -50 -105 -50q-69 0 -110 44q-42 44 -42 108q0 148 161 171q59 9 81 16q-2 84 -49 84q-17 0 -29.5 -13t-14.5 -31zM272 234q-4 -1 -47 -14q-53 -17 -53 -75
q0 -49 38 -49q19 0 32 15t19 39t8.5 44.5t2.5 39.5zM257 574q-55 0 -87.5 33t-32.5 94h63q4 -51 57 -51q54 0 55 51h64q0 -61 -33 -94t-86 -33z" />
    <glyph glyph-name="uni0104" unicode="&#x104;" horiz-adv-x="477" 
d="M467 -129v-80q-66 0 -103 25t-37 72q0 56 56 112h-64l-24 137h-120l-24 -137h-141l141 700h175l141 -700h-20q-36 -42 -36 -86q0 -19 14.5 -31t41.5 -12zM250 392l-14 94h-5l-12 -94l-24 -135h79z" />
    <glyph glyph-name="uni0105" unicode="&#x105;" horiz-adv-x="484" 
d="M439 -129v-80q-66 0 -103 25t-37 72q0 56 56 112h-45q-12 23 -18 40h-5q-41 -50 -105 -50q-69 0 -110 44q-42 44 -42 108q0 148 161 171q59 9 81 16q-2 84 -49 84q-17 0 -29.5 -13t-14.5 -31l-127 24q32 125 179 125q177 0 177 -192v-176q0 -51 7 -83t29 -67h-25
q-36 -42 -36 -86q0 -19 14.5 -31t41.5 -12zM272 234q-4 -1 -47 -14q-53 -17 -53 -75q0 -49 38 -49q19 0 32 15t19 39t8.5 44.5t2.5 39.5z" />
    <glyph glyph-name="uni0106" unicode="&#x106;" horiz-adv-x="494" 
d="M319 252l141 -26q-7 -80 -26 -133q-13 -35 -33 -55q-50 -48 -142 -48q-156 0 -198 148q-23 77 -23 212q0 134 24 212q13 46 38 79q52 69 159 69q93 0 137 -44t54 -135l-137 -44q-3 24 -3 43q-3 23 -9 34q-17 22 -42 22q-24 0 -37.5 -17.5t-22.5 -51.5q-10 -36 -10 -103
q-1 -17 -1 -64q0 -79 4 -118q1 -24 7 -49q9 -34 22.5 -51.5t37.5 -17.5q42 0 51 52q1 8 7 62q0 4 0.5 9.5t1 9t0.5 5.5zM237 759l66 160h93l-97 -160h-62z" />
    <glyph glyph-name="uni0107" unicode="&#x107;" horiz-adv-x="426" 
d="M268 340q-3 39 -12 53.5t-34 14.5q-31 0 -40.5 -32t-9.5 -122t9.5 -122t40.5 -32q27 0 36.5 18.5t14.5 74.5l132 -24q-10 -94 -52 -136.5t-131 -42.5q-192 0 -192 264t192 264q78 0 118 -32t56 -104zM259 727l-66 -160h62l97 160h-93z" />
    <glyph glyph-name="uni0108" unicode="&#x108;" horiz-adv-x="494" 
d="M319 252l141 -26q-7 -80 -26 -133q-13 -35 -33 -55q-50 -48 -142 -48q-156 0 -198 148q-23 77 -23 212q0 134 24 212q13 46 38 79q52 69 159 69q93 0 137 -44t54 -135l-137 -44q-3 24 -3 43q-3 23 -9 34q-17 22 -42 22q-24 0 -37.5 -17.5t-22.5 -51.5q-10 -36 -10 -103
q-1 -17 -1 -64q0 -79 4 -118q1 -24 7 -49q9 -34 22.5 -51.5t37.5 -17.5q42 0 51 52q1 8 7 62q0 4 0.5 9.5t1 9t0.5 5.5zM219 919h77l93 -161h-68l-32 43l-29 41h-4l-31 -41l-33 -43h-67z" />
    <glyph glyph-name="uni0109" unicode="&#x109;" horiz-adv-x="426" 
d="M268 340q-3 39 -12 53.5t-34 14.5q-31 0 -40.5 -32t-9.5 -122t9.5 -122t40.5 -32q27 0 36.5 18.5t14.5 74.5l132 -24q-10 -94 -52 -136.5t-131 -42.5q-192 0 -192 264t192 264q78 0 118 -32t56 -104zM272 727h-77l-94 -161h67l33 43l31 41h4l29 -41l32 -43h68z" />
    <glyph glyph-name="uni010A" unicode="&#x10a;" horiz-adv-x="494" 
d="M319 252l141 -26q-7 -80 -26 -133q-13 -35 -33 -55q-50 -48 -142 -48q-156 0 -198 148q-23 77 -23 212q0 134 24 212q13 46 38 79q52 69 159 69q93 0 137 -44t54 -135l-137 -44q-3 24 -3 43q-3 23 -9 34q-17 22 -42 22q-24 0 -37.5 -17.5t-22.5 -51.5q-10 -36 -10 -103
q-1 -17 -1 -64q0 -79 4 -118q1 -24 7 -49q9 -34 22.5 -51.5t37.5 -17.5q42 0 51 52q1 8 7 62q0 4 0.5 9.5t1 9t0.5 5.5zM297 764h-81v99h81v-99z" />
    <glyph glyph-name="uni010B" unicode="&#x10b;" horiz-adv-x="426" 
d="M268 340q-3 39 -12 53.5t-34 14.5q-31 0 -40.5 -32t-9.5 -122t9.5 -122t40.5 -32q27 0 36.5 18.5t14.5 74.5l132 -24q-10 -94 -52 -136.5t-131 -42.5q-192 0 -192 264t192 264q78 0 118 -32t56 -104zM192 572h81v99h-81v-99z" />
    <glyph glyph-name="uni010C" unicode="&#x10c;" horiz-adv-x="494" 
d="M319 252l141 -26q-7 -80 -26 -133q-13 -35 -33 -55q-50 -48 -142 -48q-156 0 -198 148q-23 77 -23 212q0 134 24 212q13 46 38 79q52 69 159 69q93 0 137 -44t54 -135l-137 -44q-3 24 -3 43q-3 23 -9 34q-17 22 -42 22q-24 0 -37.5 -17.5t-22.5 -51.5q-10 -36 -10 -103
q-1 -17 -1 -64q0 -79 4 -118q1 -24 7 -49q9 -34 22.5 -51.5t37.5 -17.5q42 0 51 52q1 8 7 62q0 4 0.5 9.5t1 9t0.5 5.5zM331 919h68l-93 -161h-77l-94 161h67l33 -43l31 -41h4l29 41z" />
    <glyph glyph-name="uni010D" unicode="&#x10d;" horiz-adv-x="426" 
d="M268 340q-3 39 -12 53.5t-34 14.5q-31 0 -40.5 -32t-9.5 -122t9.5 -122t40.5 -32q27 0 36.5 18.5t14.5 74.5l132 -24q-10 -94 -52 -136.5t-131 -42.5q-192 0 -192 264t192 264q78 0 118 -32t56 -104zM355 727h-68l-32 -43l-29 -41h-4l-31 41l-33 43h-67l94 -161h77z" />
    <glyph glyph-name="uni010E" unicode="&#x10e;" horiz-adv-x="519" 
d="M236 0h-176v700h177q96 -4 147.5 -38t72.5 -104q22 -75 22 -208q0 -134 -22 -208q-15 -48 -40 -76q-59 -66 -181 -66zM205 125h32q61 0 78 65q14 53 14 160q0 108 -14 160q-17 65 -78 65h-32v-450zM313 919h68l-93 -161h-77l-94 161h67l33 -43l31 -41h4l29 41z" />
    <glyph glyph-name="uni010F" unicode="&#x10f;" horiz-adv-x="575" 
d="M423 0h-124v40h-5q-33 -50 -97 -50q-90 0 -128.5 65.5t-38.5 199.5t38.5 198.5t129.5 64.5q51 0 84 -34h5v216h136v-700zM287 201v95q0 112 -55 112q-35 0 -47.5 -33.5t-12.5 -119.5t12.5 -120.5t47.5 -34.5q27 0 41 30t14 71zM523 563h-50v137h103v-119
q-1 -76 -28.5 -114.5t-74.5 -38.5v61q26 0 37 15t13 59z" />
    <glyph glyph-name="uni0110" unicode="&#x110;" horiz-adv-x="519" 
d="M4 408h66v292h177q96 -4 147.5 -38t72.5 -104q22 -75 22 -208q0 -134 -22 -208q-15 -48 -40 -76q-59 -66 -181 -66h-176v316h-66v92zM215 408h60v-92h-60v-191h32q61 0 78 65q14 53 14 160q0 108 -14 160q-17 65 -78 65h-32v-167z" />
    <glyph glyph-name="uni0111" unicode="&#x111;" horiz-adv-x="480" 
d="M423 0h-124v40h-5q-33 -50 -97 -50q-90 0 -128.5 65.5t-38.5 199.5t38.5 198.5t129.5 64.5q51 0 84 -34h5v93h-109v59h109v64h136v-64h47v-59h-47v-577zM287 201v106q-5 101 -55 101q-35 0 -47.5 -33.5t-12.5 -119.5t12.5 -120.5t47.5 -34.5q27 0 41 30t14 71z" />
    <glyph glyph-name="uni0112" unicode="&#x112;" horiz-adv-x="408" 
d="M398 125v-125h-338v700h338v-125h-192v-144h160v-124h-160v-182h192zM325 775h-189v83h189v-83z" />
    <glyph glyph-name="uni0113" unicode="&#x113;" horiz-adv-x="433" 
d="M411 223h-241q4 -126 55 -126q24 0 35.5 17.5t16.5 57.5l132 -25q-15 -80 -58.5 -118.5t-125.5 -38.5q-195 0 -195 264q0 132 47 198t148 66q104 0 148.5 -73.5t37.5 -221.5zM321 583h-189v83h189v-83zM171 319h99q-2 50 -12 71.5t-33 21.5q-26 0 -38 -22t-16 -71z" />
    <glyph glyph-name="uni0116" unicode="&#x116;" horiz-adv-x="408" 
d="M398 125v-125h-338v700h338v-125h-192v-144h160v-124h-160v-182h192zM274 764h-81v99h81v-99z" />
    <glyph glyph-name="uni0117" unicode="&#x117;" horiz-adv-x="433" 
d="M411 223h-241q4 -126 55 -126q24 0 35.5 17.5t16.5 57.5l132 -25q-15 -80 -58.5 -118.5t-125.5 -38.5q-195 0 -195 264q0 132 47 198t148 66q104 0 148.5 -73.5t37.5 -221.5zM171 319h99q-2 50 -12 71.5t-33 21.5q-26 0 -38 -22t-16 -71zM267 572h-81v99h81v-99z" />
    <glyph glyph-name="uni0118" unicode="&#x118;" horiz-adv-x="408" 
d="M398 -129v-80q-66 0 -103 25t-37 72q0 56 56 112h-254v700h338v-125h-192v-144h160v-124h-160v-182h192v-125h-20q-36 -42 -36 -86q0 -19 14.5 -31t41.5 -12z" />
    <glyph glyph-name="uni0119" unicode="&#x119;" horiz-adv-x="433" 
d="M280 -129v-80q-66 0 -103 25t-37 72q0 53 49 105q-159 21 -159 261q0 132 47 198t148 66q104 0 148.5 -73.5t37.5 -221.5h-241q4 -126 55 -126q24 0 35.5 17.5t16.5 57.5l132 -25q-13 -72 -50.5 -110.5t-105.5 -45.5q-29 -38 -29 -77q0 -19 14.5 -31t41.5 -12zM171 319
h99q-2 50 -12 71.5t-33 21.5q-26 0 -38 -22t-16 -71z" />
    <glyph glyph-name="uni011A" unicode="&#x11a;" horiz-adv-x="408" 
d="M398 125v-125h-338v700h338v-125h-192v-144h160v-124h-160v-182h192zM298 919h68l-93 -161h-77l-94 161h67l33 -43l31 -41h4l29 41z" />
    <glyph glyph-name="uni011B" unicode="&#x11b;" horiz-adv-x="433" 
d="M411 223h-241q4 -126 55 -126q24 0 35.5 17.5t16.5 57.5l132 -25q-15 -80 -58.5 -118.5t-125.5 -38.5q-195 0 -195 264q0 132 47 198t148 66q104 0 148.5 -73.5t37.5 -221.5zM171 319h99q-2 50 -12 71.5t-33 21.5q-26 0 -38 -22t-16 -71zM290 727h68l-93 -161h-77
l-94 161h67l33 -43l31 -41h4l29 41z" />
    <glyph glyph-name="uni011C" unicode="&#x11c;" horiz-adv-x="507" 
d="M460 531l-137 -44q-4 59 -14 77q-13 22 -46 22q-45 0 -64 -69q-10 -36 -10 -104q-1 -17 -1 -63q0 -128 15 -182t61 -54q33 0 57 31v103h-64v122h208v-274q-73 -106 -200 -106q-86 3 -134 39.5t-69 108.5q-24 78 -24 212t24 212q13 46 38 79q54 69 163 69q97 0 141 -43.5
t56 -135.5zM225 919h77l93 -161h-68l-32 43l-29 41h-4l-31 -41l-33 -43h-67z" />
    <glyph glyph-name="uni011D" unicode="&#x11d;" 
d="M48 -93l132 24q16 -33 48 -33q59 2 59 105v22h-5q-33 -35 -85 -35q-90 0 -128.5 65.5t-38.5 199.5t38.5 198.5t129.5 64.5q65 0 97 -50h4v40h125v-494q0 -96 -49 -160q-49 -63 -149 -63q-136 0 -178 116zM287 201v95q0 112 -55 112q-35 0 -47.5 -33.5t-12.5 -119.5
t12.5 -120t47.5 -34q27 0 41 29.5t14 70.5zM209 727h77l93 -161h-68l-32 43l-29 41h-4l-31 -41l-33 -43h-67z" />
    <glyph glyph-name="uni011E" unicode="&#x11e;" horiz-adv-x="507" 
d="M462 531l-137 -44q-4 59 -14 77q-13 22 -46 22q-45 0 -64 -69q-10 -36 -10 -104q-1 -17 -1 -63q0 -128 15 -182t61 -54q33 0 57 31v103h-64v122h208v-274q-73 -106 -200 -106q-86 3 -134 39.5t-69 108.5q-24 78 -24 212t24 212q13 46 38 79q54 69 163 69q97 0 141 -43.5
t56 -135.5zM266 766q-55 0 -87.5 33t-32.5 94h63q5 -51 57 -51q54 0 55 51h64q0 -61 -33 -94t-86 -33z" />
    <glyph glyph-name="uni011F" unicode="&#x11f;" 
d="M48 -93l132 24q16 -33 48 -33q59 2 59 105v22h-5q-33 -35 -85 -35q-90 0 -128.5 65.5t-38.5 199.5t38.5 198.5t129.5 64.5q65 0 97 -50h4v40h125v-494q0 -96 -49 -160q-49 -63 -149 -63q-136 0 -178 116zM287 201v95q0 112 -55 112q-35 0 -47.5 -33.5t-12.5 -119.5
t12.5 -120t47.5 -34q27 0 41 29.5t14 70.5zM237 574q-55 0 -87.5 33t-32.5 94h63q4 -51 57 -51q54 0 55 51h64q0 -61 -33 -94t-86 -33z" />
    <glyph glyph-name="uni0120" unicode="&#x120;" horiz-adv-x="507" 
d="M460 531l-137 -44q-4 59 -14 77q-13 22 -46 22q-45 0 -64 -69q-10 -36 -10 -104q-1 -17 -1 -63q0 -128 15 -182t61 -54q33 0 57 31v103h-64v122h208v-274q-73 -106 -200 -106q-86 3 -134 39.5t-69 108.5q-24 78 -24 212t24 212q13 46 38 79q54 69 163 69q97 0 141 -43.5
t56 -135.5zM304 764h-81v99h81v-99z" />
    <glyph glyph-name="uni0121" unicode="&#x121;" 
d="M48 -93l132 24q16 -33 48 -33q59 2 59 105v22h-5q-33 -35 -85 -35q-90 0 -128.5 65.5t-38.5 199.5t38.5 198.5t129.5 64.5q65 0 97 -50h4v40h125v-494q0 -96 -49 -160q-49 -63 -149 -63q-136 0 -178 116zM287 201v95q0 112 -55 112q-35 0 -47.5 -33.5t-12.5 -119.5
t12.5 -120t47.5 -34q27 0 41 29.5t14 70.5zM267 572h-81v99h81v-99z" />
    <glyph glyph-name="uni0122" unicode="&#x122;" horiz-adv-x="507" 
d="M462 531l-137 -44q-4 59 -14 77q-13 22 -46 22q-45 0 -64 -69q-10 -36 -10 -104q-1 -17 -1 -63q0 -128 15 -182t61 -54q33 0 57 31v103h-64v122h208v-274q-73 -106 -200 -106q-86 3 -134 39.5t-69 108.5q-24 78 -24 212t24 212q13 46 38 79q54 69 163 69q97 0 141 -43.5
t56 -135.5zM261 -159h-51v119h103v-101q-1 -135 -103 -135v50q30 0 40.5 14t10.5 53z" />
    <glyph glyph-name="uni0123" unicode="&#x123;" 
d="M48 -93l132 24q16 -33 48 -33q59 2 59 105v22h-5q-33 -35 -85 -35q-90 0 -128.5 65.5t-38.5 199.5t38.5 198.5t129.5 64.5q65 0 97 -50h4v40h125v-494q0 -96 -49 -160q-49 -63 -149 -63q-136 0 -178 116zM287 201v95q0 112 -55 112q-35 0 -47.5 -33.5t-12.5 -119.5
t12.5 -120t47.5 -34q27 0 41 29.5t14 70.5zM225 702h50v-137h-103v119q1 76 28.5 114.5t74.5 38.5v-61q-26 0 -37 -15t-13 -59z" />
    <glyph glyph-name="uni0124" unicode="&#x124;" horiz-adv-x="523" 
d="M463 700v-700h-145v307h-113v-307h-145v700h145v-267h113v267h145zM223 919h77l93 -161h-68l-32 43l-29 41h-4l-31 -41l-33 -43h-67z" />
    <glyph glyph-name="uni0125" unicode="&#x125;" horiz-adv-x="473" 
d="M206 919h77l93 -161h-68l-32 43l-29 41h-4l-31 -41l-33 -43h-67zM50 0v700h136v-217h4q35 35 84 35q71 0 110 -45.5t39 -135.5v-337h-136v316q0 32 -6 60q-7 32 -43 32q-28 -2 -40.5 -32t-11.5 -67v-309h-136z" />
    <glyph glyph-name="uni0126" unicode="&#x126;" horiz-adv-x="523" 
d="M463 507v-507h-145v307h-113v-307h-145v507h-60v83h60v110h145v-110h113v110h145v-110h60v-83h-60zM205 507v-74h113v74h-113z" />
    <glyph glyph-name="uni0127" unicode="&#x127;" horiz-adv-x="473" 
d="M49 577h-47v59h47v64h136v-64h109v-59h-109v-94h4q35 35 84 35q71 0 110 -45.5t39 -135.5v-337h-136v316q0 32 -6 60q-7 32 -43 32q-52 0 -52 -114v-294h-136v577z" />
    <glyph glyph-name="uni0128" unicode="&#x128;" horiz-adv-x="312" 
d="M302 126v-126h-292v126h74v448h-74v126h292v-126h-73v-448h73zM224 867h49q-3 -49 -22 -78t-48 -29q-23 0 -49 16t-36 16q-27 0 -30 -27h-49q3 49 22 77.5t48 28.5q22 0 49 -18q26 -19 36 -19q25 0 30 33z" />
    <glyph glyph-name="uni0129" unicode="&#x129;" horiz-adv-x="256" 
d="M10 398v110h196v-508h-136v398h-60zM196 675h49q-3 -49 -22 -78t-48 -29q-23 0 -49 16t-36 16q-27 0 -30 -27h-49q3 49 22 77.5t48 28.5q22 0 49 -18q26 -19 36 -19q25 0 30 33z" />
    <glyph glyph-name="uni012A" unicode="&#x12a;" horiz-adv-x="312" 
d="M302 126v-126h-292v126h74v448h-74v126h292v-126h-73v-448h73zM250 775h-189v83h189v-83z" />
    <glyph glyph-name="uni012B" unicode="&#x12b;" horiz-adv-x="256" 
d="M10 398v110h196v-508h-136v398h-60zM213 583h-189v83h189v-83z" />
    <glyph glyph-name="uni012E" unicode="&#x12e;" horiz-adv-x="312" 
d="M202 -129v-80q-66 0 -103 25t-37 72q0 56 56 112h-108v126h74v448h-74v126h292v-126h-73v-448h73v-126h-120q-36 -42 -36 -86q0 -19 14.5 -31t41.5 -12z" />
    <glyph glyph-name="uni012F" unicode="&#x12f;" horiz-adv-x="259" 
d="M199 -129v-80q-66 0 -103 25t-37 72q0 56 56 112h-45v398h-60v110h196v-508h-27q-36 -42 -36 -86q0 -19 14.5 -31t41.5 -12zM209 667v-107h-142v107h142z" />
    <glyph glyph-name="uni0130" unicode="&#x130;" horiz-adv-x="312" 
d="M302 126v-126h-292v126h74v448h-74v126h292v-126h-73v-448h73zM196 764h-81v99h81v-99z" />
    <glyph glyph-name="uni0131" unicode="&#x131;" horiz-adv-x="256" 
d="M10 398v110h196v-508h-136v398h-60z" />
    <glyph glyph-name="uni0134" unicode="&#x134;" horiz-adv-x="422" 
d="M13 188l141 26v-43q0 -28 5.5 -41t25.5 -16q20 0 26 13t6 44v403h-74v126h219v-476q0 -110 -30 -167q-36 -67 -147 -67q-98 0 -133 50q-36 49 -39 148zM173 919h77l93 -161h-68l-32 43l-29 41h-4l-31 -41l-33 -43h-67z" />
    <glyph glyph-name="uni0135" unicode="&#x135;" horiz-adv-x="257" 
d="M-20 -204l6 111q14 -6 36 -6q47 0 47 61v436h-62v110h198v-567q0 -70 -44.5 -110t-126.5 -40q-22 0 -54 5zM91 727h77l93 -161h-68l-32 43l-29 41h-4l-31 -41l-33 -43h-67z" />
    <glyph glyph-name="uni0136" unicode="&#x136;" horiz-adv-x="513" 
d="M347 366l45 -89l120 -277h-161l-122 301h-24v-301h-145v700h145v-279h24l115 279h151l-104 -240l-44 -89v-5zM276 -159h-51v119h103v-101q-2 -135 -103 -135v50q30 0 40.5 14t10.5 53z" />
    <glyph glyph-name="uni0137" unicode="&#x137;" horiz-adv-x="454" 
d="M50 0v700h136v-364h11l101 172h146l-72 -124l-56 -88v-5l45 -88l94 -203h-150l-105 227h-14v-227h-136zM243 -159h-51v119h103v-101q-1 -135 -103 -135v50q30 0 40.5 14t10.5 53z" />
    <glyph glyph-name="uni0138" unicode="&#x138;" horiz-adv-x="455" 
d="M50 0v508h136v-172h11l101 172h146l-72 -124l-56 -88v-5l45 -88l94 -203h-150l-105 227h-14v-227h-136z" />
    <glyph glyph-name="uni0139" unicode="&#x139;" horiz-adv-x="402" 
d="M402 126v-126h-332v700h145v-574h187zM171 759l66 160h93l-97 -160h-62z" />
    <glyph glyph-name="uni013A" unicode="&#x13a;" horiz-adv-x="256" 
d="M87 759l66 160h93l-97 -160h-62zM10 590v110h196v-700h-136v590h-60z" />
    <glyph glyph-name="uni013B" unicode="&#x13b;" horiz-adv-x="402" 
d="M402 126v-126h-332v700h145v-574h187zM231 -159h-51v119h103v-101q-1 -135 -103 -135v50q30 0 40.5 14t10.5 53z" />
    <glyph glyph-name="uni013C" unicode="&#x13c;" horiz-adv-x="246" 
d="M0 590v110h196v-700h-136v590h-60zM124 -159h-51v119h103v-101q-2 -135 -103 -135v50q30 0 40.5 14t10.5 53z" />
    <glyph glyph-name="uni013D" unicode="&#x13d;" horiz-adv-x="402" 
d="M402 126v-126h-332v700h145v-574h187zM306 837h-50v137h103v-119q-1 -76 -28.5 -114.5t-74.5 -38.5v61q26 0 37 15t13 59z" />
    <glyph glyph-name="uni013E" unicode="&#x13e;" horiz-adv-x="358" 
d="M10 590v110h196v-700h-136v590h-60zM305 563h-50v137h103v-119q-1 -76 -28.5 -114.5t-74.5 -38.5v61q26 0 37 15t13 59z" />
    <glyph glyph-name="uni0141" unicode="&#x141;" horiz-adv-x="402" 
d="M402 126v-126h-332v237l-44 -25l-46 80l90 52v356h145v-272l76 44l46 -80l-122 -71v-195h187z" />
    <glyph glyph-name="uni0142" unicode="&#x142;" horiz-adv-x="274" 
d="M211 439l37 22l46 -80l-83 -48v-333h-136v254l-41 -23l-46 80l87 50v229h-60v110h196v-261z" />
    <glyph glyph-name="uni0143" unicode="&#x143;" horiz-adv-x="525" 
d="M213 700l113 -362h5l-5 94v268h139v-700h-154l-112 360h-5l5 -94v-266h-139v700h153zM233 759l66 160h93l-97 -160h-62z" />
    <glyph glyph-name="uni0144" unicode="&#x144;" 
d="M50 508h123v-40h4q35 50 98 50q71 0 110 -46t39 -136v-336h-136v317q0 31 -6 59q-7 32 -43 32q-53 0 -53 -97v-311h-136v508zM207 567l66 160h93l-97 -160h-62z" />
    <glyph glyph-name="uni0145" unicode="&#x145;" horiz-adv-x="525" 
d="M213 700l113 -362h5l-5 94v268h139v-700h-154l-112 360h-5l5 -94v-266h-139v700h153zM253 -159h-51v119h103v-101q-1 -135 -103 -135v50q30 0 40.5 14t10.5 53z" />
    <glyph glyph-name="uni0146" unicode="&#x146;" 
d="M50 508h123v-40h4q35 50 98 50q71 0 110 -46t39 -136v-336h-136v317q0 31 -6 59q-7 32 -43 32q-53 0 -53 -97v-311h-136v508zM235 -159h-51v119h103v-101q-1 -135 -103 -135v50q30 0 40.5 14t10.5 53z" />
    <glyph glyph-name="uni0147" unicode="&#x147;" horiz-adv-x="525" 
d="M213 700l113 -362h5l-5 94v268h139v-700h-154l-112 360h-5l5 -94v-266h-139v700h153zM326 919h68l-93 -161h-77l-94 161h67l33 -43l31 -41h4l29 41z" />
    <glyph glyph-name="uni0148" unicode="&#x148;" 
d="M50 508h123v-40h4q35 50 98 50q71 0 110 -46t39 -136v-336h-136v317q0 31 -6 59q-7 32 -43 32q-53 0 -53 -97v-311h-136v508zM301 727h68l-93 -161h-77l-94 161h67l33 -43l31 -41h4l29 41z" />
    <glyph glyph-name="uni014A" unicode="&#x14a;" horiz-adv-x="525" 
d="M213 700l113 -362h5l-5 94v268h139v-756q0 -72 -45 -112.5t-130 -40.5q-22 0 -55 5l6 114q15 -6 37 -6q28 0 38 17.5t10 53.5v2l-127 383h-5l5 -94v-266h-139v700h153z" />
    <glyph glyph-name="uni014B" unicode="&#x14b;" 
d="M199 -204l6 111q13 -6 36 -6q47 0 47 61v355q0 31 -6 59q-7 32 -43 32q-53 0 -53 -97v-311h-136v508h123v-40h4q35 50 98 50q71 0 110 -46t39 -136v-395q0 -70 -44.5 -110t-126.5 -40q-22 0 -54 5z" />
    <glyph glyph-name="uni014C" unicode="&#x14c;" horiz-adv-x="544" 
d="M172 691q41 19 100 19t101 -19q42 -20 67 -50q46 -57 59 -177q5 -55 5 -115q0 -130 -24 -211q-15 -50 -40 -79q-56 -69 -168 -69q-87 2 -136.5 39t-70.5 109q-25 80 -25 211q0 132 25 213q28 94 107 129zM339 527q-17 59 -67 59q-51 0 -66 -59q-16 -58 -16 -178
q0 -103 13 -164q15 -71 69 -71q55 0 70 71q12 56 12 164q0 118 -15 178zM366 775h-189v83h189v-83z" />
    <glyph glyph-name="uni014D" unicode="&#x14d;" horiz-adv-x="458" 
d="M228 518q104 0 152 -66t48 -198q0 -264 -200 -264q-198 0 -198 264q0 132 47.5 198t150.5 66zM228 408q-34 0 -45 -32.5t-11 -120.5q0 -86 10.5 -118.5t45.5 -36.5q35 0 46.5 33.5t11.5 120.5t-11.5 120.5t-46.5 33.5zM323 583h-189v83h189v-83z" />
    <glyph glyph-name="uni0150" unicode="&#x150;" horiz-adv-x="544" 
d="M172 691q41 19 100 19t101 -19q42 -20 67 -50q46 -57 59 -177q5 -55 5 -115q0 -130 -24 -211q-15 -50 -40 -79q-56 -69 -168 -69q-87 2 -136.5 39t-70.5 109q-25 80 -25 211q0 132 25 213q28 94 107 129zM339 527q-17 59 -67 59q-51 0 -66 -59q-16 -58 -16 -178
q0 -103 13 -164q15 -71 69 -71q55 0 70 71q12 56 12 164q0 118 -15 178zM152 759l66 160h93l-97 -160h-62zM332 759l66 160h93l-97 -160h-62z" />
    <glyph glyph-name="uni0151" unicode="&#x151;" horiz-adv-x="458" 
d="M228 518q104 0 152 -66t48 -198q0 -264 -200 -264q-198 0 -198 264q0 132 47.5 198t150.5 66zM228 408q-34 0 -45 -32.5t-11 -120.5q0 -86 10.5 -118.5t45.5 -36.5q35 0 46.5 33.5t11.5 120.5t-11.5 120.5t-46.5 33.5zM109 567l66 160h93l-97 -160h-62zM289 567l66 160
h93l-97 -160h-62z" />
    <glyph glyph-name="uni0152" unicode="&#x152;" horiz-adv-x="697" 
d="M687 125v-125h-338q-36 -10 -77 -10q-87 2 -136.5 39t-70.5 109q-25 80 -25 211q0 132 25 213q13 47 39 79q56 69 168 69q41 0 77 -10h338v-125h-192v-144h160v-124h-160v-182h192zM339 527q-17 59 -67 59q-51 0 -66 -59q-16 -58 -16 -178q0 -103 13 -164q15 -71 69 -71
q55 0 70 71q12 56 12 164q0 118 -15 178z" />
    <glyph glyph-name="uni0153" unicode="&#x153;" horiz-adv-x="689" 
d="M667 223h-241q4 -126 55 -126q39 0 52 75l131 -25q-33 -157 -183 -157q-83 0 -123 46h-4q-43 -46 -126 -46q-198 0 -198 264q0 132 47.5 198t150.5 66q82 0 126 -45h4q42 45 123 45q104 0 148.5 -73.5t37.5 -221.5zM228 408q-34 0 -45.5 -33t-11.5 -120t11.5 -120.5
t45.5 -33.5q35 0 46.5 33t11.5 120t-11.5 120.5t-46.5 33.5zM427 319h99q-2 50 -12 71.5t-33 21.5q-26 0 -38 -22t-16 -71z" />
    <glyph glyph-name="uni0154" unicode="&#x154;" horiz-adv-x="503" 
d="M205 283v-283h-145v700h204q127 0 167 -61q34 -52 34 -147q0 -135 -105 -169v-6q58 -31 81 -120l52 -197h-152l-38 159q-12 51 -29 82q-21 37 -69 42zM259 579h-54v-174h54q56 0 56 87t-56 87zM202 759l66 160h93l-97 -160h-62z" />
    <glyph glyph-name="uni0155" unicode="&#x155;" horiz-adv-x="316" 
d="M50 508h124v-49h5q45 59 127 59l-7 -135q-55 8 -84 -22.5t-29 -88.5v-272h-136v508zM128 567l66 160h93l-97 -160h-62z" />
    <glyph glyph-name="uni0156" unicode="&#x156;" horiz-adv-x="503" 
d="M205 283v-283h-145v700h204q127 0 167 -61q34 -52 34 -147q0 -135 -105 -169v-6q58 -31 81 -120l52 -197h-152l-38 159q-12 51 -29 82q-21 37 -69 42zM271 -159h-51v119h103v-101q-1 -135 -103 -135v50q30 0 40.5 14t10.5 53zM259 579h-54v-174h54q56 0 56 87t-56 87z
" />
    <glyph glyph-name="uni0157" unicode="&#x157;" horiz-adv-x="316" 
d="M50 508h124v-49h5q45 59 127 59l-7 -135q-55 8 -84 -22.5t-29 -88.5v-272h-136v508zM119 -159h-51v119h103v-101q-1 -135 -103 -135v50q30 0 40.5 14t10.5 53z" />
    <glyph glyph-name="uni0158" unicode="&#x158;" horiz-adv-x="503" 
d="M205 283v-283h-145v700h204q127 0 167 -61q34 -52 34 -147q0 -135 -105 -169v-6q58 -31 81 -120l52 -197h-152l-38 159q-12 51 -29 82q-21 37 -69 42zM259 579h-54v-174h54q56 0 56 87t-56 87zM325 919h68l-93 -161h-77l-94 161h67l33 -43l31 -41h4l29 41z" />
    <glyph glyph-name="uni0159" unicode="&#x159;" horiz-adv-x="316" 
d="M50 508h124v-49h5q45 59 127 59l-7 -135q-55 8 -84 -22.5t-29 -88.5v-272h-136v508zM232 727h68l-93 -161h-77l-94 161h67l33 -43l31 -41h4l29 41z" />
    <glyph glyph-name="uni015A" unicode="&#x15a;" horiz-adv-x="450" 
d="M278 511q-6 42 -18.5 58.5t-39.5 16.5q-53 0 -53 -60q4 -48 47 -69l94 -55q65 -38 94 -85t28 -115q-2 -94 -58 -152q-58 -60 -156 -60q-94 0 -149 53.5t-65 149.5l135 26q1 -49 24 -77.5t57 -28.5q36 0 55 21t19 58q0 45 -42 71l-103 62q-118 70 -118 188q0 83 51 140
t140 57q79 0 127.5 -41.5t61.5 -115.5zM251 919l-66 -160h62l97 160h-93z" />
    <glyph glyph-name="uni015B" unicode="&#x15b;" horiz-adv-x="397" 
d="M225 369q-3 43 -35 43q-33 0 -33 -31q0 -25 37 -41l70 -34q113 -53 113 -157q0 -70 -51 -114.5t-136 -44.5q-166 0 -185 147l132 24q8 -65 58 -65t50 40q0 11 -10.5 22t-16 14.5t-20.5 11.5l-79 43q-93 47 -93 147q0 63 45 103.5t123 40.5q136 0 162 -117zM225 727
l-66 -160h62l97 160h-93z" />
    <glyph glyph-name="uni015C" unicode="&#x15c;" horiz-adv-x="450" 
d="M278 511q-6 42 -18.5 58.5t-39.5 16.5q-53 0 -53 -60q4 -48 47 -69l94 -55q65 -38 94 -85t28 -115q-2 -94 -58 -152q-58 -60 -156 -60q-94 0 -149 53.5t-65 149.5l135 26q1 -49 24 -77.5t57 -28.5q36 0 55 21t19 58q0 45 -42 71l-103 62q-118 70 -118 188q0 83 51 140
t140 57q79 0 127.5 -41.5t61.5 -115.5zM264 919h-77l-94 -161h67l33 43l31 41h4l29 -41l32 -43h68z" />
    <glyph glyph-name="uni015D" unicode="&#x15d;" horiz-adv-x="397" 
d="M225 369q-3 43 -35 43q-33 0 -33 -31q0 -25 37 -41l70 -34q113 -53 113 -157q0 -70 -51 -114.5t-136 -44.5q-166 0 -185 147l132 24q8 -65 58 -65t50 40q0 11 -10.5 22t-16 14.5t-20.5 11.5l-79 43q-93 47 -93 147q0 63 45 103.5t123 40.5q136 0 162 -117zM237 727h-77
l-94 -161h67l33 43l31 41h4l29 -41l32 -43h68z" />
    <glyph glyph-name="uni015E" unicode="&#x15e;" horiz-adv-x="450" 
d="M409 553l-131 -42q-6 42 -18.5 58.5t-39.5 16.5q-53 0 -53 -60q4 -48 47 -69l94 -55q65 -38 94 -85t28 -115q-1 -86 -51 -143.5t-134 -66.5l-5 -28q27 1 56 -20q29 -20 29 -60q0 -41 -31 -67t-77 -26q-36 0 -72 21v65q32 -24 55 -24q38 0 38 27q0 33 -68 22l17 90
q-81 8 -128.5 61t-56.5 140l135 26q1 -49 24 -77.5t57 -28.5q36 0 55 21t19 58q0 45 -42 71l-103 62q-118 70 -118 188q0 83 51 140t140 57q79 0 127.5 -41.5t61.5 -115.5z" />
    <glyph glyph-name="uni015F" unicode="&#x15f;" horiz-adv-x="397" 
d="M356 401l-131 -32q-3 43 -35 43q-33 0 -33 -31q0 -25 37 -41l70 -34q113 -53 113 -157q0 -64 -43 -107t-116 -50l-5 -28q27 1 56 -20q29 -20 29 -60q0 -41 -31 -67t-77 -26q-36 0 -72 21v65q32 -24 55 -24q38 0 38 27q0 33 -68 22l17 90q-137 14 -155 145l132 24
q8 -65 58 -65t50 40q0 11 -10.5 22t-16 14.5t-20.5 11.5l-79 43q-93 47 -93 147q0 63 45 103.5t123 40.5q136 0 162 -117z" />
    <glyph glyph-name="uni0160" unicode="&#x160;" horiz-adv-x="450" 
d="M367 919h-68l-32 -43l-29 -41h-4l-31 41l-33 43h-67l94 -161h77zM277 511q-6 42 -18.5 58.5t-39.5 16.5q-53 0 -53 -60q4 -48 47 -69l94 -55q65 -38 94 -85t28 -115q-2 -94 -58 -152q-59 -60 -156 -60q-94 0 -149 53.5t-65 149.5l135 26q1 -49 24 -77.5t57 -28.5
q36 0 55 21t19 58q0 45 -42 71l-103 62q-118 70 -118 188q0 83 51 140t140 57q79 0 127.5 -41.5t61.5 -115.5z" />
    <glyph glyph-name="uni0161" unicode="&#x161;" horiz-adv-x="397" 
d="M225 369q-3 43 -35 43q-33 0 -33 -31q0 -25 37 -41l70 -34q113 -53 113 -157q0 -70 -51 -114.5t-136 -44.5q-166 0 -185 147l132 24q8 -65 58 -65t50 40q0 11 -10.5 22t-16 14.5t-20.5 11.5l-79 43q-93 47 -93 147q0 63 45 103.5t123 40.5q136 0 162 -117zM330 727h-68
l-32 -43l-29 -41h-4l-31 41l-33 43h-67l94 -161h77z" />
    <glyph glyph-name="uni0162" unicode="&#x162;" horiz-adv-x="385" 
d="M188 -159h-51v119h103v-101q0 -135 -103 -135v50q30 0 40.5 14t10.5 53zM265 574v-574h-145v574h-115v126h375v-126h-115z" />
    <glyph glyph-name="uni0163" unicode="&#x163;" horiz-adv-x="302" 
d="M198 645v-137h94v-110h-94v-240q0 -57 38 -57q25 0 46 25l6 -121q-43 -15 -82 -15q-68 0 -106 35.5t-38 98.5v274h-52v110h52v108zM161 -159h-51v119h103v-101q-1 -135 -103 -135v50q30 0 40.5 14t10.5 53z" />
    <glyph glyph-name="uni0164" unicode="&#x164;" horiz-adv-x="385" 
d="M265 574v-574h-145v574h-115v126h375v-126h-115zM256 919h68l-93 -161h-77l-94 161h67l33 -43l31 -41h4l29 41z" />
    <glyph glyph-name="uni0165" unicode="&#x165;" horiz-adv-x="446" 
d="M198 645v-137h94v-110h-94v-240q0 -57 38 -57q25 0 46 25l6 -121q-43 -15 -82 -15q-68 0 -106 35.5t-38 98.5v274h-52v110h52v108zM392 563h-50v137h103v-119q-1 -76 -28.5 -114.5t-74.5 -38.5v61q26 0 37 15t13 59z" />
    <glyph glyph-name="uni0166" unicode="&#x166;" horiz-adv-x="385" 
d="M120 361h-95v83h95v130h-115v126h375v-126h-115v-130h95v-83h-95v-361h-145v361z" />
    <glyph glyph-name="uni0167" unicode="&#x167;" horiz-adv-x="302" 
d="M62 254h-52v83h52v61h-52v110h52v108l136 29v-137h94v-110h-94v-61h93v-83h-93v-96q0 -57 38 -57q25 0 46 25l6 -121q-43 -15 -82 -15q-68 0 -106 35.5t-38 98.5v130z" />
    <glyph glyph-name="uni0168" unicode="&#x168;" horiz-adv-x="517" 
d="M312 203v497h145v-473q0 -114 -42 -176q-43 -61 -156 -61q-114 0 -156 61q-43 61 -43 176v473h145v-497q0 -46 11.5 -67.5t42.5 -21.5q30 0 41.5 22t11.5 67zM336 867h49q-3 -49 -22 -78t-48 -29q-23 0 -49 16t-36 16q-27 0 -30 -27h-49q3 49 22 77.5t48 28.5
q22 0 49 -18q26 -19 36 -19q25 0 30 33z" />
    <glyph glyph-name="uni0169" unicode="&#x169;" 
d="M424 508v-508h-123v40h-5q-32 -50 -97 -50q-71 0 -110 46t-39 136v336h136v-317q0 -31 6 -59q7 -32 43 -32q27 0 40 28t13 68v312h136zM305 675h49q-3 -49 -22 -78t-48 -29q-23 0 -49 16t-36 16q-27 0 -30 -27h-49q3 49 22 77.5t48 28.5q22 0 49 -18q26 -19 36 -19
q25 0 30 33z" />
    <glyph glyph-name="uni016A" unicode="&#x16a;" horiz-adv-x="517" 
d="M312 203v497h145v-473q0 -114 -42 -176q-43 -61 -156 -61q-114 0 -156 61q-43 61 -43 176v473h145v-497q0 -46 11.5 -67.5t42.5 -21.5q30 0 41.5 22t11.5 67zM353 775h-189v83h189v-83z" />
    <glyph glyph-name="uni016B" unicode="&#x16b;" 
d="M424 508v-508h-123v40h-5q-32 -50 -97 -50q-71 0 -110 46t-39 136v336h136v-317q0 -31 6 -59q7 -32 43 -32q27 0 40 28t13 68v312h136zM331 583h-189v83h189v-83z" />
    <glyph glyph-name="uni016C" unicode="&#x16c;" horiz-adv-x="517" 
d="M312 203v497h145v-473q0 -114 -42 -176q-43 -61 -156 -61q-114 0 -156 61q-43 61 -43 176v473h145v-497q0 -46 11.5 -67.5t42.5 -21.5q30 0 41.5 22t11.5 67zM259 766q-55 0 -87.5 33t-32.5 94h63q4 -51 57 -51q54 0 55 51h64q0 -61 -33 -94t-86 -33z" />
    <glyph glyph-name="uni016D" unicode="&#x16d;" 
d="M424 508v-508h-123v40h-5q-32 -50 -97 -50q-71 0 -110 46t-39 136v336h136v-317q0 -31 6 -59q7 -32 43 -32q27 0 40 28t13 68v312h136zM237 574q-55 0 -87.5 33t-32.5 94h63q4 -51 57 -51q54 0 55 51h64q0 -61 -33 -94t-86 -33z" />
    <glyph glyph-name="uni016E" unicode="&#x16e;" horiz-adv-x="517" 
d="M312 203v497h145v-473q0 -114 -42 -176q-43 -61 -156 -61q-114 0 -156 61q-43 61 -43 176v473h145v-497q0 -46 11.5 -67.5t42.5 -21.5q30 0 41.5 22t11.5 67zM180 926q32 33 78 33t79 -33q33 -35 33 -79q0 -46 -32.5 -78t-79.5 -32q-46 0 -78.5 32t-32.5 78q0 45 33 79z
M258 904q-23 0 -39.5 -16.5t-16.5 -40.5q0 -23 16.5 -39t39.5 -16q24 0 40.5 16t16.5 39q0 24 -16.5 40.5t-40.5 16.5z" />
    <glyph glyph-name="uni016F" unicode="&#x16f;" 
d="M424 508v-508h-123v40h-5q-32 -50 -97 -50q-71 0 -110 46t-39 136v336h136v-317q0 -31 6 -59q7 -32 43 -32q27 0 40 28t13 68v312h136zM158 734q32 33 78 33t79 -33q33 -34 33 -79q0 -46 -32.5 -78t-79.5 -32q-46 0 -78.5 32t-32.5 78q0 45 33 79zM236 712
q-23 0 -39.5 -16.5t-16.5 -40.5q0 -23 16.5 -39t39.5 -16q24 0 40.5 16t16.5 39q0 24 -16.5 40.5t-40.5 16.5z" />
    <glyph glyph-name="uni0170" unicode="&#x170;" horiz-adv-x="517" 
d="M312 203v497h145v-473q0 -114 -42 -176q-43 -61 -156 -61q-114 0 -156 61q-43 61 -43 176v473h145v-497q0 -46 11.5 -67.5t42.5 -21.5q30 0 41.5 22t11.5 67zM309 759l66 160h93l-97 -160h-62zM129 759l66 160h93l-97 -160h-62z" />
    <glyph glyph-name="uni0171" unicode="&#x171;" 
d="M424 508v-508h-123v40h-5q-32 -50 -97 -50q-71 0 -110 46t-39 136v336h136v-317q0 -31 6 -59q7 -32 43 -32q27 0 40 28t13 68v312h136zM117 567l66 160h93l-97 -160h-62zM297 567l66 160h93l-97 -160h-62z" />
    <glyph glyph-name="uni0172" unicode="&#x172;" horiz-adv-x="517" 
d="M327 -129v-80q-66 0 -103 25t-37 72q0 53 47 103q-100 7 -137 67t-37 169v473h145v-497q0 -46 11.5 -67.5t42.5 -21.5q30 0 41.5 22t11.5 67v497h145v-473q0 -107 -35.5 -165t-120.5 -69q-30 -38 -30 -79q0 -19 14.5 -31t41.5 -12z" />
    <glyph glyph-name="uni0173" unicode="&#x173;" 
d="M424 -129v-80q-66 0 -103 25t-37 72q0 56 56 112h-39v40h-5q-32 -50 -97 -50q-71 0 -110 46t-39 136v336h136v-317q0 -31 6 -59q7 -32 43 -32q27 0 40 28t13 68v312h136v-508h-20q-36 -42 -36 -86q0 -19 14.5 -31t41.5 -12z" />
    <glyph glyph-name="uni0174" unicode="&#x174;" horiz-adv-x="572" 
d="M74 0l-74 700h141l32 -373l5 -93h5l8 94l22 187h147l22 -187l7 -94h5l6 94l31 372h141l-74 -700h-186l-19 248l-5 94h-5l-4 -94l-19 -248h-186zM248 919h77l93 -161h-68l-32 43l-29 41h-4l-31 -41l-33 -43h-67z" />
    <glyph glyph-name="uni0175" unicode="&#x175;" horiz-adv-x="508" 
d="M420 0h-134l-15 93l-14 93h-5l-14 -93l-15 -93h-134l-89 508h131l31 -184l12 -103h5l14 103l10 62h101l9 -62l15 -93h5l14 93l30 184h131zM216 727h77l93 -161h-68l-32 43l-29 41h-4l-31 -41l-33 -43h-67z" />
    <glyph glyph-name="uni0176" unicode="&#x176;" horiz-adv-x="433" 
d="M362 125v-125h-291v125h73v130l-144 445h151l42 -157l21 -94h5l22 94l42 157h150l-144 -445v-130h73zM178 919h77l93 -161h-68l-32 43l-29 41h-4l-31 -41l-33 -43h-67z" />
    <glyph glyph-name="uni0177" unicode="&#x177;" horiz-adv-x="418" 
d="M56 -199l6 110q16 -10 33 -10q31 0 42 39l16 63l-153 505h142l49 -160l23 -93h5l66 253h133l-142 -543q-20 -74 -47 -118q-34 -56 -117 -56q-27 0 -56 10zM171 727h77l93 -161h-68l-32 43l-29 41h-4l-31 -41l-33 -43h-67z" />
    <glyph glyph-name="uni0178" unicode="&#x178;" horiz-adv-x="433" 
d="M362 125v-125h-291v125h73v130l-144 445h151l42 -157l21 -94h5l22 94l42 157h150l-144 -445v-130h73zM182 764h-81v99h81v-99zM332 764h-81v99h81v-99z" />
    <glyph glyph-name="uni0179" unicode="&#x179;" horiz-adv-x="395" 
d="M220 574h-191v126h361v-105l-172 -375l-43 -89v-5h215v-126h-385v106l172 374l43 89v5zM178 759l66 160h93l-97 -160h-62z" />
    <glyph glyph-name="uni017A" unicode="&#x17a;" horiz-adv-x="366" 
d="M361 105v-105h-356v86l132 224l54 88v5h-180v105h350v-87l-131 -223l-60 -89v-4h191zM153 567l66 160h93l-97 -160h-62z" />
    <glyph glyph-name="uni017B" unicode="&#x17b;" horiz-adv-x="395" 
d="M220 574h-191v126h361v-105l-172 -375l-43 -89v-5h215v-126h-385v106l172 374l43 89v5zM248 764h-81v99h81v-99z" />
    <glyph glyph-name="uni017C" unicode="&#x17c;" horiz-adv-x="366" 
d="M361 105v-105h-356v86l132 224l54 88v5h-180v105h350v-87l-131 -223l-60 -89v-4h191zM233 572h-81v99h81v-99z" />
    <glyph glyph-name="uni017D" unicode="&#x17d;" horiz-adv-x="395" 
d="M220 574h-191v126h361v-105l-172 -375l-43 -89v-5h215v-126h-385v106l172 374l43 89v5zM271 919h68l-93 -161h-77l-94 161h67l33 -43l31 -41h4l29 41z" />
    <glyph glyph-name="uni017E" unicode="&#x17e;" horiz-adv-x="366" 
d="M361 105v-105h-356v86l132 224l54 88v5h-180v105h350v-87l-131 -223l-60 -89v-4h191zM257 727h68l-93 -161h-77l-94 161h67l33 -43l31 -41h4l29 41z" />
    <glyph glyph-name="uni0192" unicode="&#x192;" horiz-adv-x="421" 
d="M31 -36l62 387h-59l17 106h59l15 94q12 75 67 117t133 42q53 0 96 -17l-41 -104q-30 11 -49 11q-62 0 -71 -63l-12 -80h91l-17 -106h-91l-64 -401q-12 -75 -67.5 -117t-133.5 -42q-53 0 -96 17l41 104q30 -11 49 -11q60 0 71 63z" />
    <glyph glyph-name="uni0218" unicode="&#x218;" horiz-adv-x="459" 
d="M417 553l-131 -42q-6 42 -18.5 58.5t-39.5 16.5q-53 0 -53 -60q4 -48 47 -69l94 -55q65 -38 94 -85t28 -115q-2 -94 -58 -152q-58 -60 -156 -60q-94 0 -149 53.5t-65 149.5l135 26q1 -49 24 -77.5t57 -28.5q36 0 55 21t19 58q0 45 -42 71l-103 62q-118 70 -118 188
q0 83 51 140t140 57q79 0 127.5 -41.5t61.5 -115.5zM231 -159h-51v119h103v-101q-1 -135 -103 -135v50q30 0 40.5 14t10.5 53z" />
    <glyph glyph-name="uni0219" unicode="&#x219;" horiz-adv-x="402" 
d="M361 401l-131 -32q-3 43 -35 43q-33 0 -33 -31q0 -25 37 -41l70 -34q113 -53 113 -157q0 -70 -51 -114.5t-136 -44.5q-165 0 -185 147l132 24q8 -65 58 -65t50 40q0 11 -10.5 22t-16 14.5t-20.5 11.5l-79 43q-93 47 -93 147q0 63 45 103.5t123 40.5q137 0 162 -117z
M191 -159h-51v119h103v-101q-1 -135 -103 -135v50q30 0 40.5 14t10.5 53z" />
    <glyph glyph-name="uni02C6" unicode="&#x2c6;" horiz-adv-x="364" 
d="M144 727h77l93 -161h-68l-32 43l-29 41h-4l-31 -41l-33 -43h-67z" />
    <glyph glyph-name="uni02C7" unicode="&#x2c7;" horiz-adv-x="364" 
d="M246 727h68l-93 -161h-77l-94 161h67l33 -43l31 -41h4l29 41z" />
    <glyph glyph-name="uni02D8" unicode="&#x2d8;" horiz-adv-x="339" 
d="M170 574q-55 0 -87.5 33t-32.5 94h63q5 -51 57 -51q54 0 55 51h64q0 -61 -33 -94t-86 -33z" />
    <glyph glyph-name="uni02D9" unicode="&#x2d9;" horiz-adv-x="181" 
d="M131 572h-81v99h81v-99z" />
    <glyph glyph-name="uni02DA" unicode="&#x2da;" horiz-adv-x="323" 
d="M83 734q32 33 78 33t79 -33q33 -34 33 -79q0 -46 -32.5 -78t-79.5 -32q-46 0 -78.5 32t-32.5 78q0 45 33 79zM161 712q-23 0 -39.5 -16.5t-16.5 -40.5q0 -23 16.5 -39t39.5 -16q24 0 40.5 16t16.5 39q0 24 -16.5 40.5t-40.5 16.5z" />
    <glyph glyph-name="uni02DB" unicode="&#x2db;" horiz-adv-x="240" 
d="M190 -129v-80q-66 0 -103 25t-37 72q0 59 69 124h63q-48 -47 -48 -98q0 -19 14.5 -31t41.5 -12z" />
    <glyph glyph-name="uni02DC" unicode="&#x2dc;" horiz-adv-x="334" 
d="M235 675h49q-3 -49 -22 -78t-48 -29q-23 0 -49 16t-36 16q-27 0 -30 -27h-49q3 49 22 77.5t48 28.5q22 0 49 -18q26 -19 36 -19q25 0 30 33z" />
    <glyph glyph-name="uni02DD" unicode="&#x2dd;" horiz-adv-x="439" 
d="M50 567l66 160h93l-97 -160h-62zM230 567l66 160h93l-97 -160h-62z" />
    <glyph glyph-name="uni03C0" unicode="&#x3c0;" horiz-adv-x="505" 
d="M50 508h405v-71h-51v-437h-88v437h-126v-437h-89v437h-51v71z" />
    <glyph glyph-name="uni0401" unicode="&#x401;" horiz-adv-x="408" 
d="M398 125v-125h-338v700h338v-125h-192v-144h160v-124h-160v-182h192zM194 764h-81v99h81v-99zM344 764h-81v99h81v-99z" />
    <glyph glyph-name="uni0402" unicode="&#x402;" horiz-adv-x="535" 
d="M220 574v-119h4q44 14 91 14q81 0 130.5 -62t49.5 -167q0 -107 -48 -173q-49 -67 -123 -67h-67l7 124h15q30 0 48 31t18 84q0 106 -83 106q-25 0 -42 -7v-338h-145v574h-65v126h325v-126h-115z" />
    <glyph glyph-name="uni0403" unicode="&#x403;" horiz-adv-x="402" 
d="M60 700h332v-126h-187v-574h-145v700zM184 767l66 160h93l-97 -160h-62z" />
    <glyph glyph-name="uni0404" unicode="&#x404;" horiz-adv-x="494" 
d="M320 252l141 -26q-7 -80 -26 -133q-13 -35 -33 -55q-50 -48 -142 -48q-156 0 -198 148q-23 77 -23 212q0 134 24 212q13 46 38 79q52 69 159 69q93 0 137 -44t54 -135l-137 -44q-3 24 -3 43q-3 23 -9 34q-16 22 -42 22q-35 0 -51 -39.5t-19 -121.5h129v-108h-130
q1 -107 16 -155t55 -48q42 0 51 52q1 8 7 62q0 4 0.5 9.5t1 9t0.5 5.5z" />
    <glyph glyph-name="uni0405" unicode="&#x405;" horiz-adv-x="450" 
d="M408 553l-131 -42q-6 42 -18.5 58.5t-39.5 16.5q-53 0 -53 -60q4 -48 47 -69l94 -55q65 -38 94 -85t28 -115q-2 -94 -58 -152q-59 -60 -156 -60q-94 0 -149 53.5t-65 149.5l135 26q1 -49 24 -77.5t57 -28.5q36 0 55 21t19 58q0 45 -42 71l-103 62q-118 70 -118 188
q0 83 51 140t140 57q79 0 127.5 -41.5t61.5 -115.5z" />
    <glyph glyph-name="uni0406" unicode="&#x406;" horiz-adv-x="266" 
d="M60 700h146v-700h-146v700z" />
    <glyph glyph-name="uni0407" unicode="&#x407;" horiz-adv-x="291" 
d="M72 700h146v-700h-146v700zM111 772h-81v99h81v-99zM261 772h-81v99h81v-99z" />
    <glyph glyph-name="uni0408" unicode="&#x408;" horiz-adv-x="422" 
d="M13 188l141 26v-43q0 -28 5.5 -41t25.5 -16q20 0 26 13t6 44v403h-74v126h219v-476q0 -110 -30 -167q-36 -67 -147 -67q-98 0 -133 50q-36 49 -39 148z" />
    <glyph glyph-name="uni0409" unicode="&#x409;" horiz-adv-x="732" 
d="M515 0h-159v574h-90q-1 -161 -22 -273q-58 -302 -217 -310l-17 136q66 0 107 213q18 99 18 360h366v-268h13q132 0 173 -63q35 -56 35 -153q0 -63 -11.5 -105t-43.5 -71q-50 -40 -152 -40zM514 308h-13v-184h13q58 0 58 92t-58 92z" />
    <glyph glyph-name="uni040A" unicode="&#x40a;" horiz-adv-x="694" 
d="M477 0h-159v307h-113v-307h-145v700h145v-267h113v267h145v-268h13q132 0 173 -63q35 -56 35 -153q0 -63 -11.5 -105t-43.5 -71q-50 -40 -152 -40zM476 308h-13v-184h13q58 0 58 92t-58 92z" />
    <glyph glyph-name="uni040B" unicode="&#x40b;" horiz-adv-x="530" 
d="M480 260v-260h-145v208q0 136 -82 136q-17 0 -32 -3v-341h-145v574h-66v126h325v-126h-114v-114h4q39 9 80 9q85 0 130 -53.5t45 -155.5z" />
    <glyph glyph-name="uni040C" unicode="&#x40c;" horiz-adv-x="512" 
d="M347 366l45 -89l120 -277h-161l-122 301h-24v-301h-145v700h145v-279h24l115 279h151l-104 -240l-44 -89v-5zM242 767l66 160h93l-97 -160h-62z" />
    <glyph glyph-name="uni040E" unicode="&#x40e;" horiz-adv-x="459" 
d="M118 114q32 0 42 36l13 50l-163 500h153l50 -151l23 -94h5l65 245h143l-142 -535q-25 -95 -69 -138q-41 -37 -100 -37q-26 0 -61 11l7 123q16 -10 34 -10zM240 774q-55 0 -87.5 33t-32.5 94h63q5 -51 57 -51q54 0 55 51h64q0 -61 -33 -94t-86 -33z" />
    <glyph glyph-name="uni040F" unicode="&#x40f;" horiz-adv-x="523" 
d="M318 126v574h145v-700h-140v-166h-124v166h-139v700h145v-574h113z" />
    <glyph glyph-name="uni0410" unicode="&#x410;" horiz-adv-x="477" 
d="M175 137l-24 -137h-141l141 700h175l141 -700h-148l-24 137h-120zM250 392l-14 94h-5l-12 -94l-24 -135h79z" />
    <glyph glyph-name="uni0411" unicode="&#x411;" horiz-adv-x="486" 
d="M60 700h352v-126h-207v-142h53q132 0 173 -63q35 -56 35 -153q0 -63 -11.5 -105t-43.5 -71q-50 -40 -152 -40h-199v700zM258 308h-53v-184h53q58 0 58 92t-58 92z" />
    <glyph glyph-name="uni0412" unicode="&#x412;" horiz-adv-x="485" 
d="M60 0v700h196q117 0 154 -56q32 -49 32 -136q0 -46 -23 -83.5t-62 -46.5v-5q49 -9 78.5 -55t29.5 -105q0 -96 -35 -150q-42 -63 -173 -63h-197zM254 310h-49v-188h49q61 0 61 93q0 95 -61 95zM244 578h-39v-151h39q48 0 48 75q0 76 -48 76z" />
    <glyph glyph-name="uni0413" unicode="&#x413;" horiz-adv-x="402" 
d="M60 700h332v-126h-187v-574h-145v700z" />
    <glyph glyph-name="uni0414" unicode="&#x414;" horiz-adv-x="640" 
d="M10 -166v292h37q67 0 107 214q18 99 18 360h366v-574h92v-292h-124v166h-372v-166h-124zM224 126h169v448h-90q-1 -161 -22 -273q-21 -106 -57 -175z" />
    <glyph glyph-name="uni0415" unicode="&#x415;" horiz-adv-x="408" 
d="M398 125v-125h-338v700h338v-125h-192v-144h160v-124h-160v-182h192z" />
    <glyph glyph-name="uni0416" unicode="&#x416;" horiz-adv-x="683" 
d="M168 0h-158l97 277l35 89v5l-30 89l-70 240h143l67 -279h17v279h146v-279h15l68 279h143l-70 -240l-30 -89v-5l35 -89l97 -277h-158l-83 301h-17v-301h-146v301h-18z" />
    <glyph glyph-name="uni0417" unicode="&#x417;" horiz-adv-x="466" 
d="M344 376v-5q39 -18 65 -62t26 -94q1 -92 -55 -159q-56 -66 -152 -66q-180 0 -211 185l141 24q6 -45 20.5 -65.5t45.5 -20.5q25 0 41.5 18.5t20.5 41.5q4 17 4 40q0 40 -18 68t-54 28h-71v121h71q26 0 39 28q14 28 14 53q0 78 -46 78q-22 0 -35 -17.5t-20 -58.5l-139 33
q18 78 68 121t129 43q87 0 140 -52q53 -53 53 -137q0 -45 -20.5 -83.5t-56.5 -61.5z" />
    <glyph glyph-name="uni0418" unicode="&#x418;" horiz-adv-x="523" 
d="M205 700v-226l-5 -94h5l113 219v101h145v-700h-145v230l5 94h-5l-113 -218v-106h-145v700h145z" />
    <glyph glyph-name="uni0419" unicode="&#x419;" horiz-adv-x="523" 
d="M205 700v-226l-5 -94h5l113 219v101h145v-700h-145v230l5 94h-5l-113 -218v-106h-145v700h145zM262 774q-55 0 -87.5 33t-32.5 94h63q5 -51 57 -51q54 0 55 51h64q0 -61 -33 -94t-86 -33z" />
    <glyph glyph-name="uni041A" unicode="&#x41a;" horiz-adv-x="522" 
d="M347 366l45 -89l120 -277h-161l-122 301h-24v-301h-145v700h145v-279h24l115 279h151l-104 -240l-44 -89v-5z" />
    <glyph glyph-name="uni041B" unicode="&#x41b;" horiz-adv-x="561" 
d="M501 0h-145v574h-90q-1 -161 -22 -273q-58 -302 -217 -310l-17 136q66 0 107 213q18 99 18 360h366v-700z" />
    <glyph glyph-name="uni041C" unicode="&#x41c;" horiz-adv-x="636" 
d="M194 475l6 -94v-381h-140v700h194l44 -189l17 -94h5l18 94l44 189h194v-700h-140v381l6 94h-5l-63 -285h-112l-63 285h-5z" />
    <glyph glyph-name="uni041D" unicode="&#x41d;" horiz-adv-x="523" 
d="M463 700v-700h-145v307h-113v-307h-145v700h145v-267h113v267h145z" />
    <glyph glyph-name="uni041E" unicode="&#x41e;" horiz-adv-x="544" 
d="M172 691q41 19 100 19t101 -19q42 -20 67 -50q46 -57 59 -177q5 -55 5 -115q0 -130 -24 -211q-15 -50 -40 -79q-56 -69 -168 -69q-87 2 -136.5 39t-70.5 109q-25 80 -25 211q0 132 25 213q28 94 107 129zM339 527q-17 59 -67 59q-51 0 -66 -59q-16 -58 -16 -178
q0 -103 13 -164q15 -71 69 -71q55 0 70 71q12 56 12 164q0 118 -15 178z" />
    <glyph glyph-name="uni041F" unicode="&#x41f;" horiz-adv-x="523" 
d="M463 700v-700h-145v574h-113v-574h-145v700h403z" />
    <glyph glyph-name="uni0420" unicode="&#x420;" horiz-adv-x="485" 
d="M205 268v-268h-145v700h198q149 0 187 -87q20 -50 20 -129q0 -97 -35 -153q-41 -63 -173 -63h-52zM257 576h-52v-184h52q58 0 58 92t-58 92z" />
    <glyph glyph-name="uni0421" unicode="&#x421;" horiz-adv-x="494" 
d="M321 252l141 -26q-7 -80 -26 -133q-13 -35 -33 -55q-50 -48 -142 -48q-156 0 -198 148q-23 77 -23 212q0 134 24 212q13 46 38 79q52 69 159 69q93 0 137 -44t54 -135l-137 -44q-3 24 -3 43q-3 23 -9 34q-17 22 -42 22q-24 0 -37.5 -17.5t-22.5 -51.5q-10 -36 -10 -103
q-1 -17 -1 -64q0 -79 4 -118q1 -24 7 -49q9 -34 22.5 -51.5t37.5 -17.5q42 0 51 52q1 8 7 62q0 4 0.5 9.5t1 9t0.5 5.5z" />
    <glyph glyph-name="uni0422" unicode="&#x422;" horiz-adv-x="385" 
d="M265 574v-574h-145v574h-115v126h375v-126h-115z" />
    <glyph glyph-name="uni0423" unicode="&#x423;" horiz-adv-x="459" 
d="M118 114q32 0 42 36l13 50l-163 500h153l50 -151l23 -94h5l65 245h143l-142 -535q-25 -95 -69 -138q-41 -37 -100 -37q-26 0 -61 11l7 123q16 -10 34 -10z" />
    <glyph glyph-name="uni0424" unicode="&#x424;" horiz-adv-x="634" 
d="M244 700h146v-87q101 0 150 -48q54 -54 54 -215q0 -159 -54 -212q-49 -49 -150 -49v-89h-146v89q-54 0 -88.5 11t-61.5 38q-54 53 -54 212q0 161 54 215q49 48 150 48v87zM445 351q0 77 -13 107t-42 31v-276q29 1 42 30.5t13 107.5zM189 351q0 -78 13 -107.5t42 -30.5
v276q-29 -1 -42 -31t-13 -107z" />
    <glyph glyph-name="uni0425" unicode="&#x425;" horiz-adv-x="453" 
d="M189 121l-44 -121h-145l142 358l-126 342h155l32 -95l27 -94h5l26 94l30 95h146l-125 -341l141 -359h-157l-43 121l-29 94h-5z" />
    <glyph glyph-name="uni0426" unicode="&#x426;" horiz-adv-x="565" 
d="M318 126v574h145v-574h92v-292h-124v166h-371v700h145v-574h113z" />
    <glyph glyph-name="uni0427" unicode="&#x427;" horiz-adv-x="494" 
d="M30 448v252h145v-210q0 -135 82 -135q18 0 32 2v343h145v-700h-145v240h-5q-33 -9 -79 -9q-175 0 -175 217z" />
    <glyph glyph-name="uni0428" unicode="&#x428;" horiz-adv-x="684" 
d="M270 126v574h144v-574h65v574h145v-700h-564v700h145v-574h65z" />
    <glyph glyph-name="uni0429" unicode="&#x429;" horiz-adv-x="726" 
d="M479 126v574h145v-574h92v-292h-124v166h-532v700h145v-574h65v574h144v-574h65z" />
    <glyph glyph-name="uni042A" unicode="&#x42a;" horiz-adv-x="499" 
d="M5 574v126h224v-268h52q132 0 173 -63q35 -56 35 -153q0 -63 -11.5 -105t-43.5 -71q-50 -40 -152 -40h-199v574h-78zM281 308h-52v-184h52q58 0 58 92t-58 92z" />
    <glyph glyph-name="uni042B" unicode="&#x42b;" horiz-adv-x="722" 
d="M60 0v700h146v-268h52q132 0 173 -63q35 -56 35 -153q0 -63 -11.5 -105t-43.5 -71q-50 -40 -152 -40h-199zM662 700v-700h-146v700h146zM258 308h-52v-184h52q58 0 58 92t-58 92z" />
    <glyph glyph-name="uni042C" unicode="&#x42c;" horiz-adv-x="476" 
d="M60 0v700h146v-268h52q132 0 173 -63q35 -56 35 -153q0 -63 -11.5 -105t-43.5 -71q-50 -40 -152 -40h-199zM258 308h-52v-184h52q58 0 58 92t-58 92z" />
    <glyph glyph-name="uni042D" unicode="&#x42d;" horiz-adv-x="494" 
d="M304 317h-130v108h129q-3 81 -19 121t-51 40q-39 0 -47 -38q-4 -15 -5 -39q0 -3 -0.5 -7t-0.5 -6.5t-0.5 -5t-0.5 -3.5l-137 44q10 91 54 135t137 44q152 0 198 -148q23 -79 23 -212q0 -135 -23 -212q-13 -46 -38 -79q-54 -69 -160 -69q-76 4 -116.5 28t-58.5 75
q-19 53 -26 133l141 26q8 -89 15 -107q12 -31 45 -31q39 0 54.5 49t16.5 154z" />
    <glyph glyph-name="uni042E" unicode="&#x42e;" horiz-adv-x="699" 
d="M457 710q138 0 180 -148q22 -78 22 -213q2 -202 -58 -290q-49 -69 -144 -69q-58 0 -97.5 23.5t-61 69.5t-31.5 99t-12 126h-50v-308h-145v700h145v-270h52q7 138 54 209t146 71zM499 525q-10 61 -42 61q-31 0 -41 -61q-11 -64 -11 -176q0 -120 11.5 -177.5t40.5 -57.5
t40.5 57.5t11.5 177.5q0 117 -10 176z" />
    <glyph glyph-name="uni042F" unicode="&#x42f;" horiz-adv-x="503" 
d="M443 700v-700h-145v283q-29 -2 -50.5 -21t-30.5 -43q-9 -28 -17 -60l-38 -159h-152l52 197q22 89 81 120v6q-105 34 -105 169q0 95 34 147q40 61 167 61h204zM244 405h54v174h-54q-56 0 -56 -87t56 -87z" />
    <glyph glyph-name="uni0430" unicode="&#x430;" horiz-adv-x="484" 
d="M179 369l-127 24q32 125 179 125q177 0 177 -192v-176q0 -51 7 -83t29 -67h-134q-12 23 -18 40h-5q-41 -50 -105 -50q-69 0 -110 44q-42 44 -42 108q0 148 161 171q59 9 81 16q-2 84 -49 84q-17 0 -29.5 -13t-14.5 -31zM272 234q-4 -1 -47 -14q-53 -17 -53 -75
q0 -49 38 -49q19 0 32 15t19 39t8.5 44.5t2.5 39.5z" />
    <glyph glyph-name="uni0431" unicode="&#x431;" horiz-adv-x="451" 
d="M230 -10h-10q-190 0 -190 332q0 186 58 274q34 49 77 67.5t110 19.5q12 0 17.5 6t5.5 21h107q-4 -64 -33.5 -98t-76.5 -34q-71 0 -110 -29t-51 -103h4q15 33 46.5 52.5t66.5 19.5q170 0 170 -264t-191 -264zM230 408q-34 0 -45.5 -32.5t-11.5 -119.5q0 -88 11.5 -122
t45.5 -34q35 0 46.5 33.5t11.5 121.5t-11.5 120.5t-46.5 32.5z" />
    <glyph glyph-name="uni0432" unicode="&#x432;" horiz-adv-x="444" 
d="M50 0v508h180q105 0 140 -35q34 -35 34 -104q0 -34 -21.5 -60.5t-58.5 -33.5v-4q46 -7 73 -40t27 -76q0 -69 -32 -109q-37 -46 -161 -46h-181zM238 219h-53v-116h53q48 0 48 57q0 59 -48 59zM230 404h-45v-90h45q36 0 36 45t-36 45z" />
    <glyph glyph-name="uni0433" unicode="&#x433;" horiz-adv-x="375" 
d="M186 0h-136v508h315v-110h-179v-398z" />
    <glyph glyph-name="uni0434" unicode="&#x434;" horiz-adv-x="538" 
d="M10 -119v229h42q43 6 74 157q10 57 10 241h321v-398h71v-229h-110v119h-298v-119h-110zM245 219q-10 -56 -38 -109h114v288h-59q-3 -102 -17 -179z" />
    <glyph glyph-name="uni0435" unicode="&#x435;" horiz-adv-x="433" 
d="M411 223h-241q4 -126 55 -126q24 0 35.5 17.5t16.5 57.5l131 -25q-15 -80 -58 -118.5t-125 -38.5q-195 0 -195 264q0 132 47 198t148 66q104 0 148.5 -73.5t37.5 -221.5zM171 319h99q-2 50 -12 71.5t-33 21.5q-26 0 -38 -22t-16 -71z" />
    <glyph glyph-name="uni0436" unicode="&#x436;" horiz-adv-x="593" 
d="M228 337v171h137v-171h9l63 171h137l-47 -118l-40 -88v-5l33 -88l68 -209h-144l-67 226h-12v-226h-137v226h-13l-66 -226h-144l68 209l33 88v5l-40 88l-47 118h137l62 -171h10z" />
    <glyph glyph-name="uni0437" unicode="&#x437;" horiz-adv-x="393" 
d="M299 274v-5q36 -14 59 -46.5t23 -68.5q1 -67 -50 -115q-50 -49 -137 -49q-160 0 -185 132l132 24q7 -51 52 -51q46 0 46 58q0 65 -53 65h-62v100h52q28 0 38.5 18t10.5 37q0 41 -32 41q-29 0 -37 -41l-131 31q34 114 172 114q76 0 123 -38t47 -100q0 -70 -68 -106z" />
    <glyph glyph-name="uni0438" unicode="&#x438;" horiz-adv-x="475" 
d="M186 0h-136v508h136v-140l-5 -93h5l103 151v82h136v-508h-136v136l5 93h-5l-103 -152v-77z" />
    <glyph glyph-name="uni0439" unicode="&#x439;" horiz-adv-x="475" 
d="M186 0h-136v508h136v-140l-5 -93h5l103 151v82h136v-508h-136v136l5 93h-5l-103 -152v-77zM240 574q-55 0 -87.5 33t-32.5 94h63q5 -51 57 -51q54 0 55 51h64q0 -61 -33 -94t-86 -33z" />
    <glyph glyph-name="uni043A" unicode="&#x43a;" horiz-adv-x="455" 
d="M50 0v508h136v-172h11l101 172h146l-72 -124l-56 -88v-5l45 -88l94 -203h-150l-105 227h-14v-227h-136z" />
    <glyph glyph-name="uni043B" unicode="&#x43b;" horiz-adv-x="468" 
d="M97 508h321v-508h-136v398h-59q-3 -102 -17 -179q-25 -126 -95 -191q-41 -38 -89 -38l-12 124q49 8 77 153q10 57 10 241z" />
    <glyph glyph-name="uni043C" unicode="&#x43c;" horiz-adv-x="578" 
d="M528 0h-131v255l5 93h-5l-51 -210h-114l-51 210h-5l5 -93v-255h-131v508h190l29 -132l17 -93h5l18 93l29 132h190v-508z" />
    <glyph glyph-name="uni043D" unicode="&#x43d;" horiz-adv-x="475" 
d="M186 0h-136v508h136v-184h103v184h136v-508h-136v214h-103v-214z" />
    <glyph glyph-name="uni043E" unicode="&#x43e;" horiz-adv-x="458" 
d="M228 518q104 0 152 -66t48 -198q0 -264 -200 -264q-198 0 -198 264q0 132 47.5 198t150.5 66zM228 408q-34 0 -45 -32.5t-11 -120.5q0 -86 10.5 -118.5t45.5 -36.5q35 0 46.5 33.5t11.5 120.5t-11.5 120.5t-46.5 33.5z" />
    <glyph glyph-name="uni043F" unicode="&#x43f;" horiz-adv-x="475" 
d="M186 0h-136v508h375v-508h-136v398h-103v-398z" />
    <glyph glyph-name="uni0440" unicode="&#x440;" horiz-adv-x="473" 
d="M50 508h124v-40h4q35 50 98 50q90 0 128.5 -65.5t38.5 -199.5t-38.5 -198.5t-129.5 -64.5q-52 0 -85 34h-4v-233h-136v717zM241 408q-27 0 -41 -30t-14 -72v-94q0 -112 55 -112q35 0 47.5 33.5t12.5 119.5t-12.5 120.5t-47.5 34.5z" />
    <glyph glyph-name="uni0441" unicode="&#x441;" horiz-adv-x="426" 
d="M396 382l-128 -42q-3 39 -12 53.5t-34 14.5q-31 0 -40.5 -32t-9.5 -122t9.5 -122t40.5 -32q27 0 36.5 18.5t14.5 74.5l132 -24q-10 -94 -52 -136.5t-131 -42.5q-192 0 -192 264t192 264q78 0 118 -32t56 -104z" />
    <glyph glyph-name="uni0442" unicode="&#x442;" horiz-adv-x="345" 
d="M240 0h-136v398h-99v110h335v-110h-100v-398z" />
    <glyph glyph-name="uni0443" unicode="&#x443;" horiz-adv-x="418" 
d="M56 -199l6 110q16 -10 33 -10q31 0 42 39l16 63l-153 505h142l49 -160l23 -93h5l66 253h133l-142 -543q-20 -74 -47 -118q-34 -56 -117 -56q-27 0 -56 10z" />
    <glyph glyph-name="uni0444" unicode="&#x444;" horiz-adv-x="600" 
d="M368 -210h-136v217h-5q-23 -17 -56 -17q-52 0 -85 35.5t-45 93.5q-11 58 -11 135q0 86 12 139t43 88q31 37 86 37q33 0 56 -17h5v199h136v-199h4q26 17 57 17q52 0 85 -35.5t45 -93.5q11 -58 11 -135q0 -85 -11.5 -138.5t-42.5 -88.5q-33 -37 -87 -37q-31 0 -57 17h-4
v-217zM387 100q43 0 43 154t-43 154q-11 0 -19 -5v-299q7 -4 19 -4zM213 408q-43 0 -43 -154t43 -154q12 0 19 4v299q-8 5 -19 5z" />
    <glyph glyph-name="uni0445" unicode="&#x445;" horiz-adv-x="441" 
d="M424 508l-128 -240l145 -268h-155l-23 42l-44 98h-5l-44 -98l-23 -42h-147l140 260l-132 248h154l11 -21l43 -91h6l44 91l11 21h147z" />
    <glyph glyph-name="uni0446" unicode="&#x446;" horiz-adv-x="506" 
d="M386 0h-336v508h136v-398h103v398h136v-398h71v-229h-110v119z" />
    <glyph glyph-name="uni0447" unicode="&#x447;" horiz-adv-x="435" 
d="M385 0h-136v170h-5q-34 -12 -80 -12q-80 0 -117 45t-37 138v167h136v-134q0 -62 12.5 -84t42.5 -22q28 0 48 14v226h136v-508z" />
    <glyph glyph-name="uni0448" unicode="&#x448;" horiz-adv-x="628" 
d="M578 0h-528v508h136v-398h61v398h134v-398h61v398h136v-508z" />
    <glyph glyph-name="uni0449" unicode="&#x449;" horiz-adv-x="659" 
d="M539 0h-489v508h136v-398h61v398h134v-398h61v398h136v-398h71v-229h-110v119z" />
    <glyph glyph-name="uni044A" unicode="&#x44a;" horiz-adv-x="428" 
d="M5 508h199v-184h58q84 0 120 -40.5t36 -120.5q0 -82 -35.5 -122.5t-120.5 -40.5h-194v398h-63v110zM228 223h-24v-122h24q26 0 37 14.5t11 47.5q0 60 -48 60z" />
    <glyph glyph-name="uni044B" unicode="&#x44b;" horiz-adv-x="616" 
d="M244 0h-194v508h136v-184h58q84 0 120 -40.5t36 -120.5q0 -82 -35.5 -122.5t-120.5 -40.5zM566 0h-136v508h136v-508zM210 223h-24v-122h24q26 0 37 14.5t11 47.5q0 60 -48 60z" />
    <glyph glyph-name="uni044C" unicode="&#x44c;" horiz-adv-x="405" 
d="M244 0h-194v508h136v-184h58q84 0 120 -40.5t36 -120.5q0 -82 -35.5 -122.5t-120.5 -40.5zM210 223h-24v-122h24q26 0 37 14.5t11 47.5q0 60 -48 60z" />
    <glyph glyph-name="uni044D" unicode="&#x44d;" horiz-adv-x="426" 
d="M158 340l-128 42q16 72 56 104t118 32q192 0 192 -264t-192 -264q-89 0 -131 42.5t-52 136.5l132 24q5 -56 14.5 -74.5t36.5 -18.5t37.5 25.5t11.5 87.5h-86v96h86q-2 54 -12.5 76.5t-36.5 22.5q-25 0 -34 -14.5t-12 -53.5z" />
    <glyph glyph-name="uni044E" unicode="&#x44e;" horiz-adv-x="613" 
d="M396 518q97 0 142 -66t45 -198q0 -264 -187 -264q-168 0 -184 214h-26v-204h-136v508h136v-196h27q20 206 183 206zM432 372q-10 36 -36 36t-34 -35q-9 -35 -9 -118t9 -119q8 -36 34 -36t36 36q9 36 9 118t-9 118z" />
    <glyph glyph-name="uni044F" unicode="&#x44f;" horiz-adv-x="452" 
d="M402 0h-136v180q-31 -5 -46.5 -22.5t-28.5 -55.5l-34 -102h-147l49 126q23 61 72 83v5q-90 28 -90 121q0 79 32 123q37 50 156 50h173v-508zM181 346q0 -66 52 -66h33v130h-33q-52 0 -52 -64z" />
    <glyph glyph-name="uni0451" unicode="&#x451;" horiz-adv-x="433" 
d="M411 223h-241q4 -126 55 -126q24 0 35.5 17.5t16.5 57.5l131 -25q-15 -80 -58 -118.5t-125 -38.5q-195 0 -195 264q0 132 47 198t148 66q104 0 148.5 -73.5t37.5 -221.5zM171 319h99q-2 50 -12 71.5t-33 21.5q-26 0 -38 -22t-16 -71zM196 572h-81v99h81v-99zM346 572h-81
v99h81v-99z" />
    <glyph glyph-name="uni0452" unicode="&#x452;" horiz-adv-x="480" 
d="M57 577h-47v59h47v64h136v-64h109v-59h-109v-94h5q35 35 83 35q71 0 110 -45.5t39 -135.5v-201q-2 -139 -25 -212.5t-70 -102t-136 -30.5l6 106q37 1 53.5 16.5t25 64.5t10.5 158v180q0 32 -6 60q-7 32 -43 32q-28 -2 -40.5 -32t-11.5 -67v-309h-136v577z" />
    <glyph glyph-name="uni0453" unicode="&#x453;" horiz-adv-x="370" 
d="M186 0h-136v508h315v-110h-179v-398zM175 567l66 160h93l-97 -160h-62z" />
    <glyph glyph-name="uni0454" unicode="&#x454;" horiz-adv-x="426" 
d="M396 382l-128 -42q-3 39 -12 53.5t-34 14.5q-26 0 -37 -22.5t-13 -76.5h87v-96h-87q2 -62 12 -87.5t38 -25.5q27 0 36.5 18.5t14.5 74.5l132 -24q-10 -94 -52 -136.5t-131 -42.5q-192 0 -192 264t192 264q78 0 118 -32t56 -104z" />
    <glyph glyph-name="uni0455" unicode="&#x455;" horiz-adv-x="397" 
d="M356 401l-131 -32q-3 43 -35 43q-33 0 -33 -31q0 -25 37 -41l70 -34q113 -53 113 -157q0 -70 -51 -114.5t-136 -44.5q-166 0 -185 147l132 24q8 -65 58 -65t50 40q0 11 -10.5 22t-16 14.5t-20.5 11.5l-79 43q-93 47 -93 147q0 63 45 103.5t123 40.5q136 0 162 -117z" />
    <glyph glyph-name="uni0456" unicode="&#x456;" horiz-adv-x="259" 
d="M10 398v110h196v-508h-136v398h-60zM209 667v-107h-142v107h142z" />
    <glyph glyph-name="uni0457" unicode="&#x457;" horiz-adv-x="298" 
d="M10 398v110h196v-508h-136v398h-60zM248 572h-81v109h81v-109zM98 572h-81v109h81v-109z" />
    <glyph glyph-name="uni0458" unicode="&#x458;" horiz-adv-x="257" 
d="M-20 -204l6 111q14 -6 36 -6q47 0 47 61v436h-62v110h198v-567q0 -70 -44.5 -110t-126.5 -40q-22 0 -54 5zM207 668v-106h-140v106h140z" />
    <glyph glyph-name="uni0459" unicode="&#x459;" horiz-adv-x="626" 
d="M97 508h321v-184h43q84 0 119.5 -40.5t35.5 -120.5q0 -82 -35.5 -122.5t-119.5 -40.5h-179v398h-59q-3 -102 -17 -179q-25 -126 -95 -191q-41 -38 -89 -38l-12 124q52 9 77 153q8 43 9 90q1 18 1 42v55v54zM430 219h-12v-114h12q48 0 48 58q0 56 -48 56z" />
    <glyph glyph-name="uni045A" unicode="&#x45a;" horiz-adv-x="632" 
d="M186 0h-136v508h136v-184h103v184h136v-184h42q84 0 119.5 -40.5t35.5 -120.5q0 -82 -35.5 -122.5t-119.5 -40.5h-178v216h-103v-216zM436 219h-11v-114h11q48 0 48 58q0 56 -48 56z" />
    <glyph glyph-name="uni045B" unicode="&#x45b;" horiz-adv-x="480" 
d="M57 577h-47v59h47v64h136v-64h109v-59h-109v-94h4q35 35 84 35q71 0 110 -45.5t39 -135.5v-337h-136v316q0 32 -6 60q-7 32 -43 32q-52 0 -52 -114v-294h-136v577z" />
    <glyph glyph-name="uni045C" unicode="&#x45c;" horiz-adv-x="455" 
d="M50 0v508h136v-172h11l101 172h146l-72 -124l-56 -88v-5l45 -88l94 -203h-150l-105 227h-14v-227h-136zM215 567l66 160h93l-97 -160h-62z" />
    <glyph glyph-name="uni045E" unicode="&#x45e;" horiz-adv-x="418" 
d="M56 -199l6 110q16 -10 33 -10q31 0 42 39l16 63l-153 505h142l49 -160l23 -93h5l66 253h133l-142 -543q-20 -74 -47 -118q-34 -56 -117 -56q-27 0 -56 10zM219 574q-55 0 -87.5 33t-32.5 94h63q4 -51 57 -51q54 0 55 51h64q0 -61 -33 -94t-86 -33z" />
    <glyph glyph-name="uni045F" unicode="&#x45f;" horiz-adv-x="475" 
d="M182 0h-132v508h136v-398h103v398h136v-508h-133v-119h-110v119z" />
    <glyph glyph-name="uni0490" unicode="&#x490;" horiz-adv-x="402" 
d="M205 0h-145v700h208v146h124v-272h-187v-574z" />
    <glyph glyph-name="uni0491" unicode="&#x491;" horiz-adv-x="375" 
d="M186 0h-136v508h205v107h110v-217h-179v-398z" />
    <glyph glyph-name="uni1E02" unicode="&#x1e02;" horiz-adv-x="485" 
d="M60 0v700h196q117 0 154 -56q32 -49 32 -136q0 -46 -23 -83.5t-62 -46.5v-5q49 -9 78.5 -55t29.5 -105q0 -96 -35 -150q-42 -63 -173 -63h-197zM254 310h-49v-188h49q61 0 61 93q0 95 -61 95zM244 578h-39v-151h39q48 0 48 75q0 76 -48 76zM283 764h-81v99h81v-99z" />
    <glyph glyph-name="uni1E03" unicode="&#x1e03;" horiz-adv-x="473" 
d="M326 764h-81v99h81v-99zM50 700h136v-216h4q33 34 85 34q91 0 129.5 -64.5t38.5 -198.5t-38.5 -199.5t-128.5 -65.5q-65 0 -98 50h-4v-40h-124v700zM241 408q-27 0 -41 -30t-14 -71v-94q0 -34 9 -69q11 -44 46 -44t47.5 34.5t12.5 120.5t-12.5 119.5t-47.5 33.5z" />
    <glyph glyph-name="uni1E0A" unicode="&#x1e0a;" horiz-adv-x="519" 
d="M236 0h-176v700h177q96 -4 147.5 -38t72.5 -104q22 -75 22 -208q0 -134 -22 -208q-15 -48 -40 -76q-59 -66 -181 -66zM205 125h32q61 0 78 65q14 53 14 160q0 108 -14 160q-17 65 -78 65h-32v-450zM290 764h-81v99h81v-99z" />
    <glyph glyph-name="uni1E0B" unicode="&#x1e0b;" horiz-adv-x="473" 
d="M423 0h-124v40h-5q-33 -50 -97 -50q-90 0 -128.5 65.5t-38.5 199.5t38.5 198.5t129.5 64.5q51 0 84 -34h5v216h136v-700zM287 201v95q0 112 -55 112q-35 0 -47.5 -33.5t-12.5 -119.5t12.5 -120.5t47.5 -34.5q27 0 41 30t14 71zM228 764h-81v99h81v-99z" />
    <glyph glyph-name="uni1E1E" unicode="&#x1e1e;" horiz-adv-x="396" 
d="M206 298v-298h-146v700h336v-125h-190v-152h159v-125h-159zM278 764h-81v99h81v-99z" />
    <glyph glyph-name="uni1E1F" unicode="&#x1e1f;" horiz-adv-x="308" 
d="M226 764h-81v99h81v-99zM287 508v-110h-90v-398h-136v398h-51v110h51v64q0 63 38.5 100.5t105.5 37.5q44 0 93 -17l-6 -118q-22 25 -51 25q-44 0 -44 -57v-35h90z" />
    <glyph glyph-name="uni1E40" unicode="&#x1e40;" horiz-adv-x="636" 
d="M194 475l6 -94v-381h-140v700h194l44 -189l17 -94h5l18 94l44 189h194v-700h-140v381l6 94h-5l-63 -285h-112l-63 285h-5zM358 764h-81v99h81v-99z" />
    <glyph glyph-name="uni1E41" unicode="&#x1e41;" horiz-adv-x="658" 
d="M50 508h123v-41h5q34 51 89 51q79 0 108 -63h5q33 63 98 63t98 -44q32 -44 32 -138v-336h-136v317v36q0 23 -4 32q-12 23 -32 23q-40 0 -40 -90v-318h-135v317v36q0 23 -4 32q-9 23 -31 23q-40 0 -40 -90v-318h-136v508zM369 572h-81v99h81v-99z" />
    <glyph glyph-name="uni1E56" unicode="&#x1e56;" horiz-adv-x="485" 
d="M205 268v-268h-145v700h198q149 0 187 -87q20 -50 20 -129q0 -97 -35 -153q-41 -63 -173 -63h-52zM257 576h-52v-184h52q58 0 58 92t-58 92zM293 764h-81v99h81v-99z" />
    <glyph glyph-name="uni1E57" unicode="&#x1e57;" horiz-adv-x="473" 
d="M50 508h124v-40h4q35 50 98 50q90 0 128.5 -65.5t38.5 -199.5t-38.5 -198.5t-129.5 -64.5q-52 0 -85 34h-4v-233h-136v717zM241 408q-27 0 -41 -30t-14 -72v-94q0 -112 55 -112q35 0 47.5 33.5t12.5 119.5t-12.5 120.5t-47.5 34.5zM297 572h-81v99h81v-99z" />
    <glyph glyph-name="uni1E60" unicode="&#x1e60;" horiz-adv-x="450" 
d="M278 511q-6 42 -18.5 58.5t-39.5 16.5q-53 0 -53 -60q4 -48 47 -69l94 -55q65 -38 94 -85t28 -115q-2 -94 -58 -152q-58 -60 -156 -60q-94 0 -149 53.5t-65 149.5l135 26q1 -49 24 -77.5t57 -28.5q36 0 55 21t19 58q0 45 -42 71l-103 62q-118 70 -118 188q0 83 51 140
t140 57q79 0 127.5 -41.5t61.5 -115.5zM194 764h81v99h-81v-99z" />
    <glyph glyph-name="uni1E61" unicode="&#x1e61;" horiz-adv-x="397" 
d="M225 369q-3 43 -35 43q-33 0 -33 -31q0 -25 37 -41l70 -34q113 -53 113 -157q0 -70 -51 -114.5t-136 -44.5q-166 0 -185 147l132 24q8 -65 58 -65t50 40q0 11 -10.5 22t-16 14.5t-20.5 11.5l-79 43q-93 47 -93 147q0 63 45 103.5t123 40.5q136 0 162 -117zM158 572h81v99
h-81v-99z" />
    <glyph glyph-name="uni1E6A" unicode="&#x1e6a;" horiz-adv-x="385" 
d="M265 574v-574h-145v574h-115v126h375v-126h-115zM233 764h-81v99h81v-99z" />
    <glyph glyph-name="uni1E6B" unicode="&#x1e6b;" horiz-adv-x="302" 
d="M169 711h-81v99h81v-99zM198 645v-137h94v-110h-94v-240q0 -57 38 -57q25 0 46 25l6 -121q-43 -15 -82 -15q-68 0 -106 35.5t-38 98.5v274h-52v110h52v108z" />
    <glyph glyph-name="uni1E80" unicode="&#x1e80;" horiz-adv-x="572" 
d="M74 0l-74 700h141l32 -373l5 -93h5l8 94l22 187h147l22 -187l7 -94h5l6 94l31 372h141l-74 -700h-186l-19 248l-5 94h-5l-4 -94l-19 -248h-186zM263 759l-97 160h93l66 -160h-62z" />
    <glyph glyph-name="uni1E81" unicode="&#x1e81;" horiz-adv-x="508" 
d="M420 0h-134l-15 93l-14 93h-5l-14 -93l-15 -93h-134l-89 508h131l31 -184l12 -103h5l14 103l10 62h101l9 -62l15 -93h5l14 93l30 184h131zM241 567l-97 160h93l66 -160h-62z" />
    <glyph glyph-name="uni1E82" unicode="&#x1e82;" horiz-adv-x="572" 
d="M74 0l-74 700h141l32 -373l5 -93h5l8 94l22 187h147l22 -187l7 -94h5l6 94l31 372h141l-74 -700h-186l-19 248l-5 94h-5l-4 -94l-19 -248h-186zM256 759l66 160h93l-97 -160h-62z" />
    <glyph glyph-name="uni1E83" unicode="&#x1e83;" horiz-adv-x="508" 
d="M420 0h-134l-15 93l-14 93h-5l-14 -93l-15 -93h-134l-89 508h131l31 -184l12 -103h5l14 103l10 62h101l9 -62l15 -93h5l14 93l30 184h131zM226 567l66 160h93l-97 -160h-62z" />
    <glyph glyph-name="uni1E84" unicode="&#x1e84;" horiz-adv-x="572" 
d="M74 0l-74 700h141l32 -373l5 -93h5l8 94l22 187h147l22 -187l7 -94h5l6 94l31 372h141l-74 -700h-186l-19 248l-5 94h-5l-4 -94l-19 -248h-186zM251 764h-81v99h81v-99zM401 764h-81v99h81v-99z" />
    <glyph glyph-name="uni1E85" unicode="&#x1e85;" horiz-adv-x="508" 
d="M420 0h-134l-15 93l-14 93h-5l-14 -93l-15 -93h-134l-89 508h131l31 -184l12 -103h5l14 103l10 62h101l9 -62l15 -93h5l14 93l30 184h131zM219 572h-81v99h81v-99zM369 572h-81v99h81v-99z" />
    <glyph glyph-name="uni1EF2" unicode="&#x1ef2;" horiz-adv-x="433" 
d="M362 125v-125h-291v125h73v130l-144 445h151l42 -157l21 -94h5l22 94l42 157h150l-144 -445v-130h73zM194 759l-97 160h93l66 -160h-62z" />
    <glyph glyph-name="uni1EF3" unicode="&#x1ef3;" horiz-adv-x="418" 
d="M56 -199l6 110q16 -10 33 -10q31 0 42 39l16 63l-153 505h142l49 -160l23 -93h5l66 253h133l-142 -543q-20 -74 -47 -118q-34 -56 -117 -56q-27 0 -56 10zM189 567l-97 160h93l66 -160h-62z" />
    <glyph glyph-name="uni2013" unicode="&#x2013;" horiz-adv-x="475" 
d="M50 294h375v-92h-375v92z" />
    <glyph glyph-name="uni2014" unicode="&#x2014;" horiz-adv-x="835" 
d="M50 294h735v-92h-735v92z" />
    <glyph glyph-name="uni2018" unicode="&#x2018;" horiz-adv-x="203" 
d="M103 565h50v-137h-103v119q1 76 28.5 114.5t74.5 38.5v-61q-26 0 -37 -15t-13 -59z" />
    <glyph glyph-name="uni2019" unicode="&#x2019;" horiz-adv-x="203" 
d="M100 563h-50v137h103v-119q-1 -76 -28.5 -114.5t-74.5 -38.5v61q26 0 37 15t13 59z" />
    <glyph glyph-name="uni201A" unicode="&#x201a;" horiz-adv-x="203" 
d="M100 0h-50v137h103v-119q-1 -76 -28.5 -114.5t-74.5 -38.5v61q25 0 36.5 15.5t13.5 58.5z" />
    <glyph glyph-name="uni201C" unicode="&#x201c;" horiz-adv-x="361" 
d="M261 565h50v-137h-103v119q1 76 28.5 114.5t74.5 38.5v-61q-26 0 -37 -15t-13 -59zM101 565h52v-137h-103v119q1 76 28.5 114.5t74.5 38.5v-61q-26 0 -38 -15.5t-14 -58.5z" />
    <glyph glyph-name="uni201D" unicode="&#x201d;" horiz-adv-x="361" 
d="M100 563h-50v137h103v-119q-1 -76 -28.5 -114.5t-74.5 -38.5v61q26 0 37 15t13 59zM260 563h-52v137h103v-119q-1 -76 -28.5 -114.5t-74.5 -38.5v61q26 0 38 15.5t14 58.5z" />
    <glyph glyph-name="uni201E" unicode="&#x201e;" horiz-adv-x="361" 
d="M100 0h-50v137h103v-119q-1 -76 -28.5 -114.5t-74.5 -38.5v61q26 0 37 15t13 59zM260 0h-52v137h103v-119q-1 -76 -28.5 -114.5t-74.5 -38.5v61q26 0 38 15.5t14 58.5z" />
    <glyph glyph-name="uni2020" unicode="&#x2020;" horiz-adv-x="414" 
d="M140 700h134v-192h100v-102h-100v-492h-134v492h-100v102h100v192z" />
    <glyph glyph-name="uni2021" unicode="&#x2021;" horiz-adv-x="434" 
d="M150 700h134v-192h100v-102h-100v-160h100v-102h-100v-230h-134v230h-100v102h100v160h-100v102h100v192z" />
    <glyph glyph-name="uni2022" unicode="&#x2022;" horiz-adv-x="356" 
d="M88 255q-38 38 -38 90q0 53 38 91q37 37 90 37q52 0 90 -38t38 -90t-38 -90t-90 -38t-90 38z" />
    <glyph glyph-name="uni2026" unicode="&#x2026;" horiz-adv-x="625" 
d="M158 0h-108v144h108v-144zM367 0h-109v144h109v-144zM575 0h-108v144h108v-144z" />
    <glyph glyph-name="uni2030" unicode="&#x2030;" horiz-adv-x="966" 
d="M486 345q135 0 135 -178q0 -177 -135 -177q-134 0 -134 177q0 90 31.5 134t102.5 44zM486 262q-20 0 -26 -20t-6 -73q0 -55 6 -75.5t26 -20.5t26.5 19.5t6.5 74.5q0 56 -6.5 75.5t-26.5 19.5zM139 -26l332 753h64l-333 -753h-63zM184 700q135 0 135 -178
q0 -177 -135 -177q-134 0 -134 177q0 90 31.5 134t102.5 44zM184 617q-20 0 -26 -20t-6 -73q0 -55 6 -75.5t26 -20.5t26.5 19.5t6.5 74.5q0 56 -6.5 75.5t-26.5 19.5zM781 345q135 0 135 -178q0 -177 -135 -177q-134 0 -134 177q0 90 31.5 134t102.5 44zM781 262
q-20 0 -26 -20t-6 -73q0 -55 6 -75.5t26 -20.5t26.5 19.5t6.5 74.5q0 56 -6.5 75.5t-26.5 19.5z" />
    <glyph glyph-name="uni2039" unicode="&#x2039;" horiz-adv-x="340" 
d="M174 453h116l-111 -199l111 -199h-116l-124 199z" />
    <glyph glyph-name="uni203A" unicode="&#x203a;" horiz-adv-x="340" 
d="M50 55l111 199l-111 199h116l124 -199l-124 -199h-116z" />
    <glyph glyph-name="uni2044" unicode="&#x2044;" horiz-adv-x="397" 
d="M50 -26l236 753h61l-236 -753h-61z" />
    <glyph glyph-name="uni20AC" unicode="&#x20ac;" horiz-adv-x="525" 
d="M74 267h-43l16 58h24v46h-41l16 58h27q7 100 36 163q52 118 175 118q144 0 186 -166l-137 -33q-17 75 -49 75q-55 0 -64 -157h121l-16 -58h-107v-46h95l-18 -58h-75q9 -153 64 -153q30 0 49 67l138 -25q-15 -58 -37 -92q-51 -74 -150 -74q-60 0 -105.5 31t-69.5 86
q-27 63 -35 160z" />
    <glyph glyph-name="uni2113" unicode="&#x2113;" horiz-adv-x="313" 
d="M87 119v93l-38 -46l-49 39l87 109v215q0 105 31 146q29 34 87 34q48 0 73.5 -30.5t23.5 -82.5q-1 -44 -28 -105q-28 -61 -46 -87q-6 -9 -26.5 -37.5t-34.5 -49.5v-182q0 -45 14 -65t44 -20q39 0 63 12l15 -59q-35 -12 -89 -12q-61 0 -94 32.5t-33 95.5zM167 536v-108
q47 81 57 110q9 22 11 49t-8 50q-8 14 -26.5 13t-25.5 -23q-8 -26 -8 -91z" />
    <glyph glyph-name="uni2116" unicode="&#x2116;" horiz-adv-x="856" 
d="M668 622q82 0 120 -51.5t38 -155.5q0 -208 -158 -208q-155 0 -155 208q0 104 37.5 155.5t117.5 51.5zM668 536q-26 0 -35 -26t-9 -94q0 -70 9 -96.5t35 -26.5q28 0 37.5 26.5t9.5 95.5t-9.5 95t-37.5 26zM826 121h-313v47h313v-47zM223 700l113 -362h5l-5 94v268h139
v-700h-154l-112 360h-5l5 -94v-266h-139v700h153z" />
    <glyph glyph-name="uni2122" unicode="&#x2122;" horiz-adv-x="655" 
d="M373 564l4 -57v-231h-85v424h118l26 -114l11 -57h3l11 57l26 114h118v-424h-85v231l3 57h-3l-38 -173h-68l-38 173h-3zM207 624v-348h-87v348h-70v76h227v-76h-70z" />
    <glyph glyph-name="uni2126" unicode="&#x2126;" horiz-adv-x="631" 
d="M50 140l128 -22v35q-128 68 -128 256q0 131 72 216t194 85q124 0 194 -85q71 -86 71 -216q0 -185 -128 -256v-35l128 22v-140h-237v217q87 23 87 192q0 78 -31.5 127.5t-84.5 49.5q-51 0 -83 -49.5t-32 -127.5q0 -169 87 -191v-218h-237v140z" />
    <glyph glyph-name="uni212E" unicode="&#x212e;" horiz-adv-x="754" 
d="M714 351h-527v-238q77 -77 191 -77q162 0 251 158l47 -29q-120 -175 -298 -175q-145 0 -242 100q-96 99 -96 261q0 159 95 260q94 100 243 100q137 0 233 -90q98 -91 103 -270zM187 590v-192h383v192q-82 76 -193 76q-114 0 -190 -76z" />
    <glyph glyph-name="uni2202" unicode="&#x2202;" horiz-adv-x="459" 
d="M219 463q61 0 90 -50h5q2 32 2 42q0 68 -16 119q-16 52 -50 52q-42 0 -83 -77l-60 55q58 106 147 106q87 0 127 -106q28 -69 28 -176q0 -75 -15 -170q-10 -56 -25 -98q-64 -170 -183 -170q-45 0 -78 33t-45 80q-12 43 -12 88q0 89 37 173q19 44 53.5 71.5t77.5 27.5z
M291 254q-10 90 -36 116q-13 13 -30 13q-26 0 -44 -42q-19 -40 -25 -83q-6 -40 -6 -67t7 -69q9 -51 37 -51q56 0 97 183z" />
    <glyph glyph-name="uni2206" unicode="&#x2206;" horiz-adv-x="593" 
d="M543 0h-493l246 724zM279 507l-151 -440h300z" />
    <glyph glyph-name="uni220F" unicode="&#x220f;" horiz-adv-x="546" 
d="M496 700v-909h-96v825h-254v-825h-96v909h446z" />
    <glyph glyph-name="uni2211" unicode="&#x2211;" horiz-adv-x="517" 
d="M431 700v-85h-260l197 -226l-214 -303h313v-86h-417v86l204 289l-204 236v89h381z" />
    <glyph glyph-name="uni2212" unicode="&#x2212;" horiz-adv-x="481" 
d="M50 401h381v-102h-381v102z" />
    <glyph glyph-name="uni221A" unicode="&#x221a;" horiz-adv-x="739" 
d="M127 309l41 -167l301 726h220v-82h-192l-360 -871l-87 368z" />
    <glyph glyph-name="uni221E" unicode="&#x221e;" horiz-adv-x="703" 
d="M388 366q37 -64 72 -90q22 -19 46 -19q29 0 51.5 30.5t22.5 78.5q0 47 -22.5 79t-51.5 32q-43 0 -84 -58q-18 -26 -34 -53zM506 184q-43 0 -79 30.5t-74 91.5q-74 -125 -153 -125q-66 0 -108 50.5t-42 134.5q0 83 42 133.5t108 50.5q78 0 153 -125q38 62 74 93.5t79 31.5
q62 0 105 -51q42 -51 42 -133t-42 -132q-44 -50 -105 -50zM200 253q35 0 66 37q25 30 53 76q-34 56 -61.5 83.5t-57.5 27.5q-31 0 -53.5 -30.5t-22.5 -80.5q0 -51 22 -81.5t54 -31.5z" />
    <glyph glyph-name="uni222B" unicode="&#x222b;" horiz-adv-x="490" 
d="M201 -44v653q0 69 36.5 105t103.5 36q63 0 99 -13l-17 -71q-25 13 -69 13q-34 0 -49.5 -22t-15.5 -72v-653q0 -69 -36.5 -105t-103.5 -36q-63 0 -99 13l17 71q25 -13 69 -13q34 0 49.5 22t15.5 72z" />
    <glyph glyph-name="uni2248" unicode="&#x2248;" horiz-adv-x="483" 
d="M52 355v115q45 51 104 51q44 0 100 -38q19 -14 29 -20q3 -2 13 -8q14 -9 30 -9q59 0 105 64v-115q-45 -51 -105 -51q-41 0 -99 38q-2 2 -14.5 10.5t-14.5 10.5q-2 1 -6 3.5t-7 3.5q-15 9 -30 9q-59 0 -105 -64zM50 175v115q45 51 104 51q44 0 100 -38q19 -14 29 -20
q3 -2 13 -8q14 -9 30 -9q59 0 105 64v-115q-45 -51 -105 -51q-41 0 -99 38q-2 2 -14.5 10.5t-14.5 10.5q-2 1 -6 3.5t-7 3.5q-15 9 -30 9q-59 0 -105 -64z" />
    <glyph glyph-name="uni2260" unicode="&#x2260;" horiz-adv-x="481" 
d="M253 281h178v-102h-211l-58 -179h-70l58 179h-100v102h133l45 138h-178v102h211l58 179h70l-58 -179h100v-102h-133z" />
    <glyph glyph-name="uni2264" unicode="&#x2264;" horiz-adv-x="498" 
d="M50 424l398 162v-110l-264 -107l264 -106v-111l-398 162v110zM447 0h-397v102h397v-102z" />
    <glyph glyph-name="uni2265" unicode="&#x2265;" horiz-adv-x="498" 
d="M51 102h397v-102h-397v102zM314 369l-264 107v110l398 -162v-110l-398 -162v111z" />
    <glyph glyph-name="uni25CA" unicode="&#x25ca;" horiz-adv-x="578" 
d="M288 724l240 -465l-239 -469l-239 469zM113 258l176 -347l178 348l-179 344z" />
    <glyph glyph-name="uniFB01" unicode="&#xfb01;" horiz-adv-x="504" 
d="M197 543v-35h254v-508h-136v397h-118v-397h-136v397h-51v111h51v64q0 63 38.5 100.5t105.5 37.5q44 0 93 -17l-6 -118q-22 25 -51 25q-44 0 -44 -57zM454 667v-107h-142v107h142z" />
    <glyph glyph-name="uniFB02" unicode="&#xfb02;" horiz-adv-x="501" 
d="M61 508v64q0 63 38.5 100.5t105.5 37.5h246v-710h-136v600h-74q-44 0 -44 -57v-35h90v-111h-90v-397h-136v397h-51v111h51z" />
    <glyph glyph-name="null" horiz-adv-x="0" 
 />
    <glyph glyph-name="commaaccent.titling" horiz-adv-x="203" 
d="M101 -159h-51v119h103v-101q-1 -135 -103 -135v50q30 0 40.5 14t10.5 53z" />
    </font>
</defs>
</svg>
