<?xml version="1.0" encoding="iso-8859-1"?>
<!-- Generator: Adobe Illustrator 19.0.0, SVG Export Plug-In . SVG Version: 6.00 Build 0)  -->
<svg version="1.1" id="Capa_1" xmlns="http://www.w3.org/2000/svg" xmlns:xlink="http://www.w3.org/1999/xlink" x="0px" y="0px"
	 viewBox="0 0 512 512" style="enable-background:new 0 0 512 512;" xml:space="preserve">
<g>
	<g>
		<path d="M511.993,255.639H50.022V82.556c0-28.979,23.577-52.555,52.556-52.555c26.838,0,49.026,20.224,52.161,46.23
			c-31.24,7.036-54.651,34.987-54.651,68.321v20.004h140.091v-20.004c0-33.574-23.748-61.692-55.323-68.476
			C181.536,33.575,145.916,0,102.578,0C57.056,0,20.021,37.034,20.021,82.556v173.083H0.005v90.05h20.016v41.259
			c0,47.682,35.043,87.329,80.727,94.549V512h30.001v-29.325h250.5V512h30.001v-30.503c45.684-7.22,80.727-46.867,80.727-94.549
			v-41.259h20.017v-90.05H511.993z M170.132,104.506c18.63,0,34.331,12.788,38.783,30.049h-77.565
			C135.802,117.295,151.502,104.506,170.132,104.506z M461.976,386.948h-0.001c0,36.242-29.485,65.727-65.727,65.727h-280.5
			c-36.242,0-65.727-29.485-65.727-65.727v-41.259h411.954V386.948z M481.993,315.688L481.993,315.688H30.006V285.64h451.987
			V315.688z"/>
	</g>
</g>
<g>
</g>
<g>
</g>
<g>
</g>
<g>
</g>
<g>
</g>
<g>
</g>
<g>
</g>
<g>
</g>
<g>
</g>
<g>
</g>
<g>
</g>
<g>
</g>
<g>
</g>
<g>
</g>
<g>
</g>
</svg>
