<?xml version="1.0" encoding="iso-8859-1"?>
<!-- Generator: Adobe Illustrator 19.0.0, SVG Export Plug-In . SVG Version: 6.00 Build 0)  -->
<svg version="1.1" id="Capa_1" xmlns="http://www.w3.org/2000/svg" xmlns:xlink="http://www.w3.org/1999/xlink" x="0px" y="0px"
	 viewBox="0 0 512 512" style="enable-background:new 0 0 512 512;" xml:space="preserve">
<g>
	<g>
		<path d="M413.384,223.05V0H98.617v223.05H66.887v39.792c0,71.967,45.714,133.457,109.628,156.96L153.85,512H358.15l-22.665-92.197
			c63.914-23.503,109.628-84.993,109.628-156.96V223.05H413.384z M128.618,30.001h254.764v30.049H128.618V30.001z M128.618,90.052
			h254.764V223.05H128.618V90.052z M192.119,481.999l13.384-54.44c9.28,1.604,18.817,2.449,28.549,2.449h43.897
			c9.731,0,19.269-0.845,28.549-2.449l13.383,54.44H192.119z M277.948,400.007h-43.897c-57.9,0-107.536-36.062-127.628-86.904
			h299.152C385.485,363.945,335.849,400.007,277.948,400.007z M415.112,262.842c0,6.882-0.516,13.646-1.499,20.259H98.387
			c-0.983-6.613-1.499-13.377-1.499-20.259v-9.79h318.224V262.842z"/>
	</g>
</g>
<g>
</g>
<g>
</g>
<g>
</g>
<g>
</g>
<g>
</g>
<g>
</g>
<g>
</g>
<g>
</g>
<g>
</g>
<g>
</g>
<g>
</g>
<g>
</g>
<g>
</g>
<g>
</g>
<g>
</g>
</svg>
