<?xml version="1.0" encoding="iso-8859-1"?>
<!-- Generator: Adobe Illustrator 19.0.0, SVG Export Plug-In . SVG Version: 6.00 Build 0)  -->
<svg version="1.1" id="Capa_1" xmlns="http://www.w3.org/2000/svg" xmlns:xlink="http://www.w3.org/1999/xlink" x="0px" y="0px"
	 viewBox="0 0 511.999 511.999" style="enable-background:new 0 0 511.999 511.999;" xml:space="preserve">
<g>
	<g>
		<path d="M364.989,219.984v-30.048h49.748v-30.001h-79.75v60.051h-63.987V61.995C271,44.354,285.353,30.002,302.994,30.002
			s31.993,14.353,31.993,31.993v37.99h30.001v-37.99C364.989,27.812,337.178,0,302.994,0c-34.185,0-61.995,27.811-61.995,61.995
			v157.989h-63.987v-60.051h-79.75v30.001h49.748v30.049H0v36.207c0,91.496,74.438,165.933,165.934,165.933h45.039v44.848
			c0,24.827,20.199,45.026,45.026,45.026s45.026-20.199,45.026-45.026v-44.848h45.039c91.496,0,165.934-74.437,165.934-165.933
			v-36.207H364.989z M271.026,466.973L271.026,466.973c-0.001,8.284-6.741,15.025-15.026,15.025c-8.284,0-15.025-6.74-15.025-15.025
			v-44.848h30.05V466.973z M481.999,256.192c0,74.953-60.98,135.932-135.933,135.932H165.934
			c-74.953,0-135.933-60.979-135.933-135.932v-6.205h451.997V256.192z"/>
	</g>
</g>
<g>
</g>
<g>
</g>
<g>
</g>
<g>
</g>
<g>
</g>
<g>
</g>
<g>
</g>
<g>
</g>
<g>
</g>
<g>
</g>
<g>
</g>
<g>
</g>
<g>
</g>
<g>
</g>
<g>
</g>
</svg>
