<svg id="Capa_1" data-name="Capa 1" xmlns="http://www.w3.org/2000/svg" viewBox="0 0 512 512"><defs><style>.cls-1{fill:#d25a57;}</style></defs><title>item-2</title><path class="cls-1" d="M365,220v-30h49.75v-30H335V220H271V62a32,32,0,1,1,64,0v38h30V62a62,62,0,0,0-124,0V220H177v-60H97.26v30H147v30H0v36.21c0,91.5,74.44,165.93,165.93,165.93h45V467A45,45,0,1,0,301,467V422.12h45c91.5,0,165.94-74.43,165.94-165.93V220ZM271,467h0a15,15,0,1,1-30,0V422.13h30V467ZM482,256.19c0,74.95-61,135.93-135.93,135.93H165.93C91,392.12,30,331.14,30,256.19V250H482v6.2Z"/></svg>