<svg id="Capa_1" data-name="Capa 1" xmlns="http://www.w3.org/2000/svg" viewBox="0 0 378.23 512"><defs><style>.cls-1{fill:#d25a57;}</style></defs><title>item-1</title><path class="cls-1" d="M413.38,223.05V0H98.62V223.05H66.89v39.79c0,72,45.71,133.46,109.62,157L153.85,512h204.3l-22.67-92.2c63.92-23.5,109.63-85,109.63-157V223.05ZM128.62,30H383.38V60.05H128.62Zm0,60.05H383.38v133H128.62Zm63.5,392,13.38-54.44A167.94,167.94,0,0,0,234.05,430H278a167.94,167.94,0,0,0,28.55-2.45L319.88,482ZM278,400h-43.9A137.4,137.4,0,0,1,106.42,313.1H405.58A137.39,137.39,0,0,1,278,400ZM415.11,262.84a136.77,136.77,0,0,1-1.5,20.26H98.39a136.77,136.77,0,0,1-1.5-20.26v-9.79H415.11Z" transform="translate(-66.89)"/></svg>