<svg id="Слой_1" data-name="Слой 1" xmlns="http://www.w3.org/2000/svg" viewBox="0 0 411.2 508.1"><defs><style>.cls-1{fill:#d25a57;}</style></defs><title>item-6</title><g id="Слой_2" data-name="Слой 2"><g id="Capa_1" data-name="Capa 1"><path class="cls-1" d="M282,1.5c-70.5,0-128,56.1-130.5,126A163.09,163.09,0,0,0,1.51,286c-.1,3.8,0,14.5,14.1,14.5H315c13.9,0,14.2-10.7,14.1-14.5-2.5-84.4-67-151.4-149.5-158.4a102.5,102.5,0,0,1,204.9,4.8V495.5a14.1,14.1,0,1,0,28.2,0h0V132.3C412.71,60.2,354.11,1.5,282,1.5Zm17.7,270.8H30.91a135.66,135.66,0,0,1,268.8,0Z" transform="translate(-1.5 -1.5)"/><path class="cls-1" d="M128.81,456.2a14.08,14.08,0,0,0-14.1,14.06V495.4a14.1,14.1,0,1,0,28.2,0V470.3a14.08,14.08,0,0,0-14.06-14.1Z" transform="translate(-1.5 -1.5)"/><path class="cls-1" d="M201.81,456.2a14.08,14.08,0,0,0-14.1,14.06V495.4a14.1,14.1,0,0,0,28.2,0V470.3a14.08,14.08,0,0,0-14.06-14.1Z" transform="translate(-1.5 -1.5)"/><path class="cls-1" d="M92.31,384.4a14.08,14.08,0,0,0-14.1,14.06v25a14.1,14.1,0,1,0,28.2,0v-25a14.08,14.08,0,0,0-14.06-14.1Z" transform="translate(-1.5 -1.5)"/><path class="cls-1" d="M165.31,384.4a14.08,14.08,0,0,0-14.1,14.06v25a14.1,14.1,0,0,0,28.2,0v-25a14.08,14.08,0,0,0-14.06-14.1Z" transform="translate(-1.5 -1.5)"/><path class="cls-1" d="M238.31,384.4a14.08,14.08,0,0,0-14.1,14.06v25a14.1,14.1,0,0,0,28.2,0v-25A14.15,14.15,0,0,0,238.31,384.4Z" transform="translate(-1.5 -1.5)"/><path class="cls-1" d="M55.81,312.5a14.08,14.08,0,0,0-14.1,14.06V351.7a14.1,14.1,0,1,0,28.2,0h0V326.6A14,14,0,0,0,56,312.5Z" transform="translate(-1.5 -1.5)"/><path class="cls-1" d="M128.81,312.5a14.08,14.08,0,0,0-14.1,14.06V351.7a14.1,14.1,0,1,0,28.2,0h0V326.6a14.08,14.08,0,0,0-14.06-14.1Z" transform="translate(-1.5 -1.5)"/><path class="cls-1" d="M201.81,312.5a14.08,14.08,0,0,0-14.1,14.06V351.7a14.1,14.1,0,0,0,28.2,0V326.6a14.08,14.08,0,0,0-14.06-14.1Z" transform="translate(-1.5 -1.5)"/><path class="cls-1" d="M274.71,312.5a14.08,14.08,0,0,0-14.1,14.06V351.7a14.1,14.1,0,0,0,28.2,0h0V326.6a14.08,14.08,0,0,0-14.06-14.1Z" transform="translate(-1.5 -1.5)"/></g></g></svg>