<svg id="Capa_1" data-name="Capa 1" xmlns="http://www.w3.org/2000/svg" viewBox="0 0 479.36 512"><defs><style>.cls-1{fill:#d25a57;}</style></defs><title>item-4</title><path class="cls-1" d="M402.5,0V23.47H366.57c-89.19,0-161.75,72.55-161.75,161.74v35.94H181.36v93.17h23.46v35.93a26.76,26.76,0,1,1-53.51,0V0h-135V350.25C16.32,439.44,88.88,512,178.07,512s161.75-72.56,161.75-161.75V314.32h23.46V221.14H339.82V185.21a26.79,26.79,0,0,1,26.75-26.76h35.94v23.47h93.17V0ZM309.81,350.25c0,72.65-59.1,131.75-131.74,131.75S46.32,422.9,46.32,350.25V30h75V350.25a56.76,56.76,0,0,0,113.52,0V314.32h75v35.93Zm23.47-65.93H211.36V251.15H333.28Zm69.23-155.87H366.57a56.83,56.83,0,0,0-56.76,56.76v35.94h-75V185.21c0-72.64,59.1-131.74,131.74-131.74H402.5v75Zm63.17,23.47H432.5V30h33.18Z" transform="translate(-16.32)"/></svg>