<svg id="Capa_1" data-name="Capa 1" xmlns="http://www.w3.org/2000/svg" viewBox="0 0 511.99 512"><defs><style>.cls-1{fill:#d25a57;}</style></defs><title>item-3</title><path class="cls-1" d="M512,255.64H50V82.56a52.55,52.55,0,0,1,104.72-6.33,70.16,70.16,0,0,0-54.65,68.32v20H240.18v-20a70.16,70.16,0,0,0-55.32-68.47A82.55,82.55,0,0,0,20,82.56V255.64H0v90.05H20V387a95.88,95.88,0,0,0,80.73,94.55V512h30V482.67h250.5V512h30V481.5A95.89,95.89,0,0,0,492,387V345.69h20V255.64ZM170.13,104.51a40.13,40.13,0,0,1,38.79,30H131.35A40.11,40.11,0,0,1,170.13,104.51ZM462,387h0a65.8,65.8,0,0,1-65.73,65.72H115.75A65.8,65.8,0,0,1,50,387V345.69H462V387Zm20-71.26H30V285.64H482Z" transform="translate(0)"/></svg>