<svg xmlns="http://www.w3.org/2000/svg" viewBox="0 0 414.21 511.1"><defs><style>.cls-1{stroke:#000;stroke-miterlimit:10;stroke-width:3px;}</style></defs><title>shower</title><g id="Слой_2" data-name="Слой 2"><g id="Capa_1" data-name="Capa 1"><path class="cls-1" d="M282,1.5c-70.5,0-128,56.1-130.5,126C68.81,134.3,4,201.5,1.51,286c-.1,3.8,0,14.5,14.1,14.5H315c13.9,0,14.2-10.7,14.1-14.5-2.5-84.4-67-151.4-149.5-158.4a102.5,102.5,0,0,1,204.9,4.8V495.5a14.1,14.1,0,1,0,28.2,0V132.3C412.71,60.2,354.11,1.5,282,1.5Zm17.7,270.8H30.91a135.66,135.66,0,0,1,268.8,0Z"/><path class="cls-1" d="M128.81,456.2a14.08,14.08,0,0,0-14.1,14.1v25.1a14.1,14.1,0,1,0,28.2,0V470.3A14.08,14.08,0,0,0,128.81,456.2Z"/><path class="cls-1" d="M201.81,456.2a14.08,14.08,0,0,0-14.1,14.1v25.1a14.1,14.1,0,0,0,28.2,0V470.3A14.08,14.08,0,0,0,201.81,456.2Z"/><path class="cls-1" d="M92.31,384.4a14.08,14.08,0,0,0-14.1,14.1v25a14.1,14.1,0,1,0,28.2,0v-25A14.08,14.08,0,0,0,92.31,384.4Z"/><path class="cls-1" d="M165.31,384.4a14.08,14.08,0,0,0-14.1,14.1v25a14.1,14.1,0,0,0,28.2,0v-25A14.08,14.08,0,0,0,165.31,384.4Z"/><path class="cls-1" d="M238.31,384.4a14.08,14.08,0,0,0-14.1,14.1v25a14.1,14.1,0,0,0,28.2,0v-25A14.15,14.15,0,0,0,238.31,384.4Z"/><path class="cls-1" d="M55.81,312.5a14.08,14.08,0,0,0-14.1,14.1v25.1a14.1,14.1,0,1,0,28.2,0V326.6A14,14,0,0,0,55.81,312.5Z"/><path class="cls-1" d="M128.81,312.5a14.08,14.08,0,0,0-14.1,14.1v25.1a14.1,14.1,0,1,0,28.2,0V326.6A14.08,14.08,0,0,0,128.81,312.5Z"/><path class="cls-1" d="M201.81,312.5a14.08,14.08,0,0,0-14.1,14.1v25.1a14.1,14.1,0,0,0,28.2,0V326.6A14.08,14.08,0,0,0,201.81,312.5Z"/><path class="cls-1" d="M274.71,312.5a14.08,14.08,0,0,0-14.1,14.1v25.1a14.1,14.1,0,0,0,28.2,0V326.6A14.08,14.08,0,0,0,274.71,312.5Z"/></g></g></svg>