<?xml version="1.0" encoding="utf-8"?>
<!-- Generator: Adobe Illustrator 17.1.0, SVG Export Plug-In . SVG Version: 6.00 Build 0)  -->
<!DOCTYPE svg PUBLIC "-//W3C//DTD SVG 1.1//EN" "http://www.w3.org/Graphics/SVG/1.1/DTD/svg11.dtd">
<svg version="1.1" id="Layer_1" xmlns="http://www.w3.org/2000/svg" xmlns:xlink="http://www.w3.org/1999/xlink" x="0px" y="0px"
	 viewBox="0 0 40 40" enable-background="new 0 0 40 40" xml:space="preserve">
<path fill="#444444" d="M25.4,27.5c0,0-1.2,0.1-0.8,0.8c0.3,0.7,5.2,5,5.5,6.2c0.3,1.2,0.8,1.6-0.8,3.2c-1.6,1.5-2.8,1.2-5.5-1.5
	c-2.6-2.8-3.9-3.9-3.9-3.9s-1.3,1.2-3.9,3.9c-2.6,2.8-3.9,3.1-5.5,1.5c-1.6-1.5-1.1-1.8-0.8-3.2c0.3-1.2,5.2-5.6,5.5-6.2
	c0.3-0.7-0.8-0.8-0.8-0.8C7,26.6,9,22,9,22c1.8-2.8,4.8-0.8,4.8-0.8c3,2.1,6.3,1.5,6.3,1.5s3.3,0.5,6.3-1.5c0,0,2.8-2.1,4.8,0.8
	C31,22,33,26.6,25.4,27.5z M19.9,19.9c-5.1,0-9.2-4.2-9.2-9.2s4.2-9.2,9.2-9.2s9.2,4.2,9.2,9.2S25,19.9,19.9,19.9z M19.9,6.8
	c-2.2,0-3.8,1.7-3.8,3.8s1.7,3.8,3.8,3.8s3.8-1.7,3.8-3.8S22.1,6.8,19.9,6.8z"/>
</svg>
